G04 #@! TF.GenerationSoftware,KiCad,Pcbnew,10.0.4*
G04 #@! TF.CreationDate,2026-07-30T11:54:06+03:00*
G04 #@! TF.ProjectId,smartlada_revB,736d6172-746c-4616-9461-5f726576422e,rev?*
G04 #@! TF.SameCoordinates,PX33365a0PY8917370*
G04 #@! TF.FileFunction,Soldermask,Top*
G04 #@! TF.FilePolarity,Negative*
%FSLAX46Y46*%
G04 Gerber Fmt 4.6, Leading zero omitted, Abs format (unit mm)*
G04 Created by KiCad (PCBNEW 10.0.4) date 2026-07-30 11:54:06*
%MOMM*%
%LPD*%
G01*
G04 APERTURE LIST*
G04 Aperture macros list*
%AMRoundRect*
0 Rectangle with rounded corners*
0 $1 Rounding radius*
0 $2 $3 $4 $5 $6 $7 $8 $9 X,Y pos of 4 corners*
0 Add a 4 corners polygon primitive as box body*
4,1,4,$2,$3,$4,$5,$6,$7,$8,$9,$2,$3,0*
0 Add four circle primitives for the rounded corners*
1,1,$1+$1,$2,$3*
1,1,$1+$1,$4,$5*
1,1,$1+$1,$6,$7*
1,1,$1+$1,$8,$9*
0 Add four rect primitives between the rounded corners*
20,1,$1+$1,$2,$3,$4,$5,0*
20,1,$1+$1,$4,$5,$6,$7,0*
20,1,$1+$1,$6,$7,$8,$9,0*
20,1,$1+$1,$8,$9,$2,$3,0*%
G04 Aperture macros list end*
%ADD10RoundRect,0.250000X1.100000X-0.412500X1.100000X0.412500X-1.100000X0.412500X-1.100000X-0.412500X0*%
%ADD11RoundRect,0.250000X0.574524X0.097227X0.097227X0.574524X-0.574524X-0.097227X-0.097227X-0.574524X0*%
%ADD12RoundRect,0.150000X-0.512500X-0.150000X0.512500X-0.150000X0.512500X0.150000X-0.512500X0.150000X0*%
%ADD13RoundRect,0.102000X-0.749300X0.749300X-0.749300X-0.749300X0.749300X-0.749300X0.749300X0.749300X0*%
%ADD14C,1.702600*%
%ADD15R,0.939800X2.743200*%
%ADD16R,5.562600X6.096000*%
%ADD17RoundRect,0.102000X-0.450000X0.750000X-0.450000X-0.750000X0.450000X-0.750000X0.450000X0.750000X0*%
%ADD18RoundRect,0.102000X-0.400000X0.400000X-0.400000X-0.400000X0.400000X-0.400000X0.400000X0.400000X0*%
%ADD19RoundRect,0.237500X0.300000X0.237500X-0.300000X0.237500X-0.300000X-0.237500X0.300000X-0.237500X0*%
%ADD20RoundRect,0.250000X0.350000X0.450000X-0.350000X0.450000X-0.350000X-0.450000X0.350000X-0.450000X0*%
%ADD21RoundRect,0.090000X-0.360000X0.660000X-0.360000X-0.660000X0.360000X-0.660000X0.360000X0.660000X0*%
%ADD22RoundRect,0.250000X0.450000X-0.350000X0.450000X0.350000X-0.450000X0.350000X-0.450000X-0.350000X0*%
%ADD23R,2.641600X7.289800*%
%ADD24R,2.743200X0.939800*%
%ADD25R,6.096000X5.562600*%
%ADD26RoundRect,0.250000X-0.550000X0.550000X-0.550000X-0.550000X0.550000X-0.550000X0.550000X0.550000X0*%
%ADD27C,1.600000*%
%ADD28RoundRect,0.250000X-0.450000X0.350000X-0.450000X-0.350000X0.450000X-0.350000X0.450000X0.350000X0*%
%ADD29RoundRect,0.250000X-0.412500X-1.100000X0.412500X-1.100000X0.412500X1.100000X-0.412500X1.100000X0*%
%ADD30RoundRect,0.249999X-0.850001X0.850001X-0.850001X-0.850001X0.850001X-0.850001X0.850001X0.850001X0*%
%ADD31C,2.200000*%
%ADD32RoundRect,0.102000X0.749300X-0.749300X0.749300X0.749300X-0.749300X0.749300X-0.749300X-0.749300X0*%
%ADD33C,2.700000*%
%ADD34C,3.000000*%
%ADD35RoundRect,0.250000X-1.050000X1.050000X-1.050000X-1.050000X1.050000X-1.050000X1.050000X1.050000X0*%
%ADD36C,2.600000*%
%ADD37RoundRect,0.162500X0.162500X-0.617500X0.162500X0.617500X-0.162500X0.617500X-0.162500X-0.617500X0*%
%ADD38RoundRect,0.102000X0.714000X0.714000X-0.714000X0.714000X-0.714000X-0.714000X0.714000X-0.714000X0*%
%ADD39C,1.632000*%
%ADD40C,3.550000*%
%ADD41C,3.200000*%
%ADD42RoundRect,0.250000X0.412500X1.100000X-0.412500X1.100000X-0.412500X-1.100000X0.412500X-1.100000X0*%
%ADD43R,1.700000X1.700000*%
%ADD44C,1.700000*%
%ADD45RoundRect,0.250000X-0.350000X-0.450000X0.350000X-0.450000X0.350000X0.450000X-0.350000X0.450000X0*%
%ADD46RoundRect,0.237500X-0.300000X-0.237500X0.300000X-0.237500X0.300000X0.237500X-0.300000X0.237500X0*%
G04 APERTURE END LIST*
D10*
X27800000Y62587500D03*
X27800000Y65712500D03*
D11*
X25083623Y55866377D03*
X23616377Y57333623D03*
D12*
X33907900Y65100000D03*
X33907900Y64150000D03*
X33907900Y63200000D03*
X36182900Y63200000D03*
X36182900Y64150000D03*
X36182900Y65100000D03*
D13*
X59435200Y41401200D03*
D14*
X59435200Y34898800D03*
X54939400Y41401200D03*
X54939400Y34898800D03*
D15*
X22214000Y53576000D03*
D16*
X19928000Y46794200D03*
D15*
X17642000Y53576000D03*
D17*
X81230000Y50350000D03*
X79960000Y50350000D03*
X78690000Y50350000D03*
X77420000Y50350000D03*
X76150000Y50350000D03*
X74880000Y50350000D03*
X73610000Y50350000D03*
X72340000Y50350000D03*
X71070000Y50350000D03*
X69800000Y50350000D03*
X68530000Y50350000D03*
X67260000Y50350000D03*
X65990000Y50350000D03*
X64720000Y50350000D03*
X64720000Y32850000D03*
X65990000Y32850000D03*
X67260000Y32850000D03*
X68530000Y32850000D03*
X69800000Y32850000D03*
X71070000Y32850000D03*
X72340000Y32850000D03*
X73610000Y32850000D03*
X74880000Y32850000D03*
X76150000Y32850000D03*
X77420000Y32850000D03*
X78690000Y32850000D03*
X79960000Y32850000D03*
X81230000Y32850000D03*
D18*
X76760000Y44355000D03*
X76760000Y43105000D03*
X76760000Y41855000D03*
X75510000Y44355000D03*
X75510000Y43105000D03*
X75510000Y41855000D03*
X74260000Y44355000D03*
X74260000Y43105000D03*
X74260000Y41855000D03*
D19*
X36170400Y66750000D03*
X34445400Y66750000D03*
D20*
X57950000Y49900000D03*
X55950000Y49900000D03*
D21*
X52040000Y54740000D03*
X48740000Y54740000D03*
X48740000Y49840000D03*
X52040000Y49840000D03*
D22*
X12250000Y57150000D03*
X12250000Y59150000D03*
D23*
X39232000Y58150000D03*
X34583800Y58150000D03*
D24*
X14746700Y62264000D03*
D25*
X7964900Y64550000D03*
D24*
X14746700Y66836000D03*
D26*
X19000000Y60250000D03*
D27*
X19000000Y57750000D03*
D28*
X38200000Y67350000D03*
X38200000Y65350000D03*
D20*
X62500000Y21400000D03*
X60500000Y21400000D03*
D29*
X79975000Y53900000D03*
X83100000Y53900000D03*
D30*
X32414000Y32856000D03*
D31*
X32414000Y30316000D03*
X32414000Y27776000D03*
X32414000Y25236000D03*
X32414000Y22696000D03*
D32*
X46864800Y34898800D03*
D14*
X46864800Y41401200D03*
X51360600Y34898800D03*
X51360600Y41401200D03*
D33*
X7900000Y40300000D03*
D34*
X7900000Y29050000D03*
X7900000Y51550000D03*
D35*
X7900000Y17850000D03*
D36*
X7900000Y12850000D03*
D22*
X66550000Y56350000D03*
X66550000Y58350000D03*
D19*
X81622500Y59780000D03*
X79897500Y59780000D03*
D37*
X62200000Y57000000D03*
X63150000Y57000000D03*
X64100000Y57000000D03*
X64100000Y59700000D03*
X63150000Y59700000D03*
X62200000Y59700000D03*
D38*
X52750000Y63040000D03*
D39*
X55250000Y63040000D03*
X55250000Y65040000D03*
D40*
X60020000Y67750000D03*
D39*
X52750000Y65040000D03*
D40*
X47980000Y67750000D03*
D20*
X77837500Y53650000D03*
X75837500Y53650000D03*
D41*
X3800000Y75250000D03*
D42*
X45262500Y59150000D03*
X42137500Y59150000D03*
D41*
X3800000Y3750000D03*
D43*
X66110000Y63200000D03*
D44*
X68650000Y63200000D03*
X71189999Y63200000D03*
X73730000Y63200000D03*
X76270000Y63200000D03*
X78810000Y63200000D03*
X81350000Y63200000D03*
X83890001Y63200000D03*
D41*
X87300000Y75250000D03*
D10*
X31007900Y62567699D03*
X31007900Y65692699D03*
D42*
X45262500Y55850000D03*
X42137500Y55850000D03*
D41*
X87300000Y3750000D03*
D15*
X22214000Y12876000D03*
D16*
X19928000Y6094200D03*
D15*
X17642000Y12876000D03*
D45*
X62150000Y54000000D03*
X64150000Y54000000D03*
D20*
X61450000Y31500000D03*
X59450000Y31500000D03*
D15*
X22214000Y40009333D03*
D16*
X19928000Y33227533D03*
D15*
X17642000Y40009333D03*
D46*
X79897500Y57480000D03*
X81622500Y57480000D03*
D45*
X55950000Y52900000D03*
X57950000Y52900000D03*
D15*
X22214000Y26442667D03*
D16*
X19928000Y19660867D03*
D15*
X17642000Y26442667D03*
D20*
X40200000Y63350000D03*
X38200000Y63350000D03*
D43*
X56360000Y27550000D03*
D44*
X58900000Y27550000D03*
X61440000Y27550000D03*
X63980000Y27550000D03*
X66520000Y27550000D03*
X69060000Y27550000D03*
X71600000Y27550000D03*
X74140000Y27550000D03*
M02*
