G04 #@! TF.GenerationSoftware,KiCad,Pcbnew,10.0.4*
G04 #@! TF.CreationDate,2026-07-30T11:54:06+03:00*
G04 #@! TF.ProjectId,smartlada_revB,736d6172-746c-4616-9461-5f726576422e,rev?*
G04 #@! TF.SameCoordinates,PX33365a0PY8917370*
G04 #@! TF.FileFunction,Legend,Bot*
G04 #@! TF.FilePolarity,Positive*
%FSLAX46Y46*%
G04 Gerber Fmt 4.6, Leading zero omitted, Abs format (unit mm)*
G04 Created by KiCad (PCBNEW 10.0.4) date 2026-07-30 11:54:06*
%MOMM*%
%LPD*%
G01*
G04 APERTURE LIST*
G04 Aperture macros list*
%AMRoundRect*
0 Rectangle with rounded corners*
0 $1 Rounding radius*
0 $2 $3 $4 $5 $6 $7 $8 $9 X,Y pos of 4 corners*
0 Add a 4 corners polygon primitive as box body*
4,1,4,$2,$3,$4,$5,$6,$7,$8,$9,$2,$3,0*
0 Add four circle primitives for the rounded corners*
1,1,$1+$1,$2,$3*
1,1,$1+$1,$4,$5*
1,1,$1+$1,$6,$7*
1,1,$1+$1,$8,$9*
0 Add four rect primitives between the rounded corners*
20,1,$1+$1,$2,$3,$4,$5,0*
20,1,$1+$1,$4,$5,$6,$7,0*
20,1,$1+$1,$6,$7,$8,$9,0*
20,1,$1+$1,$8,$9,$2,$3,0*%
G04 Aperture macros list end*
%ADD10C,0.300000*%
%ADD11C,0.350000*%
%ADD12C,0.150000*%
%ADD13C,0.120000*%
%ADD14RoundRect,0.102000X-0.749300X0.749300X-0.749300X-0.749300X0.749300X-0.749300X0.749300X0.749300X0*%
%ADD15C,1.702600*%
%ADD16RoundRect,0.250000X-0.550000X0.550000X-0.550000X-0.550000X0.550000X-0.550000X0.550000X0.550000X0*%
%ADD17C,1.600000*%
%ADD18RoundRect,0.249999X-0.850001X0.850001X-0.850001X-0.850001X0.850001X-0.850001X0.850001X0.850001X0*%
%ADD19C,2.200000*%
%ADD20RoundRect,0.102000X0.749300X-0.749300X0.749300X0.749300X-0.749300X0.749300X-0.749300X-0.749300X0*%
%ADD21C,2.700000*%
%ADD22C,3.000000*%
%ADD23RoundRect,0.250000X-1.050000X1.050000X-1.050000X-1.050000X1.050000X-1.050000X1.050000X1.050000X0*%
%ADD24C,2.600000*%
%ADD25RoundRect,0.102000X0.714000X0.714000X-0.714000X0.714000X-0.714000X-0.714000X0.714000X-0.714000X0*%
%ADD26C,1.632000*%
%ADD27C,3.550000*%
%ADD28C,3.200000*%
%ADD29R,1.700000X1.700000*%
%ADD30C,1.700000*%
%ADD31RoundRect,0.250000X-0.350000X-0.450000X0.350000X-0.450000X0.350000X0.450000X-0.350000X0.450000X0*%
%ADD32RoundRect,0.250000X-0.450000X0.350000X-0.450000X-0.350000X0.450000X-0.350000X0.450000X0.350000X0*%
G04 APERTURE END LIST*
D10*
X44650000Y24550000D02*
X80350000Y24550000D01*
X80350000Y1650000D01*
X44650000Y1650000D01*
X44650000Y24550000D01*
X80350000Y21950000D02*
X44650000Y21950000D01*
X80350000Y14400000D02*
X44650000Y14400000D01*
X80350000Y6850000D02*
X44650000Y6850000D01*
D11*
G36*
X77493213Y22740323D02*
G01*
X77493213Y23033598D01*
X77700209Y23033598D01*
X77700209Y23285656D01*
X77228881Y23285656D01*
X77228881Y22586267D01*
X77320749Y22520847D01*
X77421039Y22473793D01*
X77528763Y22445382D01*
X77645895Y22435691D01*
X77763992Y22444680D01*
X77866677Y22470358D01*
X77956531Y22511627D01*
X78035554Y22568545D01*
X78105041Y22642321D01*
X78159752Y22725391D01*
X78204182Y22823136D01*
X78237746Y22937848D01*
X78259238Y23072249D01*
X78266883Y23229420D01*
X78259096Y23389550D01*
X78237272Y23525554D01*
X78203308Y23640774D01*
X78158501Y23738157D01*
X78103484Y23820182D01*
X78033690Y23892456D01*
X77953419Y23948599D01*
X77861206Y23989580D01*
X77754861Y24015229D01*
X77631607Y24024247D01*
X77540213Y24017844D01*
X77450257Y23998601D01*
X77363759Y23967221D01*
X77283195Y23924596D01*
X77283195Y23590472D01*
X77352522Y23662793D01*
X77429282Y23713295D01*
X77514981Y23744111D01*
X77610083Y23754603D01*
X77693417Y23745861D01*
X77762188Y23721144D01*
X77819520Y23681130D01*
X77867271Y23624360D01*
X77901212Y23558956D01*
X77927900Y23474329D01*
X77945704Y23366146D01*
X77952267Y23229420D01*
X77946041Y23097413D01*
X77929019Y22991097D01*
X77903282Y22906245D01*
X77870293Y22839150D01*
X77823765Y22779748D01*
X77769599Y22738782D01*
X77706402Y22713983D01*
X77631516Y22705335D01*
X77549633Y22714037D01*
X77517142Y22725446D01*
X77493213Y22740323D01*
G37*
G36*
X76957588Y22465000D02*
G01*
X76655246Y22465000D01*
X76655246Y23039460D01*
X76542589Y23039460D01*
X76378913Y23048313D01*
X76253185Y23072060D01*
X76157998Y23107303D01*
X76087107Y23151934D01*
X76029318Y23212848D01*
X75986280Y23291095D01*
X75958419Y23390715D01*
X75948255Y23517199D01*
X76262779Y23517199D01*
X76270710Y23436345D01*
X76291504Y23380163D01*
X76322771Y23341985D01*
X76366125Y23316482D01*
X76432725Y23298548D01*
X76531324Y23291518D01*
X76655246Y23291518D01*
X76655246Y23742879D01*
X76531324Y23742879D01*
X76432734Y23735838D01*
X76366134Y23717873D01*
X76322771Y23692321D01*
X76291507Y23654197D01*
X76270712Y23598051D01*
X76262779Y23517199D01*
X75948255Y23517199D01*
X75958421Y23643684D01*
X75986283Y23743286D01*
X76029321Y23821500D01*
X76087107Y23882372D01*
X76158005Y23927042D01*
X76253194Y23962313D01*
X76378921Y23986078D01*
X76542589Y23994938D01*
X76957588Y23994938D01*
X76957588Y22465000D01*
G37*
G36*
X75684106Y23731155D02*
G01*
X75684106Y23994938D01*
X74773142Y23994938D01*
X74773142Y23731155D01*
X75077499Y23731155D01*
X75077499Y22728783D01*
X74773142Y22728783D01*
X74773142Y22465000D01*
X75684106Y22465000D01*
X75684106Y22728783D01*
X75379749Y22728783D01*
X75379749Y23731155D01*
X75684106Y23731155D01*
G37*
G36*
X74070609Y24015570D02*
G01*
X74160815Y23990816D01*
X74239159Y23950951D01*
X74307563Y23895623D01*
X74367118Y23823204D01*
X74411848Y23744089D01*
X74448991Y23648203D01*
X74477586Y23532694D01*
X74496173Y23394303D01*
X74502856Y23229420D01*
X74496182Y23065063D01*
X74477610Y22927002D01*
X74449027Y22811661D01*
X74411879Y22715816D01*
X74367118Y22636642D01*
X74307568Y22564262D01*
X74239167Y22508959D01*
X74160823Y22469110D01*
X74070614Y22444365D01*
X73965949Y22435691D01*
X73860789Y22444381D01*
X73770257Y22469156D01*
X73691733Y22509027D01*
X73623276Y22564320D01*
X73563773Y22636642D01*
X73518980Y22715821D01*
X73481807Y22811669D01*
X73453205Y22927010D01*
X73434622Y23065068D01*
X73427943Y23229420D01*
X73742559Y23229420D01*
X73750078Y23043546D01*
X73769271Y22914812D01*
X73795865Y22829350D01*
X73828297Y22772646D01*
X73866744Y22735080D01*
X73911869Y22712971D01*
X73965949Y22705335D01*
X74019454Y22712940D01*
X74064246Y22734996D01*
X74102558Y22772554D01*
X74135027Y22829350D01*
X74161574Y22914808D01*
X74180734Y23043542D01*
X74188241Y23229420D01*
X74180724Y23416066D01*
X74161555Y23545076D01*
X74135027Y23630497D01*
X74102553Y23687341D01*
X74064238Y23724926D01*
X74019448Y23746995D01*
X73965949Y23754603D01*
X73911875Y23746963D01*
X73866752Y23724842D01*
X73828302Y23687249D01*
X73795865Y23630497D01*
X73769290Y23545072D01*
X73750088Y23416062D01*
X73742559Y23229420D01*
X73427943Y23229420D01*
X73434631Y23394297D01*
X73453230Y23532685D01*
X73481843Y23648195D01*
X73519010Y23744084D01*
X73563773Y23823204D01*
X73623281Y23895564D01*
X73691741Y23950882D01*
X73770265Y23990770D01*
X73860794Y24015554D01*
X73965949Y24024247D01*
X74070609Y24015570D01*
G37*
G36*
X71982545Y23994938D02*
G01*
X71621859Y23994938D01*
X71439410Y23324033D01*
X71258060Y23994938D01*
X70895359Y23994938D01*
X70895359Y22465000D01*
X71155661Y22465000D01*
X71155661Y23690764D01*
X71317502Y23021874D01*
X71558295Y23021874D01*
X71722243Y23690764D01*
X71722243Y22465000D01*
X71982545Y22465000D01*
X71982545Y23994938D01*
G37*
G36*
X70773634Y22465000D02*
G01*
X70471292Y22465000D01*
X70379152Y22846019D01*
X69974411Y22846019D01*
X69880072Y22465000D01*
X69577821Y22465000D01*
X69747129Y23092216D01*
X70032754Y23092216D01*
X70318702Y23092216D01*
X70176186Y23718241D01*
X70032754Y23092216D01*
X69747129Y23092216D01*
X69990806Y23994938D01*
X70360650Y23994938D01*
X70773634Y22465000D01*
G37*
G36*
X69378244Y22465000D02*
G01*
X69075902Y22465000D01*
X69075902Y23039460D01*
X68963245Y23039460D01*
X68799569Y23048313D01*
X68673841Y23072060D01*
X68578654Y23107303D01*
X68507763Y23151934D01*
X68449974Y23212848D01*
X68406936Y23291095D01*
X68379075Y23390715D01*
X68368911Y23517199D01*
X68683435Y23517199D01*
X68691366Y23436345D01*
X68712160Y23380163D01*
X68743427Y23341985D01*
X68786781Y23316482D01*
X68853381Y23298548D01*
X68951980Y23291518D01*
X69075902Y23291518D01*
X69075902Y23742879D01*
X68951980Y23742879D01*
X68853390Y23735838D01*
X68786790Y23717873D01*
X68743427Y23692321D01*
X68712163Y23654197D01*
X68691368Y23598051D01*
X68683435Y23517199D01*
X68368911Y23517199D01*
X68379077Y23643684D01*
X68406939Y23743286D01*
X68449977Y23821500D01*
X68507763Y23882372D01*
X68578661Y23927042D01*
X68673850Y23962313D01*
X68799577Y23986078D01*
X68963245Y23994938D01*
X69378244Y23994938D01*
X69378244Y22465000D01*
G37*
G36*
X65231917Y23135813D02*
G01*
X65382075Y23202250D01*
X65480859Y23263262D01*
X65541403Y23319087D01*
X65584952Y23387405D01*
X65612474Y23472083D01*
X65622370Y23577466D01*
X65613343Y23679955D01*
X65587716Y23766905D01*
X65546517Y23841254D01*
X65489196Y23905087D01*
X65419702Y23955309D01*
X65337340Y23992383D01*
X65239618Y24015885D01*
X65123381Y24024247D01*
X65018180Y24018351D01*
X64912356Y24000525D01*
X64807865Y23971344D01*
X64703253Y23930458D01*
X64703253Y23637366D01*
X64802632Y23696062D01*
X64901090Y23737750D01*
X65001888Y23763737D01*
X65099842Y23772188D01*
X65171866Y23766574D01*
X65226627Y23751442D01*
X65267912Y23728499D01*
X65300034Y23695610D01*
X65319409Y23654782D01*
X65326256Y23603477D01*
X65315456Y23545507D01*
X65283757Y23499338D01*
X65227934Y23461249D01*
X65105887Y23408388D01*
X64975737Y23358655D01*
X64857662Y23305287D01*
X64768930Y23245203D01*
X64704261Y23178953D01*
X64656930Y23100261D01*
X64627533Y23007344D01*
X64617158Y22896669D01*
X64626847Y22781517D01*
X64653804Y22688019D01*
X64696176Y22611929D01*
X64753995Y22550180D01*
X64824404Y22503518D01*
X64913799Y22467747D01*
X65026434Y22444271D01*
X65167437Y22435691D01*
X65280890Y22442306D01*
X65395407Y22462344D01*
X65507554Y22495281D01*
X65616233Y22541204D01*
X65616233Y22851881D01*
X65494260Y22777857D01*
X65382126Y22728233D01*
X65268348Y22697665D01*
X65158186Y22687750D01*
X65085310Y22694074D01*
X65028791Y22711338D01*
X64985079Y22738033D01*
X64951302Y22775370D01*
X64930786Y22821366D01*
X64923530Y22878717D01*
X64933880Y22942846D01*
X64964562Y22998061D01*
X65012941Y23042673D01*
X65083356Y23078844D01*
X65231917Y23135813D01*
G37*
G36*
X63784320Y23501079D02*
G01*
X63744553Y23565892D01*
X63698224Y23608423D01*
X63641565Y23634107D01*
X63570088Y23643228D01*
X63497324Y23635928D01*
X63441090Y23615890D01*
X63397627Y23584418D01*
X63364650Y23540738D01*
X63337629Y23467530D01*
X63316540Y23334720D01*
X63307772Y23114656D01*
X63307772Y22465000D01*
X63553694Y22465000D01*
X63553694Y23205331D01*
X63559899Y23323300D01*
X63573203Y23377248D01*
X63589655Y23401232D01*
X63612502Y23415402D01*
X63643911Y23420479D01*
X63675224Y23415337D01*
X63698457Y23400856D01*
X63715627Y23376148D01*
X63729674Y23321526D01*
X63736143Y23205331D01*
X63736143Y22465000D01*
X63978951Y22465000D01*
X63978951Y23205331D01*
X63985421Y23321526D01*
X63999467Y23376148D01*
X64016638Y23400856D01*
X64039870Y23415337D01*
X64071183Y23420479D01*
X64102597Y23415404D01*
X64125478Y23401234D01*
X64141983Y23377248D01*
X64155224Y23323304D01*
X64161400Y23205331D01*
X64161400Y22465000D01*
X64407322Y22465000D01*
X64407322Y23613919D01*
X64189061Y23613919D01*
X64189061Y23497049D01*
X64155488Y23557832D01*
X64107087Y23603844D01*
X64047525Y23633348D01*
X63981058Y23643228D01*
X63914563Y23632916D01*
X63854021Y23601829D01*
X63819860Y23571229D01*
X63797131Y23537887D01*
X63784320Y23501079D01*
G37*
G36*
X62711916Y23638095D02*
G01*
X62816202Y23623170D01*
X62917517Y23597806D01*
X63018069Y23561162D01*
X63018069Y23303242D01*
X62908151Y23357219D01*
X62807501Y23392452D01*
X62705234Y23413426D01*
X62598948Y23420479D01*
X62531380Y23415505D01*
X62480912Y23402231D01*
X62443702Y23382377D01*
X62414735Y23353461D01*
X62397184Y23316885D01*
X62390945Y23270178D01*
X62390945Y23221176D01*
X62598948Y23221176D01*
X62739353Y23213781D01*
X62849776Y23193745D01*
X62935665Y23163685D01*
X63001674Y23125281D01*
X63057137Y23072554D01*
X63097283Y23007452D01*
X63122639Y22927367D01*
X63131734Y22828434D01*
X63124196Y22736539D01*
X63102941Y22659402D01*
X63069123Y22594317D01*
X63022649Y22539281D01*
X62965379Y22495595D01*
X62897054Y22463394D01*
X62815480Y22442971D01*
X62717834Y22435691D01*
X62618735Y22446002D01*
X62530347Y22476083D01*
X62452784Y22525269D01*
X62390945Y22591305D01*
X62390945Y22465000D01*
X62092725Y22465000D01*
X62092725Y22983681D01*
X62390945Y22983681D01*
X62399269Y22877268D01*
X62421898Y22794776D01*
X62456524Y22731164D01*
X62506015Y22681102D01*
X62566327Y22651289D01*
X62640989Y22640855D01*
X62691648Y22646415D01*
X62732601Y22662041D01*
X62766010Y22687292D01*
X62791082Y22720888D01*
X62806577Y22761834D01*
X62812081Y22812222D01*
X62803754Y22878964D01*
X62781243Y22926865D01*
X62745494Y22960875D01*
X62698336Y22982405D01*
X62623607Y22998059D01*
X62510838Y23004289D01*
X62390945Y23004289D01*
X62390945Y22983681D01*
X62092725Y22983681D01*
X62092725Y23120426D01*
X62101799Y23272616D01*
X62125875Y23386179D01*
X62161284Y23469393D01*
X62206023Y23529014D01*
X62265327Y23574588D01*
X62346392Y23610242D01*
X62455154Y23634245D01*
X62598948Y23643228D01*
X62711916Y23638095D01*
G37*
G36*
X60785445Y23297380D02*
G01*
X60838642Y23338276D01*
X60900758Y23367722D01*
X60968947Y23385136D01*
X61045655Y23391169D01*
X61136969Y23382335D01*
X61212260Y23357464D01*
X61275688Y23315915D01*
X61322352Y23259645D01*
X61342766Y23217411D01*
X61356699Y23164390D01*
X61363542Y23101234D01*
X61366407Y22994580D01*
X61366407Y22465000D01*
X61666643Y22465000D01*
X61666643Y23613919D01*
X61366407Y23613919D01*
X61366407Y23438797D01*
X61331575Y23499292D01*
X61286801Y23549265D01*
X61231219Y23589830D01*
X61168419Y23618989D01*
X61097876Y23636977D01*
X61017995Y23643228D01*
X60957096Y23639485D01*
X60897644Y23628299D01*
X60840127Y23609904D01*
X60785445Y23584610D01*
X60785445Y23297380D01*
G37*
G36*
X59994648Y23942181D02*
G01*
X59994648Y23613919D01*
X59602180Y23613919D01*
X59602180Y23385308D01*
X59994648Y23385308D01*
X59994648Y22838143D01*
X59989768Y22787926D01*
X59976852Y22752174D01*
X59957279Y22727134D01*
X59930087Y22709927D01*
X59890077Y22698147D01*
X59832715Y22693612D01*
X59602180Y22693612D01*
X59602180Y22465000D01*
X59854239Y22465000D01*
X59989806Y22471909D01*
X60087830Y22489932D01*
X60156764Y22515766D01*
X60203659Y22547341D01*
X60239776Y22591004D01*
X60268228Y22652680D01*
X60287574Y22737669D01*
X60294883Y22852614D01*
X60294883Y23385308D01*
X60587883Y23385308D01*
X60587883Y23613919D01*
X60294883Y23613919D01*
X60294883Y23942181D01*
X59994648Y23942181D01*
G37*
G36*
X59207881Y22465000D02*
G01*
X59207881Y23994938D01*
X58905539Y23994938D01*
X58905539Y22728783D01*
X58258997Y22728783D01*
X58258997Y22465000D01*
X59207881Y22465000D01*
G37*
G36*
X57659020Y23638095D02*
G01*
X57763306Y23623170D01*
X57864621Y23597806D01*
X57965173Y23561162D01*
X57965173Y23303242D01*
X57855255Y23357219D01*
X57754605Y23392452D01*
X57652338Y23413426D01*
X57546052Y23420479D01*
X57478484Y23415505D01*
X57428016Y23402231D01*
X57390806Y23382377D01*
X57361839Y23353461D01*
X57344288Y23316885D01*
X57338049Y23270178D01*
X57338049Y23221176D01*
X57546052Y23221176D01*
X57686457Y23213781D01*
X57796880Y23193745D01*
X57882769Y23163685D01*
X57948778Y23125281D01*
X58004241Y23072554D01*
X58044387Y23007452D01*
X58069743Y22927367D01*
X58078838Y22828434D01*
X58071300Y22736539D01*
X58050045Y22659402D01*
X58016227Y22594317D01*
X57969753Y22539281D01*
X57912483Y22495595D01*
X57844158Y22463394D01*
X57762584Y22442971D01*
X57664938Y22435691D01*
X57565839Y22446002D01*
X57477451Y22476083D01*
X57399888Y22525269D01*
X57338049Y22591305D01*
X57338049Y22465000D01*
X57039829Y22465000D01*
X57039829Y22983681D01*
X57338049Y22983681D01*
X57346373Y22877268D01*
X57369002Y22794776D01*
X57403628Y22731164D01*
X57453119Y22681102D01*
X57513431Y22651289D01*
X57588093Y22640855D01*
X57638752Y22646415D01*
X57679705Y22662041D01*
X57713114Y22687292D01*
X57738186Y22720888D01*
X57753681Y22761834D01*
X57759185Y22812222D01*
X57750858Y22878964D01*
X57728347Y22926865D01*
X57692598Y22960875D01*
X57645440Y22982405D01*
X57570711Y22998059D01*
X57457942Y23004289D01*
X57338049Y23004289D01*
X57338049Y22983681D01*
X57039829Y22983681D01*
X57039829Y23120426D01*
X57048903Y23272616D01*
X57072979Y23386179D01*
X57108388Y23469393D01*
X57153127Y23529014D01*
X57212431Y23574588D01*
X57293496Y23610242D01*
X57402258Y23634245D01*
X57546052Y23643228D01*
X57659020Y23638095D01*
G37*
G36*
X56101478Y23451070D02*
G01*
X56142075Y23512014D01*
X56184916Y23559410D01*
X56230072Y23595143D01*
X56280741Y23621742D01*
X56335536Y23637761D01*
X56395577Y23643228D01*
X56494157Y23632926D01*
X56577404Y23603526D01*
X56648576Y23555542D01*
X56709643Y23487157D01*
X56754589Y23407910D01*
X56789054Y23309585D01*
X56811565Y23188287D01*
X56819735Y23039460D01*
X56811736Y22892947D01*
X56789614Y22772531D01*
X56755610Y22674010D01*
X56711108Y22593778D01*
X56650628Y22524013D01*
X56580988Y22475478D01*
X56500412Y22445973D01*
X56405835Y22435691D01*
X56338351Y22441539D01*
X56278919Y22458397D01*
X56226042Y22485883D01*
X56179553Y22523583D01*
X56138059Y22572883D01*
X56101478Y22635635D01*
X56101478Y22465000D01*
X55802250Y22465000D01*
X55802250Y23036529D01*
X56101478Y23036529D01*
X56108714Y22926709D01*
X56128281Y22841562D01*
X56157807Y22776135D01*
X56201428Y22722436D01*
X56251790Y22692121D01*
X56311496Y22681888D01*
X56371148Y22692141D01*
X56421161Y22722462D01*
X56464179Y22776135D01*
X56493152Y22841488D01*
X56512383Y22926634D01*
X56519500Y23036529D01*
X56512381Y23146424D01*
X56493149Y23231536D01*
X56464179Y23296831D01*
X56421154Y23350562D01*
X56371141Y23380909D01*
X56311496Y23391169D01*
X56251797Y23380929D01*
X56201435Y23350588D01*
X56157807Y23296831D01*
X56128284Y23231461D01*
X56108716Y23146350D01*
X56101478Y23036529D01*
X55802250Y23036529D01*
X55802250Y24059418D01*
X56101478Y24059418D01*
X56101478Y23451070D01*
G37*
G36*
X55132572Y23638095D02*
G01*
X55236858Y23623170D01*
X55338173Y23597806D01*
X55438725Y23561162D01*
X55438725Y23303242D01*
X55328807Y23357219D01*
X55228157Y23392452D01*
X55125890Y23413426D01*
X55019604Y23420479D01*
X54952035Y23415505D01*
X54901568Y23402231D01*
X54864357Y23382377D01*
X54835391Y23353461D01*
X54817840Y23316885D01*
X54811601Y23270178D01*
X54811601Y23221176D01*
X55019604Y23221176D01*
X55160009Y23213781D01*
X55270432Y23193745D01*
X55356321Y23163685D01*
X55422330Y23125281D01*
X55477793Y23072554D01*
X55517939Y23007452D01*
X55543295Y22927367D01*
X55552390Y22828434D01*
X55544852Y22736539D01*
X55523597Y22659402D01*
X55489779Y22594317D01*
X55443305Y22539281D01*
X55386035Y22495595D01*
X55317710Y22463394D01*
X55236136Y22442971D01*
X55138490Y22435691D01*
X55039391Y22446002D01*
X54951003Y22476083D01*
X54873440Y22525269D01*
X54811601Y22591305D01*
X54811601Y22465000D01*
X54513381Y22465000D01*
X54513381Y22983681D01*
X54811601Y22983681D01*
X54819925Y22877268D01*
X54842554Y22794776D01*
X54877180Y22731164D01*
X54926671Y22681102D01*
X54986983Y22651289D01*
X55061645Y22640855D01*
X55112304Y22646415D01*
X55153257Y22662041D01*
X55186666Y22687292D01*
X55211738Y22720888D01*
X55227233Y22761834D01*
X55232737Y22812222D01*
X55224410Y22878964D01*
X55201899Y22926865D01*
X55166150Y22960875D01*
X55118992Y22982405D01*
X55044263Y22998059D01*
X54931494Y23004289D01*
X54811601Y23004289D01*
X54811601Y22983681D01*
X54513381Y22983681D01*
X54513381Y23120426D01*
X54522455Y23272616D01*
X54546531Y23386179D01*
X54581940Y23469393D01*
X54626679Y23529014D01*
X54685983Y23574588D01*
X54767048Y23610242D01*
X54875810Y23634245D01*
X55019604Y23643228D01*
X55132572Y23638095D01*
G37*
G36*
X52986008Y22465000D02*
G01*
X52683757Y22465000D01*
X52683757Y23068769D01*
X52587404Y23068769D01*
X52539297Y23059930D01*
X52492551Y23032133D01*
X52445230Y22980294D01*
X52396803Y22895845D01*
X52375279Y22850782D01*
X52190906Y22465000D01*
X51858888Y22465000D01*
X52135493Y23014547D01*
X52184219Y23101215D01*
X52217009Y23143324D01*
X52253388Y23170539D01*
X52295411Y23185639D01*
X52203547Y23207394D01*
X52131025Y23244828D01*
X52074036Y23297563D01*
X52032775Y23363912D01*
X52006614Y23446366D01*
X51998727Y23532403D01*
X52309699Y23532403D01*
X52316742Y23458996D01*
X52335373Y23406719D01*
X52363555Y23370103D01*
X52402669Y23344728D01*
X52459817Y23327455D01*
X52541333Y23320827D01*
X52683757Y23320827D01*
X52683757Y23742879D01*
X52541333Y23742879D01*
X52459058Y23736286D01*
X52401810Y23719170D01*
X52363005Y23694153D01*
X52335160Y23657915D01*
X52316696Y23605858D01*
X52309699Y23532403D01*
X51998727Y23532403D01*
X51997191Y23549164D01*
X52006632Y23667557D01*
X52032480Y23760624D01*
X52072347Y23833547D01*
X52125785Y23890158D01*
X52191467Y23931703D01*
X52279874Y23964535D01*
X52396887Y23986676D01*
X52549485Y23994938D01*
X52986008Y23994938D01*
X52986008Y22465000D01*
G37*
G36*
X51319696Y23636109D02*
G01*
X51408446Y23615721D01*
X51486840Y23582953D01*
X51556423Y23537913D01*
X51618278Y23479921D01*
X51680200Y23394737D01*
X51725779Y23294328D01*
X51754595Y23175768D01*
X51764824Y23035338D01*
X51757811Y22916819D01*
X51738024Y22815358D01*
X51706871Y22728444D01*
X51665086Y22653946D01*
X51612691Y22590205D01*
X51549665Y22536871D01*
X51476005Y22494433D01*
X51390075Y22462843D01*
X51289751Y22442795D01*
X51172505Y22435691D01*
X51053441Y22441305D01*
X50942978Y22457673D01*
X50835670Y22485061D01*
X50729845Y22523619D01*
X50729845Y22799125D01*
X50839805Y22742506D01*
X50939955Y22705519D01*
X51041250Y22683380D01*
X51143837Y22676026D01*
X51246479Y22684660D01*
X51323046Y22707808D01*
X51379592Y22742888D01*
X51422054Y22792731D01*
X51449119Y22858638D01*
X51459460Y22945670D01*
X50681760Y22945670D01*
X50681760Y23066113D01*
X50689190Y23168420D01*
X50984010Y23168420D01*
X51456345Y23167412D01*
X51442264Y23242019D01*
X51417705Y23300410D01*
X51383622Y23345832D01*
X51339092Y23380166D01*
X51285026Y23401278D01*
X51218667Y23408755D01*
X51144574Y23401158D01*
X51088061Y23380395D01*
X51045010Y23347847D01*
X51013460Y23303716D01*
X50992612Y23245314D01*
X50984010Y23168420D01*
X50689190Y23168420D01*
X50691743Y23203570D01*
X50719669Y23317804D01*
X50763516Y23412885D01*
X50822718Y23492011D01*
X50897726Y23556439D01*
X50986689Y23603305D01*
X51092401Y23632770D01*
X51218667Y23643228D01*
X51319696Y23636109D01*
G37*
G36*
X49414414Y23613919D02*
G01*
X49779221Y22465000D01*
X50149066Y22465000D01*
X50513873Y23613919D01*
X50209516Y23613919D01*
X49964602Y22717334D01*
X49718680Y23613919D01*
X49414414Y23613919D01*
G37*
G36*
X47941355Y22465000D02*
G01*
X47448412Y22465000D01*
X47292735Y22472884D01*
X47173049Y22494014D01*
X47082440Y22525284D01*
X47015003Y22564652D01*
X46958941Y22619329D01*
X46917767Y22688744D01*
X46891393Y22776202D01*
X46881830Y22886411D01*
X46884698Y22927719D01*
X47188202Y22927719D01*
X47195893Y22847738D01*
X47215998Y22792387D01*
X47246087Y22754978D01*
X47288076Y22729882D01*
X47352665Y22712248D01*
X47448412Y22705335D01*
X47649271Y22705335D01*
X47649271Y23162558D01*
X47448412Y23162558D01*
X47356793Y23155171D01*
X47292579Y23135930D01*
X47248652Y23107695D01*
X47216974Y23066953D01*
X47196085Y23008962D01*
X47188202Y22927719D01*
X46884698Y22927719D01*
X46888136Y22977234D01*
X46905763Y23052793D01*
X46933373Y23115702D01*
X46970490Y23168054D01*
X47017781Y23211461D01*
X47076060Y23245862D01*
X47147338Y23271139D01*
X47234272Y23286298D01*
X47140151Y23304131D01*
X47067563Y23336423D01*
X47011980Y23382010D01*
X46971260Y23441243D01*
X46945469Y23516131D01*
X46939472Y23577191D01*
X47236379Y23577191D01*
X47242643Y23517047D01*
X47259349Y23473908D01*
X47285013Y23443376D01*
X47320071Y23422761D01*
X47372466Y23408447D01*
X47448412Y23402893D01*
X47649271Y23402893D01*
X47649271Y23754603D01*
X47448412Y23754603D01*
X47374107Y23748910D01*
X47321896Y23734098D01*
X47286113Y23712471D01*
X47259753Y23680970D01*
X47242722Y23637257D01*
X47236379Y23577191D01*
X46939472Y23577191D01*
X46936143Y23611080D01*
X46944986Y23704924D01*
X46969823Y23782064D01*
X47009495Y23845896D01*
X47064737Y23898675D01*
X47130220Y23937694D01*
X47213304Y23967829D01*
X47317851Y23987678D01*
X47448412Y23994938D01*
X47941355Y23994938D01*
X47941355Y22465000D01*
G37*
G36*
X79538350Y20021204D02*
G01*
X79538350Y20372914D01*
X79445685Y20290969D01*
X79350314Y20233238D01*
X79282438Y20206282D01*
X79215541Y20190525D01*
X79148905Y20185335D01*
X79071982Y20193036D01*
X79015616Y20213704D01*
X78974699Y20245511D01*
X78945953Y20289240D01*
X78926683Y20351231D01*
X78919378Y20437577D01*
X78919378Y21211155D01*
X79289314Y21211155D01*
X79289314Y21474938D01*
X78617127Y21474938D01*
X78617127Y20437577D01*
X78626197Y20293977D01*
X78650624Y20183480D01*
X78687245Y20099425D01*
X78734455Y20036408D01*
X78796211Y19987425D01*
X78877741Y19949808D01*
X78984009Y19924899D01*
X79121244Y19915691D01*
X79219312Y19922163D01*
X79324668Y19942344D01*
X79429938Y19974950D01*
X79538350Y20021204D01*
G37*
G36*
X78282270Y20571209D02*
G01*
X78282270Y20279125D01*
X77675662Y20279125D01*
X77675662Y19945000D01*
X77385685Y19945000D01*
X77385685Y20279125D01*
X77217616Y20279125D01*
X77217616Y20537045D01*
X77385685Y20537045D01*
X77675662Y20537045D01*
X78061994Y20537045D01*
X77675662Y21139806D01*
X77675662Y20537045D01*
X77385685Y20537045D01*
X77385685Y21474938D01*
X77702315Y21474938D01*
X78282270Y20571209D01*
G37*
G36*
X75337709Y20615813D02*
G01*
X75487867Y20682250D01*
X75586651Y20743262D01*
X75647195Y20799087D01*
X75690744Y20867405D01*
X75718266Y20952083D01*
X75728162Y21057466D01*
X75719135Y21159955D01*
X75693508Y21246905D01*
X75652309Y21321254D01*
X75594988Y21385087D01*
X75525494Y21435309D01*
X75443132Y21472383D01*
X75345410Y21495885D01*
X75229173Y21504247D01*
X75123972Y21498351D01*
X75018148Y21480525D01*
X74913657Y21451344D01*
X74809045Y21410458D01*
X74809045Y21117366D01*
X74908424Y21176062D01*
X75006882Y21217750D01*
X75107680Y21243737D01*
X75205635Y21252188D01*
X75277658Y21246574D01*
X75332419Y21231442D01*
X75373704Y21208499D01*
X75405826Y21175610D01*
X75425201Y21134782D01*
X75432048Y21083477D01*
X75421248Y21025507D01*
X75389549Y20979338D01*
X75333726Y20941249D01*
X75211680Y20888388D01*
X75081529Y20838655D01*
X74963454Y20785287D01*
X74874722Y20725203D01*
X74810053Y20658953D01*
X74762722Y20580261D01*
X74733325Y20487344D01*
X74722950Y20376669D01*
X74732639Y20261517D01*
X74759596Y20168019D01*
X74801968Y20091929D01*
X74859787Y20030180D01*
X74930196Y19983518D01*
X75019591Y19947747D01*
X75132226Y19924271D01*
X75273229Y19915691D01*
X75386682Y19922306D01*
X75501199Y19942344D01*
X75613346Y19975281D01*
X75722025Y20021204D01*
X75722025Y20331881D01*
X75600052Y20257857D01*
X75487918Y20208233D01*
X75374140Y20177665D01*
X75263978Y20167750D01*
X75191102Y20174074D01*
X75134583Y20191338D01*
X75090871Y20218033D01*
X75057094Y20255370D01*
X75036578Y20301366D01*
X75029322Y20358717D01*
X75039672Y20422846D01*
X75070355Y20478061D01*
X75118733Y20522673D01*
X75189148Y20558844D01*
X75337709Y20615813D01*
G37*
G36*
X73489401Y19991895D02*
G01*
X73562925Y19958556D01*
X73640068Y19934742D01*
X73720272Y19920537D01*
X73806031Y19915691D01*
X73929757Y19924727D01*
X74036349Y19950410D01*
X74128621Y19991412D01*
X74208798Y20047542D01*
X74278367Y20119756D01*
X74333247Y20201776D01*
X74377934Y20299071D01*
X74411797Y20414097D01*
X74433548Y20549777D01*
X74441307Y20709420D01*
X74433539Y20869577D01*
X74411770Y21005595D01*
X74377896Y21120814D01*
X74333214Y21218183D01*
X74278367Y21300182D01*
X74208798Y21372396D01*
X74128621Y21428527D01*
X74036349Y21469528D01*
X73929757Y21495211D01*
X73806031Y21504247D01*
X73720141Y21499416D01*
X73639061Y21485196D01*
X73561359Y21461265D01*
X73489401Y21428043D01*
X73489401Y21093919D01*
X73568853Y21158998D01*
X73640526Y21200714D01*
X73715278Y21226205D01*
X73791652Y21234603D01*
X73871589Y21225868D01*
X73938276Y21201012D01*
X73994614Y21160408D01*
X74042245Y21102254D01*
X74076166Y21035852D01*
X74102704Y20951010D01*
X74120318Y20843729D01*
X74126783Y20709420D01*
X74120330Y20575737D01*
X74102733Y20468789D01*
X74076197Y20384054D01*
X74042245Y20317593D01*
X73994620Y20259484D01*
X73938284Y20218908D01*
X73871595Y20194065D01*
X73791652Y20185335D01*
X73715278Y20193733D01*
X73640526Y20219224D01*
X73568853Y20260940D01*
X73489401Y20326019D01*
X73489401Y19991895D01*
G37*
G36*
X73103345Y19945000D02*
G01*
X73103345Y21474938D01*
X72801003Y21474938D01*
X72801003Y20208783D01*
X72154461Y20208783D01*
X72154461Y19945000D01*
X73103345Y19945000D01*
G37*
G36*
X69453990Y20490151D02*
G01*
X68370926Y20490151D01*
X68370926Y20249816D01*
X69453990Y20249816D01*
X69453990Y20490151D01*
G37*
G36*
X69453990Y20953235D02*
G01*
X68370926Y20953235D01*
X68370926Y20712900D01*
X69453990Y20712900D01*
X69453990Y20953235D01*
G37*
G36*
X66841538Y21211155D02*
G01*
X66841538Y21474938D01*
X65930573Y21474938D01*
X65930573Y21211155D01*
X66234931Y21211155D01*
X66234931Y20208783D01*
X65930573Y20208783D01*
X65930573Y19945000D01*
X66841538Y19945000D01*
X66841538Y20208783D01*
X66537181Y20208783D01*
X66537181Y21211155D01*
X66841538Y21211155D01*
G37*
G36*
X65228041Y21495570D02*
G01*
X65318247Y21470816D01*
X65396591Y21430951D01*
X65464995Y21375623D01*
X65524550Y21303204D01*
X65569280Y21224089D01*
X65606423Y21128203D01*
X65635018Y21012694D01*
X65653605Y20874303D01*
X65660288Y20709420D01*
X65653614Y20545063D01*
X65635042Y20407002D01*
X65606458Y20291661D01*
X65569311Y20195816D01*
X65524550Y20116642D01*
X65464999Y20044262D01*
X65396599Y19988959D01*
X65318255Y19949110D01*
X65228046Y19924365D01*
X65123381Y19915691D01*
X65018221Y19924381D01*
X64927689Y19949156D01*
X64849165Y19989027D01*
X64780708Y20044320D01*
X64721205Y20116642D01*
X64676412Y20195821D01*
X64639239Y20291669D01*
X64610637Y20407010D01*
X64592054Y20545068D01*
X64585375Y20709420D01*
X64899991Y20709420D01*
X64907510Y20523546D01*
X64926703Y20394812D01*
X64953297Y20309350D01*
X64985729Y20252646D01*
X65024176Y20215080D01*
X65069301Y20192971D01*
X65123381Y20185335D01*
X65176886Y20192940D01*
X65221678Y20214996D01*
X65259990Y20252554D01*
X65292459Y20309350D01*
X65319006Y20394808D01*
X65338166Y20523542D01*
X65345673Y20709420D01*
X65338156Y20896066D01*
X65318987Y21025076D01*
X65292459Y21110497D01*
X65259985Y21167341D01*
X65221670Y21204926D01*
X65176880Y21226995D01*
X65123381Y21234603D01*
X65069307Y21226963D01*
X65024184Y21204842D01*
X64985734Y21167249D01*
X64953297Y21110497D01*
X64926722Y21025072D01*
X64907520Y20896062D01*
X64899991Y20709420D01*
X64585375Y20709420D01*
X64592062Y20874297D01*
X64610662Y21012685D01*
X64639275Y21128195D01*
X64676442Y21224084D01*
X64721205Y21303204D01*
X64780713Y21375564D01*
X64849173Y21430882D01*
X64927697Y21470770D01*
X65018226Y21495554D01*
X65123381Y21504247D01*
X65228041Y21495570D01*
G37*
G36*
X64298695Y20208783D02*
G01*
X63960541Y20208783D01*
X63960541Y21205294D01*
X64275065Y21123228D01*
X64275065Y21398734D01*
X63958435Y21474938D01*
X63666442Y21474938D01*
X63666442Y20208783D01*
X63328288Y20208783D01*
X63328288Y19945000D01*
X64298695Y19945000D01*
X64298695Y20208783D01*
G37*
G36*
X62703320Y21496526D02*
G01*
X62793208Y21474770D01*
X62869394Y21440355D01*
X62934080Y21393605D01*
X62987574Y21334343D01*
X63025896Y21265769D01*
X63049656Y21186043D01*
X63058003Y21092545D01*
X63050852Y21011839D01*
X63030466Y20942749D01*
X62997553Y20883076D01*
X62952296Y20832180D01*
X62894301Y20790391D01*
X62821331Y20757596D01*
X62902447Y20724604D01*
X62969030Y20678563D01*
X63023198Y20618928D01*
X63062995Y20548730D01*
X63087418Y20468765D01*
X63095922Y20376669D01*
X63086885Y20267324D01*
X63061473Y20176165D01*
X63021135Y20099808D01*
X62965771Y20035767D01*
X62897770Y19985471D01*
X62815656Y19948104D01*
X62716579Y19924240D01*
X62596933Y19915691D01*
X62476681Y19924255D01*
X62377251Y19948143D01*
X62294988Y19985513D01*
X62226997Y20035767D01*
X62171633Y20099808D01*
X62131294Y20176165D01*
X62105883Y20267324D01*
X62096846Y20376669D01*
X62098700Y20396911D01*
X62369421Y20396911D01*
X62376818Y20330328D01*
X62397903Y20274682D01*
X62432436Y20227559D01*
X62478078Y20191447D01*
X62532083Y20169553D01*
X62596933Y20161888D01*
X62661782Y20169461D01*
X62715596Y20191048D01*
X62760881Y20226551D01*
X62794962Y20273057D01*
X62815935Y20328962D01*
X62823346Y20396911D01*
X62815922Y20464846D01*
X62794941Y20520552D01*
X62760881Y20566721D01*
X62715636Y20601899D01*
X62661822Y20623316D01*
X62596933Y20630834D01*
X62531311Y20623286D01*
X62477191Y20601842D01*
X62431978Y20566721D01*
X62397864Y20520545D01*
X62376855Y20464840D01*
X62369421Y20396911D01*
X62098700Y20396911D01*
X62105224Y20468151D01*
X62129305Y20547804D01*
X62168562Y20617920D01*
X62222025Y20677736D01*
X62287607Y20724095D01*
X62367315Y20757596D01*
X62295700Y20790917D01*
X62238709Y20833027D01*
X62194207Y20884084D01*
X62161832Y20943675D01*
X62141789Y21012455D01*
X62137078Y21066167D01*
X62403218Y21066167D01*
X62409435Y21008359D01*
X62426875Y20961707D01*
X62454967Y20923743D01*
X62492498Y20895217D01*
X62538960Y20877498D01*
X62596933Y20871169D01*
X62654166Y20877472D01*
X62700293Y20895166D01*
X62737800Y20923743D01*
X62765892Y20961707D01*
X62783332Y21008359D01*
X62789549Y21066167D01*
X62783323Y21122509D01*
X62765779Y21168317D01*
X62737342Y21205935D01*
X62699556Y21234311D01*
X62653535Y21251831D01*
X62596933Y21258050D01*
X62538882Y21251824D01*
X62492421Y21234422D01*
X62454967Y21206484D01*
X62426863Y21169159D01*
X62409432Y21123211D01*
X62403218Y21066167D01*
X62137078Y21066167D01*
X62134765Y21092545D01*
X62143116Y21186037D01*
X62166892Y21265761D01*
X62205242Y21334337D01*
X62258779Y21393605D01*
X62323411Y21440309D01*
X62399716Y21474728D01*
X62489941Y21496509D01*
X62596933Y21504247D01*
X62703320Y21496526D01*
G37*
G36*
X58915797Y20615813D02*
G01*
X59065955Y20682250D01*
X59164739Y20743262D01*
X59225283Y20799087D01*
X59268832Y20867405D01*
X59296354Y20952083D01*
X59306250Y21057466D01*
X59297223Y21159955D01*
X59271596Y21246905D01*
X59230397Y21321254D01*
X59173076Y21385087D01*
X59103582Y21435309D01*
X59021220Y21472383D01*
X58923498Y21495885D01*
X58807261Y21504247D01*
X58702060Y21498351D01*
X58596236Y21480525D01*
X58491745Y21451344D01*
X58387133Y21410458D01*
X58387133Y21117366D01*
X58486512Y21176062D01*
X58584970Y21217750D01*
X58685768Y21243737D01*
X58783722Y21252188D01*
X58855746Y21246574D01*
X58910507Y21231442D01*
X58951792Y21208499D01*
X58983914Y21175610D01*
X59003289Y21134782D01*
X59010136Y21083477D01*
X58999335Y21025507D01*
X58967637Y20979338D01*
X58911814Y20941249D01*
X58789767Y20888388D01*
X58659617Y20838655D01*
X58541542Y20785287D01*
X58452810Y20725203D01*
X58388141Y20658953D01*
X58340810Y20580261D01*
X58311413Y20487344D01*
X58301038Y20376669D01*
X58310727Y20261517D01*
X58337683Y20168019D01*
X58380056Y20091929D01*
X58437875Y20030180D01*
X58508284Y19983518D01*
X58597679Y19947747D01*
X58710314Y19924271D01*
X58851317Y19915691D01*
X58964770Y19922306D01*
X59079287Y19942344D01*
X59191434Y19975281D01*
X59300113Y20021204D01*
X59300113Y20331881D01*
X59178140Y20257857D01*
X59066006Y20208233D01*
X58952228Y20177665D01*
X58842066Y20167750D01*
X58769190Y20174074D01*
X58712671Y20191338D01*
X58668959Y20218033D01*
X58635182Y20255370D01*
X58614666Y20301366D01*
X58607410Y20358717D01*
X58617760Y20422846D01*
X58648442Y20478061D01*
X58696821Y20522673D01*
X58767236Y20558844D01*
X58915797Y20615813D01*
G37*
G36*
X58034782Y19945000D02*
G01*
X57711008Y19945000D01*
X57555379Y19953795D01*
X57427786Y19978113D01*
X57323647Y20015511D01*
X57239064Y20064530D01*
X57170987Y20124794D01*
X57116772Y20197192D01*
X57071852Y20288093D01*
X57037107Y20401108D01*
X57014314Y20540594D01*
X57006031Y20711526D01*
X57320647Y20711526D01*
X57326842Y20571160D01*
X57343253Y20465593D01*
X57367121Y20387893D01*
X57396484Y20332064D01*
X57438746Y20284975D01*
X57493135Y20250554D01*
X57562388Y20228517D01*
X57650558Y20220506D01*
X57732532Y20220506D01*
X57732532Y21199432D01*
X57650558Y21199432D01*
X57562351Y21191447D01*
X57493088Y21169486D01*
X57438715Y21135202D01*
X57396484Y21088332D01*
X57367093Y21032747D01*
X57343229Y20955516D01*
X57326832Y20850723D01*
X57320647Y20711526D01*
X57006031Y20711526D01*
X57014317Y20882002D01*
X57037116Y21021027D01*
X57071861Y21133592D01*
X57116775Y21224064D01*
X57170987Y21296060D01*
X57239010Y21355978D01*
X57323557Y21404745D01*
X57427690Y21441968D01*
X57555313Y21466180D01*
X57711008Y21474938D01*
X58034782Y21474938D01*
X58034782Y19945000D01*
G37*
G36*
X56878170Y19945000D02*
G01*
X56575828Y19945000D01*
X56483688Y20326019D01*
X56078947Y20326019D01*
X55984608Y19945000D01*
X55682357Y19945000D01*
X55851665Y20572216D01*
X56137290Y20572216D01*
X56423237Y20572216D01*
X56280722Y21198241D01*
X56137290Y20572216D01*
X55851665Y20572216D01*
X56095341Y21474938D01*
X56465186Y21474938D01*
X56878170Y19945000D01*
G37*
G36*
X53032078Y20490151D02*
G01*
X51949014Y20490151D01*
X51949014Y20249816D01*
X53032078Y20249816D01*
X53032078Y20490151D01*
G37*
G36*
X53032078Y20953235D02*
G01*
X51949014Y20953235D01*
X51949014Y20712900D01*
X53032078Y20712900D01*
X53032078Y20953235D01*
G37*
G36*
X50419626Y21211155D02*
G01*
X50419626Y21474938D01*
X49508661Y21474938D01*
X49508661Y21211155D01*
X49813019Y21211155D01*
X49813019Y20208783D01*
X49508661Y20208783D01*
X49508661Y19945000D01*
X50419626Y19945000D01*
X50419626Y20208783D01*
X50115269Y20208783D01*
X50115269Y21211155D01*
X50419626Y21211155D01*
G37*
G36*
X48806129Y21495570D02*
G01*
X48896334Y21470816D01*
X48974679Y21430951D01*
X49043083Y21375623D01*
X49102638Y21303204D01*
X49147368Y21224089D01*
X49184511Y21128203D01*
X49213106Y21012694D01*
X49231693Y20874303D01*
X49238376Y20709420D01*
X49231702Y20545063D01*
X49213130Y20407002D01*
X49184546Y20291661D01*
X49147399Y20195816D01*
X49102638Y20116642D01*
X49043087Y20044262D01*
X48974687Y19988959D01*
X48896343Y19949110D01*
X48806134Y19924365D01*
X48701469Y19915691D01*
X48596308Y19924381D01*
X48505777Y19949156D01*
X48427253Y19989027D01*
X48358796Y20044320D01*
X48299293Y20116642D01*
X48254500Y20195821D01*
X48217327Y20291669D01*
X48188725Y20407010D01*
X48170142Y20545068D01*
X48163463Y20709420D01*
X48478079Y20709420D01*
X48485598Y20523546D01*
X48504791Y20394812D01*
X48531385Y20309350D01*
X48563817Y20252646D01*
X48602264Y20215080D01*
X48647389Y20192971D01*
X48701469Y20185335D01*
X48754974Y20192940D01*
X48799765Y20214996D01*
X48838078Y20252554D01*
X48870546Y20309350D01*
X48897094Y20394808D01*
X48916254Y20523542D01*
X48923761Y20709420D01*
X48916244Y20896066D01*
X48897074Y21025076D01*
X48870546Y21110497D01*
X48838073Y21167341D01*
X48799758Y21204926D01*
X48754968Y21226995D01*
X48701469Y21234603D01*
X48647395Y21226963D01*
X48602272Y21204842D01*
X48563822Y21167249D01*
X48531385Y21110497D01*
X48504810Y21025072D01*
X48485608Y20896062D01*
X48478079Y20709420D01*
X48163463Y20709420D01*
X48170150Y20874297D01*
X48188749Y21012685D01*
X48217362Y21128195D01*
X48254530Y21224084D01*
X48299293Y21303204D01*
X48358801Y21375564D01*
X48427261Y21430882D01*
X48505785Y21470770D01*
X48596314Y21495554D01*
X48701469Y21504247D01*
X48806129Y21495570D01*
G37*
G36*
X47876783Y20208783D02*
G01*
X47538629Y20208783D01*
X47538629Y21205294D01*
X47853153Y21123228D01*
X47853153Y21398734D01*
X47536523Y21474938D01*
X47244530Y21474938D01*
X47244530Y20208783D01*
X46906376Y20208783D01*
X46906376Y19945000D01*
X47876783Y19945000D01*
X47876783Y20208783D01*
G37*
G36*
X46323718Y21476981D02*
G01*
X46418928Y21449703D01*
X46498972Y21406250D01*
X46566390Y21346344D01*
X46619099Y21273244D01*
X46658339Y21184972D01*
X46683429Y21078477D01*
X46692419Y20949938D01*
X46684321Y20829291D01*
X46661778Y20729665D01*
X46626666Y20647451D01*
X46579762Y20579727D01*
X46519120Y20523714D01*
X46447417Y20483315D01*
X46362435Y20458059D01*
X46261025Y20449118D01*
X46162934Y20457890D01*
X46083797Y20482274D01*
X46015641Y20523710D01*
X45960790Y20581742D01*
X45969624Y20471923D01*
X45988767Y20383827D01*
X46016402Y20313688D01*
X46051465Y20258334D01*
X46098033Y20211820D01*
X46153610Y20178421D01*
X46220021Y20157562D01*
X46299952Y20150164D01*
X46368996Y20155367D01*
X46442925Y20171597D01*
X46517071Y20198212D01*
X46598172Y20238092D01*
X46598172Y19962586D01*
X46520085Y19937061D01*
X46444024Y19918897D01*
X46368059Y19907625D01*
X46295922Y19903968D01*
X46171556Y19912887D01*
X46065687Y19938094D01*
X45975252Y19978076D01*
X45897818Y20032468D01*
X45831738Y20102079D01*
X45780334Y20181099D01*
X45737991Y20276888D01*
X45705552Y20392345D01*
X45684512Y20530879D01*
X45676949Y20696322D01*
X45683508Y20874095D01*
X45696695Y20980163D01*
X46000815Y20980163D01*
X46007518Y20890666D01*
X46025498Y20823131D01*
X46052564Y20772709D01*
X46091736Y20733251D01*
X46140417Y20709542D01*
X46201674Y20701176D01*
X46263607Y20709592D01*
X46312961Y20733456D01*
X46352800Y20773167D01*
X46380479Y20823998D01*
X46398766Y20891450D01*
X46405556Y20980163D01*
X46398756Y21068815D01*
X46380461Y21136029D01*
X46352800Y21186517D01*
X46312997Y21225951D01*
X46263644Y21249677D01*
X46201674Y21258050D01*
X46140417Y21249684D01*
X46091736Y21225976D01*
X46052564Y21186517D01*
X46025462Y21136110D01*
X46007499Y21068898D01*
X46000815Y20980163D01*
X45696695Y20980163D01*
X45701470Y21018567D01*
X45728570Y21134752D01*
X45763007Y21227176D01*
X45803528Y21299816D01*
X45858614Y21365509D01*
X45924762Y21416678D01*
X46003556Y21454326D01*
X46097498Y21478171D01*
X46209826Y21486661D01*
X46323718Y21476981D01*
G37*
G36*
X75740435Y18954938D02*
G01*
X75438184Y18954938D01*
X75438184Y18350345D01*
X74964750Y18954938D01*
X74622474Y18954938D01*
X75105159Y18352360D01*
X74605072Y17425000D01*
X74941211Y17425000D01*
X75303912Y18113582D01*
X75438184Y17943498D01*
X75438184Y17425000D01*
X75740435Y17425000D01*
X75740435Y18954938D01*
G37*
G36*
X73471999Y17425000D02*
G01*
X74424912Y17425000D01*
X74424912Y18954938D01*
X73471999Y18954938D01*
X73471999Y18691155D01*
X74122662Y18691155D01*
X74122662Y18357031D01*
X73533456Y18357031D01*
X73533456Y18093249D01*
X74122662Y18093249D01*
X74122662Y17688783D01*
X73471999Y17688783D01*
X73471999Y17425000D01*
G37*
G36*
X73325636Y18954938D02*
G01*
X72999847Y18954938D01*
X72702634Y18340087D01*
X72404505Y18954938D01*
X72078624Y18954938D01*
X72551051Y18027578D01*
X72551051Y17425000D01*
X72853301Y17425000D01*
X72853301Y18027578D01*
X73325636Y18954938D01*
G37*
G36*
X71878039Y17688783D02*
G01*
X71539885Y17688783D01*
X71539885Y18685294D01*
X71854409Y18603228D01*
X71854409Y18878734D01*
X71537779Y18954938D01*
X71245786Y18954938D01*
X71245786Y17688783D01*
X70907632Y17688783D01*
X70907632Y17425000D01*
X71878039Y17425000D01*
X71878039Y17688783D01*
G37*
G36*
X69453990Y17970151D02*
G01*
X68370926Y17970151D01*
X68370926Y17729816D01*
X69453990Y17729816D01*
X69453990Y17970151D01*
G37*
G36*
X69453990Y18433235D02*
G01*
X68370926Y18433235D01*
X68370926Y18192900D01*
X69453990Y18192900D01*
X69453990Y18433235D01*
G37*
G36*
X66841538Y18691155D02*
G01*
X66841538Y18954938D01*
X65930573Y18954938D01*
X65930573Y18691155D01*
X66234931Y18691155D01*
X66234931Y17688783D01*
X65930573Y17688783D01*
X65930573Y17425000D01*
X66841538Y17425000D01*
X66841538Y17688783D01*
X66537181Y17688783D01*
X66537181Y18691155D01*
X66841538Y18691155D01*
G37*
G36*
X65228041Y18975570D02*
G01*
X65318247Y18950816D01*
X65396591Y18910951D01*
X65464995Y18855623D01*
X65524550Y18783204D01*
X65569280Y18704089D01*
X65606423Y18608203D01*
X65635018Y18492694D01*
X65653605Y18354303D01*
X65660288Y18189420D01*
X65653614Y18025063D01*
X65635042Y17887002D01*
X65606458Y17771661D01*
X65569311Y17675816D01*
X65524550Y17596642D01*
X65464999Y17524262D01*
X65396599Y17468959D01*
X65318255Y17429110D01*
X65228046Y17404365D01*
X65123381Y17395691D01*
X65018221Y17404381D01*
X64927689Y17429156D01*
X64849165Y17469027D01*
X64780708Y17524320D01*
X64721205Y17596642D01*
X64676412Y17675821D01*
X64639239Y17771669D01*
X64610637Y17887010D01*
X64592054Y18025068D01*
X64585375Y18189420D01*
X64899991Y18189420D01*
X64907510Y18003546D01*
X64926703Y17874812D01*
X64953297Y17789350D01*
X64985729Y17732646D01*
X65024176Y17695080D01*
X65069301Y17672971D01*
X65123381Y17665335D01*
X65176886Y17672940D01*
X65221678Y17694996D01*
X65259990Y17732554D01*
X65292459Y17789350D01*
X65319006Y17874808D01*
X65338166Y18003542D01*
X65345673Y18189420D01*
X65338156Y18376066D01*
X65318987Y18505076D01*
X65292459Y18590497D01*
X65259985Y18647341D01*
X65221670Y18684926D01*
X65176880Y18706995D01*
X65123381Y18714603D01*
X65069307Y18706963D01*
X65024184Y18684842D01*
X64985734Y18647249D01*
X64953297Y18590497D01*
X64926722Y18505072D01*
X64907520Y18376062D01*
X64899991Y18189420D01*
X64585375Y18189420D01*
X64592062Y18354297D01*
X64610662Y18492685D01*
X64639275Y18608195D01*
X64676442Y18704084D01*
X64721205Y18783204D01*
X64780713Y18855564D01*
X64849173Y18910882D01*
X64927697Y18950770D01*
X65018226Y18975554D01*
X65123381Y18984247D01*
X65228041Y18975570D01*
G37*
G36*
X64046637Y17688783D02*
G01*
X63402110Y17688783D01*
X63402110Y17425000D01*
X64373434Y17425000D01*
X64373434Y17680631D01*
X64209486Y17855112D01*
X63854937Y18237963D01*
X63785752Y18325592D01*
X63744295Y18394400D01*
X63718669Y18463436D01*
X63710498Y18529406D01*
X63717991Y18595136D01*
X63738877Y18646906D01*
X63772505Y18687950D01*
X63817037Y18717820D01*
X63874376Y18736941D01*
X63948176Y18743912D01*
X64030974Y18736574D01*
X64130076Y18712405D01*
X64230903Y18674743D01*
X64340644Y18620813D01*
X64340644Y18902181D01*
X64231014Y18937774D01*
X64126046Y18963181D01*
X64021830Y18979119D01*
X63924637Y18984247D01*
X63802565Y18976169D01*
X63700348Y18953550D01*
X63614709Y18918115D01*
X63542978Y18870582D01*
X63482504Y18808975D01*
X63439673Y18738159D01*
X63413337Y18656304D01*
X63404125Y18560638D01*
X63411804Y18472305D01*
X63434351Y18391011D01*
X63473004Y18311688D01*
X63538398Y18215157D01*
X63617317Y18125753D01*
X63836527Y17900541D01*
X64046637Y17688783D01*
G37*
G36*
X62665535Y18110834D02*
G01*
X62827468Y18110834D01*
X62827468Y18374617D01*
X62665535Y18374617D01*
X62591516Y18380320D01*
X62534500Y18395771D01*
X62490871Y18419313D01*
X62456482Y18453140D01*
X62436021Y18494346D01*
X62428864Y18545342D01*
X62436077Y18599204D01*
X62456624Y18642763D01*
X62490871Y18678516D01*
X62534744Y18703801D01*
X62591765Y18720271D01*
X62665535Y18726326D01*
X62752860Y18721268D01*
X62850000Y18705260D01*
X62948651Y18679972D01*
X63053881Y18644261D01*
X63053881Y18919767D01*
X62948378Y18947507D01*
X62845878Y18967577D01*
X62744249Y18980180D01*
X62649140Y18984247D01*
X62526978Y18976621D01*
X62425593Y18955382D01*
X62341566Y18922358D01*
X62272060Y18878459D01*
X62213002Y18820714D01*
X62171317Y18754172D01*
X62145730Y18677086D01*
X62136780Y18586742D01*
X62146002Y18498679D01*
X62172184Y18425256D01*
X62214724Y18363351D01*
X62271670Y18313777D01*
X62344582Y18275737D01*
X62437015Y18249870D01*
X62332480Y18221096D01*
X62250579Y18177347D01*
X62187063Y18119261D01*
X62140499Y18046926D01*
X62111357Y17959017D01*
X62100968Y17851449D01*
X62110774Y17742095D01*
X62138370Y17651397D01*
X62182394Y17575701D01*
X62243392Y17512470D01*
X62316730Y17464413D01*
X62407596Y17427950D01*
X62519666Y17404269D01*
X62657383Y17395691D01*
X62772483Y17400611D01*
X62885354Y17415292D01*
X62995693Y17439347D01*
X63100043Y17471895D01*
X63100043Y17753263D01*
X63000600Y17710547D01*
X62892040Y17678983D01*
X62778507Y17660063D01*
X62657383Y17653612D01*
X62577193Y17660661D01*
X62513424Y17680125D01*
X62462661Y17710581D01*
X62422871Y17752942D01*
X62399186Y17803306D01*
X62390945Y17864271D01*
X62399607Y17939880D01*
X62423754Y17999423D01*
X62462661Y18046629D01*
X62514120Y18080892D01*
X62580345Y18102834D01*
X62665535Y18110834D01*
G37*
G36*
X59318523Y18954938D02*
G01*
X59016272Y18954938D01*
X59016272Y18350345D01*
X58542838Y18954938D01*
X58200562Y18954938D01*
X58683247Y18352360D01*
X58183160Y17425000D01*
X58519299Y17425000D01*
X58882000Y18113582D01*
X59016272Y17943498D01*
X59016272Y17425000D01*
X59318523Y17425000D01*
X59318523Y18954938D01*
G37*
G36*
X57050087Y17425000D02*
G01*
X58003000Y17425000D01*
X58003000Y18954938D01*
X57050087Y18954938D01*
X57050087Y18691155D01*
X57700750Y18691155D01*
X57700750Y18357031D01*
X57111544Y18357031D01*
X57111544Y18093249D01*
X57700750Y18093249D01*
X57700750Y17688783D01*
X57050087Y17688783D01*
X57050087Y17425000D01*
G37*
G36*
X56903724Y18954938D02*
G01*
X56577935Y18954938D01*
X56280722Y18340087D01*
X55982593Y18954938D01*
X55656712Y18954938D01*
X56129139Y18027578D01*
X56129139Y17425000D01*
X56431389Y17425000D01*
X56431389Y18027578D01*
X56903724Y18954938D01*
G37*
G36*
X55204069Y17688783D02*
G01*
X54559542Y17688783D01*
X54559542Y17425000D01*
X55530866Y17425000D01*
X55530866Y17680631D01*
X55366918Y17855112D01*
X55012369Y18237963D01*
X54943184Y18325592D01*
X54901727Y18394400D01*
X54876101Y18463436D01*
X54867930Y18529406D01*
X54875423Y18595136D01*
X54896309Y18646906D01*
X54929937Y18687950D01*
X54974469Y18717820D01*
X55031808Y18736941D01*
X55105608Y18743912D01*
X55188406Y18736574D01*
X55287508Y18712405D01*
X55388335Y18674743D01*
X55498076Y18620813D01*
X55498076Y18902181D01*
X55388446Y18937774D01*
X55283478Y18963181D01*
X55179262Y18979119D01*
X55082069Y18984247D01*
X54959997Y18976169D01*
X54857779Y18953550D01*
X54772141Y18918115D01*
X54700409Y18870582D01*
X54639936Y18808975D01*
X54597105Y18738159D01*
X54570769Y18656304D01*
X54561557Y18560638D01*
X54569235Y18472305D01*
X54591782Y18391011D01*
X54630436Y18311688D01*
X54695830Y18215157D01*
X54774749Y18125753D01*
X54993959Y17900541D01*
X55204069Y17688783D01*
G37*
G36*
X53032078Y17970151D02*
G01*
X51949014Y17970151D01*
X51949014Y17729816D01*
X53032078Y17729816D01*
X53032078Y17970151D01*
G37*
G36*
X53032078Y18433235D02*
G01*
X51949014Y18433235D01*
X51949014Y18192900D01*
X53032078Y18192900D01*
X53032078Y18433235D01*
G37*
G36*
X50419626Y18691155D02*
G01*
X50419626Y18954938D01*
X49508661Y18954938D01*
X49508661Y18691155D01*
X49813019Y18691155D01*
X49813019Y17688783D01*
X49508661Y17688783D01*
X49508661Y17425000D01*
X50419626Y17425000D01*
X50419626Y17688783D01*
X50115269Y17688783D01*
X50115269Y18691155D01*
X50419626Y18691155D01*
G37*
G36*
X48806129Y18975570D02*
G01*
X48896334Y18950816D01*
X48974679Y18910951D01*
X49043083Y18855623D01*
X49102638Y18783204D01*
X49147368Y18704089D01*
X49184511Y18608203D01*
X49213106Y18492694D01*
X49231693Y18354303D01*
X49238376Y18189420D01*
X49231702Y18025063D01*
X49213130Y17887002D01*
X49184546Y17771661D01*
X49147399Y17675816D01*
X49102638Y17596642D01*
X49043087Y17524262D01*
X48974687Y17468959D01*
X48896343Y17429110D01*
X48806134Y17404365D01*
X48701469Y17395691D01*
X48596308Y17404381D01*
X48505777Y17429156D01*
X48427253Y17469027D01*
X48358796Y17524320D01*
X48299293Y17596642D01*
X48254500Y17675821D01*
X48217327Y17771669D01*
X48188725Y17887010D01*
X48170142Y18025068D01*
X48163463Y18189420D01*
X48478079Y18189420D01*
X48485598Y18003546D01*
X48504791Y17874812D01*
X48531385Y17789350D01*
X48563817Y17732646D01*
X48602264Y17695080D01*
X48647389Y17672971D01*
X48701469Y17665335D01*
X48754974Y17672940D01*
X48799765Y17694996D01*
X48838078Y17732554D01*
X48870546Y17789350D01*
X48897094Y17874808D01*
X48916254Y18003542D01*
X48923761Y18189420D01*
X48916244Y18376066D01*
X48897074Y18505076D01*
X48870546Y18590497D01*
X48838073Y18647341D01*
X48799758Y18684926D01*
X48754968Y18706995D01*
X48701469Y18714603D01*
X48647395Y18706963D01*
X48602272Y18684842D01*
X48563822Y18647249D01*
X48531385Y18590497D01*
X48504810Y18505072D01*
X48485608Y18376062D01*
X48478079Y18189420D01*
X48163463Y18189420D01*
X48170150Y18354297D01*
X48188749Y18492685D01*
X48217362Y18608195D01*
X48254530Y18704084D01*
X48299293Y18783204D01*
X48358801Y18855564D01*
X48427261Y18910882D01*
X48505785Y18950770D01*
X48596314Y18975554D01*
X48701469Y18984247D01*
X48806129Y18975570D01*
G37*
G36*
X47624725Y17688783D02*
G01*
X46980198Y17688783D01*
X46980198Y17425000D01*
X47951522Y17425000D01*
X47951522Y17680631D01*
X47787574Y17855112D01*
X47433025Y18237963D01*
X47363840Y18325592D01*
X47322383Y18394400D01*
X47296757Y18463436D01*
X47288586Y18529406D01*
X47296079Y18595136D01*
X47316965Y18646906D01*
X47350593Y18687950D01*
X47395125Y18717820D01*
X47452464Y18736941D01*
X47526264Y18743912D01*
X47609062Y18736574D01*
X47708164Y18712405D01*
X47808991Y18674743D01*
X47918732Y18620813D01*
X47918732Y18902181D01*
X47809102Y18937774D01*
X47704134Y18963181D01*
X47599918Y18979119D01*
X47502725Y18984247D01*
X47380653Y18976169D01*
X47278435Y18953550D01*
X47192797Y18918115D01*
X47121065Y18870582D01*
X47060592Y18808975D01*
X47017761Y18738159D01*
X46991425Y18656304D01*
X46982213Y18560638D01*
X46989891Y18472305D01*
X47012438Y18391011D01*
X47051092Y18311688D01*
X47116486Y18215157D01*
X47195405Y18125753D01*
X47414615Y17900541D01*
X47624725Y17688783D01*
G37*
G36*
X46361501Y17688783D02*
G01*
X45716974Y17688783D01*
X45716974Y17425000D01*
X46688298Y17425000D01*
X46688298Y17680631D01*
X46524350Y17855112D01*
X46169801Y18237963D01*
X46100616Y18325592D01*
X46059159Y18394400D01*
X46033533Y18463436D01*
X46025362Y18529406D01*
X46032855Y18595136D01*
X46053741Y18646906D01*
X46087369Y18687950D01*
X46131901Y18717820D01*
X46189240Y18736941D01*
X46263040Y18743912D01*
X46345838Y18736574D01*
X46444940Y18712405D01*
X46545767Y18674743D01*
X46655508Y18620813D01*
X46655508Y18902181D01*
X46545878Y18937774D01*
X46440910Y18963181D01*
X46336694Y18979119D01*
X46239501Y18984247D01*
X46117429Y18976169D01*
X46015211Y18953550D01*
X45929573Y18918115D01*
X45857841Y18870582D01*
X45797368Y18808975D01*
X45754537Y18738159D01*
X45728201Y18656304D01*
X45718989Y18560638D01*
X45726667Y18472305D01*
X45749214Y18391011D01*
X45787868Y18311688D01*
X45853262Y18215157D01*
X45932181Y18125753D01*
X46151391Y17900541D01*
X46361501Y17688783D01*
G37*
G36*
X75740435Y16434938D02*
G01*
X75438184Y16434938D01*
X75438184Y15830345D01*
X74964750Y16434938D01*
X74622474Y16434938D01*
X75105159Y15832360D01*
X74605072Y14905000D01*
X74941211Y14905000D01*
X75303912Y15593582D01*
X75438184Y15423498D01*
X75438184Y14905000D01*
X75740435Y14905000D01*
X75740435Y16434938D01*
G37*
G36*
X73471999Y14905000D02*
G01*
X74424912Y14905000D01*
X74424912Y16434938D01*
X73471999Y16434938D01*
X73471999Y16171155D01*
X74122662Y16171155D01*
X74122662Y15837031D01*
X73533456Y15837031D01*
X73533456Y15573249D01*
X74122662Y15573249D01*
X74122662Y15168783D01*
X73471999Y15168783D01*
X73471999Y14905000D01*
G37*
G36*
X73325636Y16434938D02*
G01*
X72999847Y16434938D01*
X72702634Y15820087D01*
X72404505Y16434938D01*
X72078624Y16434938D01*
X72551051Y15507578D01*
X72551051Y14905000D01*
X72853301Y14905000D01*
X72853301Y15507578D01*
X73325636Y16434938D01*
G37*
G36*
X71508103Y15590834D02*
G01*
X71670036Y15590834D01*
X71670036Y15854617D01*
X71508103Y15854617D01*
X71434084Y15860320D01*
X71377068Y15875771D01*
X71333439Y15899313D01*
X71299050Y15933140D01*
X71278589Y15974346D01*
X71271432Y16025342D01*
X71278645Y16079204D01*
X71299192Y16122763D01*
X71333439Y16158516D01*
X71377312Y16183801D01*
X71434333Y16200271D01*
X71508103Y16206326D01*
X71595428Y16201268D01*
X71692568Y16185260D01*
X71791219Y16159972D01*
X71896449Y16124261D01*
X71896449Y16399767D01*
X71790946Y16427507D01*
X71688446Y16447577D01*
X71586817Y16460180D01*
X71491708Y16464247D01*
X71369546Y16456621D01*
X71268161Y16435382D01*
X71184134Y16402358D01*
X71114628Y16358459D01*
X71055570Y16300714D01*
X71013885Y16234172D01*
X70988298Y16157086D01*
X70979348Y16066742D01*
X70988570Y15978679D01*
X71014752Y15905256D01*
X71057292Y15843351D01*
X71114238Y15793777D01*
X71187150Y15755737D01*
X71279583Y15729870D01*
X71175048Y15701096D01*
X71093147Y15657347D01*
X71029631Y15599261D01*
X70983067Y15526926D01*
X70953925Y15439017D01*
X70943536Y15331449D01*
X70953342Y15222095D01*
X70980938Y15131397D01*
X71024962Y15055701D01*
X71085960Y14992470D01*
X71159299Y14944413D01*
X71250164Y14907950D01*
X71362234Y14884269D01*
X71499952Y14875691D01*
X71615051Y14880611D01*
X71727922Y14895292D01*
X71838261Y14919347D01*
X71942611Y14951895D01*
X71942611Y15233263D01*
X71843168Y15190547D01*
X71734608Y15158983D01*
X71621075Y15140063D01*
X71499952Y15133612D01*
X71419761Y15140661D01*
X71355992Y15160125D01*
X71305229Y15190581D01*
X71265439Y15232942D01*
X71241754Y15283306D01*
X71233513Y15344271D01*
X71242175Y15419880D01*
X71266322Y15479423D01*
X71305229Y15526629D01*
X71356688Y15560892D01*
X71422913Y15582834D01*
X71508103Y15590834D01*
G37*
G36*
X69453990Y15450151D02*
G01*
X68370926Y15450151D01*
X68370926Y15209816D01*
X69453990Y15209816D01*
X69453990Y15450151D01*
G37*
G36*
X69453990Y15913235D02*
G01*
X68370926Y15913235D01*
X68370926Y15672900D01*
X69453990Y15672900D01*
X69453990Y15913235D01*
G37*
G36*
X66841538Y16171155D02*
G01*
X66841538Y16434938D01*
X65930573Y16434938D01*
X65930573Y16171155D01*
X66234931Y16171155D01*
X66234931Y15168783D01*
X65930573Y15168783D01*
X65930573Y14905000D01*
X66841538Y14905000D01*
X66841538Y15168783D01*
X66537181Y15168783D01*
X66537181Y16171155D01*
X66841538Y16171155D01*
G37*
G36*
X65228041Y16455570D02*
G01*
X65318247Y16430816D01*
X65396591Y16390951D01*
X65464995Y16335623D01*
X65524550Y16263204D01*
X65569280Y16184089D01*
X65606423Y16088203D01*
X65635018Y15972694D01*
X65653605Y15834303D01*
X65660288Y15669420D01*
X65653614Y15505063D01*
X65635042Y15367002D01*
X65606458Y15251661D01*
X65569311Y15155816D01*
X65524550Y15076642D01*
X65464999Y15004262D01*
X65396599Y14948959D01*
X65318255Y14909110D01*
X65228046Y14884365D01*
X65123381Y14875691D01*
X65018221Y14884381D01*
X64927689Y14909156D01*
X64849165Y14949027D01*
X64780708Y15004320D01*
X64721205Y15076642D01*
X64676412Y15155821D01*
X64639239Y15251669D01*
X64610637Y15367010D01*
X64592054Y15505068D01*
X64585375Y15669420D01*
X64899991Y15669420D01*
X64907510Y15483546D01*
X64926703Y15354812D01*
X64953297Y15269350D01*
X64985729Y15212646D01*
X65024176Y15175080D01*
X65069301Y15152971D01*
X65123381Y15145335D01*
X65176886Y15152940D01*
X65221678Y15174996D01*
X65259990Y15212554D01*
X65292459Y15269350D01*
X65319006Y15354808D01*
X65338166Y15483542D01*
X65345673Y15669420D01*
X65338156Y15856066D01*
X65318987Y15985076D01*
X65292459Y16070497D01*
X65259985Y16127341D01*
X65221670Y16164926D01*
X65176880Y16186995D01*
X65123381Y16194603D01*
X65069307Y16186963D01*
X65024184Y16164842D01*
X64985734Y16127249D01*
X64953297Y16070497D01*
X64926722Y15985072D01*
X64907520Y15856062D01*
X64899991Y15669420D01*
X64585375Y15669420D01*
X64592062Y15834297D01*
X64610662Y15972685D01*
X64639275Y16088195D01*
X64676442Y16184084D01*
X64721205Y16263204D01*
X64780713Y16335564D01*
X64849173Y16390882D01*
X64927697Y16430770D01*
X65018226Y16455554D01*
X65123381Y16464247D01*
X65228041Y16455570D01*
G37*
G36*
X64046637Y15168783D02*
G01*
X63402110Y15168783D01*
X63402110Y14905000D01*
X64373434Y14905000D01*
X64373434Y15160631D01*
X64209486Y15335112D01*
X63854937Y15717963D01*
X63785752Y15805592D01*
X63744295Y15874400D01*
X63718669Y15943436D01*
X63710498Y16009406D01*
X63717991Y16075136D01*
X63738877Y16126906D01*
X63772505Y16167950D01*
X63817037Y16197820D01*
X63874376Y16216941D01*
X63948176Y16223912D01*
X64030974Y16216574D01*
X64130076Y16192405D01*
X64230903Y16154743D01*
X64340644Y16100813D01*
X64340644Y16382181D01*
X64231014Y16417774D01*
X64126046Y16443181D01*
X64021830Y16459119D01*
X63924637Y16464247D01*
X63802565Y16456169D01*
X63700348Y16433550D01*
X63614709Y16398115D01*
X63542978Y16350582D01*
X63482504Y16288975D01*
X63439673Y16218159D01*
X63413337Y16136304D01*
X63404125Y16040638D01*
X63411804Y15952305D01*
X63434351Y15871011D01*
X63473004Y15791688D01*
X63538398Y15695157D01*
X63617317Y15605753D01*
X63836527Y15380541D01*
X64046637Y15168783D01*
G37*
G36*
X63035471Y15168783D02*
G01*
X62697317Y15168783D01*
X62697317Y16165294D01*
X63011841Y16083228D01*
X63011841Y16358734D01*
X62695211Y16434938D01*
X62403218Y16434938D01*
X62403218Y15168783D01*
X62065064Y15168783D01*
X62065064Y14905000D01*
X63035471Y14905000D01*
X63035471Y15168783D01*
G37*
G36*
X59318523Y16434938D02*
G01*
X59016272Y16434938D01*
X59016272Y15830345D01*
X58542838Y16434938D01*
X58200562Y16434938D01*
X58683247Y15832360D01*
X58183160Y14905000D01*
X58519299Y14905000D01*
X58882000Y15593582D01*
X59016272Y15423498D01*
X59016272Y14905000D01*
X59318523Y14905000D01*
X59318523Y16434938D01*
G37*
G36*
X57050087Y14905000D02*
G01*
X58003000Y14905000D01*
X58003000Y16434938D01*
X57050087Y16434938D01*
X57050087Y16171155D01*
X57700750Y16171155D01*
X57700750Y15837031D01*
X57111544Y15837031D01*
X57111544Y15573249D01*
X57700750Y15573249D01*
X57700750Y15168783D01*
X57050087Y15168783D01*
X57050087Y14905000D01*
G37*
G36*
X56903724Y16434938D02*
G01*
X56577935Y16434938D01*
X56280722Y15820087D01*
X55982593Y16434938D01*
X55656712Y16434938D01*
X56129139Y15507578D01*
X56129139Y14905000D01*
X56431389Y14905000D01*
X56431389Y15507578D01*
X56903724Y16434938D01*
G37*
G36*
X55544238Y15531209D02*
G01*
X55544238Y15239125D01*
X54937630Y15239125D01*
X54937630Y14905000D01*
X54647653Y14905000D01*
X54647653Y15239125D01*
X54479583Y15239125D01*
X54479583Y15497045D01*
X54647653Y15497045D01*
X54937630Y15497045D01*
X55323961Y15497045D01*
X54937630Y16099806D01*
X54937630Y15497045D01*
X54647653Y15497045D01*
X54647653Y16434938D01*
X54964283Y16434938D01*
X55544238Y15531209D01*
G37*
G36*
X53032078Y15450151D02*
G01*
X51949014Y15450151D01*
X51949014Y15209816D01*
X53032078Y15209816D01*
X53032078Y15450151D01*
G37*
G36*
X53032078Y15913235D02*
G01*
X51949014Y15913235D01*
X51949014Y15672900D01*
X53032078Y15672900D01*
X53032078Y15913235D01*
G37*
G36*
X50419626Y16171155D02*
G01*
X50419626Y16434938D01*
X49508661Y16434938D01*
X49508661Y16171155D01*
X49813019Y16171155D01*
X49813019Y15168783D01*
X49508661Y15168783D01*
X49508661Y14905000D01*
X50419626Y14905000D01*
X50419626Y15168783D01*
X50115269Y15168783D01*
X50115269Y16171155D01*
X50419626Y16171155D01*
G37*
G36*
X48806129Y16455570D02*
G01*
X48896334Y16430816D01*
X48974679Y16390951D01*
X49043083Y16335623D01*
X49102638Y16263204D01*
X49147368Y16184089D01*
X49184511Y16088203D01*
X49213106Y15972694D01*
X49231693Y15834303D01*
X49238376Y15669420D01*
X49231702Y15505063D01*
X49213130Y15367002D01*
X49184546Y15251661D01*
X49147399Y15155816D01*
X49102638Y15076642D01*
X49043087Y15004262D01*
X48974687Y14948959D01*
X48896343Y14909110D01*
X48806134Y14884365D01*
X48701469Y14875691D01*
X48596308Y14884381D01*
X48505777Y14909156D01*
X48427253Y14949027D01*
X48358796Y15004320D01*
X48299293Y15076642D01*
X48254500Y15155821D01*
X48217327Y15251669D01*
X48188725Y15367010D01*
X48170142Y15505068D01*
X48163463Y15669420D01*
X48478079Y15669420D01*
X48485598Y15483546D01*
X48504791Y15354812D01*
X48531385Y15269350D01*
X48563817Y15212646D01*
X48602264Y15175080D01*
X48647389Y15152971D01*
X48701469Y15145335D01*
X48754974Y15152940D01*
X48799765Y15174996D01*
X48838078Y15212554D01*
X48870546Y15269350D01*
X48897094Y15354808D01*
X48916254Y15483542D01*
X48923761Y15669420D01*
X48916244Y15856066D01*
X48897074Y15985076D01*
X48870546Y16070497D01*
X48838073Y16127341D01*
X48799758Y16164926D01*
X48754968Y16186995D01*
X48701469Y16194603D01*
X48647395Y16186963D01*
X48602272Y16164842D01*
X48563822Y16127249D01*
X48531385Y16070497D01*
X48504810Y15985072D01*
X48485608Y15856062D01*
X48478079Y15669420D01*
X48163463Y15669420D01*
X48170150Y15834297D01*
X48188749Y15972685D01*
X48217362Y16088195D01*
X48254530Y16184084D01*
X48299293Y16263204D01*
X48358801Y16335564D01*
X48427261Y16390882D01*
X48505785Y16430770D01*
X48596314Y16455554D01*
X48701469Y16464247D01*
X48806129Y16455570D01*
G37*
G36*
X47624725Y15168783D02*
G01*
X46980198Y15168783D01*
X46980198Y14905000D01*
X47951522Y14905000D01*
X47951522Y15160631D01*
X47787574Y15335112D01*
X47433025Y15717963D01*
X47363840Y15805592D01*
X47322383Y15874400D01*
X47296757Y15943436D01*
X47288586Y16009406D01*
X47296079Y16075136D01*
X47316965Y16126906D01*
X47350593Y16167950D01*
X47395125Y16197820D01*
X47452464Y16216941D01*
X47526264Y16223912D01*
X47609062Y16216574D01*
X47708164Y16192405D01*
X47808991Y16154743D01*
X47918732Y16100813D01*
X47918732Y16382181D01*
X47809102Y16417774D01*
X47704134Y16443181D01*
X47599918Y16459119D01*
X47502725Y16464247D01*
X47380653Y16456169D01*
X47278435Y16433550D01*
X47192797Y16398115D01*
X47121065Y16350582D01*
X47060592Y16288975D01*
X47017761Y16218159D01*
X46991425Y16136304D01*
X46982213Y16040638D01*
X46989891Y15952305D01*
X47012438Y15871011D01*
X47051092Y15791688D01*
X47116486Y15695157D01*
X47195405Y15605753D01*
X47414615Y15380541D01*
X47624725Y15168783D01*
G37*
G36*
X46274504Y16455714D02*
G01*
X46359939Y16431383D01*
X46433915Y16392155D01*
X46498308Y16337552D01*
X46554117Y16265769D01*
X46604484Y16166307D01*
X46644064Y16038157D01*
X46670437Y15874958D01*
X46680146Y15669420D01*
X46670448Y15464509D01*
X46644093Y15301642D01*
X46604515Y15173598D01*
X46554117Y15074078D01*
X46498313Y15002333D01*
X46433923Y14947756D01*
X46359947Y14908543D01*
X46274509Y14884221D01*
X46175021Y14875691D01*
X46075012Y14884222D01*
X45989228Y14908529D01*
X45915055Y14947683D01*
X45850595Y15002124D01*
X45794827Y15073620D01*
X45744473Y15172861D01*
X45704893Y15300828D01*
X45678512Y15463907D01*
X45668797Y15669420D01*
X45668853Y15670610D01*
X45973155Y15670610D01*
X45979943Y15481304D01*
X45997298Y15349534D01*
X46021331Y15261656D01*
X46051496Y15201829D01*
X46086683Y15163260D01*
X46127155Y15141134D01*
X46174930Y15133612D01*
X46222223Y15141109D01*
X46262401Y15163197D01*
X46297450Y15201783D01*
X46327612Y15261748D01*
X46337870Y15291423D01*
X45980299Y15861211D01*
X45973155Y15670610D01*
X45668853Y15670610D01*
X45678522Y15875556D01*
X45704919Y16038984D01*
X45715165Y16072145D01*
X46019225Y16072145D01*
X46371667Y15509593D01*
X46375789Y15668412D01*
X46369006Y15858360D01*
X46351676Y15990356D01*
X46327704Y16078190D01*
X46297499Y16138156D01*
X46262420Y16176743D01*
X46222226Y16198831D01*
X46174930Y16206326D01*
X46127153Y16198805D01*
X46086664Y16176680D01*
X46051448Y16138110D01*
X46021240Y16078282D01*
X46019225Y16072145D01*
X45715165Y16072145D01*
X45744501Y16167090D01*
X45794827Y16266319D01*
X45850595Y16337814D01*
X45915055Y16392255D01*
X45989228Y16431409D01*
X46075012Y16455716D01*
X46175021Y16464247D01*
X46274504Y16455714D01*
G37*
G36*
X79538350Y12461204D02*
G01*
X79538350Y12812914D01*
X79445685Y12730969D01*
X79350314Y12673238D01*
X79282438Y12646282D01*
X79215541Y12630525D01*
X79148905Y12625335D01*
X79071982Y12633036D01*
X79015616Y12653704D01*
X78974699Y12685511D01*
X78945953Y12729240D01*
X78926683Y12791231D01*
X78919378Y12877577D01*
X78919378Y13651155D01*
X79289314Y13651155D01*
X79289314Y13914938D01*
X78617127Y13914938D01*
X78617127Y12877577D01*
X78626197Y12733977D01*
X78650624Y12623480D01*
X78687245Y12539425D01*
X78734455Y12476408D01*
X78796211Y12427425D01*
X78877741Y12389808D01*
X78984009Y12364899D01*
X79121244Y12355691D01*
X79219312Y12362163D01*
X79324668Y12382344D01*
X79429938Y12414950D01*
X79538350Y12461204D01*
G37*
G36*
X78189030Y13914938D02*
G01*
X77358025Y13914938D01*
X77358025Y13651155D01*
X77944116Y13651155D01*
X77944116Y13365574D01*
X77865256Y13386549D01*
X77776046Y13393235D01*
X77664287Y13383657D01*
X77567236Y13356219D01*
X77482197Y13311777D01*
X77407209Y13249712D01*
X77346175Y13173859D01*
X77302356Y13087801D01*
X77275257Y12989565D01*
X77265792Y12876478D01*
X77276152Y12758038D01*
X77305610Y12657120D01*
X77353027Y12570436D01*
X77419024Y12495643D01*
X77499103Y12436429D01*
X77593416Y12392918D01*
X77704710Y12365440D01*
X77836496Y12355691D01*
X77934987Y12359689D01*
X78035341Y12371811D01*
X78135824Y12391742D01*
X78240230Y12420171D01*
X78240230Y12689816D01*
X78153731Y12653810D01*
X78065566Y12628266D01*
X77975552Y12612855D01*
X77885681Y12607750D01*
X77781079Y12616521D01*
X77702075Y12640161D01*
X77642873Y12676169D01*
X77597774Y12727161D01*
X77569899Y12792141D01*
X77559891Y12875471D01*
X77569486Y12952089D01*
X77596911Y13015401D01*
X77642415Y13068545D01*
X77701230Y13107809D01*
X77773286Y13132393D01*
X77862142Y13141176D01*
X77942880Y13136093D01*
X78024624Y13120660D01*
X78105445Y13095386D01*
X78189030Y13059111D01*
X78189030Y13914938D01*
G37*
G36*
X71548037Y13055813D02*
G01*
X71698195Y13122250D01*
X71796979Y13183262D01*
X71857523Y13239087D01*
X71901072Y13307405D01*
X71928594Y13392083D01*
X71938490Y13497466D01*
X71929463Y13599955D01*
X71903836Y13686905D01*
X71862637Y13761254D01*
X71805316Y13825087D01*
X71735822Y13875309D01*
X71653460Y13912383D01*
X71555738Y13935885D01*
X71439501Y13944247D01*
X71334300Y13938351D01*
X71228476Y13920525D01*
X71123985Y13891344D01*
X71019373Y13850458D01*
X71019373Y13557366D01*
X71118752Y13616062D01*
X71217210Y13657750D01*
X71318008Y13683737D01*
X71415963Y13692188D01*
X71487986Y13686574D01*
X71542747Y13671442D01*
X71584032Y13648499D01*
X71616154Y13615610D01*
X71635529Y13574782D01*
X71642376Y13523477D01*
X71631576Y13465507D01*
X71599877Y13419338D01*
X71544054Y13381249D01*
X71422008Y13328388D01*
X71291857Y13278655D01*
X71173782Y13225287D01*
X71085050Y13165203D01*
X71020381Y13098953D01*
X70973050Y13020261D01*
X70943653Y12927344D01*
X70933278Y12816669D01*
X70942967Y12701517D01*
X70969924Y12608019D01*
X71012296Y12531929D01*
X71070115Y12470180D01*
X71140524Y12423518D01*
X71229919Y12387747D01*
X71342554Y12364271D01*
X71483557Y12355691D01*
X71597010Y12362306D01*
X71711527Y12382344D01*
X71823674Y12415281D01*
X71932353Y12461204D01*
X71932353Y12771881D01*
X71810380Y12697857D01*
X71698246Y12648233D01*
X71584468Y12617665D01*
X71474306Y12607750D01*
X71401430Y12614074D01*
X71344911Y12631338D01*
X71301199Y12658033D01*
X71267422Y12695370D01*
X71246906Y12741366D01*
X71239650Y12798717D01*
X71250000Y12862846D01*
X71280683Y12918061D01*
X71329061Y12962673D01*
X71399476Y12998844D01*
X71548037Y13055813D01*
G37*
G36*
X70176186Y12637059D02*
G01*
X69906725Y13914938D01*
X69602368Y13914938D01*
X69966168Y12385000D01*
X70385288Y12385000D01*
X70748996Y13914938D01*
X70444731Y13914938D01*
X70176186Y12637059D01*
G37*
G36*
X68436505Y12431895D02*
G01*
X68510029Y12398556D01*
X68587172Y12374742D01*
X68667376Y12360537D01*
X68753135Y12355691D01*
X68876861Y12364727D01*
X68983453Y12390410D01*
X69075725Y12431412D01*
X69155901Y12487542D01*
X69225471Y12559756D01*
X69280351Y12641776D01*
X69325038Y12739071D01*
X69358901Y12854097D01*
X69380652Y12989777D01*
X69388411Y13149420D01*
X69380643Y13309577D01*
X69358874Y13445595D01*
X69325000Y13560814D01*
X69280318Y13658183D01*
X69225471Y13740182D01*
X69155901Y13812396D01*
X69075725Y13868527D01*
X68983453Y13909528D01*
X68876861Y13935211D01*
X68753135Y13944247D01*
X68667245Y13939416D01*
X68586165Y13925196D01*
X68508463Y13901265D01*
X68436505Y13868043D01*
X68436505Y13533919D01*
X68515957Y13598998D01*
X68587630Y13640714D01*
X68662382Y13666205D01*
X68738756Y13674603D01*
X68818693Y13665868D01*
X68885380Y13641012D01*
X68941718Y13600408D01*
X68989349Y13542254D01*
X69023270Y13475852D01*
X69049808Y13391010D01*
X69067422Y13283729D01*
X69073887Y13149420D01*
X69067433Y13015737D01*
X69049837Y12908789D01*
X69023301Y12824054D01*
X68989349Y12757593D01*
X68941724Y12699484D01*
X68885388Y12658908D01*
X68818699Y12634065D01*
X68738756Y12625335D01*
X68662382Y12633733D01*
X68587630Y12659224D01*
X68515957Y12700940D01*
X68436505Y12766019D01*
X68436505Y12431895D01*
G37*
G36*
X67017576Y12191560D02*
G01*
X67017576Y11986396D01*
X68280983Y11986396D01*
X68280983Y12191560D01*
X67017576Y12191560D01*
G37*
G36*
X66841538Y13651155D02*
G01*
X66841538Y13914938D01*
X65930573Y13914938D01*
X65930573Y13651155D01*
X66234931Y13651155D01*
X66234931Y12648783D01*
X65930573Y12648783D01*
X65930573Y12385000D01*
X66841538Y12385000D01*
X66841538Y12648783D01*
X66537181Y12648783D01*
X66537181Y13651155D01*
X66841538Y13651155D01*
G37*
G36*
X65228041Y13935570D02*
G01*
X65318247Y13910816D01*
X65396591Y13870951D01*
X65464995Y13815623D01*
X65524550Y13743204D01*
X65569280Y13664089D01*
X65606423Y13568203D01*
X65635018Y13452694D01*
X65653605Y13314303D01*
X65660288Y13149420D01*
X65653614Y12985063D01*
X65635042Y12847002D01*
X65606458Y12731661D01*
X65569311Y12635816D01*
X65524550Y12556642D01*
X65464999Y12484262D01*
X65396599Y12428959D01*
X65318255Y12389110D01*
X65228046Y12364365D01*
X65123381Y12355691D01*
X65018221Y12364381D01*
X64927689Y12389156D01*
X64849165Y12429027D01*
X64780708Y12484320D01*
X64721205Y12556642D01*
X64676412Y12635821D01*
X64639239Y12731669D01*
X64610637Y12847010D01*
X64592054Y12985068D01*
X64585375Y13149420D01*
X64899991Y13149420D01*
X64907510Y12963546D01*
X64926703Y12834812D01*
X64953297Y12749350D01*
X64985729Y12692646D01*
X65024176Y12655080D01*
X65069301Y12632971D01*
X65123381Y12625335D01*
X65176886Y12632940D01*
X65221678Y12654996D01*
X65259990Y12692554D01*
X65292459Y12749350D01*
X65319006Y12834808D01*
X65338166Y12963542D01*
X65345673Y13149420D01*
X65338156Y13336066D01*
X65318987Y13465076D01*
X65292459Y13550497D01*
X65259985Y13607341D01*
X65221670Y13644926D01*
X65176880Y13666995D01*
X65123381Y13674603D01*
X65069307Y13666963D01*
X65024184Y13644842D01*
X64985734Y13607249D01*
X64953297Y13550497D01*
X64926722Y13465072D01*
X64907520Y13336062D01*
X64899991Y13149420D01*
X64585375Y13149420D01*
X64592062Y13314297D01*
X64610662Y13452685D01*
X64639275Y13568195D01*
X64676442Y13664084D01*
X64721205Y13743204D01*
X64780713Y13815564D01*
X64849173Y13870882D01*
X64927697Y13910770D01*
X65018226Y13935554D01*
X65123381Y13944247D01*
X65228041Y13935570D01*
G37*
G36*
X63318030Y13533919D02*
G01*
X63704361Y12984098D01*
X63284233Y12385000D01*
X63634660Y12385000D01*
X63860066Y12771698D01*
X64084464Y12385000D01*
X64434983Y12385000D01*
X64010733Y12984098D01*
X64401094Y13533919D01*
X64050667Y13533919D01*
X63860066Y13191277D01*
X63668457Y13533919D01*
X63318030Y13533919D01*
G37*
G36*
X61874646Y12930151D02*
G01*
X60791582Y12930151D01*
X60791582Y12689816D01*
X61874646Y12689816D01*
X61874646Y12930151D01*
G37*
G36*
X61874646Y13393235D02*
G01*
X60791582Y13393235D01*
X60791582Y13152900D01*
X61874646Y13152900D01*
X61874646Y13393235D01*
G37*
G36*
X58544853Y12660323D02*
G01*
X58544853Y12953598D01*
X58751849Y12953598D01*
X58751849Y13205656D01*
X58280521Y13205656D01*
X58280521Y12506267D01*
X58372388Y12440847D01*
X58472679Y12393793D01*
X58580403Y12365382D01*
X58697535Y12355691D01*
X58815632Y12364680D01*
X58918317Y12390358D01*
X59008170Y12431627D01*
X59087194Y12488545D01*
X59156681Y12562321D01*
X59211392Y12645391D01*
X59255822Y12743136D01*
X59289386Y12857848D01*
X59310878Y12992249D01*
X59318523Y13149420D01*
X59310736Y13309550D01*
X59288912Y13445554D01*
X59254948Y13560774D01*
X59210141Y13658157D01*
X59155124Y13740182D01*
X59085330Y13812456D01*
X59005059Y13868599D01*
X58912846Y13909580D01*
X58806501Y13935229D01*
X58683247Y13944247D01*
X58591852Y13937844D01*
X58501897Y13918601D01*
X58415399Y13887221D01*
X58334835Y13844596D01*
X58334835Y13510472D01*
X58404162Y13582793D01*
X58480922Y13633295D01*
X58566621Y13664111D01*
X58661723Y13674603D01*
X58745057Y13665861D01*
X58813828Y13641144D01*
X58871160Y13601130D01*
X58918911Y13544360D01*
X58952852Y13478956D01*
X58979540Y13394329D01*
X58997344Y13286146D01*
X59003907Y13149420D01*
X58997681Y13017413D01*
X58980659Y12911097D01*
X58954922Y12826245D01*
X58921933Y12759150D01*
X58875405Y12699748D01*
X58821239Y12658782D01*
X58758042Y12633983D01*
X58683155Y12625335D01*
X58601273Y12634037D01*
X58568782Y12645446D01*
X58544853Y12660323D01*
G37*
G36*
X58009228Y12385000D02*
G01*
X57706886Y12385000D01*
X57706886Y12959460D01*
X57594229Y12959460D01*
X57430553Y12968313D01*
X57304825Y12992060D01*
X57209638Y13027303D01*
X57138747Y13071934D01*
X57080958Y13132848D01*
X57037920Y13211095D01*
X57010059Y13310715D01*
X56999895Y13437199D01*
X57314419Y13437199D01*
X57322350Y13356345D01*
X57343144Y13300163D01*
X57374411Y13261985D01*
X57417765Y13236482D01*
X57484365Y13218548D01*
X57582964Y13211518D01*
X57706886Y13211518D01*
X57706886Y13662879D01*
X57582964Y13662879D01*
X57484374Y13655838D01*
X57417774Y13637873D01*
X57374411Y13612321D01*
X57343147Y13574197D01*
X57322352Y13518051D01*
X57314419Y13437199D01*
X56999895Y13437199D01*
X57010061Y13563684D01*
X57037923Y13663286D01*
X57080961Y13741500D01*
X57138747Y13802372D01*
X57209645Y13847042D01*
X57304834Y13882313D01*
X57430561Y13906078D01*
X57594229Y13914938D01*
X58009228Y13914938D01*
X58009228Y12385000D01*
G37*
G36*
X56735746Y13651155D02*
G01*
X56735746Y13914938D01*
X55824781Y13914938D01*
X55824781Y13651155D01*
X56129139Y13651155D01*
X56129139Y12648783D01*
X55824781Y12648783D01*
X55824781Y12385000D01*
X56735746Y12385000D01*
X56735746Y12648783D01*
X56431389Y12648783D01*
X56431389Y13651155D01*
X56735746Y13651155D01*
G37*
G36*
X55122249Y13935570D02*
G01*
X55212454Y13910816D01*
X55290799Y13870951D01*
X55359203Y13815623D01*
X55418758Y13743204D01*
X55463488Y13664089D01*
X55500631Y13568203D01*
X55529226Y13452694D01*
X55547813Y13314303D01*
X55554496Y13149420D01*
X55547822Y12985063D01*
X55529250Y12847002D01*
X55500666Y12731661D01*
X55463519Y12635816D01*
X55418758Y12556642D01*
X55359207Y12484262D01*
X55290807Y12428959D01*
X55212463Y12389110D01*
X55122254Y12364365D01*
X55017589Y12355691D01*
X54912429Y12364381D01*
X54821897Y12389156D01*
X54743373Y12429027D01*
X54674916Y12484320D01*
X54615413Y12556642D01*
X54570620Y12635821D01*
X54533447Y12731669D01*
X54504845Y12847010D01*
X54486262Y12985068D01*
X54479583Y13149420D01*
X54794199Y13149420D01*
X54801718Y12963546D01*
X54820911Y12834812D01*
X54847505Y12749350D01*
X54879937Y12692646D01*
X54918384Y12655080D01*
X54963509Y12632971D01*
X55017589Y12625335D01*
X55071094Y12632940D01*
X55115885Y12654996D01*
X55154198Y12692554D01*
X55186666Y12749350D01*
X55213214Y12834808D01*
X55232374Y12963542D01*
X55239881Y13149420D01*
X55232364Y13336066D01*
X55213194Y13465076D01*
X55186666Y13550497D01*
X55154193Y13607341D01*
X55115878Y13644926D01*
X55071088Y13666995D01*
X55017589Y13674603D01*
X54963515Y13666963D01*
X54918392Y13644842D01*
X54879942Y13607249D01*
X54847505Y13550497D01*
X54820930Y13465072D01*
X54801728Y13336062D01*
X54794199Y13149420D01*
X54479583Y13149420D01*
X54486270Y13314297D01*
X54504870Y13452685D01*
X54533482Y13568195D01*
X54570650Y13664084D01*
X54615413Y13743204D01*
X54674921Y13815564D01*
X54743381Y13870882D01*
X54821905Y13910770D01*
X54912434Y13935554D01*
X55017589Y13944247D01*
X55122249Y13935570D01*
G37*
G36*
X53212238Y13533919D02*
G01*
X53598569Y12984098D01*
X53178441Y12385000D01*
X53528868Y12385000D01*
X53754274Y12771698D01*
X53978672Y12385000D01*
X54329191Y12385000D01*
X53904941Y12984098D01*
X54295302Y13533919D01*
X53944875Y13533919D01*
X53754274Y13191277D01*
X53562665Y13533919D01*
X53212238Y13533919D01*
G37*
G36*
X71962028Y10431400D02*
G01*
X71962028Y11394938D01*
X71659778Y11394938D01*
X71659778Y10355654D01*
X71652600Y10281383D01*
X71632747Y10222672D01*
X71601434Y10176135D01*
X71558590Y10140724D01*
X71505624Y10118945D01*
X71439501Y10111197D01*
X71373320Y10118950D01*
X71320359Y10140732D01*
X71277568Y10176135D01*
X71246203Y10222679D01*
X71226321Y10281390D01*
X71219133Y10355654D01*
X71219133Y11394938D01*
X70916883Y11394938D01*
X70916883Y10431400D01*
X70926423Y10271311D01*
X70952221Y10146623D01*
X70990990Y10050525D01*
X71040897Y9977383D01*
X71092526Y9929335D01*
X71155839Y9890642D01*
X71232879Y9861383D01*
X71326335Y9842491D01*
X71439410Y9835691D01*
X71576974Y9846135D01*
X71685563Y9874732D01*
X71770959Y9918733D01*
X71837556Y9977383D01*
X71887665Y10050558D01*
X71926574Y10146670D01*
X71952458Y10271349D01*
X71962028Y10431400D01*
G37*
G36*
X70773634Y9865000D02*
G01*
X70471292Y9865000D01*
X70379152Y10246019D01*
X69974411Y10246019D01*
X69880072Y9865000D01*
X69577821Y9865000D01*
X69747129Y10492216D01*
X70032754Y10492216D01*
X70318702Y10492216D01*
X70176186Y11118241D01*
X70032754Y10492216D01*
X69747129Y10492216D01*
X69990806Y11394938D01*
X70360650Y11394938D01*
X70773634Y9865000D01*
G37*
G36*
X69407920Y9865000D02*
G01*
X69105669Y9865000D01*
X69105669Y10468769D01*
X69009316Y10468769D01*
X68961209Y10459930D01*
X68914464Y10432133D01*
X68867142Y10380294D01*
X68818715Y10295845D01*
X68797191Y10250782D01*
X68612818Y9865000D01*
X68280800Y9865000D01*
X68557405Y10414547D01*
X68606131Y10501215D01*
X68638921Y10543324D01*
X68675300Y10570539D01*
X68717323Y10585639D01*
X68625459Y10607394D01*
X68552937Y10644828D01*
X68495948Y10697563D01*
X68454687Y10763912D01*
X68428526Y10846366D01*
X68420639Y10932403D01*
X68731612Y10932403D01*
X68738654Y10858996D01*
X68757285Y10806719D01*
X68785467Y10770103D01*
X68824581Y10744728D01*
X68881729Y10727455D01*
X68963245Y10720827D01*
X69105669Y10720827D01*
X69105669Y11142879D01*
X68963245Y11142879D01*
X68880970Y11136286D01*
X68823722Y11119170D01*
X68784918Y11094153D01*
X68757072Y11057915D01*
X68738608Y11005858D01*
X68731612Y10932403D01*
X68420639Y10932403D01*
X68419103Y10949164D01*
X68428544Y11067557D01*
X68454392Y11160624D01*
X68494259Y11233547D01*
X68547697Y11290158D01*
X68613379Y11331703D01*
X68701786Y11364535D01*
X68818799Y11386676D01*
X68971397Y11394938D01*
X69407920Y11394938D01*
X69407920Y9865000D01*
G37*
G36*
X67498155Y9865000D02*
G01*
X67800405Y9865000D01*
X67800405Y11131155D01*
X68188751Y11131155D01*
X68188751Y11394938D01*
X67109808Y11394938D01*
X67109808Y11131155D01*
X67498155Y11131155D01*
X67498155Y9865000D01*
G37*
G36*
X65618248Y9865000D02*
G01*
X65315997Y9865000D01*
X65315997Y10468769D01*
X65219644Y10468769D01*
X65171537Y10459930D01*
X65124791Y10432133D01*
X65077470Y10380294D01*
X65029043Y10295845D01*
X65007519Y10250782D01*
X64823146Y9865000D01*
X64491128Y9865000D01*
X64767733Y10414547D01*
X64816459Y10501215D01*
X64849249Y10543324D01*
X64885628Y10570539D01*
X64927651Y10585639D01*
X64835787Y10607394D01*
X64763265Y10644828D01*
X64706276Y10697563D01*
X64665015Y10763912D01*
X64638854Y10846366D01*
X64630967Y10932403D01*
X64941939Y10932403D01*
X64948982Y10858996D01*
X64967613Y10806719D01*
X64995795Y10770103D01*
X65034909Y10744728D01*
X65092057Y10727455D01*
X65173573Y10720827D01*
X65315997Y10720827D01*
X65315997Y11142879D01*
X65173573Y11142879D01*
X65091298Y11136286D01*
X65034050Y11119170D01*
X64995245Y11094153D01*
X64967400Y11057915D01*
X64948936Y11005858D01*
X64941939Y10932403D01*
X64630967Y10932403D01*
X64629431Y10949164D01*
X64638872Y11067557D01*
X64664720Y11160624D01*
X64704587Y11233547D01*
X64758025Y11290158D01*
X64823707Y11331703D01*
X64912114Y11364535D01*
X65029127Y11386676D01*
X65181725Y11394938D01*
X65618248Y11394938D01*
X65618248Y9865000D01*
G37*
G36*
X63255565Y9865000D02*
G01*
X63568073Y9865000D01*
X63860066Y10371224D01*
X64151142Y9865000D01*
X64463651Y9865000D01*
X64014855Y10641784D01*
X64451378Y11394938D01*
X64138777Y11394938D01*
X63860066Y10908223D01*
X63580347Y11394938D01*
X63267838Y11394938D01*
X63702346Y10641784D01*
X63255565Y9865000D01*
G37*
G36*
X61874646Y10410151D02*
G01*
X60791582Y10410151D01*
X60791582Y10169816D01*
X61874646Y10169816D01*
X61874646Y10410151D01*
G37*
G36*
X61874646Y10873235D02*
G01*
X60791582Y10873235D01*
X60791582Y10632900D01*
X61874646Y10632900D01*
X61874646Y10873235D01*
G37*
G36*
X59262194Y11131155D02*
G01*
X59262194Y11394938D01*
X58351229Y11394938D01*
X58351229Y11131155D01*
X58655587Y11131155D01*
X58655587Y10128783D01*
X58351229Y10128783D01*
X58351229Y9865000D01*
X59262194Y9865000D01*
X59262194Y10128783D01*
X58957837Y10128783D01*
X58957837Y11131155D01*
X59262194Y11131155D01*
G37*
G36*
X57648697Y11415570D02*
G01*
X57738903Y11390816D01*
X57817247Y11350951D01*
X57885651Y11295623D01*
X57945206Y11223204D01*
X57989936Y11144089D01*
X58027079Y11048203D01*
X58055674Y10932694D01*
X58074261Y10794303D01*
X58080944Y10629420D01*
X58074270Y10465063D01*
X58055698Y10327002D01*
X58027114Y10211661D01*
X57989967Y10115816D01*
X57945206Y10036642D01*
X57885655Y9964262D01*
X57817255Y9908959D01*
X57738911Y9869110D01*
X57648702Y9844365D01*
X57544037Y9835691D01*
X57438877Y9844381D01*
X57348345Y9869156D01*
X57269821Y9909027D01*
X57201364Y9964320D01*
X57141861Y10036642D01*
X57097068Y10115821D01*
X57059895Y10211669D01*
X57031293Y10327010D01*
X57012710Y10465068D01*
X57006031Y10629420D01*
X57320647Y10629420D01*
X57328166Y10443546D01*
X57347359Y10314812D01*
X57373953Y10229350D01*
X57406385Y10172646D01*
X57444832Y10135080D01*
X57489957Y10112971D01*
X57544037Y10105335D01*
X57597542Y10112940D01*
X57642333Y10134996D01*
X57680646Y10172554D01*
X57713114Y10229350D01*
X57739662Y10314808D01*
X57758822Y10443542D01*
X57766329Y10629420D01*
X57758812Y10816066D01*
X57739642Y10945076D01*
X57713114Y11030497D01*
X57680641Y11087341D01*
X57642326Y11124926D01*
X57597536Y11146995D01*
X57544037Y11154603D01*
X57489963Y11146963D01*
X57444840Y11124842D01*
X57406390Y11087249D01*
X57373953Y11030497D01*
X57347378Y10945072D01*
X57328176Y10816062D01*
X57320647Y10629420D01*
X57006031Y10629420D01*
X57012718Y10794297D01*
X57031318Y10932685D01*
X57059930Y11048195D01*
X57097098Y11144084D01*
X57141861Y11223204D01*
X57201369Y11295564D01*
X57269829Y11350882D01*
X57348353Y11390770D01*
X57438882Y11415554D01*
X57544037Y11424247D01*
X57648697Y11415570D01*
G37*
G36*
X56719351Y10128783D02*
G01*
X56381197Y10128783D01*
X56381197Y11125294D01*
X56695721Y11043228D01*
X56695721Y11318734D01*
X56379091Y11394938D01*
X56087098Y11394938D01*
X56087098Y10128783D01*
X55748944Y10128783D01*
X55748944Y9865000D01*
X56719351Y9865000D01*
X56719351Y10128783D01*
G37*
G36*
X55510441Y11394938D02*
G01*
X54543148Y11394938D01*
X54543148Y11180798D01*
X55061645Y9865000D01*
X55370032Y9865000D01*
X54872051Y11131155D01*
X55510441Y11131155D01*
X55510441Y11394938D01*
G37*
G36*
X71962028Y7911400D02*
G01*
X71962028Y8874938D01*
X71659778Y8874938D01*
X71659778Y7835654D01*
X71652600Y7761383D01*
X71632747Y7702672D01*
X71601434Y7656135D01*
X71558590Y7620724D01*
X71505624Y7598945D01*
X71439501Y7591197D01*
X71373320Y7598950D01*
X71320359Y7620732D01*
X71277568Y7656135D01*
X71246203Y7702679D01*
X71226321Y7761390D01*
X71219133Y7835654D01*
X71219133Y8874938D01*
X70916883Y8874938D01*
X70916883Y7911400D01*
X70926423Y7751311D01*
X70952221Y7626623D01*
X70990990Y7530525D01*
X71040897Y7457383D01*
X71092526Y7409335D01*
X71155839Y7370642D01*
X71232879Y7341383D01*
X71326335Y7322491D01*
X71439410Y7315691D01*
X71576974Y7326135D01*
X71685563Y7354732D01*
X71770959Y7398733D01*
X71837556Y7457383D01*
X71887665Y7530558D01*
X71926574Y7626670D01*
X71952458Y7751349D01*
X71962028Y7911400D01*
G37*
G36*
X70773634Y7345000D02*
G01*
X70471292Y7345000D01*
X70379152Y7726019D01*
X69974411Y7726019D01*
X69880072Y7345000D01*
X69577821Y7345000D01*
X69747129Y7972216D01*
X70032754Y7972216D01*
X70318702Y7972216D01*
X70176186Y8598241D01*
X70032754Y7972216D01*
X69747129Y7972216D01*
X69990806Y8874938D01*
X70360650Y8874938D01*
X70773634Y7345000D01*
G37*
G36*
X69407920Y7345000D02*
G01*
X69105669Y7345000D01*
X69105669Y7948769D01*
X69009316Y7948769D01*
X68961209Y7939930D01*
X68914464Y7912133D01*
X68867142Y7860294D01*
X68818715Y7775845D01*
X68797191Y7730782D01*
X68612818Y7345000D01*
X68280800Y7345000D01*
X68557405Y7894547D01*
X68606131Y7981215D01*
X68638921Y8023324D01*
X68675300Y8050539D01*
X68717323Y8065639D01*
X68625459Y8087394D01*
X68552937Y8124828D01*
X68495948Y8177563D01*
X68454687Y8243912D01*
X68428526Y8326366D01*
X68420639Y8412403D01*
X68731612Y8412403D01*
X68738654Y8338996D01*
X68757285Y8286719D01*
X68785467Y8250103D01*
X68824581Y8224728D01*
X68881729Y8207455D01*
X68963245Y8200827D01*
X69105669Y8200827D01*
X69105669Y8622879D01*
X68963245Y8622879D01*
X68880970Y8616286D01*
X68823722Y8599170D01*
X68784918Y8574153D01*
X68757072Y8537915D01*
X68738608Y8485858D01*
X68731612Y8412403D01*
X68420639Y8412403D01*
X68419103Y8429164D01*
X68428544Y8547557D01*
X68454392Y8640624D01*
X68494259Y8713547D01*
X68547697Y8770158D01*
X68613379Y8811703D01*
X68701786Y8844535D01*
X68818799Y8866676D01*
X68971397Y8874938D01*
X69407920Y8874938D01*
X69407920Y7345000D01*
G37*
G36*
X67498155Y7345000D02*
G01*
X67800405Y7345000D01*
X67800405Y8611155D01*
X68188751Y8611155D01*
X68188751Y8874938D01*
X67109808Y8874938D01*
X67109808Y8611155D01*
X67498155Y8611155D01*
X67498155Y7345000D01*
G37*
G36*
X64971707Y7345000D02*
G01*
X65273957Y7345000D01*
X65273957Y8611155D01*
X65662303Y8611155D01*
X65662303Y8874938D01*
X64583360Y8874938D01*
X64583360Y8611155D01*
X64971707Y8611155D01*
X64971707Y7345000D01*
G37*
G36*
X63255565Y7345000D02*
G01*
X63568073Y7345000D01*
X63860066Y7851224D01*
X64151142Y7345000D01*
X64463651Y7345000D01*
X64014855Y8121784D01*
X64451378Y8874938D01*
X64138777Y8874938D01*
X63860066Y8388223D01*
X63580347Y8874938D01*
X63267838Y8874938D01*
X63702346Y8121784D01*
X63255565Y7345000D01*
G37*
G36*
X61874646Y7890151D02*
G01*
X60791582Y7890151D01*
X60791582Y7649816D01*
X61874646Y7649816D01*
X61874646Y7890151D01*
G37*
G36*
X61874646Y8353235D02*
G01*
X60791582Y8353235D01*
X60791582Y8112900D01*
X61874646Y8112900D01*
X61874646Y8353235D01*
G37*
G36*
X59262194Y8611155D02*
G01*
X59262194Y8874938D01*
X58351229Y8874938D01*
X58351229Y8611155D01*
X58655587Y8611155D01*
X58655587Y7608783D01*
X58351229Y7608783D01*
X58351229Y7345000D01*
X59262194Y7345000D01*
X59262194Y7608783D01*
X58957837Y7608783D01*
X58957837Y8611155D01*
X59262194Y8611155D01*
G37*
G36*
X57648697Y8895570D02*
G01*
X57738903Y8870816D01*
X57817247Y8830951D01*
X57885651Y8775623D01*
X57945206Y8703204D01*
X57989936Y8624089D01*
X58027079Y8528203D01*
X58055674Y8412694D01*
X58074261Y8274303D01*
X58080944Y8109420D01*
X58074270Y7945063D01*
X58055698Y7807002D01*
X58027114Y7691661D01*
X57989967Y7595816D01*
X57945206Y7516642D01*
X57885655Y7444262D01*
X57817255Y7388959D01*
X57738911Y7349110D01*
X57648702Y7324365D01*
X57544037Y7315691D01*
X57438877Y7324381D01*
X57348345Y7349156D01*
X57269821Y7389027D01*
X57201364Y7444320D01*
X57141861Y7516642D01*
X57097068Y7595821D01*
X57059895Y7691669D01*
X57031293Y7807010D01*
X57012710Y7945068D01*
X57006031Y8109420D01*
X57320647Y8109420D01*
X57328166Y7923546D01*
X57347359Y7794812D01*
X57373953Y7709350D01*
X57406385Y7652646D01*
X57444832Y7615080D01*
X57489957Y7592971D01*
X57544037Y7585335D01*
X57597542Y7592940D01*
X57642333Y7614996D01*
X57680646Y7652554D01*
X57713114Y7709350D01*
X57739662Y7794808D01*
X57758822Y7923542D01*
X57766329Y8109420D01*
X57758812Y8296066D01*
X57739642Y8425076D01*
X57713114Y8510497D01*
X57680641Y8567341D01*
X57642326Y8604926D01*
X57597536Y8626995D01*
X57544037Y8634603D01*
X57489963Y8626963D01*
X57444840Y8604842D01*
X57406390Y8567249D01*
X57373953Y8510497D01*
X57347378Y8425072D01*
X57328176Y8296062D01*
X57320647Y8109420D01*
X57006031Y8109420D01*
X57012718Y8274297D01*
X57031318Y8412685D01*
X57059930Y8528195D01*
X57097098Y8624084D01*
X57141861Y8703204D01*
X57201369Y8775564D01*
X57269829Y8830882D01*
X57348353Y8870770D01*
X57438882Y8895554D01*
X57544037Y8904247D01*
X57648697Y8895570D01*
G37*
G36*
X56719351Y7608783D02*
G01*
X56381197Y7608783D01*
X56381197Y8605294D01*
X56695721Y8523228D01*
X56695721Y8798734D01*
X56379091Y8874938D01*
X56087098Y8874938D01*
X56087098Y7608783D01*
X55748944Y7608783D01*
X55748944Y7345000D01*
X56719351Y7345000D01*
X56719351Y7608783D01*
G37*
G36*
X55019978Y8889479D02*
G01*
X55125858Y8864311D01*
X55216292Y8824396D01*
X55293714Y8770105D01*
X55359774Y8700640D01*
X55411120Y8621811D01*
X55453431Y8526151D01*
X55485861Y8410738D01*
X55506905Y8272138D01*
X55514471Y8106489D01*
X55507917Y7928636D01*
X55489969Y7784085D01*
X55462887Y7667825D01*
X55428474Y7575331D01*
X55387984Y7502629D01*
X55332857Y7436892D01*
X55266684Y7385695D01*
X55187885Y7348033D01*
X55093963Y7324183D01*
X54981686Y7315691D01*
X54868442Y7325426D01*
X54773498Y7352902D01*
X54693401Y7396766D01*
X54625671Y7457383D01*
X54572723Y7531206D01*
X54533309Y7620241D01*
X54508116Y7727536D01*
X54500287Y7839775D01*
X54785956Y7839775D01*
X54792756Y7751124D01*
X54811051Y7683909D01*
X54838712Y7633421D01*
X54878515Y7593988D01*
X54927867Y7570261D01*
X54989837Y7561888D01*
X55051767Y7570284D01*
X55100755Y7594021D01*
X55139955Y7633421D01*
X55167057Y7683828D01*
X55185020Y7751040D01*
X55191704Y7839775D01*
X55185001Y7929272D01*
X55167021Y7996808D01*
X55139955Y8047229D01*
X55100755Y8086629D01*
X55051767Y8110366D01*
X54989837Y8118762D01*
X54927912Y8110338D01*
X54878557Y8086446D01*
X54838712Y8046680D01*
X54811036Y7995905D01*
X54792747Y7928489D01*
X54785956Y7839775D01*
X54500287Y7839775D01*
X54499092Y7856903D01*
X54507202Y7977941D01*
X54529771Y8077852D01*
X54564913Y8160266D01*
X54611841Y8228122D01*
X54672459Y8284258D01*
X54744280Y8324771D01*
X54829561Y8350117D01*
X54931494Y8359097D01*
X55028641Y8350398D01*
X55107715Y8326124D01*
X55175822Y8284924D01*
X55230630Y8227297D01*
X55222327Y8334169D01*
X55203574Y8420420D01*
X55176122Y8489592D01*
X55140963Y8544660D01*
X55094440Y8590816D01*
X55038738Y8624027D01*
X54971991Y8644808D01*
X54891468Y8652188D01*
X54822571Y8646509D01*
X54748586Y8628741D01*
X54674476Y8600263D01*
X54593340Y8558399D01*
X54593340Y8833905D01*
X54671550Y8862342D01*
X54747579Y8882265D01*
X54823491Y8894438D01*
X54895590Y8898385D01*
X55019978Y8889479D01*
G37*
G36*
X79538350Y4901204D02*
G01*
X79538350Y5252914D01*
X79445685Y5170969D01*
X79350314Y5113238D01*
X79282438Y5086282D01*
X79215541Y5070525D01*
X79148905Y5065335D01*
X79071982Y5073036D01*
X79015616Y5093704D01*
X78974699Y5125511D01*
X78945953Y5169240D01*
X78926683Y5231231D01*
X78919378Y5317577D01*
X78919378Y6091155D01*
X79289314Y6091155D01*
X79289314Y6354938D01*
X78617127Y6354938D01*
X78617127Y5317577D01*
X78626197Y5173977D01*
X78650624Y5063480D01*
X78687245Y4979425D01*
X78734455Y4916408D01*
X78796211Y4867425D01*
X78877741Y4829808D01*
X78984009Y4804899D01*
X79121244Y4795691D01*
X79219312Y4802163D01*
X79324668Y4822344D01*
X79429938Y4854950D01*
X79538350Y4901204D01*
G37*
G36*
X77942101Y5088783D02*
G01*
X77297575Y5088783D01*
X77297575Y4825000D01*
X78268898Y4825000D01*
X78268898Y5080631D01*
X78104950Y5255112D01*
X77750401Y5637963D01*
X77681216Y5725592D01*
X77639759Y5794400D01*
X77614133Y5863436D01*
X77605962Y5929406D01*
X77613455Y5995136D01*
X77634341Y6046906D01*
X77667969Y6087950D01*
X77712501Y6117820D01*
X77769840Y6136941D01*
X77843640Y6143912D01*
X77926438Y6136574D01*
X78025540Y6112405D01*
X78126367Y6074743D01*
X78236108Y6020813D01*
X78236108Y6302181D01*
X78126479Y6337774D01*
X78021510Y6363181D01*
X77917294Y6379119D01*
X77820102Y6384247D01*
X77698029Y6376169D01*
X77595812Y6353550D01*
X77510173Y6318115D01*
X77438442Y6270582D01*
X77377968Y6208975D01*
X77335137Y6138159D01*
X77308801Y6056304D01*
X77299590Y5960638D01*
X77307268Y5872305D01*
X77329815Y5791011D01*
X77368468Y5711688D01*
X77433862Y5615157D01*
X77512781Y5525753D01*
X77731991Y5300541D01*
X77942101Y5088783D01*
G37*
G36*
X75629793Y4825000D02*
G01*
X75629793Y6354938D01*
X75327451Y6354938D01*
X75327451Y5088783D01*
X74680909Y5088783D01*
X74680909Y4825000D01*
X75629793Y4825000D01*
G37*
G36*
X74563306Y4825000D02*
G01*
X74260964Y4825000D01*
X74168824Y5206019D01*
X73764083Y5206019D01*
X73669744Y4825000D01*
X73367493Y4825000D01*
X73536801Y5452216D01*
X73822426Y5452216D01*
X74108374Y5452216D01*
X73965858Y6078241D01*
X73822426Y5452216D01*
X73536801Y5452216D01*
X73780478Y6354938D01*
X74150322Y6354938D01*
X74563306Y4825000D01*
G37*
G36*
X73245769Y6354938D02*
G01*
X72885083Y6354938D01*
X72702634Y5684033D01*
X72521284Y6354938D01*
X72158583Y6354938D01*
X72158583Y4825000D01*
X72418885Y4825000D01*
X72418885Y6050764D01*
X72580726Y5381874D01*
X72821519Y5381874D01*
X72985467Y6050764D01*
X72985467Y4825000D01*
X73245769Y4825000D01*
X73245769Y6354938D01*
G37*
G36*
X71904692Y4825000D02*
G01*
X71602350Y4825000D01*
X71602350Y5399460D01*
X71489693Y5399460D01*
X71326017Y5408313D01*
X71200289Y5432060D01*
X71105102Y5467303D01*
X71034211Y5511934D01*
X70976422Y5572848D01*
X70933384Y5651095D01*
X70905523Y5750715D01*
X70895359Y5877199D01*
X71209883Y5877199D01*
X71217814Y5796345D01*
X71238608Y5740163D01*
X71269875Y5701985D01*
X71313229Y5676482D01*
X71379829Y5658548D01*
X71478428Y5651518D01*
X71602350Y5651518D01*
X71602350Y6102879D01*
X71478428Y6102879D01*
X71379838Y6095838D01*
X71313238Y6077873D01*
X71269875Y6052321D01*
X71238611Y6014197D01*
X71217816Y5958051D01*
X71209883Y5877199D01*
X70895359Y5877199D01*
X70905525Y6003684D01*
X70933387Y6103286D01*
X70976425Y6181500D01*
X71034211Y6242372D01*
X71105109Y6287042D01*
X71200298Y6322313D01*
X71326025Y6346078D01*
X71489693Y6354938D01*
X71904692Y6354938D01*
X71904692Y4825000D01*
G37*
G36*
X70284813Y5495813D02*
G01*
X70434971Y5562250D01*
X70533755Y5623262D01*
X70594299Y5679087D01*
X70637848Y5747405D01*
X70665370Y5832083D01*
X70675266Y5937466D01*
X70666239Y6039955D01*
X70640612Y6126905D01*
X70599413Y6201254D01*
X70542092Y6265087D01*
X70472598Y6315309D01*
X70390236Y6352383D01*
X70292514Y6375885D01*
X70176277Y6384247D01*
X70071076Y6378351D01*
X69965252Y6360525D01*
X69860761Y6331344D01*
X69756149Y6290458D01*
X69756149Y5997366D01*
X69855528Y6056062D01*
X69953986Y6097750D01*
X70054784Y6123737D01*
X70152739Y6132188D01*
X70224762Y6126574D01*
X70279523Y6111442D01*
X70320808Y6088499D01*
X70352930Y6055610D01*
X70372305Y6014782D01*
X70379152Y5963477D01*
X70368352Y5905507D01*
X70336653Y5859338D01*
X70280830Y5821249D01*
X70158784Y5768388D01*
X70028633Y5718655D01*
X69910558Y5665287D01*
X69821826Y5605203D01*
X69757157Y5538953D01*
X69709826Y5460261D01*
X69680429Y5367344D01*
X69670054Y5256669D01*
X69679743Y5141517D01*
X69706700Y5048019D01*
X69749072Y4971929D01*
X69806891Y4910180D01*
X69877300Y4863518D01*
X69966695Y4827747D01*
X70079330Y4804271D01*
X70220333Y4795691D01*
X70333786Y4802306D01*
X70448303Y4822344D01*
X70560450Y4855281D01*
X70669129Y4901204D01*
X70669129Y5211881D01*
X70547156Y5137857D01*
X70435022Y5088233D01*
X70321244Y5057665D01*
X70211082Y5047750D01*
X70138206Y5054074D01*
X70081687Y5071338D01*
X70037975Y5098033D01*
X70004198Y5135370D01*
X69983682Y5181366D01*
X69976426Y5238717D01*
X69986776Y5302846D01*
X70017459Y5358061D01*
X70065837Y5402673D01*
X70136252Y5438844D01*
X70284813Y5495813D01*
G37*
G36*
X68115020Y4825000D02*
G01*
X67812678Y4825000D01*
X67812678Y5399460D01*
X67700021Y5399460D01*
X67536345Y5408313D01*
X67410617Y5432060D01*
X67315430Y5467303D01*
X67244539Y5511934D01*
X67186750Y5572848D01*
X67143712Y5651095D01*
X67115851Y5750715D01*
X67105687Y5877199D01*
X67420211Y5877199D01*
X67428142Y5796345D01*
X67448936Y5740163D01*
X67480203Y5701985D01*
X67523557Y5676482D01*
X67590157Y5658548D01*
X67688756Y5651518D01*
X67812678Y5651518D01*
X67812678Y6102879D01*
X67688756Y6102879D01*
X67590166Y6095838D01*
X67523566Y6077873D01*
X67480203Y6052321D01*
X67448939Y6014197D01*
X67428144Y5958051D01*
X67420211Y5877199D01*
X67105687Y5877199D01*
X67115853Y6003684D01*
X67143715Y6103286D01*
X67186753Y6181500D01*
X67244539Y6242372D01*
X67315437Y6287042D01*
X67410626Y6322313D01*
X67536353Y6346078D01*
X67700021Y6354938D01*
X68115020Y6354938D01*
X68115020Y4825000D01*
G37*
G36*
X67017759Y6354938D02*
G01*
X66753428Y6354938D01*
X66643793Y5231115D01*
X66511536Y5956333D01*
X66260484Y5956333D01*
X66106795Y5231115D01*
X66020791Y6354938D01*
X65754352Y6354938D01*
X65930573Y4825000D01*
X66212399Y4825000D01*
X66386514Y5626972D01*
X66549454Y4825000D01*
X66829173Y4825000D01*
X67017759Y6354938D01*
G37*
G36*
X65666425Y6354938D02*
G01*
X65305739Y6354938D01*
X65123290Y5684033D01*
X64941939Y6354938D01*
X64579239Y6354938D01*
X64579239Y4825000D01*
X64839541Y4825000D01*
X64839541Y6050764D01*
X65001382Y5381874D01*
X65242175Y5381874D01*
X65406123Y6050764D01*
X65406123Y4825000D01*
X65666425Y4825000D01*
X65666425Y6354938D01*
G37*
G36*
X61734329Y4825000D02*
G01*
X61734329Y6354938D01*
X61431987Y6354938D01*
X61431987Y5088783D01*
X60785445Y5088783D01*
X60785445Y4825000D01*
X61734329Y4825000D01*
G37*
G36*
X60169968Y6375714D02*
G01*
X60255403Y6351383D01*
X60329379Y6312155D01*
X60393772Y6257552D01*
X60449581Y6185769D01*
X60499948Y6086307D01*
X60539528Y5958157D01*
X60565901Y5794958D01*
X60575610Y5589420D01*
X60565912Y5384509D01*
X60539557Y5221642D01*
X60499979Y5093598D01*
X60449581Y4994078D01*
X60393777Y4922333D01*
X60329387Y4867756D01*
X60255411Y4828543D01*
X60169973Y4804221D01*
X60070485Y4795691D01*
X59970476Y4804222D01*
X59884692Y4828529D01*
X59810519Y4867683D01*
X59746059Y4922124D01*
X59690291Y4993620D01*
X59639937Y5092861D01*
X59600357Y5220828D01*
X59573976Y5383907D01*
X59564262Y5589420D01*
X59564318Y5590610D01*
X59868619Y5590610D01*
X59875407Y5401304D01*
X59892762Y5269534D01*
X59916796Y5181656D01*
X59946960Y5121829D01*
X59982147Y5083260D01*
X60022619Y5061134D01*
X60070394Y5053612D01*
X60117687Y5061109D01*
X60157865Y5083197D01*
X60192914Y5121783D01*
X60223076Y5181748D01*
X60233334Y5211423D01*
X59875763Y5781211D01*
X59868619Y5590610D01*
X59564318Y5590610D01*
X59573986Y5795556D01*
X59600383Y5958984D01*
X59610629Y5992145D01*
X59914689Y5992145D01*
X60267131Y5429593D01*
X60271253Y5588412D01*
X60264470Y5778360D01*
X60247140Y5910356D01*
X60223168Y5998190D01*
X60192963Y6058156D01*
X60157884Y6096743D01*
X60117690Y6118831D01*
X60070394Y6126326D01*
X60022617Y6118805D01*
X59982128Y6096680D01*
X59946912Y6058110D01*
X59916704Y5998282D01*
X59914689Y5992145D01*
X59610629Y5992145D01*
X59639965Y6087090D01*
X59690291Y6186319D01*
X59746059Y6257814D01*
X59810519Y6312255D01*
X59884692Y6351409D01*
X59970476Y6375716D01*
X60070485Y6384247D01*
X60169968Y6375714D01*
G37*
G36*
X59348198Y5370151D02*
G01*
X58265134Y5370151D01*
X58265134Y5129816D01*
X59348198Y5129816D01*
X59348198Y5370151D01*
G37*
G36*
X59348198Y5833235D02*
G01*
X58265134Y5833235D01*
X58265134Y5592900D01*
X59348198Y5592900D01*
X59348198Y5833235D01*
G37*
G36*
X57998970Y6091155D02*
G01*
X57998970Y6354938D01*
X57088005Y6354938D01*
X57088005Y6091155D01*
X57392363Y6091155D01*
X57392363Y5088783D01*
X57088005Y5088783D01*
X57088005Y4825000D01*
X57998970Y4825000D01*
X57998970Y5088783D01*
X57694613Y5088783D01*
X57694613Y6091155D01*
X57998970Y6091155D01*
G37*
G36*
X56385473Y6375570D02*
G01*
X56475678Y6350816D01*
X56554023Y6310951D01*
X56622427Y6255623D01*
X56681982Y6183204D01*
X56726712Y6104089D01*
X56763855Y6008203D01*
X56792450Y5892694D01*
X56811037Y5754303D01*
X56817720Y5589420D01*
X56811046Y5425063D01*
X56792474Y5287002D01*
X56763890Y5171661D01*
X56726743Y5075816D01*
X56681982Y4996642D01*
X56622431Y4924262D01*
X56554031Y4868959D01*
X56475687Y4829110D01*
X56385478Y4804365D01*
X56280813Y4795691D01*
X56175653Y4804381D01*
X56085121Y4829156D01*
X56006597Y4869027D01*
X55938140Y4924320D01*
X55878637Y4996642D01*
X55833844Y5075821D01*
X55796671Y5171669D01*
X55768069Y5287010D01*
X55749486Y5425068D01*
X55742807Y5589420D01*
X56057423Y5589420D01*
X56064942Y5403546D01*
X56084135Y5274812D01*
X56110729Y5189350D01*
X56143161Y5132646D01*
X56181608Y5095080D01*
X56226733Y5072971D01*
X56280813Y5065335D01*
X56334318Y5072940D01*
X56379109Y5094996D01*
X56417422Y5132554D01*
X56449890Y5189350D01*
X56476438Y5274808D01*
X56495598Y5403542D01*
X56503105Y5589420D01*
X56495588Y5776066D01*
X56476418Y5905076D01*
X56449890Y5990497D01*
X56417417Y6047341D01*
X56379102Y6084926D01*
X56334312Y6106995D01*
X56280813Y6114603D01*
X56226739Y6106963D01*
X56181616Y6084842D01*
X56143166Y6047249D01*
X56110729Y5990497D01*
X56084154Y5905072D01*
X56064952Y5776062D01*
X56057423Y5589420D01*
X55742807Y5589420D01*
X55749494Y5754297D01*
X55768094Y5892685D01*
X55796706Y6008195D01*
X55833874Y6104084D01*
X55878637Y6183204D01*
X55938145Y6255564D01*
X56006605Y6310882D01*
X56085129Y6350770D01*
X56175658Y6375554D01*
X56280813Y6384247D01*
X56385473Y6375570D01*
G37*
G36*
X55456127Y5088783D02*
G01*
X55117973Y5088783D01*
X55117973Y6085294D01*
X55432497Y6003228D01*
X55432497Y6278734D01*
X55115867Y6354938D01*
X54823874Y6354938D01*
X54823874Y5088783D01*
X54485720Y5088783D01*
X54485720Y4825000D01*
X55456127Y4825000D01*
X55456127Y5088783D01*
G37*
G36*
X52891761Y4825000D02*
G01*
X52891761Y6354938D01*
X52589419Y6354938D01*
X52589419Y5088783D01*
X51942877Y5088783D01*
X51942877Y4825000D01*
X52891761Y4825000D01*
G37*
G36*
X51666455Y5088783D02*
G01*
X51328301Y5088783D01*
X51328301Y6085294D01*
X51642825Y6003228D01*
X51642825Y6278734D01*
X51326195Y6354938D01*
X51034202Y6354938D01*
X51034202Y5088783D01*
X50696048Y5088783D01*
X50696048Y4825000D01*
X51666455Y4825000D01*
X51666455Y5088783D01*
G37*
G36*
X50505630Y5370151D02*
G01*
X49422566Y5370151D01*
X49422566Y5129816D01*
X50505630Y5129816D01*
X50505630Y5370151D01*
G37*
G36*
X50505630Y5833235D02*
G01*
X49422566Y5833235D01*
X49422566Y5592900D01*
X50505630Y5592900D01*
X50505630Y5833235D01*
G37*
G36*
X49156402Y6091155D02*
G01*
X49156402Y6354938D01*
X48245437Y6354938D01*
X48245437Y6091155D01*
X48549795Y6091155D01*
X48549795Y5088783D01*
X48245437Y5088783D01*
X48245437Y4825000D01*
X49156402Y4825000D01*
X49156402Y5088783D01*
X48852045Y5088783D01*
X48852045Y6091155D01*
X49156402Y6091155D01*
G37*
G36*
X47542905Y6375570D02*
G01*
X47633110Y6350816D01*
X47711455Y6310951D01*
X47779859Y6255623D01*
X47839414Y6183204D01*
X47884144Y6104089D01*
X47921287Y6008203D01*
X47949882Y5892694D01*
X47968469Y5754303D01*
X47975152Y5589420D01*
X47968478Y5425063D01*
X47949906Y5287002D01*
X47921322Y5171661D01*
X47884175Y5075816D01*
X47839414Y4996642D01*
X47779863Y4924262D01*
X47711463Y4868959D01*
X47633119Y4829110D01*
X47542910Y4804365D01*
X47438245Y4795691D01*
X47333084Y4804381D01*
X47242553Y4829156D01*
X47164029Y4869027D01*
X47095572Y4924320D01*
X47036069Y4996642D01*
X46991276Y5075821D01*
X46954103Y5171669D01*
X46925501Y5287010D01*
X46906918Y5425068D01*
X46900239Y5589420D01*
X47214855Y5589420D01*
X47222374Y5403546D01*
X47241567Y5274812D01*
X47268161Y5189350D01*
X47300593Y5132646D01*
X47339040Y5095080D01*
X47384165Y5072971D01*
X47438245Y5065335D01*
X47491750Y5072940D01*
X47536541Y5094996D01*
X47574854Y5132554D01*
X47607322Y5189350D01*
X47633870Y5274808D01*
X47653030Y5403542D01*
X47660537Y5589420D01*
X47653020Y5776066D01*
X47633850Y5905076D01*
X47607322Y5990497D01*
X47574849Y6047341D01*
X47536534Y6084926D01*
X47491744Y6106995D01*
X47438245Y6114603D01*
X47384171Y6106963D01*
X47339048Y6084842D01*
X47300598Y6047249D01*
X47268161Y5990497D01*
X47241586Y5905072D01*
X47222384Y5776062D01*
X47214855Y5589420D01*
X46900239Y5589420D01*
X46906926Y5754297D01*
X46925525Y5892685D01*
X46954138Y6008195D01*
X46991306Y6104084D01*
X47036069Y6183204D01*
X47095577Y6255564D01*
X47164037Y6310882D01*
X47242561Y6350770D01*
X47333090Y6375554D01*
X47438245Y6384247D01*
X47542905Y6375570D01*
G37*
G36*
X46274504Y6375714D02*
G01*
X46359939Y6351383D01*
X46433915Y6312155D01*
X46498308Y6257552D01*
X46554117Y6185769D01*
X46604484Y6086307D01*
X46644064Y5958157D01*
X46670437Y5794958D01*
X46680146Y5589420D01*
X46670448Y5384509D01*
X46644093Y5221642D01*
X46604515Y5093598D01*
X46554117Y4994078D01*
X46498313Y4922333D01*
X46433923Y4867756D01*
X46359947Y4828543D01*
X46274509Y4804221D01*
X46175021Y4795691D01*
X46075012Y4804222D01*
X45989228Y4828529D01*
X45915055Y4867683D01*
X45850595Y4922124D01*
X45794827Y4993620D01*
X45744473Y5092861D01*
X45704893Y5220828D01*
X45678512Y5383907D01*
X45668797Y5589420D01*
X45668853Y5590610D01*
X45973155Y5590610D01*
X45979943Y5401304D01*
X45997298Y5269534D01*
X46021331Y5181656D01*
X46051496Y5121829D01*
X46086683Y5083260D01*
X46127155Y5061134D01*
X46174930Y5053612D01*
X46222223Y5061109D01*
X46262401Y5083197D01*
X46297450Y5121783D01*
X46327612Y5181748D01*
X46337870Y5211423D01*
X45980299Y5781211D01*
X45973155Y5590610D01*
X45668853Y5590610D01*
X45678522Y5795556D01*
X45704919Y5958984D01*
X45715165Y5992145D01*
X46019225Y5992145D01*
X46371667Y5429593D01*
X46375789Y5588412D01*
X46369006Y5778360D01*
X46351676Y5910356D01*
X46327704Y5998190D01*
X46297499Y6058156D01*
X46262420Y6096743D01*
X46222226Y6118831D01*
X46174930Y6126326D01*
X46127153Y6118805D01*
X46086664Y6096680D01*
X46051448Y6058110D01*
X46021240Y5998282D01*
X46019225Y5992145D01*
X45715165Y5992145D01*
X45744501Y6087090D01*
X45794827Y6186319D01*
X45850595Y6257814D01*
X45915055Y6312255D01*
X45989228Y6351409D01*
X46075012Y6375716D01*
X46175021Y6384247D01*
X46274504Y6375714D01*
G37*
G36*
X61734329Y2305000D02*
G01*
X61734329Y3834938D01*
X61431987Y3834938D01*
X61431987Y2568783D01*
X60785445Y2568783D01*
X60785445Y2305000D01*
X61734329Y2305000D01*
G37*
G36*
X60256965Y2568783D02*
G01*
X59612438Y2568783D01*
X59612438Y2305000D01*
X60583762Y2305000D01*
X60583762Y2560631D01*
X60419814Y2735112D01*
X60065265Y3117963D01*
X59996080Y3205592D01*
X59954623Y3274400D01*
X59928997Y3343436D01*
X59920826Y3409406D01*
X59928319Y3475136D01*
X59949205Y3526906D01*
X59982833Y3567950D01*
X60027365Y3597820D01*
X60084704Y3616941D01*
X60158504Y3623912D01*
X60241302Y3616574D01*
X60340404Y3592405D01*
X60441231Y3554743D01*
X60550972Y3500813D01*
X60550972Y3782181D01*
X60441342Y3817774D01*
X60336374Y3843181D01*
X60232158Y3859119D01*
X60134965Y3864247D01*
X60012893Y3856169D01*
X59910676Y3833550D01*
X59825037Y3798115D01*
X59753306Y3750582D01*
X59692832Y3688975D01*
X59650001Y3618159D01*
X59623665Y3536304D01*
X59614453Y3440638D01*
X59622131Y3352305D01*
X59644678Y3271011D01*
X59683332Y3191688D01*
X59748726Y3095157D01*
X59827645Y3005753D01*
X60046855Y2780541D01*
X60256965Y2568783D01*
G37*
G36*
X59348198Y2850151D02*
G01*
X58265134Y2850151D01*
X58265134Y2609816D01*
X59348198Y2609816D01*
X59348198Y2850151D01*
G37*
G36*
X59348198Y3313235D02*
G01*
X58265134Y3313235D01*
X58265134Y3072900D01*
X59348198Y3072900D01*
X59348198Y3313235D01*
G37*
G36*
X57998970Y3571155D02*
G01*
X57998970Y3834938D01*
X57088005Y3834938D01*
X57088005Y3571155D01*
X57392363Y3571155D01*
X57392363Y2568783D01*
X57088005Y2568783D01*
X57088005Y2305000D01*
X57998970Y2305000D01*
X57998970Y2568783D01*
X57694613Y2568783D01*
X57694613Y3571155D01*
X57998970Y3571155D01*
G37*
G36*
X56385473Y3855570D02*
G01*
X56475678Y3830816D01*
X56554023Y3790951D01*
X56622427Y3735623D01*
X56681982Y3663204D01*
X56726712Y3584089D01*
X56763855Y3488203D01*
X56792450Y3372694D01*
X56811037Y3234303D01*
X56817720Y3069420D01*
X56811046Y2905063D01*
X56792474Y2767002D01*
X56763890Y2651661D01*
X56726743Y2555816D01*
X56681982Y2476642D01*
X56622431Y2404262D01*
X56554031Y2348959D01*
X56475687Y2309110D01*
X56385478Y2284365D01*
X56280813Y2275691D01*
X56175653Y2284381D01*
X56085121Y2309156D01*
X56006597Y2349027D01*
X55938140Y2404320D01*
X55878637Y2476642D01*
X55833844Y2555821D01*
X55796671Y2651669D01*
X55768069Y2767010D01*
X55749486Y2905068D01*
X55742807Y3069420D01*
X56057423Y3069420D01*
X56064942Y2883546D01*
X56084135Y2754812D01*
X56110729Y2669350D01*
X56143161Y2612646D01*
X56181608Y2575080D01*
X56226733Y2552971D01*
X56280813Y2545335D01*
X56334318Y2552940D01*
X56379109Y2574996D01*
X56417422Y2612554D01*
X56449890Y2669350D01*
X56476438Y2754808D01*
X56495598Y2883542D01*
X56503105Y3069420D01*
X56495588Y3256066D01*
X56476418Y3385076D01*
X56449890Y3470497D01*
X56417417Y3527341D01*
X56379102Y3564926D01*
X56334312Y3586995D01*
X56280813Y3594603D01*
X56226739Y3586963D01*
X56181616Y3564842D01*
X56143166Y3527249D01*
X56110729Y3470497D01*
X56084154Y3385072D01*
X56064952Y3256062D01*
X56057423Y3069420D01*
X55742807Y3069420D01*
X55749494Y3234297D01*
X55768094Y3372685D01*
X55796706Y3488195D01*
X55833874Y3584084D01*
X55878637Y3663204D01*
X55938145Y3735564D01*
X56006605Y3790882D01*
X56085129Y3830770D01*
X56175658Y3855554D01*
X56280813Y3864247D01*
X56385473Y3855570D01*
G37*
G36*
X55086191Y2990834D02*
G01*
X55248124Y2990834D01*
X55248124Y3254617D01*
X55086191Y3254617D01*
X55012172Y3260320D01*
X54955156Y3275771D01*
X54911527Y3299313D01*
X54877138Y3333140D01*
X54856677Y3374346D01*
X54849520Y3425342D01*
X54856733Y3479204D01*
X54877280Y3522763D01*
X54911527Y3558516D01*
X54955400Y3583801D01*
X55012421Y3600271D01*
X55086191Y3606326D01*
X55173516Y3601268D01*
X55270655Y3585260D01*
X55369307Y3559972D01*
X55474537Y3524261D01*
X55474537Y3799767D01*
X55369034Y3827507D01*
X55266534Y3847577D01*
X55164905Y3860180D01*
X55069796Y3864247D01*
X54947634Y3856621D01*
X54846249Y3835382D01*
X54762222Y3802358D01*
X54692716Y3758459D01*
X54633658Y3700714D01*
X54591973Y3634172D01*
X54566386Y3557086D01*
X54557436Y3466742D01*
X54566658Y3378679D01*
X54592840Y3305256D01*
X54635380Y3243351D01*
X54692326Y3193777D01*
X54765238Y3155737D01*
X54857671Y3129870D01*
X54753136Y3101096D01*
X54671235Y3057347D01*
X54607719Y2999261D01*
X54561155Y2926926D01*
X54532013Y2839017D01*
X54521624Y2731449D01*
X54531430Y2622095D01*
X54559026Y2531397D01*
X54603050Y2455701D01*
X54664048Y2392470D01*
X54737386Y2344413D01*
X54828252Y2307950D01*
X54940322Y2284269D01*
X55078039Y2275691D01*
X55193139Y2280611D01*
X55306010Y2295292D01*
X55416349Y2319347D01*
X55520699Y2351895D01*
X55520699Y2633263D01*
X55421256Y2590547D01*
X55312696Y2558983D01*
X55199163Y2540063D01*
X55078039Y2533612D01*
X54997849Y2540661D01*
X54934080Y2560125D01*
X54883317Y2590581D01*
X54843527Y2632942D01*
X54819842Y2683306D01*
X54811601Y2744271D01*
X54820263Y2819880D01*
X54844410Y2879423D01*
X54883317Y2926629D01*
X54934776Y2960892D01*
X55001001Y2982834D01*
X55086191Y2990834D01*
G37*
G36*
X52891761Y2305000D02*
G01*
X52891761Y3834938D01*
X52589419Y3834938D01*
X52589419Y2568783D01*
X51942877Y2568783D01*
X51942877Y2305000D01*
X52891761Y2305000D01*
G37*
G36*
X51296519Y2990834D02*
G01*
X51458452Y2990834D01*
X51458452Y3254617D01*
X51296519Y3254617D01*
X51222500Y3260320D01*
X51165484Y3275771D01*
X51121855Y3299313D01*
X51087466Y3333140D01*
X51067005Y3374346D01*
X51059848Y3425342D01*
X51067061Y3479204D01*
X51087608Y3522763D01*
X51121855Y3558516D01*
X51165728Y3583801D01*
X51222749Y3600271D01*
X51296519Y3606326D01*
X51383844Y3601268D01*
X51480983Y3585260D01*
X51579635Y3559972D01*
X51684865Y3524261D01*
X51684865Y3799767D01*
X51579362Y3827507D01*
X51476862Y3847577D01*
X51375233Y3860180D01*
X51280124Y3864247D01*
X51157962Y3856621D01*
X51056577Y3835382D01*
X50972550Y3802358D01*
X50903044Y3758459D01*
X50843986Y3700714D01*
X50802301Y3634172D01*
X50776714Y3557086D01*
X50767764Y3466742D01*
X50776986Y3378679D01*
X50803168Y3305256D01*
X50845708Y3243351D01*
X50902654Y3193777D01*
X50975566Y3155737D01*
X51067999Y3129870D01*
X50963464Y3101096D01*
X50881563Y3057347D01*
X50818047Y2999261D01*
X50771483Y2926926D01*
X50742341Y2839017D01*
X50731952Y2731449D01*
X50741758Y2622095D01*
X50769354Y2531397D01*
X50813378Y2455701D01*
X50874376Y2392470D01*
X50947714Y2344413D01*
X51038580Y2307950D01*
X51150650Y2284269D01*
X51288367Y2275691D01*
X51403467Y2280611D01*
X51516338Y2295292D01*
X51626677Y2319347D01*
X51731027Y2351895D01*
X51731027Y2633263D01*
X51631584Y2590547D01*
X51523024Y2558983D01*
X51409491Y2540063D01*
X51288367Y2533612D01*
X51208177Y2540661D01*
X51144408Y2560125D01*
X51093645Y2590581D01*
X51053855Y2632942D01*
X51030170Y2683306D01*
X51021929Y2744271D01*
X51030591Y2819880D01*
X51054738Y2879423D01*
X51093645Y2926629D01*
X51145104Y2960892D01*
X51211329Y2982834D01*
X51296519Y2990834D01*
G37*
G36*
X50505630Y2850151D02*
G01*
X49422566Y2850151D01*
X49422566Y2609816D01*
X50505630Y2609816D01*
X50505630Y2850151D01*
G37*
G36*
X50505630Y3313235D02*
G01*
X49422566Y3313235D01*
X49422566Y3072900D01*
X50505630Y3072900D01*
X50505630Y3313235D01*
G37*
G36*
X49156402Y3571155D02*
G01*
X49156402Y3834938D01*
X48245437Y3834938D01*
X48245437Y3571155D01*
X48549795Y3571155D01*
X48549795Y2568783D01*
X48245437Y2568783D01*
X48245437Y2305000D01*
X49156402Y2305000D01*
X49156402Y2568783D01*
X48852045Y2568783D01*
X48852045Y3571155D01*
X49156402Y3571155D01*
G37*
G36*
X47542905Y3855570D02*
G01*
X47633110Y3830816D01*
X47711455Y3790951D01*
X47779859Y3735623D01*
X47839414Y3663204D01*
X47884144Y3584089D01*
X47921287Y3488203D01*
X47949882Y3372694D01*
X47968469Y3234303D01*
X47975152Y3069420D01*
X47968478Y2905063D01*
X47949906Y2767002D01*
X47921322Y2651661D01*
X47884175Y2555816D01*
X47839414Y2476642D01*
X47779863Y2404262D01*
X47711463Y2348959D01*
X47633119Y2309110D01*
X47542910Y2284365D01*
X47438245Y2275691D01*
X47333084Y2284381D01*
X47242553Y2309156D01*
X47164029Y2349027D01*
X47095572Y2404320D01*
X47036069Y2476642D01*
X46991276Y2555821D01*
X46954103Y2651669D01*
X46925501Y2767010D01*
X46906918Y2905068D01*
X46900239Y3069420D01*
X47214855Y3069420D01*
X47222374Y2883546D01*
X47241567Y2754812D01*
X47268161Y2669350D01*
X47300593Y2612646D01*
X47339040Y2575080D01*
X47384165Y2552971D01*
X47438245Y2545335D01*
X47491750Y2552940D01*
X47536541Y2574996D01*
X47574854Y2612554D01*
X47607322Y2669350D01*
X47633870Y2754808D01*
X47653030Y2883542D01*
X47660537Y3069420D01*
X47653020Y3256066D01*
X47633850Y3385076D01*
X47607322Y3470497D01*
X47574849Y3527341D01*
X47536534Y3564926D01*
X47491744Y3586995D01*
X47438245Y3594603D01*
X47384171Y3586963D01*
X47339048Y3564842D01*
X47300598Y3527249D01*
X47268161Y3470497D01*
X47241586Y3385072D01*
X47222384Y3256062D01*
X47214855Y3069420D01*
X46900239Y3069420D01*
X46906926Y3234297D01*
X46925525Y3372685D01*
X46954138Y3488195D01*
X46991306Y3584084D01*
X47036069Y3663204D01*
X47095577Y3735564D01*
X47164037Y3790882D01*
X47242561Y3830770D01*
X47333090Y3855554D01*
X47438245Y3864247D01*
X47542905Y3855570D01*
G37*
G36*
X46361501Y2568783D02*
G01*
X45716974Y2568783D01*
X45716974Y2305000D01*
X46688298Y2305000D01*
X46688298Y2560631D01*
X46524350Y2735112D01*
X46169801Y3117963D01*
X46100616Y3205592D01*
X46059159Y3274400D01*
X46033533Y3343436D01*
X46025362Y3409406D01*
X46032855Y3475136D01*
X46053741Y3526906D01*
X46087369Y3567950D01*
X46131901Y3597820D01*
X46189240Y3616941D01*
X46263040Y3623912D01*
X46345838Y3616574D01*
X46444940Y3592405D01*
X46545767Y3554743D01*
X46655508Y3500813D01*
X46655508Y3782181D01*
X46545878Y3817774D01*
X46440910Y3843181D01*
X46336694Y3859119D01*
X46239501Y3864247D01*
X46117429Y3856169D01*
X46015211Y3833550D01*
X45929573Y3798115D01*
X45857841Y3750582D01*
X45797368Y3688975D01*
X45754537Y3618159D01*
X45728201Y3536304D01*
X45718989Y3440638D01*
X45726667Y3352305D01*
X45749214Y3271011D01*
X45787868Y3191688D01*
X45853262Y3095157D01*
X45932181Y3005753D01*
X46151391Y2780541D01*
X46361501Y2568783D01*
G37*
D12*
X26319047Y44395181D02*
X26652380Y44871372D01*
X26890475Y44395181D02*
X26890475Y45395181D01*
X26890475Y45395181D02*
X26509523Y45395181D01*
X26509523Y45395181D02*
X26414285Y45347562D01*
X26414285Y45347562D02*
X26366666Y45299943D01*
X26366666Y45299943D02*
X26319047Y45204705D01*
X26319047Y45204705D02*
X26319047Y45061848D01*
X26319047Y45061848D02*
X26366666Y44966610D01*
X26366666Y44966610D02*
X26414285Y44918991D01*
X26414285Y44918991D02*
X26509523Y44871372D01*
X26509523Y44871372D02*
X26890475Y44871372D01*
X25461904Y45061848D02*
X25461904Y44252324D01*
X25461904Y44252324D02*
X25509523Y44157086D01*
X25509523Y44157086D02*
X25557142Y44109467D01*
X25557142Y44109467D02*
X25652380Y44061848D01*
X25652380Y44061848D02*
X25795237Y44061848D01*
X25795237Y44061848D02*
X25890475Y44109467D01*
X25461904Y44442800D02*
X25557142Y44395181D01*
X25557142Y44395181D02*
X25747618Y44395181D01*
X25747618Y44395181D02*
X25842856Y44442800D01*
X25842856Y44442800D02*
X25890475Y44490420D01*
X25890475Y44490420D02*
X25938094Y44585658D01*
X25938094Y44585658D02*
X25938094Y44871372D01*
X25938094Y44871372D02*
X25890475Y44966610D01*
X25890475Y44966610D02*
X25842856Y45014229D01*
X25842856Y45014229D02*
X25747618Y45061848D01*
X25747618Y45061848D02*
X25557142Y45061848D01*
X25557142Y45061848D02*
X25461904Y45014229D01*
X25033332Y45299943D02*
X24985713Y45347562D01*
X24985713Y45347562D02*
X24890475Y45395181D01*
X24890475Y45395181D02*
X24652380Y45395181D01*
X24652380Y45395181D02*
X24557142Y45347562D01*
X24557142Y45347562D02*
X24509523Y45299943D01*
X24509523Y45299943D02*
X24461904Y45204705D01*
X24461904Y45204705D02*
X24461904Y45109467D01*
X24461904Y45109467D02*
X24509523Y44966610D01*
X24509523Y44966610D02*
X25080951Y44395181D01*
X25080951Y44395181D02*
X24461904Y44395181D01*
X20871428Y54195181D02*
X21204761Y54671372D01*
X21442856Y54195181D02*
X21442856Y55195181D01*
X21442856Y55195181D02*
X21061904Y55195181D01*
X21061904Y55195181D02*
X20966666Y55147562D01*
X20966666Y55147562D02*
X20919047Y55099943D01*
X20919047Y55099943D02*
X20871428Y55004705D01*
X20871428Y55004705D02*
X20871428Y54861848D01*
X20871428Y54861848D02*
X20919047Y54766610D01*
X20919047Y54766610D02*
X20966666Y54718991D01*
X20966666Y54718991D02*
X21061904Y54671372D01*
X21061904Y54671372D02*
X21442856Y54671372D01*
X20442856Y54861848D02*
X20442856Y53861848D01*
X20442856Y54814229D02*
X20347618Y54861848D01*
X20347618Y54861848D02*
X20157142Y54861848D01*
X20157142Y54861848D02*
X20061904Y54814229D01*
X20061904Y54814229D02*
X20014285Y54766610D01*
X20014285Y54766610D02*
X19966666Y54671372D01*
X19966666Y54671372D02*
X19966666Y54385658D01*
X19966666Y54385658D02*
X20014285Y54290420D01*
X20014285Y54290420D02*
X20061904Y54242800D01*
X20061904Y54242800D02*
X20157142Y54195181D01*
X20157142Y54195181D02*
X20347618Y54195181D01*
X20347618Y54195181D02*
X20442856Y54242800D01*
X19109523Y54195181D02*
X19109523Y55195181D01*
X19109523Y54242800D02*
X19204761Y54195181D01*
X19204761Y54195181D02*
X19395237Y54195181D01*
X19395237Y54195181D02*
X19490475Y54242800D01*
X19490475Y54242800D02*
X19538094Y54290420D01*
X19538094Y54290420D02*
X19585713Y54385658D01*
X19585713Y54385658D02*
X19585713Y54671372D01*
X19585713Y54671372D02*
X19538094Y54766610D01*
X19538094Y54766610D02*
X19490475Y54814229D01*
X19490475Y54814229D02*
X19395237Y54861848D01*
X19395237Y54861848D02*
X19204761Y54861848D01*
X19204761Y54861848D02*
X19109523Y54814229D01*
X18109523Y54195181D02*
X18680951Y54195181D01*
X18395237Y54195181D02*
X18395237Y55195181D01*
X18395237Y55195181D02*
X18490475Y55052324D01*
X18490475Y55052324D02*
X18585713Y54957086D01*
X18585713Y54957086D02*
X18680951Y54909467D01*
X20971428Y41695181D02*
X21304761Y42171372D01*
X21542856Y41695181D02*
X21542856Y42695181D01*
X21542856Y42695181D02*
X21161904Y42695181D01*
X21161904Y42695181D02*
X21066666Y42647562D01*
X21066666Y42647562D02*
X21019047Y42599943D01*
X21019047Y42599943D02*
X20971428Y42504705D01*
X20971428Y42504705D02*
X20971428Y42361848D01*
X20971428Y42361848D02*
X21019047Y42266610D01*
X21019047Y42266610D02*
X21066666Y42218991D01*
X21066666Y42218991D02*
X21161904Y42171372D01*
X21161904Y42171372D02*
X21542856Y42171372D01*
X20542856Y42361848D02*
X20542856Y41361848D01*
X20542856Y42314229D02*
X20447618Y42361848D01*
X20447618Y42361848D02*
X20257142Y42361848D01*
X20257142Y42361848D02*
X20161904Y42314229D01*
X20161904Y42314229D02*
X20114285Y42266610D01*
X20114285Y42266610D02*
X20066666Y42171372D01*
X20066666Y42171372D02*
X20066666Y41885658D01*
X20066666Y41885658D02*
X20114285Y41790420D01*
X20114285Y41790420D02*
X20161904Y41742800D01*
X20161904Y41742800D02*
X20257142Y41695181D01*
X20257142Y41695181D02*
X20447618Y41695181D01*
X20447618Y41695181D02*
X20542856Y41742800D01*
X19209523Y41695181D02*
X19209523Y42695181D01*
X19209523Y41742800D02*
X19304761Y41695181D01*
X19304761Y41695181D02*
X19495237Y41695181D01*
X19495237Y41695181D02*
X19590475Y41742800D01*
X19590475Y41742800D02*
X19638094Y41790420D01*
X19638094Y41790420D02*
X19685713Y41885658D01*
X19685713Y41885658D02*
X19685713Y42171372D01*
X19685713Y42171372D02*
X19638094Y42266610D01*
X19638094Y42266610D02*
X19590475Y42314229D01*
X19590475Y42314229D02*
X19495237Y42361848D01*
X19495237Y42361848D02*
X19304761Y42361848D01*
X19304761Y42361848D02*
X19209523Y42314229D01*
X18780951Y42599943D02*
X18733332Y42647562D01*
X18733332Y42647562D02*
X18638094Y42695181D01*
X18638094Y42695181D02*
X18399999Y42695181D01*
X18399999Y42695181D02*
X18304761Y42647562D01*
X18304761Y42647562D02*
X18257142Y42599943D01*
X18257142Y42599943D02*
X18209523Y42504705D01*
X18209523Y42504705D02*
X18209523Y42409467D01*
X18209523Y42409467D02*
X18257142Y42266610D01*
X18257142Y42266610D02*
X18828570Y41695181D01*
X18828570Y41695181D02*
X18209523Y41695181D01*
X20871428Y27895181D02*
X21204761Y28371372D01*
X21442856Y27895181D02*
X21442856Y28895181D01*
X21442856Y28895181D02*
X21061904Y28895181D01*
X21061904Y28895181D02*
X20966666Y28847562D01*
X20966666Y28847562D02*
X20919047Y28799943D01*
X20919047Y28799943D02*
X20871428Y28704705D01*
X20871428Y28704705D02*
X20871428Y28561848D01*
X20871428Y28561848D02*
X20919047Y28466610D01*
X20919047Y28466610D02*
X20966666Y28418991D01*
X20966666Y28418991D02*
X21061904Y28371372D01*
X21061904Y28371372D02*
X21442856Y28371372D01*
X20442856Y28561848D02*
X20442856Y27561848D01*
X20442856Y28514229D02*
X20347618Y28561848D01*
X20347618Y28561848D02*
X20157142Y28561848D01*
X20157142Y28561848D02*
X20061904Y28514229D01*
X20061904Y28514229D02*
X20014285Y28466610D01*
X20014285Y28466610D02*
X19966666Y28371372D01*
X19966666Y28371372D02*
X19966666Y28085658D01*
X19966666Y28085658D02*
X20014285Y27990420D01*
X20014285Y27990420D02*
X20061904Y27942800D01*
X20061904Y27942800D02*
X20157142Y27895181D01*
X20157142Y27895181D02*
X20347618Y27895181D01*
X20347618Y27895181D02*
X20442856Y27942800D01*
X19109523Y27895181D02*
X19109523Y28895181D01*
X19109523Y27942800D02*
X19204761Y27895181D01*
X19204761Y27895181D02*
X19395237Y27895181D01*
X19395237Y27895181D02*
X19490475Y27942800D01*
X19490475Y27942800D02*
X19538094Y27990420D01*
X19538094Y27990420D02*
X19585713Y28085658D01*
X19585713Y28085658D02*
X19585713Y28371372D01*
X19585713Y28371372D02*
X19538094Y28466610D01*
X19538094Y28466610D02*
X19490475Y28514229D01*
X19490475Y28514229D02*
X19395237Y28561848D01*
X19395237Y28561848D02*
X19204761Y28561848D01*
X19204761Y28561848D02*
X19109523Y28514229D01*
X18728570Y28895181D02*
X18109523Y28895181D01*
X18109523Y28895181D02*
X18442856Y28514229D01*
X18442856Y28514229D02*
X18299999Y28514229D01*
X18299999Y28514229D02*
X18204761Y28466610D01*
X18204761Y28466610D02*
X18157142Y28418991D01*
X18157142Y28418991D02*
X18109523Y28323753D01*
X18109523Y28323753D02*
X18109523Y28085658D01*
X18109523Y28085658D02*
X18157142Y27990420D01*
X18157142Y27990420D02*
X18204761Y27942800D01*
X18204761Y27942800D02*
X18299999Y27895181D01*
X18299999Y27895181D02*
X18585713Y27895181D01*
X18585713Y27895181D02*
X18680951Y27942800D01*
X18680951Y27942800D02*
X18728570Y27990420D01*
X26319047Y57095181D02*
X26652380Y57571372D01*
X26890475Y57095181D02*
X26890475Y58095181D01*
X26890475Y58095181D02*
X26509523Y58095181D01*
X26509523Y58095181D02*
X26414285Y58047562D01*
X26414285Y58047562D02*
X26366666Y57999943D01*
X26366666Y57999943D02*
X26319047Y57904705D01*
X26319047Y57904705D02*
X26319047Y57761848D01*
X26319047Y57761848D02*
X26366666Y57666610D01*
X26366666Y57666610D02*
X26414285Y57618991D01*
X26414285Y57618991D02*
X26509523Y57571372D01*
X26509523Y57571372D02*
X26890475Y57571372D01*
X25461904Y57761848D02*
X25461904Y56952324D01*
X25461904Y56952324D02*
X25509523Y56857086D01*
X25509523Y56857086D02*
X25557142Y56809467D01*
X25557142Y56809467D02*
X25652380Y56761848D01*
X25652380Y56761848D02*
X25795237Y56761848D01*
X25795237Y56761848D02*
X25890475Y56809467D01*
X25461904Y57142800D02*
X25557142Y57095181D01*
X25557142Y57095181D02*
X25747618Y57095181D01*
X25747618Y57095181D02*
X25842856Y57142800D01*
X25842856Y57142800D02*
X25890475Y57190420D01*
X25890475Y57190420D02*
X25938094Y57285658D01*
X25938094Y57285658D02*
X25938094Y57571372D01*
X25938094Y57571372D02*
X25890475Y57666610D01*
X25890475Y57666610D02*
X25842856Y57714229D01*
X25842856Y57714229D02*
X25747618Y57761848D01*
X25747618Y57761848D02*
X25557142Y57761848D01*
X25557142Y57761848D02*
X25461904Y57714229D01*
X24461904Y57095181D02*
X25033332Y57095181D01*
X24747618Y57095181D02*
X24747618Y58095181D01*
X24747618Y58095181D02*
X24842856Y57952324D01*
X24842856Y57952324D02*
X24938094Y57857086D01*
X24938094Y57857086D02*
X25033332Y57809467D01*
X20671428Y13995181D02*
X21004761Y14471372D01*
X21242856Y13995181D02*
X21242856Y14995181D01*
X21242856Y14995181D02*
X20861904Y14995181D01*
X20861904Y14995181D02*
X20766666Y14947562D01*
X20766666Y14947562D02*
X20719047Y14899943D01*
X20719047Y14899943D02*
X20671428Y14804705D01*
X20671428Y14804705D02*
X20671428Y14661848D01*
X20671428Y14661848D02*
X20719047Y14566610D01*
X20719047Y14566610D02*
X20766666Y14518991D01*
X20766666Y14518991D02*
X20861904Y14471372D01*
X20861904Y14471372D02*
X21242856Y14471372D01*
X20242856Y14661848D02*
X20242856Y13661848D01*
X20242856Y14614229D02*
X20147618Y14661848D01*
X20147618Y14661848D02*
X19957142Y14661848D01*
X19957142Y14661848D02*
X19861904Y14614229D01*
X19861904Y14614229D02*
X19814285Y14566610D01*
X19814285Y14566610D02*
X19766666Y14471372D01*
X19766666Y14471372D02*
X19766666Y14185658D01*
X19766666Y14185658D02*
X19814285Y14090420D01*
X19814285Y14090420D02*
X19861904Y14042800D01*
X19861904Y14042800D02*
X19957142Y13995181D01*
X19957142Y13995181D02*
X20147618Y13995181D01*
X20147618Y13995181D02*
X20242856Y14042800D01*
X18909523Y13995181D02*
X18909523Y14995181D01*
X18909523Y14042800D02*
X19004761Y13995181D01*
X19004761Y13995181D02*
X19195237Y13995181D01*
X19195237Y13995181D02*
X19290475Y14042800D01*
X19290475Y14042800D02*
X19338094Y14090420D01*
X19338094Y14090420D02*
X19385713Y14185658D01*
X19385713Y14185658D02*
X19385713Y14471372D01*
X19385713Y14471372D02*
X19338094Y14566610D01*
X19338094Y14566610D02*
X19290475Y14614229D01*
X19290475Y14614229D02*
X19195237Y14661848D01*
X19195237Y14661848D02*
X19004761Y14661848D01*
X19004761Y14661848D02*
X18909523Y14614229D01*
X18004761Y14661848D02*
X18004761Y13995181D01*
X18242856Y15042800D02*
X18480951Y14328515D01*
X18480951Y14328515D02*
X17861904Y14328515D01*
X26319047Y16995181D02*
X26652380Y17471372D01*
X26890475Y16995181D02*
X26890475Y17995181D01*
X26890475Y17995181D02*
X26509523Y17995181D01*
X26509523Y17995181D02*
X26414285Y17947562D01*
X26414285Y17947562D02*
X26366666Y17899943D01*
X26366666Y17899943D02*
X26319047Y17804705D01*
X26319047Y17804705D02*
X26319047Y17661848D01*
X26319047Y17661848D02*
X26366666Y17566610D01*
X26366666Y17566610D02*
X26414285Y17518991D01*
X26414285Y17518991D02*
X26509523Y17471372D01*
X26509523Y17471372D02*
X26890475Y17471372D01*
X25461904Y17661848D02*
X25461904Y16852324D01*
X25461904Y16852324D02*
X25509523Y16757086D01*
X25509523Y16757086D02*
X25557142Y16709467D01*
X25557142Y16709467D02*
X25652380Y16661848D01*
X25652380Y16661848D02*
X25795237Y16661848D01*
X25795237Y16661848D02*
X25890475Y16709467D01*
X25461904Y17042800D02*
X25557142Y16995181D01*
X25557142Y16995181D02*
X25747618Y16995181D01*
X25747618Y16995181D02*
X25842856Y17042800D01*
X25842856Y17042800D02*
X25890475Y17090420D01*
X25890475Y17090420D02*
X25938094Y17185658D01*
X25938094Y17185658D02*
X25938094Y17471372D01*
X25938094Y17471372D02*
X25890475Y17566610D01*
X25890475Y17566610D02*
X25842856Y17614229D01*
X25842856Y17614229D02*
X25747618Y17661848D01*
X25747618Y17661848D02*
X25557142Y17661848D01*
X25557142Y17661848D02*
X25461904Y17614229D01*
X24557142Y17661848D02*
X24557142Y16995181D01*
X24795237Y18042800D02*
X25033332Y17328515D01*
X25033332Y17328515D02*
X24414285Y17328515D01*
X26319047Y30545181D02*
X26652380Y31021372D01*
X26890475Y30545181D02*
X26890475Y31545181D01*
X26890475Y31545181D02*
X26509523Y31545181D01*
X26509523Y31545181D02*
X26414285Y31497562D01*
X26414285Y31497562D02*
X26366666Y31449943D01*
X26366666Y31449943D02*
X26319047Y31354705D01*
X26319047Y31354705D02*
X26319047Y31211848D01*
X26319047Y31211848D02*
X26366666Y31116610D01*
X26366666Y31116610D02*
X26414285Y31068991D01*
X26414285Y31068991D02*
X26509523Y31021372D01*
X26509523Y31021372D02*
X26890475Y31021372D01*
X25461904Y31211848D02*
X25461904Y30402324D01*
X25461904Y30402324D02*
X25509523Y30307086D01*
X25509523Y30307086D02*
X25557142Y30259467D01*
X25557142Y30259467D02*
X25652380Y30211848D01*
X25652380Y30211848D02*
X25795237Y30211848D01*
X25795237Y30211848D02*
X25890475Y30259467D01*
X25461904Y30592800D02*
X25557142Y30545181D01*
X25557142Y30545181D02*
X25747618Y30545181D01*
X25747618Y30545181D02*
X25842856Y30592800D01*
X25842856Y30592800D02*
X25890475Y30640420D01*
X25890475Y30640420D02*
X25938094Y30735658D01*
X25938094Y30735658D02*
X25938094Y31021372D01*
X25938094Y31021372D02*
X25890475Y31116610D01*
X25890475Y31116610D02*
X25842856Y31164229D01*
X25842856Y31164229D02*
X25747618Y31211848D01*
X25747618Y31211848D02*
X25557142Y31211848D01*
X25557142Y31211848D02*
X25461904Y31164229D01*
X25080951Y31545181D02*
X24461904Y31545181D01*
X24461904Y31545181D02*
X24795237Y31164229D01*
X24795237Y31164229D02*
X24652380Y31164229D01*
X24652380Y31164229D02*
X24557142Y31116610D01*
X24557142Y31116610D02*
X24509523Y31068991D01*
X24509523Y31068991D02*
X24461904Y30973753D01*
X24461904Y30973753D02*
X24461904Y30735658D01*
X24461904Y30735658D02*
X24509523Y30640420D01*
X24509523Y30640420D02*
X24557142Y30592800D01*
X24557142Y30592800D02*
X24652380Y30545181D01*
X24652380Y30545181D02*
X24938094Y30545181D01*
X24938094Y30545181D02*
X25033332Y30592800D01*
X25033332Y30592800D02*
X25080951Y30640420D01*
D13*
X25472936Y43585000D02*
X25927064Y43585000D01*
X25472936Y42115000D02*
X25927064Y42115000D01*
X21965000Y54677064D02*
X21965000Y54222936D01*
X23435000Y54677064D02*
X23435000Y54222936D01*
X21965000Y42077064D02*
X21965000Y41622936D01*
X23435000Y42077064D02*
X23435000Y41622936D01*
X22065000Y28277064D02*
X22065000Y27822936D01*
X23535000Y28277064D02*
X23535000Y27822936D01*
X25472936Y56185000D02*
X25927064Y56185000D01*
X25472936Y54715000D02*
X25927064Y54715000D01*
X21865000Y14677064D02*
X21865000Y14222936D01*
X23335000Y14677064D02*
X23335000Y14222936D01*
X25472936Y16185000D02*
X25927064Y16185000D01*
X25472936Y14715000D02*
X25927064Y14715000D01*
X25472936Y29785000D02*
X25927064Y29785000D01*
X25472936Y28315000D02*
X25927064Y28315000D01*
%LPC*%
D14*
X59435200Y41401200D03*
D15*
X59435200Y34898800D03*
X54939400Y41401200D03*
X54939400Y34898800D03*
D16*
X19000000Y60250000D03*
D17*
X19000000Y57750000D03*
D18*
X32414000Y32856000D03*
D19*
X32414000Y30316000D03*
X32414000Y27776000D03*
X32414000Y25236000D03*
X32414000Y22696000D03*
D20*
X46864800Y34898800D03*
D15*
X46864800Y41401200D03*
X51360600Y34898800D03*
X51360600Y41401200D03*
D21*
X7900000Y40300000D03*
D22*
X7900000Y29050000D03*
X7900000Y51550000D03*
D23*
X7900000Y17850000D03*
D24*
X7900000Y12850000D03*
D25*
X52750000Y63040000D03*
D26*
X55250000Y63040000D03*
X55250000Y65040000D03*
D27*
X60020000Y67750000D03*
D26*
X52750000Y65040000D03*
D27*
X47980000Y67750000D03*
D28*
X3800000Y75250000D03*
X3800000Y3750000D03*
D29*
X66110000Y63200000D03*
D30*
X68650000Y63200000D03*
X71189999Y63200000D03*
X73730000Y63200000D03*
X76270000Y63200000D03*
X78810000Y63200000D03*
X81350000Y63200000D03*
X83890001Y63200000D03*
D28*
X87300000Y75250000D03*
X87300000Y3750000D03*
D29*
X56360000Y27550000D03*
D30*
X58900000Y27550000D03*
X61440000Y27550000D03*
X63980000Y27550000D03*
X66520000Y27550000D03*
X69060000Y27550000D03*
X71600000Y27550000D03*
X74140000Y27550000D03*
D31*
X24700000Y42850000D03*
X26700000Y42850000D03*
D32*
X22700000Y55450000D03*
X22700000Y53450000D03*
X22700000Y42850000D03*
X22700000Y40850000D03*
X22800000Y29050000D03*
X22800000Y27050000D03*
D31*
X24700000Y55450000D03*
X26700000Y55450000D03*
D32*
X22600000Y15450000D03*
X22600000Y13450000D03*
D31*
X24700000Y15450000D03*
X26700000Y15450000D03*
X24700000Y29050000D03*
X26700000Y29050000D03*
%LPD*%
M02*
