M48
; DRILL file KiCad 10.0.4 date 2026-07-30T11:45:24
; FORMAT={-:-/ absolute / metric / decimal}
; #@! TF.CreationDate,2026-07-30T11:45:24+03:00
; #@! TF.GenerationSoftware,Kicad,Pcbnew,10.0.4
; #@! TF.FileFunction,Plated,1,4,PTH
FMAT,2
METRIC
; #@! TA.AperFunction,Plated,PTH,ViaDrill
T1C0.300
; #@! TA.AperFunction,Plated,PTH,ComponentDrill
T2C0.300
; #@! TA.AperFunction,Plated,PTH,ComponentDrill
T3C0.800
; #@! TA.AperFunction,Plated,PTH,ComponentDrill
T4C0.920
; #@! TA.AperFunction,Plated,PTH,ComponentDrill
T5C0.991
; #@! TA.AperFunction,Plated,PTH,ComponentDrill
T6C1.000
; #@! TA.AperFunction,Plated,PTH,ComponentDrill
T7C1.100
; #@! TA.AperFunction,Plated,PTH,ComponentDrill
T8C1.300
; #@! TA.AperFunction,Plated,PTH,ComponentDrill
T9C2.330
%
G90
G05
T1
X16.058Y51.992
X16.1Y39.95
X16.1Y26.443
X16.1Y12.876
X24.714Y53.576
X24.714Y39.976
X24.714Y26.476
X24.714Y12.876
X25.6Y65.65
X32.8Y65.55
X38.2Y69.05
X40.1Y67.35
X40.1Y66.2
X40.1Y65.05
X41.15Y67.35
X41.15Y66.2
X41.15Y65.05
X42.2Y67.35
X42.2Y66.2
X42.2Y65.05
X44.5Y67.35
X44.5Y66.25
X44.5Y65.15
X44.5Y64.05
X44.5Y62.95
X44.5Y61.85
X46.5Y49.9
X53.95Y52.9
X61.05Y55.45
X62.25Y61.55
X70.3Y48.45
X70.3Y46.95
X76.15Y38.2
X77.45Y35.85
X77.55Y56.45
X78.6Y30.75
X79.897Y56.05
X79.9Y28.95
X79.96Y51.85
X81.25Y35.8
X82.79Y51.91
X83.022Y56.08
T2
X14.2Y12.15
X14.2Y10.65
X74.26Y43.73
X74.26Y42.48
X74.885Y44.355
X74.885Y43.105
X74.885Y41.855
X75.51Y43.73
X75.51Y42.48
X76.135Y44.355
X76.135Y43.105
X76.135Y41.855
X76.76Y43.73
X76.76Y42.48
T3
X19.0Y60.25
X19.0Y57.75
T4
X52.75Y65.04
X52.75Y63.04
X55.25Y65.04
X55.25Y63.04
T5
X46.865Y41.401
X46.865Y34.899
X51.361Y41.401
X51.361Y34.899
X54.939Y41.401
X54.939Y34.899
X59.435Y41.401
X59.435Y34.899
T6
X56.36Y27.55
X58.9Y27.55
X61.44Y27.55
X63.98Y27.55
X66.11Y63.2
X66.52Y27.55
X68.65Y63.2
X69.06Y27.55
X71.19Y63.2
X71.6Y27.55
X73.73Y63.2
X74.14Y27.55
X76.27Y63.2
X78.81Y63.2
X81.35Y63.2
X83.89Y63.2
T7
X32.414Y32.856
X32.414Y30.316
X32.414Y27.776
X32.414Y25.236
X32.414Y22.696
T8
X7.9Y51.55
X7.9Y29.05
X7.9Y17.85
X7.9Y12.85
T9
X47.98Y67.75
X60.02Y67.75
M30
