G04 #@! TF.GenerationSoftware,KiCad,Pcbnew,10.0.4*
G04 #@! TF.CreationDate,2026-07-30T11:54:06+03:00*
G04 #@! TF.ProjectId,smartlada_revB,736d6172-746c-4616-9461-5f726576422e,rev?*
G04 #@! TF.SameCoordinates,PX33365a0PY8917370*
G04 #@! TF.FileFunction,Copper,L4,Bot*
G04 #@! TF.FilePolarity,Positive*
%FSLAX46Y46*%
G04 Gerber Fmt 4.6, Leading zero omitted, Abs format (unit mm)*
G04 Created by KiCad (PCBNEW 10.0.4) date 2026-07-30 11:54:06*
%MOMM*%
%LPD*%
G01*
G04 APERTURE LIST*
G04 Aperture macros list*
%AMRoundRect*
0 Rectangle with rounded corners*
0 $1 Rounding radius*
0 $2 $3 $4 $5 $6 $7 $8 $9 X,Y pos of 4 corners*
0 Add a 4 corners polygon primitive as box body*
4,1,4,$2,$3,$4,$5,$6,$7,$8,$9,$2,$3,0*
0 Add four circle primitives for the rounded corners*
1,1,$1+$1,$2,$3*
1,1,$1+$1,$4,$5*
1,1,$1+$1,$6,$7*
1,1,$1+$1,$8,$9*
0 Add four rect primitives between the rounded corners*
20,1,$1+$1,$2,$3,$4,$5,0*
20,1,$1+$1,$4,$5,$6,$7,0*
20,1,$1+$1,$6,$7,$8,$9,0*
20,1,$1+$1,$8,$9,$2,$3,0*%
G04 Aperture macros list end*
G04 #@! TA.AperFunction,EtchedComponent*
%ADD10C,0.000000*%
G04 #@! TD*
G04 #@! TA.AperFunction,ComponentPad*
%ADD11R,1.498600X1.498600*%
G04 #@! TD*
G04 #@! TA.AperFunction,ComponentPad*
%ADD12C,1.498600*%
G04 #@! TD*
G04 #@! TA.AperFunction,ComponentPad*
%ADD13C,0.700000*%
G04 #@! TD*
G04 #@! TA.AperFunction,ComponentPad*
%ADD14RoundRect,0.250000X-0.550000X0.550000X-0.550000X-0.550000X0.550000X-0.550000X0.550000X0.550000X0*%
G04 #@! TD*
G04 #@! TA.AperFunction,ComponentPad*
%ADD15C,1.600000*%
G04 #@! TD*
G04 #@! TA.AperFunction,ComponentPad*
%ADD16RoundRect,0.249999X-0.850001X0.850001X-0.850001X-0.850001X0.850001X-0.850001X0.850001X0.850001X0*%
G04 #@! TD*
G04 #@! TA.AperFunction,ComponentPad*
%ADD17C,2.200000*%
G04 #@! TD*
G04 #@! TA.AperFunction,ComponentPad*
%ADD18C,3.000000*%
G04 #@! TD*
G04 #@! TA.AperFunction,ComponentPad*
%ADD19RoundRect,0.250000X-1.050000X1.050000X-1.050000X-1.050000X1.050000X-1.050000X1.050000X1.050000X0*%
G04 #@! TD*
G04 #@! TA.AperFunction,ComponentPad*
%ADD20C,2.600000*%
G04 #@! TD*
G04 #@! TA.AperFunction,ComponentPad*
%ADD21R,1.428000X1.428000*%
G04 #@! TD*
G04 #@! TA.AperFunction,ComponentPad*
%ADD22C,1.428000*%
G04 #@! TD*
G04 #@! TA.AperFunction,ComponentPad*
%ADD23C,3.346000*%
G04 #@! TD*
G04 #@! TA.AperFunction,ComponentPad*
%ADD24R,1.700000X1.700000*%
G04 #@! TD*
G04 #@! TA.AperFunction,ComponentPad*
%ADD25C,1.700000*%
G04 #@! TD*
G04 #@! TA.AperFunction,SMDPad,CuDef*
%ADD26RoundRect,0.250000X-0.350000X-0.450000X0.350000X-0.450000X0.350000X0.450000X-0.350000X0.450000X0*%
G04 #@! TD*
G04 #@! TA.AperFunction,SMDPad,CuDef*
%ADD27RoundRect,0.250000X-0.450000X0.350000X-0.450000X-0.350000X0.450000X-0.350000X0.450000X0.350000X0*%
G04 #@! TD*
G04 #@! TA.AperFunction,ViaPad*
%ADD28C,0.700000*%
G04 #@! TD*
G04 #@! TA.AperFunction,Conductor*
%ADD29C,0.400000*%
G04 #@! TD*
G04 APERTURE END LIST*
D10*
G04 #@! TA.AperFunction,EtchedComponent*
G36*
X14550000Y10650000D02*
G01*
X13850000Y10650000D01*
X13850000Y12150000D01*
X14550000Y12150000D01*
X14550000Y10650000D01*
G37*
G04 #@! TD.AperFunction*
D11*
X59435200Y41401200D03*
D12*
X59435200Y34898800D03*
X54939400Y41401200D03*
X54939400Y34898800D03*
D13*
X76760000Y43730000D03*
X74885000Y41855000D03*
X74260000Y43730000D03*
X76760000Y42480000D03*
X76135000Y44355000D03*
X74260000Y42480000D03*
X76135000Y43105000D03*
X76135000Y41855000D03*
X75510000Y43730000D03*
X75510000Y42480000D03*
X74885000Y44355000D03*
X74885000Y43105000D03*
D14*
X19000000Y60250000D03*
D15*
X19000000Y57750000D03*
D16*
X32414000Y32856000D03*
D17*
X32414000Y30316000D03*
X32414000Y27776000D03*
X32414000Y25236000D03*
X32414000Y22696000D03*
D11*
X46864800Y34898800D03*
D12*
X46864800Y41401200D03*
X51360600Y34898800D03*
X51360600Y41401200D03*
D18*
X7900000Y29050000D03*
X7900000Y51550000D03*
D19*
X7900000Y17850000D03*
D20*
X7900000Y12850000D03*
D13*
X14200000Y12150000D03*
X14200000Y10650000D03*
D21*
X52750000Y63040000D03*
D22*
X55250000Y63040000D03*
X55250000Y65040000D03*
D23*
X60020000Y67750000D03*
D22*
X52750000Y65040000D03*
D23*
X47980000Y67750000D03*
D24*
X66110000Y63200000D03*
D25*
X68650000Y63200000D03*
X71189999Y63200000D03*
X73730000Y63200000D03*
X76270000Y63200000D03*
X78810000Y63200000D03*
X81350000Y63200000D03*
X83890001Y63200000D03*
D24*
X56360000Y27550000D03*
D25*
X58900000Y27550000D03*
X61440000Y27550000D03*
X63980000Y27550000D03*
X66520000Y27550000D03*
X69060000Y27550000D03*
X71600000Y27550000D03*
X74140000Y27550000D03*
D26*
X24700000Y42850000D03*
X26700000Y42850000D03*
D27*
X22700000Y55450000D03*
X22700000Y53450000D03*
X22700000Y42850000D03*
X22700000Y40850000D03*
X22800000Y29050000D03*
X22800000Y27050000D03*
D26*
X24700000Y55450000D03*
X26700000Y55450000D03*
D27*
X22600000Y15450000D03*
X22600000Y13450000D03*
D26*
X24700000Y15450000D03*
X26700000Y15450000D03*
X24700000Y29050000D03*
X26700000Y29050000D03*
D28*
X44500000Y62950000D03*
X25600000Y65650000D03*
X38200000Y69050000D03*
X46500000Y49900000D03*
X44500000Y67350000D03*
X44500000Y64050000D03*
X81250000Y35800000D03*
X44500000Y61850000D03*
X32800000Y65550000D03*
X82790000Y51910000D03*
X44500000Y66250000D03*
X44500000Y65150000D03*
X83022500Y56080000D03*
X61050000Y55450000D03*
X16100000Y12876000D03*
X16100000Y39950000D03*
X16100000Y26442667D03*
X16058000Y51992000D03*
X24714000Y53576000D03*
X62250000Y61550000D03*
X41150000Y67350000D03*
X41150000Y66200000D03*
X40100000Y66200000D03*
X42200000Y66200000D03*
X42200000Y67350000D03*
X41150000Y65050000D03*
X77550000Y56450000D03*
X79960000Y51850000D03*
X40100000Y67350000D03*
X53950000Y52900000D03*
X79897500Y56050000D03*
X42200000Y65050000D03*
X40100000Y65050000D03*
X70300000Y46950000D03*
X70300000Y48450000D03*
X76150000Y38200000D03*
X77450000Y35850000D03*
X78600000Y30750000D03*
X79900000Y28950000D03*
X24714000Y12876000D03*
X24714000Y39976000D03*
X24714000Y26476000D03*
D29*
X17516000Y53450000D02*
X16058000Y51992000D01*
X22026000Y12876000D02*
X16100000Y12876000D01*
X17000000Y40850000D02*
X16100000Y39950000D01*
X22800000Y27050000D02*
X16707333Y27050000D01*
X22700000Y53450000D02*
X17516000Y53450000D01*
X22600000Y13450000D02*
X22026000Y12876000D01*
X16707333Y27050000D02*
X16100000Y26442667D01*
X22700000Y40850000D02*
X17000000Y40850000D01*
X24700000Y55450000D02*
X24700000Y53590000D01*
X22700000Y55450000D02*
X24700000Y55450000D01*
X24700000Y53590000D02*
X24714000Y53576000D01*
X70300000Y46950000D02*
X30800000Y46950000D01*
X30800000Y46950000D02*
X26700000Y42850000D01*
X33700000Y48450000D02*
X70300000Y48450000D01*
X26700000Y55450000D02*
X33700000Y48450000D01*
X81350000Y63200000D02*
X81100000Y62950000D01*
X81100000Y62950000D02*
X81100000Y43150000D01*
X81100000Y43150000D02*
X76150000Y38200000D01*
X81800000Y42600000D02*
X77450000Y38250000D01*
X83890001Y63200000D02*
X81800000Y61109999D01*
X77450000Y38250000D02*
X77450000Y35850000D01*
X81800000Y61109999D02*
X81800000Y42600000D01*
X30500000Y19350000D02*
X26700000Y23150000D01*
X78600000Y30750000D02*
X78600000Y26550000D01*
X26700000Y23150000D02*
X26700000Y29050000D01*
X71400000Y19350000D02*
X30500000Y19350000D01*
X78600000Y26550000D02*
X71400000Y19350000D01*
X79900000Y23750000D02*
X71600000Y15450000D01*
X71600000Y15450000D02*
X26700000Y15450000D01*
X79900000Y28950000D02*
X79900000Y23750000D01*
X24700000Y12890000D02*
X24714000Y12876000D01*
X24700000Y15450000D02*
X24700000Y12890000D01*
X22600000Y15450000D02*
X24700000Y15450000D01*
X24700000Y42850000D02*
X24700000Y39990000D01*
X24700000Y39990000D02*
X24714000Y39976000D01*
X24700000Y42850000D02*
X22700000Y42850000D01*
X24700000Y29050000D02*
X24700000Y26490000D01*
X24700000Y29050000D02*
X22800000Y29050000D01*
X24700000Y26490000D02*
X24714000Y26476000D01*
M02*
