G04 #@! TF.GenerationSoftware,KiCad,Pcbnew,10.0.4*
G04 #@! TF.CreationDate,2026-07-30T11:54:06+03:00*
G04 #@! TF.ProjectId,smartlada_revB,736d6172-746c-4616-9461-5f726576422e,rev?*
G04 #@! TF.SameCoordinates,PX33365a0PY8917370*
G04 #@! TF.FileFunction,Soldermask,Bot*
G04 #@! TF.FilePolarity,Negative*
%FSLAX46Y46*%
G04 Gerber Fmt 4.6, Leading zero omitted, Abs format (unit mm)*
G04 Created by KiCad (PCBNEW 10.0.4) date 2026-07-30 11:54:06*
%MOMM*%
%LPD*%
G01*
G04 APERTURE LIST*
G04 Aperture macros list*
%AMRoundRect*
0 Rectangle with rounded corners*
0 $1 Rounding radius*
0 $2 $3 $4 $5 $6 $7 $8 $9 X,Y pos of 4 corners*
0 Add a 4 corners polygon primitive as box body*
4,1,4,$2,$3,$4,$5,$6,$7,$8,$9,$2,$3,0*
0 Add four circle primitives for the rounded corners*
1,1,$1+$1,$2,$3*
1,1,$1+$1,$4,$5*
1,1,$1+$1,$6,$7*
1,1,$1+$1,$8,$9*
0 Add four rect primitives between the rounded corners*
20,1,$1+$1,$2,$3,$4,$5,0*
20,1,$1+$1,$4,$5,$6,$7,0*
20,1,$1+$1,$6,$7,$8,$9,0*
20,1,$1+$1,$8,$9,$2,$3,0*%
G04 Aperture macros list end*
%ADD10RoundRect,0.102000X-0.749300X0.749300X-0.749300X-0.749300X0.749300X-0.749300X0.749300X0.749300X0*%
%ADD11C,1.702600*%
%ADD12RoundRect,0.250000X-0.550000X0.550000X-0.550000X-0.550000X0.550000X-0.550000X0.550000X0.550000X0*%
%ADD13C,1.600000*%
%ADD14RoundRect,0.249999X-0.850001X0.850001X-0.850001X-0.850001X0.850001X-0.850001X0.850001X0.850001X0*%
%ADD15C,2.200000*%
%ADD16RoundRect,0.102000X0.749300X-0.749300X0.749300X0.749300X-0.749300X0.749300X-0.749300X-0.749300X0*%
%ADD17C,2.700000*%
%ADD18C,3.000000*%
%ADD19RoundRect,0.250000X-1.050000X1.050000X-1.050000X-1.050000X1.050000X-1.050000X1.050000X1.050000X0*%
%ADD20C,2.600000*%
%ADD21RoundRect,0.102000X0.714000X0.714000X-0.714000X0.714000X-0.714000X-0.714000X0.714000X-0.714000X0*%
%ADD22C,1.632000*%
%ADD23C,3.550000*%
%ADD24C,3.200000*%
%ADD25R,1.700000X1.700000*%
%ADD26C,1.700000*%
%ADD27RoundRect,0.250000X-0.350000X-0.450000X0.350000X-0.450000X0.350000X0.450000X-0.350000X0.450000X0*%
%ADD28RoundRect,0.250000X-0.450000X0.350000X-0.450000X-0.350000X0.450000X-0.350000X0.450000X0.350000X0*%
G04 APERTURE END LIST*
D10*
X59435200Y41401200D03*
D11*
X59435200Y34898800D03*
X54939400Y41401200D03*
X54939400Y34898800D03*
D12*
X19000000Y60250000D03*
D13*
X19000000Y57750000D03*
D14*
X32414000Y32856000D03*
D15*
X32414000Y30316000D03*
X32414000Y27776000D03*
X32414000Y25236000D03*
X32414000Y22696000D03*
D16*
X46864800Y34898800D03*
D11*
X46864800Y41401200D03*
X51360600Y34898800D03*
X51360600Y41401200D03*
D17*
X7900000Y40300000D03*
D18*
X7900000Y29050000D03*
X7900000Y51550000D03*
D19*
X7900000Y17850000D03*
D20*
X7900000Y12850000D03*
D21*
X52750000Y63040000D03*
D22*
X55250000Y63040000D03*
X55250000Y65040000D03*
D23*
X60020000Y67750000D03*
D22*
X52750000Y65040000D03*
D23*
X47980000Y67750000D03*
D24*
X3800000Y75250000D03*
X3800000Y3750000D03*
D25*
X66110000Y63200000D03*
D26*
X68650000Y63200000D03*
X71189999Y63200000D03*
X73730000Y63200000D03*
X76270000Y63200000D03*
X78810000Y63200000D03*
X81350000Y63200000D03*
X83890001Y63200000D03*
D24*
X87300000Y75250000D03*
X87300000Y3750000D03*
D25*
X56360000Y27550000D03*
D26*
X58900000Y27550000D03*
X61440000Y27550000D03*
X63980000Y27550000D03*
X66520000Y27550000D03*
X69060000Y27550000D03*
X71600000Y27550000D03*
X74140000Y27550000D03*
D27*
X24700000Y42850000D03*
X26700000Y42850000D03*
D28*
X22700000Y55450000D03*
X22700000Y53450000D03*
X22700000Y42850000D03*
X22700000Y40850000D03*
X22800000Y29050000D03*
X22800000Y27050000D03*
D27*
X24700000Y55450000D03*
X26700000Y55450000D03*
D28*
X22600000Y15450000D03*
X22600000Y13450000D03*
D27*
X24700000Y15450000D03*
X26700000Y15450000D03*
X24700000Y29050000D03*
X26700000Y29050000D03*
M02*
