%TF.GenerationSoftware,KiCad,Pcbnew,10.0.4*%
%TF.CreationDate,2026-08-16T19:36:19+03:00*%
%TF.ProjectId,smartlada_revC,736d6172-746c-4616-9461-5f726576432e,rev?*%
%TF.SameCoordinates,Original*%
%TF.FileFunction,Paste,Top*%
%TF.FilePolarity,Positive*%
%FSLAX46Y46*%
G04 Gerber Fmt 4.6, Leading zero omitted, Abs format (unit mm)*
G04 Created by KiCad (PCBNEW 10.0.4) date 2026-08-16 19:36:19*
%MOMM*%
%LPD*%
G01*
G04 APERTURE LIST*
G04 Aperture macros list*
%AMRoundRect*
0 Rectangle with rounded corners*
0 $1 Rounding radius*
0 $2 $3 $4 $5 $6 $7 $8 $9 X,Y pos of 4 corners*
0 Add a 4 corners polygon primitive as box body*
4,1,4,$2,$3,$4,$5,$6,$7,$8,$9,$2,$3,0*
0 Add four circle primitives for the rounded corners*
1,1,$1+$1,$2,$3*
1,1,$1+$1,$4,$5*
1,1,$1+$1,$6,$7*
1,1,$1+$1,$8,$9*
0 Add four rect primitives between the rounded corners*
20,1,$1+$1,$2,$3,$4,$5,0*
20,1,$1+$1,$4,$5,$6,$7,0*
20,1,$1+$1,$6,$7,$8,$9,0*
20,1,$1+$1,$8,$9,$2,$3,0*%
G04 Aperture macros list end*
%ADD10RoundRect,0.250000X-0.350000X-0.450000X0.350000X-0.450000X0.350000X0.450000X-0.350000X0.450000X0*%
%ADD11RoundRect,0.250000X-0.337500X-0.475000X0.337500X-0.475000X0.337500X0.475000X-0.337500X0.475000X0*%
%ADD12RoundRect,0.250000X-0.412500X-1.100000X0.412500X-1.100000X0.412500X1.100000X-0.412500X1.100000X0*%
%ADD13RoundRect,0.150000X0.150000X0.575000X-0.150000X0.575000X-0.150000X-0.575000X0.150000X-0.575000X0*%
%ADD14RoundRect,0.075000X0.075000X0.650000X-0.075000X0.650000X-0.075000X-0.650000X0.075000X-0.650000X0*%
%ADD15RoundRect,0.250000X-0.450000X0.325000X-0.450000X-0.325000X0.450000X-0.325000X0.450000X0.325000X0*%
%ADD16RoundRect,0.250000X0.450000X-0.350000X0.450000X0.350000X-0.450000X0.350000X-0.450000X-0.350000X0*%
%ADD17RoundRect,0.250000X0.350000X0.450000X-0.350000X0.450000X-0.350000X-0.450000X0.350000X-0.450000X0*%
%ADD18RoundRect,0.250000X-0.450000X0.350000X-0.450000X-0.350000X0.450000X-0.350000X0.450000X0.350000X0*%
%ADD19R,2.743200X0.939800*%
%ADD20R,6.096000X5.562600*%
%ADD21RoundRect,0.250000X1.100000X-0.412500X1.100000X0.412500X-1.100000X0.412500X-1.100000X-0.412500X0*%
%ADD22R,1.600000X1.400000*%
%ADD23RoundRect,0.250000X0.325000X0.450000X-0.325000X0.450000X-0.325000X-0.450000X0.325000X-0.450000X0*%
%ADD24RoundRect,0.250000X0.337500X0.475000X-0.337500X0.475000X-0.337500X-0.475000X0.337500X-0.475000X0*%
%ADD25R,2.641600X7.289800*%
%ADD26RoundRect,0.250000X-0.325000X-0.450000X0.325000X-0.450000X0.325000X0.450000X-0.325000X0.450000X0*%
%ADD27R,0.900000X1.500000*%
%ADD28R,0.800000X0.800000*%
%ADD29RoundRect,0.250000X-0.595000X-1.080000X0.595000X-1.080000X0.595000X1.080000X-0.595000X1.080000X0*%
%ADD30RoundRect,0.150000X-0.687500X-0.150000X0.687500X-0.150000X0.687500X0.150000X-0.687500X0.150000X0*%
%ADD31RoundRect,0.250000X0.412500X1.100000X-0.412500X1.100000X-0.412500X-1.100000X0.412500X-1.100000X0*%
%ADD32RoundRect,0.162500X-0.162500X0.617500X-0.162500X-0.617500X0.162500X-0.617500X0.162500X0.617500X0*%
%ADD33RoundRect,0.162500X-0.617500X-0.162500X0.617500X-0.162500X0.617500X0.162500X-0.617500X0.162500X0*%
%ADD34RoundRect,0.250000X0.475000X-0.337500X0.475000X0.337500X-0.475000X0.337500X-0.475000X-0.337500X0*%
%ADD35RoundRect,0.250000X1.950000X1.000000X-1.950000X1.000000X-1.950000X-1.000000X1.950000X-1.000000X0*%
G04 APERTURE END LIST*
D10*
%TO.C,R3*%
X174500000Y-90300000D03*
X176500000Y-90300000D03*
%TD*%
D11*
%TO.C,C9*%
X226512500Y-92700000D03*
X228587500Y-92700000D03*
%TD*%
D10*
%TO.C,Rg1*%
X154300000Y-89600000D03*
X156300000Y-89600000D03*
%TD*%
D12*
%TO.C,C8*%
X225387500Y-89700000D03*
X228512500Y-89700000D03*
%TD*%
D13*
%TO.C,J1*%
X181150000Y-79485000D03*
X180350000Y-79485000D03*
D14*
X179150000Y-79485000D03*
X178150000Y-79485000D03*
X177650000Y-79485000D03*
X176650000Y-79485000D03*
D13*
X175450000Y-79485000D03*
X174650000Y-79485000D03*
X174650000Y-79485000D03*
X175450000Y-79485000D03*
D14*
X176150000Y-79485000D03*
X177150000Y-79485000D03*
X178650000Y-79485000D03*
X179650000Y-79485000D03*
D13*
X180350000Y-79485000D03*
X181150000Y-79485000D03*
%TD*%
D15*
%TO.C,D5*%
X131900000Y-116975000D03*
X131900000Y-119025000D03*
%TD*%
D10*
%TO.C,R8*%
X213500000Y-92700000D03*
X215500000Y-92700000D03*
%TD*%
D16*
%TO.C,R2*%
X174400000Y-95300000D03*
X174400000Y-93300000D03*
%TD*%
%TO.C,Rpd4*%
X154300000Y-116000000D03*
X154300000Y-114000000D03*
%TD*%
D17*
%TO.C,R12*%
X213000000Y-79400000D03*
X211000000Y-79400000D03*
%TD*%
D10*
%TO.C,R15*%
X134300000Y-109500000D03*
X136300000Y-109500000D03*
%TD*%
D18*
%TO.C,R4*%
X201350000Y-76850000D03*
X201350000Y-78850000D03*
%TD*%
D15*
%TO.C,D2*%
X131900000Y-88225000D03*
X131900000Y-90275000D03*
%TD*%
D10*
%TO.C,R6*%
X221200000Y-90200000D03*
X223200000Y-90200000D03*
%TD*%
D11*
%TO.C,C10*%
X221112500Y-92250000D03*
X223187500Y-92250000D03*
%TD*%
D19*
%TO.C,Q2*%
X150700000Y-99238667D03*
D20*
X143918200Y-96952667D03*
D19*
X150700000Y-94666667D03*
%TD*%
D21*
%TO.C,C3*%
X189250000Y-81512500D03*
X189250000Y-78387500D03*
%TD*%
D18*
%TO.C,R9*%
X172000000Y-86400000D03*
X172000000Y-88400000D03*
%TD*%
D22*
%TO.C,SW2*%
X195000000Y-117900000D03*
X187000000Y-117900000D03*
X195000000Y-113400000D03*
X187000000Y-113400000D03*
%TD*%
D16*
%TO.C,R17*%
X168200000Y-82100000D03*
X168200000Y-80100000D03*
%TD*%
%TO.C,Rpd3*%
X154300000Y-106400000D03*
X154300000Y-104400000D03*
%TD*%
D23*
%TO.C,D6*%
X172225000Y-83500000D03*
X170175000Y-83500000D03*
%TD*%
D11*
%TO.C,C1*%
X163862500Y-86200000D03*
X165937500Y-86200000D03*
%TD*%
D10*
%TO.C,R16*%
X134300000Y-119000000D03*
X136300000Y-119000000D03*
%TD*%
D19*
%TO.C,Q1*%
X150700000Y-89572000D03*
D20*
X143918200Y-87286000D03*
D19*
X150700000Y-85000000D03*
%TD*%
D17*
%TO.C,R11*%
X210625000Y-116350000D03*
X208625000Y-116350000D03*
%TD*%
D24*
%TO.C,C5*%
X199437500Y-76800000D03*
X197362500Y-76800000D03*
%TD*%
D16*
%TO.C,Rpd1*%
X154300000Y-87000000D03*
X154300000Y-85000000D03*
%TD*%
D25*
%TO.C,L1*%
X200182000Y-86650000D03*
X195533800Y-86650000D03*
%TD*%
D17*
%TO.C,R10*%
X206225000Y-116375000D03*
X204225000Y-116375000D03*
%TD*%
D26*
%TO.C,D1*%
X210975000Y-75200000D03*
X213025000Y-75200000D03*
%TD*%
D10*
%TO.C,Rg3*%
X154300000Y-108800000D03*
X156300000Y-108800000D03*
%TD*%
D27*
%TO.C,U1*%
X229020000Y-95800000D03*
X227750000Y-95800000D03*
X226480000Y-95800000D03*
X225210000Y-95800000D03*
X223940000Y-95800000D03*
X222670000Y-95800000D03*
X221400000Y-95800000D03*
X220130000Y-95800000D03*
X218860000Y-95800000D03*
X217590000Y-95800000D03*
X216320000Y-95800000D03*
X215050000Y-95800000D03*
X213780000Y-95800000D03*
X212510000Y-95800000D03*
X212510000Y-113300000D03*
X213780000Y-113300000D03*
X215050000Y-113300000D03*
X216320000Y-113300000D03*
X217590000Y-113300000D03*
X218860000Y-113300000D03*
X220130000Y-113300000D03*
X221400000Y-113300000D03*
X222670000Y-113300000D03*
X223940000Y-113300000D03*
X225210000Y-113300000D03*
X226480000Y-113300000D03*
X227750000Y-113300000D03*
X229020000Y-113300000D03*
D28*
X224550000Y-101795000D03*
X224550000Y-103045000D03*
X224550000Y-104295000D03*
X223300000Y-101795000D03*
X223300000Y-103045000D03*
X223300000Y-104295000D03*
X222050000Y-101795000D03*
X222050000Y-103045000D03*
X222050000Y-104295000D03*
%TD*%
D10*
%TO.C,Rg2*%
X154300000Y-99100000D03*
X156300000Y-99100000D03*
%TD*%
D29*
%TO.C,U3*%
X167000000Y-90635000D03*
D30*
X164362500Y-88635000D03*
X164362500Y-89635000D03*
X164362500Y-90635000D03*
X164362500Y-91635000D03*
X164362500Y-92635000D03*
X169637500Y-92635000D03*
X169637500Y-91635000D03*
X169637500Y-90635000D03*
X169637500Y-89635000D03*
X169637500Y-88635000D03*
%TD*%
D16*
%TO.C,R1*%
X163800000Y-84000000D03*
X163800000Y-82000000D03*
%TD*%
%TO.C,Rpd2*%
X154300000Y-96700000D03*
X154300000Y-94700000D03*
%TD*%
D21*
%TO.C,C4*%
X192950000Y-81512500D03*
X192950000Y-78387500D03*
%TD*%
D15*
%TO.C,D3*%
X131900000Y-97875000D03*
X131900000Y-99925000D03*
%TD*%
%TO.C,D4*%
X131900000Y-107475000D03*
X131900000Y-109525000D03*
%TD*%
D10*
%TO.C,Rg4*%
X154300000Y-118400000D03*
X156300000Y-118400000D03*
%TD*%
D31*
%TO.C,C7*%
X206612500Y-83750000D03*
X203487500Y-83750000D03*
%TD*%
D32*
%TO.C,U4*%
X178850000Y-83250000D03*
X177900000Y-83250000D03*
X176950000Y-83250000D03*
X176950000Y-85950000D03*
X177900000Y-85950000D03*
X178850000Y-85950000D03*
%TD*%
D33*
%TO.C,U2*%
X196100000Y-79000000D03*
X196100000Y-79950000D03*
X196100000Y-80900000D03*
X198800000Y-80900000D03*
X198800000Y-79950000D03*
X198800000Y-79000000D03*
%TD*%
D34*
%TO.C,C2*%
X174300000Y-84687500D03*
X174300000Y-82612500D03*
%TD*%
D19*
%TO.C,Q4*%
X150700000Y-118572000D03*
D20*
X143918200Y-116286000D03*
D19*
X150700000Y-114000000D03*
%TD*%
D10*
%TO.C,R14*%
X134300000Y-99900000D03*
X136300000Y-99900000D03*
%TD*%
D17*
%TO.C,R5*%
X203250000Y-80850000D03*
X201250000Y-80850000D03*
%TD*%
D31*
%TO.C,C6*%
X206612500Y-87250000D03*
X203487500Y-87250000D03*
%TD*%
D10*
%TO.C,R7*%
X209450000Y-92700000D03*
X211450000Y-92700000D03*
%TD*%
D19*
%TO.C,Q3*%
X150700000Y-108905333D03*
D20*
X143918200Y-106619333D03*
D19*
X150700000Y-104333333D03*
%TD*%
D35*
%TO.C,C11*%
X158400000Y-77200000D03*
X150000000Y-77200000D03*
%TD*%
D22*
%TO.C,SW1*%
X195000000Y-106350000D03*
X187000000Y-106350000D03*
X195000000Y-101850000D03*
X187000000Y-101850000D03*
%TD*%
D10*
%TO.C,R13*%
X134300000Y-90250000D03*
X136300000Y-90250000D03*
%TD*%
M02*
