%TF.GenerationSoftware,KiCad,Pcbnew,10.0.4*%
%TF.CreationDate,2026-08-16T19:36:20+03:00*%
%TF.ProjectId,smartlada_revC,736d6172-746c-4616-9461-5f726576432e,rev?*%
%TF.SameCoordinates,Original*%
%TF.FileFunction,Drillmap*%
%TF.FilePolarity,Positive*%
%FSLAX45Y45*%
G04 Gerber Fmt 4.5, Leading zero omitted, Abs format (unit mm)*
G04 Created by KiCad (PCBNEW 10.0.4) date 2026-08-16 19:36:20*
%MOMM*%
%LPD*%
G01*
G04 APERTURE LIST*
%ADD10C,0.200000*%
%ADD11C,0.100000*%
%ADD12C,0.320000*%
G04 APERTURE END LIST*
D10*
X13000000Y-7100000D02*
X23000000Y-7100000D01*
X23000000Y-13000000D01*
X13000000Y-13000000D01*
X13000000Y-7100000D01*
D11*
X17468500Y-7771500D02*
X17533500Y-7836500D01*
X17533500Y-7771500D02*
X17468500Y-7836500D01*
X18046500Y-7771500D02*
X18111500Y-7836500D01*
X18111500Y-7771500D02*
X18046500Y-7836500D01*
D12*
X13760000Y-7700000D02*
G75*
G02*
X13440000Y-7700000I-160000J0D01*
G01*
X13440000Y-7700000D02*
G75*
G02*
X13760000Y-7700000I160000J0D01*
G01*
X13760000Y-12400000D02*
G75*
G02*
X13440000Y-12400000I-160000J0D01*
G01*
X13440000Y-12400000D02*
G75*
G02*
X13760000Y-12400000I160000J0D01*
G01*
X22560000Y-7700000D02*
G75*
G02*
X22240000Y-7700000I-160000J0D01*
G01*
X22240000Y-7700000D02*
G75*
G02*
X22560000Y-7700000I160000J0D01*
G01*
X22560000Y-12400000D02*
G75*
G02*
X22240000Y-12400000I-160000J0D01*
G01*
X22240000Y-12400000D02*
G75*
G02*
X22560000Y-12400000I160000J0D01*
G01*
D10*
X13250777Y-13321484D02*
X13250777Y-13121484D01*
X13250777Y-13121484D02*
X13298396Y-13121484D01*
X13298396Y-13121484D02*
X13326967Y-13131008D01*
X13326967Y-13131008D02*
X13346015Y-13150055D01*
X13346015Y-13150055D02*
X13355539Y-13169103D01*
X13355539Y-13169103D02*
X13365062Y-13207198D01*
X13365062Y-13207198D02*
X13365062Y-13235769D01*
X13365062Y-13235769D02*
X13355539Y-13273865D01*
X13355539Y-13273865D02*
X13346015Y-13292912D01*
X13346015Y-13292912D02*
X13326967Y-13311960D01*
X13326967Y-13311960D02*
X13298396Y-13321484D01*
X13298396Y-13321484D02*
X13250777Y-13321484D01*
X13450777Y-13321484D02*
X13450777Y-13188150D01*
X13450777Y-13226246D02*
X13460301Y-13207198D01*
X13460301Y-13207198D02*
X13469824Y-13197674D01*
X13469824Y-13197674D02*
X13488872Y-13188150D01*
X13488872Y-13188150D02*
X13507920Y-13188150D01*
X13574586Y-13321484D02*
X13574586Y-13188150D01*
X13574586Y-13121484D02*
X13565062Y-13131008D01*
X13565062Y-13131008D02*
X13574586Y-13140531D01*
X13574586Y-13140531D02*
X13584110Y-13131008D01*
X13584110Y-13131008D02*
X13574586Y-13121484D01*
X13574586Y-13121484D02*
X13574586Y-13140531D01*
X13698396Y-13321484D02*
X13679348Y-13311960D01*
X13679348Y-13311960D02*
X13669824Y-13292912D01*
X13669824Y-13292912D02*
X13669824Y-13121484D01*
X13803158Y-13321484D02*
X13784110Y-13311960D01*
X13784110Y-13311960D02*
X13774586Y-13292912D01*
X13774586Y-13292912D02*
X13774586Y-13121484D01*
X14031729Y-13321484D02*
X14031729Y-13121484D01*
X14031729Y-13121484D02*
X14098396Y-13264341D01*
X14098396Y-13264341D02*
X14165062Y-13121484D01*
X14165062Y-13121484D02*
X14165062Y-13321484D01*
X14346015Y-13321484D02*
X14346015Y-13216722D01*
X14346015Y-13216722D02*
X14336491Y-13197674D01*
X14336491Y-13197674D02*
X14317443Y-13188150D01*
X14317443Y-13188150D02*
X14279348Y-13188150D01*
X14279348Y-13188150D02*
X14260301Y-13197674D01*
X14346015Y-13311960D02*
X14326967Y-13321484D01*
X14326967Y-13321484D02*
X14279348Y-13321484D01*
X14279348Y-13321484D02*
X14260301Y-13311960D01*
X14260301Y-13311960D02*
X14250777Y-13292912D01*
X14250777Y-13292912D02*
X14250777Y-13273865D01*
X14250777Y-13273865D02*
X14260301Y-13254817D01*
X14260301Y-13254817D02*
X14279348Y-13245293D01*
X14279348Y-13245293D02*
X14326967Y-13245293D01*
X14326967Y-13245293D02*
X14346015Y-13235769D01*
X14441253Y-13188150D02*
X14441253Y-13388150D01*
X14441253Y-13197674D02*
X14460301Y-13188150D01*
X14460301Y-13188150D02*
X14498396Y-13188150D01*
X14498396Y-13188150D02*
X14517443Y-13197674D01*
X14517443Y-13197674D02*
X14526967Y-13207198D01*
X14526967Y-13207198D02*
X14536491Y-13226246D01*
X14536491Y-13226246D02*
X14536491Y-13283388D01*
X14536491Y-13283388D02*
X14526967Y-13302436D01*
X14526967Y-13302436D02*
X14517443Y-13311960D01*
X14517443Y-13311960D02*
X14498396Y-13321484D01*
X14498396Y-13321484D02*
X14460301Y-13321484D01*
X14460301Y-13321484D02*
X14441253Y-13311960D01*
X14622205Y-13302436D02*
X14631729Y-13311960D01*
X14631729Y-13311960D02*
X14622205Y-13321484D01*
X14622205Y-13321484D02*
X14612682Y-13311960D01*
X14612682Y-13311960D02*
X14622205Y-13302436D01*
X14622205Y-13302436D02*
X14622205Y-13321484D01*
X14622205Y-13197674D02*
X14631729Y-13207198D01*
X14631729Y-13207198D02*
X14622205Y-13216722D01*
X14622205Y-13216722D02*
X14612682Y-13207198D01*
X14612682Y-13207198D02*
X14622205Y-13197674D01*
X14622205Y-13197674D02*
X14622205Y-13216722D01*
D11*
X12925000Y-13617500D02*
X12990000Y-13682500D01*
X12990000Y-13617500D02*
X12925000Y-13682500D01*
D10*
X13288872Y-13541484D02*
X13307920Y-13541484D01*
X13307920Y-13541484D02*
X13326967Y-13551008D01*
X13326967Y-13551008D02*
X13336491Y-13560531D01*
X13336491Y-13560531D02*
X13346015Y-13579579D01*
X13346015Y-13579579D02*
X13355539Y-13617674D01*
X13355539Y-13617674D02*
X13355539Y-13665293D01*
X13355539Y-13665293D02*
X13346015Y-13703388D01*
X13346015Y-13703388D02*
X13336491Y-13722436D01*
X13336491Y-13722436D02*
X13326967Y-13731960D01*
X13326967Y-13731960D02*
X13307920Y-13741484D01*
X13307920Y-13741484D02*
X13288872Y-13741484D01*
X13288872Y-13741484D02*
X13269824Y-13731960D01*
X13269824Y-13731960D02*
X13260301Y-13722436D01*
X13260301Y-13722436D02*
X13250777Y-13703388D01*
X13250777Y-13703388D02*
X13241253Y-13665293D01*
X13241253Y-13665293D02*
X13241253Y-13617674D01*
X13241253Y-13617674D02*
X13250777Y-13579579D01*
X13250777Y-13579579D02*
X13260301Y-13560531D01*
X13260301Y-13560531D02*
X13269824Y-13551008D01*
X13269824Y-13551008D02*
X13288872Y-13541484D01*
X13441253Y-13722436D02*
X13450777Y-13731960D01*
X13450777Y-13731960D02*
X13441253Y-13741484D01*
X13441253Y-13741484D02*
X13431729Y-13731960D01*
X13431729Y-13731960D02*
X13441253Y-13722436D01*
X13441253Y-13722436D02*
X13441253Y-13741484D01*
X13622205Y-13541484D02*
X13584110Y-13541484D01*
X13584110Y-13541484D02*
X13565062Y-13551008D01*
X13565062Y-13551008D02*
X13555539Y-13560531D01*
X13555539Y-13560531D02*
X13536491Y-13589103D01*
X13536491Y-13589103D02*
X13526967Y-13627198D01*
X13526967Y-13627198D02*
X13526967Y-13703388D01*
X13526967Y-13703388D02*
X13536491Y-13722436D01*
X13536491Y-13722436D02*
X13546015Y-13731960D01*
X13546015Y-13731960D02*
X13565062Y-13741484D01*
X13565062Y-13741484D02*
X13603158Y-13741484D01*
X13603158Y-13741484D02*
X13622205Y-13731960D01*
X13622205Y-13731960D02*
X13631729Y-13722436D01*
X13631729Y-13722436D02*
X13641253Y-13703388D01*
X13641253Y-13703388D02*
X13641253Y-13655769D01*
X13641253Y-13655769D02*
X13631729Y-13636722D01*
X13631729Y-13636722D02*
X13622205Y-13627198D01*
X13622205Y-13627198D02*
X13603158Y-13617674D01*
X13603158Y-13617674D02*
X13565062Y-13617674D01*
X13565062Y-13617674D02*
X13546015Y-13627198D01*
X13546015Y-13627198D02*
X13536491Y-13636722D01*
X13536491Y-13636722D02*
X13526967Y-13655769D01*
X13822205Y-13541484D02*
X13726967Y-13541484D01*
X13726967Y-13541484D02*
X13717443Y-13636722D01*
X13717443Y-13636722D02*
X13726967Y-13627198D01*
X13726967Y-13627198D02*
X13746015Y-13617674D01*
X13746015Y-13617674D02*
X13793634Y-13617674D01*
X13793634Y-13617674D02*
X13812682Y-13627198D01*
X13812682Y-13627198D02*
X13822205Y-13636722D01*
X13822205Y-13636722D02*
X13831729Y-13655769D01*
X13831729Y-13655769D02*
X13831729Y-13703388D01*
X13831729Y-13703388D02*
X13822205Y-13722436D01*
X13822205Y-13722436D02*
X13812682Y-13731960D01*
X13812682Y-13731960D02*
X13793634Y-13741484D01*
X13793634Y-13741484D02*
X13746015Y-13741484D01*
X13746015Y-13741484D02*
X13726967Y-13731960D01*
X13726967Y-13731960D02*
X13717443Y-13722436D01*
X13955539Y-13541484D02*
X13974586Y-13541484D01*
X13974586Y-13541484D02*
X13993634Y-13551008D01*
X13993634Y-13551008D02*
X14003158Y-13560531D01*
X14003158Y-13560531D02*
X14012682Y-13579579D01*
X14012682Y-13579579D02*
X14022205Y-13617674D01*
X14022205Y-13617674D02*
X14022205Y-13665293D01*
X14022205Y-13665293D02*
X14012682Y-13703388D01*
X14012682Y-13703388D02*
X14003158Y-13722436D01*
X14003158Y-13722436D02*
X13993634Y-13731960D01*
X13993634Y-13731960D02*
X13974586Y-13741484D01*
X13974586Y-13741484D02*
X13955539Y-13741484D01*
X13955539Y-13741484D02*
X13936491Y-13731960D01*
X13936491Y-13731960D02*
X13926967Y-13722436D01*
X13926967Y-13722436D02*
X13917443Y-13703388D01*
X13917443Y-13703388D02*
X13907920Y-13665293D01*
X13907920Y-13665293D02*
X13907920Y-13617674D01*
X13907920Y-13617674D02*
X13917443Y-13579579D01*
X13917443Y-13579579D02*
X13926967Y-13560531D01*
X13926967Y-13560531D02*
X13936491Y-13551008D01*
X13936491Y-13551008D02*
X13955539Y-13541484D01*
X14107920Y-13741484D02*
X14107920Y-13608150D01*
X14107920Y-13627198D02*
X14117443Y-13617674D01*
X14117443Y-13617674D02*
X14136491Y-13608150D01*
X14136491Y-13608150D02*
X14165063Y-13608150D01*
X14165063Y-13608150D02*
X14184110Y-13617674D01*
X14184110Y-13617674D02*
X14193634Y-13636722D01*
X14193634Y-13636722D02*
X14193634Y-13741484D01*
X14193634Y-13636722D02*
X14203158Y-13617674D01*
X14203158Y-13617674D02*
X14222205Y-13608150D01*
X14222205Y-13608150D02*
X14250777Y-13608150D01*
X14250777Y-13608150D02*
X14269824Y-13617674D01*
X14269824Y-13617674D02*
X14279348Y-13636722D01*
X14279348Y-13636722D02*
X14279348Y-13741484D01*
X14374586Y-13741484D02*
X14374586Y-13608150D01*
X14374586Y-13627198D02*
X14384110Y-13617674D01*
X14384110Y-13617674D02*
X14403158Y-13608150D01*
X14403158Y-13608150D02*
X14431729Y-13608150D01*
X14431729Y-13608150D02*
X14450777Y-13617674D01*
X14450777Y-13617674D02*
X14460301Y-13636722D01*
X14460301Y-13636722D02*
X14460301Y-13741484D01*
X14460301Y-13636722D02*
X14469824Y-13617674D01*
X14469824Y-13617674D02*
X14488872Y-13608150D01*
X14488872Y-13608150D02*
X14517443Y-13608150D01*
X14517443Y-13608150D02*
X14536491Y-13617674D01*
X14536491Y-13617674D02*
X14546015Y-13636722D01*
X14546015Y-13636722D02*
X14546015Y-13741484D01*
X14936491Y-13531960D02*
X14765063Y-13789103D01*
X15193634Y-13541484D02*
X15212682Y-13541484D01*
X15212682Y-13541484D02*
X15231729Y-13551008D01*
X15231729Y-13551008D02*
X15241253Y-13560531D01*
X15241253Y-13560531D02*
X15250777Y-13579579D01*
X15250777Y-13579579D02*
X15260301Y-13617674D01*
X15260301Y-13617674D02*
X15260301Y-13665293D01*
X15260301Y-13665293D02*
X15250777Y-13703388D01*
X15250777Y-13703388D02*
X15241253Y-13722436D01*
X15241253Y-13722436D02*
X15231729Y-13731960D01*
X15231729Y-13731960D02*
X15212682Y-13741484D01*
X15212682Y-13741484D02*
X15193634Y-13741484D01*
X15193634Y-13741484D02*
X15174586Y-13731960D01*
X15174586Y-13731960D02*
X15165063Y-13722436D01*
X15165063Y-13722436D02*
X15155539Y-13703388D01*
X15155539Y-13703388D02*
X15146015Y-13665293D01*
X15146015Y-13665293D02*
X15146015Y-13617674D01*
X15146015Y-13617674D02*
X15155539Y-13579579D01*
X15155539Y-13579579D02*
X15165063Y-13560531D01*
X15165063Y-13560531D02*
X15174586Y-13551008D01*
X15174586Y-13551008D02*
X15193634Y-13541484D01*
X15346015Y-13722436D02*
X15355539Y-13731960D01*
X15355539Y-13731960D02*
X15346015Y-13741484D01*
X15346015Y-13741484D02*
X15336491Y-13731960D01*
X15336491Y-13731960D02*
X15346015Y-13722436D01*
X15346015Y-13722436D02*
X15346015Y-13741484D01*
X15479348Y-13541484D02*
X15498396Y-13541484D01*
X15498396Y-13541484D02*
X15517444Y-13551008D01*
X15517444Y-13551008D02*
X15526967Y-13560531D01*
X15526967Y-13560531D02*
X15536491Y-13579579D01*
X15536491Y-13579579D02*
X15546015Y-13617674D01*
X15546015Y-13617674D02*
X15546015Y-13665293D01*
X15546015Y-13665293D02*
X15536491Y-13703388D01*
X15536491Y-13703388D02*
X15526967Y-13722436D01*
X15526967Y-13722436D02*
X15517444Y-13731960D01*
X15517444Y-13731960D02*
X15498396Y-13741484D01*
X15498396Y-13741484D02*
X15479348Y-13741484D01*
X15479348Y-13741484D02*
X15460301Y-13731960D01*
X15460301Y-13731960D02*
X15450777Y-13722436D01*
X15450777Y-13722436D02*
X15441253Y-13703388D01*
X15441253Y-13703388D02*
X15431729Y-13665293D01*
X15431729Y-13665293D02*
X15431729Y-13617674D01*
X15431729Y-13617674D02*
X15441253Y-13579579D01*
X15441253Y-13579579D02*
X15450777Y-13560531D01*
X15450777Y-13560531D02*
X15460301Y-13551008D01*
X15460301Y-13551008D02*
X15479348Y-13541484D01*
X15622206Y-13560531D02*
X15631729Y-13551008D01*
X15631729Y-13551008D02*
X15650777Y-13541484D01*
X15650777Y-13541484D02*
X15698396Y-13541484D01*
X15698396Y-13541484D02*
X15717444Y-13551008D01*
X15717444Y-13551008D02*
X15726967Y-13560531D01*
X15726967Y-13560531D02*
X15736491Y-13579579D01*
X15736491Y-13579579D02*
X15736491Y-13598627D01*
X15736491Y-13598627D02*
X15726967Y-13627198D01*
X15726967Y-13627198D02*
X15612682Y-13741484D01*
X15612682Y-13741484D02*
X15736491Y-13741484D01*
X15917444Y-13541484D02*
X15822206Y-13541484D01*
X15822206Y-13541484D02*
X15812682Y-13636722D01*
X15812682Y-13636722D02*
X15822206Y-13627198D01*
X15822206Y-13627198D02*
X15841253Y-13617674D01*
X15841253Y-13617674D02*
X15888872Y-13617674D01*
X15888872Y-13617674D02*
X15907920Y-13627198D01*
X15907920Y-13627198D02*
X15917444Y-13636722D01*
X15917444Y-13636722D02*
X15926967Y-13655769D01*
X15926967Y-13655769D02*
X15926967Y-13703388D01*
X15926967Y-13703388D02*
X15917444Y-13722436D01*
X15917444Y-13722436D02*
X15907920Y-13731960D01*
X15907920Y-13731960D02*
X15888872Y-13741484D01*
X15888872Y-13741484D02*
X15841253Y-13741484D01*
X15841253Y-13741484D02*
X15822206Y-13731960D01*
X15822206Y-13731960D02*
X15812682Y-13722436D01*
X16098396Y-13541484D02*
X16060301Y-13541484D01*
X16060301Y-13541484D02*
X16041253Y-13551008D01*
X16041253Y-13551008D02*
X16031729Y-13560531D01*
X16031729Y-13560531D02*
X16012682Y-13589103D01*
X16012682Y-13589103D02*
X16003158Y-13627198D01*
X16003158Y-13627198D02*
X16003158Y-13703388D01*
X16003158Y-13703388D02*
X16012682Y-13722436D01*
X16012682Y-13722436D02*
X16022206Y-13731960D01*
X16022206Y-13731960D02*
X16041253Y-13741484D01*
X16041253Y-13741484D02*
X16079348Y-13741484D01*
X16079348Y-13741484D02*
X16098396Y-13731960D01*
X16098396Y-13731960D02*
X16107920Y-13722436D01*
X16107920Y-13722436D02*
X16117444Y-13703388D01*
X16117444Y-13703388D02*
X16117444Y-13655769D01*
X16117444Y-13655769D02*
X16107920Y-13636722D01*
X16107920Y-13636722D02*
X16098396Y-13627198D01*
X16098396Y-13627198D02*
X16079348Y-13617674D01*
X16079348Y-13617674D02*
X16041253Y-13617674D01*
X16041253Y-13617674D02*
X16022206Y-13627198D01*
X16022206Y-13627198D02*
X16012682Y-13636722D01*
X16012682Y-13636722D02*
X16003158Y-13655769D01*
X16193634Y-13541484D02*
X16193634Y-13579579D01*
X16269825Y-13541484D02*
X16269825Y-13579579D01*
X16565063Y-13817674D02*
X16555539Y-13808150D01*
X16555539Y-13808150D02*
X16536491Y-13779579D01*
X16536491Y-13779579D02*
X16526968Y-13760531D01*
X16526968Y-13760531D02*
X16517444Y-13731960D01*
X16517444Y-13731960D02*
X16507920Y-13684341D01*
X16507920Y-13684341D02*
X16507920Y-13646246D01*
X16507920Y-13646246D02*
X16517444Y-13598627D01*
X16517444Y-13598627D02*
X16526968Y-13570055D01*
X16526968Y-13570055D02*
X16536491Y-13551008D01*
X16536491Y-13551008D02*
X16555539Y-13522436D01*
X16555539Y-13522436D02*
X16565063Y-13512912D01*
X16631729Y-13560531D02*
X16641253Y-13551008D01*
X16641253Y-13551008D02*
X16660301Y-13541484D01*
X16660301Y-13541484D02*
X16707920Y-13541484D01*
X16707920Y-13541484D02*
X16726968Y-13551008D01*
X16726968Y-13551008D02*
X16736491Y-13560531D01*
X16736491Y-13560531D02*
X16746015Y-13579579D01*
X16746015Y-13579579D02*
X16746015Y-13598627D01*
X16746015Y-13598627D02*
X16736491Y-13627198D01*
X16736491Y-13627198D02*
X16622206Y-13741484D01*
X16622206Y-13741484D02*
X16746015Y-13741484D01*
X16984111Y-13741484D02*
X16984111Y-13541484D01*
X17069825Y-13741484D02*
X17069825Y-13636722D01*
X17069825Y-13636722D02*
X17060301Y-13617674D01*
X17060301Y-13617674D02*
X17041253Y-13608150D01*
X17041253Y-13608150D02*
X17012682Y-13608150D01*
X17012682Y-13608150D02*
X16993634Y-13617674D01*
X16993634Y-13617674D02*
X16984111Y-13627198D01*
X17193634Y-13741484D02*
X17174587Y-13731960D01*
X17174587Y-13731960D02*
X17165063Y-13722436D01*
X17165063Y-13722436D02*
X17155539Y-13703388D01*
X17155539Y-13703388D02*
X17155539Y-13646246D01*
X17155539Y-13646246D02*
X17165063Y-13627198D01*
X17165063Y-13627198D02*
X17174587Y-13617674D01*
X17174587Y-13617674D02*
X17193634Y-13608150D01*
X17193634Y-13608150D02*
X17222206Y-13608150D01*
X17222206Y-13608150D02*
X17241253Y-13617674D01*
X17241253Y-13617674D02*
X17250777Y-13627198D01*
X17250777Y-13627198D02*
X17260301Y-13646246D01*
X17260301Y-13646246D02*
X17260301Y-13703388D01*
X17260301Y-13703388D02*
X17250777Y-13722436D01*
X17250777Y-13722436D02*
X17241253Y-13731960D01*
X17241253Y-13731960D02*
X17222206Y-13741484D01*
X17222206Y-13741484D02*
X17193634Y-13741484D01*
X17374587Y-13741484D02*
X17355539Y-13731960D01*
X17355539Y-13731960D02*
X17346015Y-13712912D01*
X17346015Y-13712912D02*
X17346015Y-13541484D01*
X17526968Y-13731960D02*
X17507920Y-13741484D01*
X17507920Y-13741484D02*
X17469825Y-13741484D01*
X17469825Y-13741484D02*
X17450777Y-13731960D01*
X17450777Y-13731960D02*
X17441253Y-13712912D01*
X17441253Y-13712912D02*
X17441253Y-13636722D01*
X17441253Y-13636722D02*
X17450777Y-13617674D01*
X17450777Y-13617674D02*
X17469825Y-13608150D01*
X17469825Y-13608150D02*
X17507920Y-13608150D01*
X17507920Y-13608150D02*
X17526968Y-13617674D01*
X17526968Y-13617674D02*
X17536492Y-13636722D01*
X17536492Y-13636722D02*
X17536492Y-13655769D01*
X17536492Y-13655769D02*
X17441253Y-13674817D01*
X17612682Y-13731960D02*
X17631730Y-13741484D01*
X17631730Y-13741484D02*
X17669825Y-13741484D01*
X17669825Y-13741484D02*
X17688873Y-13731960D01*
X17688873Y-13731960D02*
X17698396Y-13712912D01*
X17698396Y-13712912D02*
X17698396Y-13703388D01*
X17698396Y-13703388D02*
X17688873Y-13684341D01*
X17688873Y-13684341D02*
X17669825Y-13674817D01*
X17669825Y-13674817D02*
X17641253Y-13674817D01*
X17641253Y-13674817D02*
X17622206Y-13665293D01*
X17622206Y-13665293D02*
X17612682Y-13646246D01*
X17612682Y-13646246D02*
X17612682Y-13636722D01*
X17612682Y-13636722D02*
X17622206Y-13617674D01*
X17622206Y-13617674D02*
X17641253Y-13608150D01*
X17641253Y-13608150D02*
X17669825Y-13608150D01*
X17669825Y-13608150D02*
X17688873Y-13617674D01*
X17765063Y-13817674D02*
X17774587Y-13808150D01*
X17774587Y-13808150D02*
X17793634Y-13779579D01*
X17793634Y-13779579D02*
X17803158Y-13760531D01*
X17803158Y-13760531D02*
X17812682Y-13731960D01*
X17812682Y-13731960D02*
X17822206Y-13684341D01*
X17822206Y-13684341D02*
X17822206Y-13646246D01*
X17822206Y-13646246D02*
X17812682Y-13598627D01*
X17812682Y-13598627D02*
X17803158Y-13570055D01*
X17803158Y-13570055D02*
X17793634Y-13551008D01*
X17793634Y-13551008D02*
X17774587Y-13522436D01*
X17774587Y-13522436D02*
X17765063Y-13512912D01*
X18126968Y-13817674D02*
X18117444Y-13808150D01*
X18117444Y-13808150D02*
X18098396Y-13779579D01*
X18098396Y-13779579D02*
X18088873Y-13760531D01*
X18088873Y-13760531D02*
X18079349Y-13731960D01*
X18079349Y-13731960D02*
X18069825Y-13684341D01*
X18069825Y-13684341D02*
X18069825Y-13646246D01*
X18069825Y-13646246D02*
X18079349Y-13598627D01*
X18079349Y-13598627D02*
X18088873Y-13570055D01*
X18088873Y-13570055D02*
X18098396Y-13551008D01*
X18098396Y-13551008D02*
X18117444Y-13522436D01*
X18117444Y-13522436D02*
X18126968Y-13512912D01*
X18203158Y-13608150D02*
X18203158Y-13741484D01*
X18203158Y-13627198D02*
X18212682Y-13617674D01*
X18212682Y-13617674D02*
X18231730Y-13608150D01*
X18231730Y-13608150D02*
X18260301Y-13608150D01*
X18260301Y-13608150D02*
X18279349Y-13617674D01*
X18279349Y-13617674D02*
X18288873Y-13636722D01*
X18288873Y-13636722D02*
X18288873Y-13741484D01*
X18412682Y-13741484D02*
X18393634Y-13731960D01*
X18393634Y-13731960D02*
X18384111Y-13722436D01*
X18384111Y-13722436D02*
X18374587Y-13703388D01*
X18374587Y-13703388D02*
X18374587Y-13646246D01*
X18374587Y-13646246D02*
X18384111Y-13627198D01*
X18384111Y-13627198D02*
X18393634Y-13617674D01*
X18393634Y-13617674D02*
X18412682Y-13608150D01*
X18412682Y-13608150D02*
X18441254Y-13608150D01*
X18441254Y-13608150D02*
X18460301Y-13617674D01*
X18460301Y-13617674D02*
X18469825Y-13627198D01*
X18469825Y-13627198D02*
X18479349Y-13646246D01*
X18479349Y-13646246D02*
X18479349Y-13703388D01*
X18479349Y-13703388D02*
X18469825Y-13722436D01*
X18469825Y-13722436D02*
X18460301Y-13731960D01*
X18460301Y-13731960D02*
X18441254Y-13741484D01*
X18441254Y-13741484D02*
X18412682Y-13741484D01*
X18536492Y-13608150D02*
X18612682Y-13608150D01*
X18565063Y-13541484D02*
X18565063Y-13712912D01*
X18565063Y-13712912D02*
X18574587Y-13731960D01*
X18574587Y-13731960D02*
X18593634Y-13741484D01*
X18593634Y-13741484D02*
X18612682Y-13741484D01*
X18831730Y-13608150D02*
X18831730Y-13808150D01*
X18831730Y-13617674D02*
X18850777Y-13608150D01*
X18850777Y-13608150D02*
X18888873Y-13608150D01*
X18888873Y-13608150D02*
X18907920Y-13617674D01*
X18907920Y-13617674D02*
X18917444Y-13627198D01*
X18917444Y-13627198D02*
X18926968Y-13646246D01*
X18926968Y-13646246D02*
X18926968Y-13703388D01*
X18926968Y-13703388D02*
X18917444Y-13722436D01*
X18917444Y-13722436D02*
X18907920Y-13731960D01*
X18907920Y-13731960D02*
X18888873Y-13741484D01*
X18888873Y-13741484D02*
X18850777Y-13741484D01*
X18850777Y-13741484D02*
X18831730Y-13731960D01*
X19041254Y-13741484D02*
X19022206Y-13731960D01*
X19022206Y-13731960D02*
X19012682Y-13712912D01*
X19012682Y-13712912D02*
X19012682Y-13541484D01*
X19203158Y-13741484D02*
X19203158Y-13636722D01*
X19203158Y-13636722D02*
X19193635Y-13617674D01*
X19193635Y-13617674D02*
X19174587Y-13608150D01*
X19174587Y-13608150D02*
X19136492Y-13608150D01*
X19136492Y-13608150D02*
X19117444Y-13617674D01*
X19203158Y-13731960D02*
X19184111Y-13741484D01*
X19184111Y-13741484D02*
X19136492Y-13741484D01*
X19136492Y-13741484D02*
X19117444Y-13731960D01*
X19117444Y-13731960D02*
X19107920Y-13712912D01*
X19107920Y-13712912D02*
X19107920Y-13693865D01*
X19107920Y-13693865D02*
X19117444Y-13674817D01*
X19117444Y-13674817D02*
X19136492Y-13665293D01*
X19136492Y-13665293D02*
X19184111Y-13665293D01*
X19184111Y-13665293D02*
X19203158Y-13655769D01*
X19269825Y-13608150D02*
X19346015Y-13608150D01*
X19298396Y-13541484D02*
X19298396Y-13712912D01*
X19298396Y-13712912D02*
X19307920Y-13731960D01*
X19307920Y-13731960D02*
X19326968Y-13741484D01*
X19326968Y-13741484D02*
X19346015Y-13741484D01*
X19488873Y-13731960D02*
X19469825Y-13741484D01*
X19469825Y-13741484D02*
X19431730Y-13741484D01*
X19431730Y-13741484D02*
X19412682Y-13731960D01*
X19412682Y-13731960D02*
X19403158Y-13712912D01*
X19403158Y-13712912D02*
X19403158Y-13636722D01*
X19403158Y-13636722D02*
X19412682Y-13617674D01*
X19412682Y-13617674D02*
X19431730Y-13608150D01*
X19431730Y-13608150D02*
X19469825Y-13608150D01*
X19469825Y-13608150D02*
X19488873Y-13617674D01*
X19488873Y-13617674D02*
X19498396Y-13636722D01*
X19498396Y-13636722D02*
X19498396Y-13655769D01*
X19498396Y-13655769D02*
X19403158Y-13674817D01*
X19669825Y-13741484D02*
X19669825Y-13541484D01*
X19669825Y-13731960D02*
X19650777Y-13741484D01*
X19650777Y-13741484D02*
X19612682Y-13741484D01*
X19612682Y-13741484D02*
X19593635Y-13731960D01*
X19593635Y-13731960D02*
X19584111Y-13722436D01*
X19584111Y-13722436D02*
X19574587Y-13703388D01*
X19574587Y-13703388D02*
X19574587Y-13646246D01*
X19574587Y-13646246D02*
X19584111Y-13627198D01*
X19584111Y-13627198D02*
X19593635Y-13617674D01*
X19593635Y-13617674D02*
X19612682Y-13608150D01*
X19612682Y-13608150D02*
X19650777Y-13608150D01*
X19650777Y-13608150D02*
X19669825Y-13617674D01*
X19746016Y-13817674D02*
X19755539Y-13808150D01*
X19755539Y-13808150D02*
X19774587Y-13779579D01*
X19774587Y-13779579D02*
X19784111Y-13760531D01*
X19784111Y-13760531D02*
X19793635Y-13731960D01*
X19793635Y-13731960D02*
X19803158Y-13684341D01*
X19803158Y-13684341D02*
X19803158Y-13646246D01*
X19803158Y-13646246D02*
X19793635Y-13598627D01*
X19793635Y-13598627D02*
X19784111Y-13570055D01*
X19784111Y-13570055D02*
X19774587Y-13551008D01*
X19774587Y-13551008D02*
X19755539Y-13522436D01*
X19755539Y-13522436D02*
X19746016Y-13512912D01*
X12990000Y-13914000D02*
G75*
G02*
X12790000Y-13914000I-100000J0D01*
G01*
X12790000Y-13914000D02*
G75*
G02*
X12990000Y-13914000I100000J0D01*
G01*
X13231729Y-13805484D02*
X13355539Y-13805484D01*
X13355539Y-13805484D02*
X13288872Y-13881674D01*
X13288872Y-13881674D02*
X13317443Y-13881674D01*
X13317443Y-13881674D02*
X13336491Y-13891198D01*
X13336491Y-13891198D02*
X13346015Y-13900722D01*
X13346015Y-13900722D02*
X13355539Y-13919769D01*
X13355539Y-13919769D02*
X13355539Y-13967388D01*
X13355539Y-13967388D02*
X13346015Y-13986436D01*
X13346015Y-13986436D02*
X13336491Y-13995960D01*
X13336491Y-13995960D02*
X13317443Y-14005484D01*
X13317443Y-14005484D02*
X13260301Y-14005484D01*
X13260301Y-14005484D02*
X13241253Y-13995960D01*
X13241253Y-13995960D02*
X13231729Y-13986436D01*
X13441253Y-13986436D02*
X13450777Y-13995960D01*
X13450777Y-13995960D02*
X13441253Y-14005484D01*
X13441253Y-14005484D02*
X13431729Y-13995960D01*
X13431729Y-13995960D02*
X13441253Y-13986436D01*
X13441253Y-13986436D02*
X13441253Y-14005484D01*
X13526967Y-13824531D02*
X13536491Y-13815008D01*
X13536491Y-13815008D02*
X13555539Y-13805484D01*
X13555539Y-13805484D02*
X13603158Y-13805484D01*
X13603158Y-13805484D02*
X13622205Y-13815008D01*
X13622205Y-13815008D02*
X13631729Y-13824531D01*
X13631729Y-13824531D02*
X13641253Y-13843579D01*
X13641253Y-13843579D02*
X13641253Y-13862627D01*
X13641253Y-13862627D02*
X13631729Y-13891198D01*
X13631729Y-13891198D02*
X13517443Y-14005484D01*
X13517443Y-14005484D02*
X13641253Y-14005484D01*
X13765062Y-13805484D02*
X13784110Y-13805484D01*
X13784110Y-13805484D02*
X13803158Y-13815008D01*
X13803158Y-13815008D02*
X13812682Y-13824531D01*
X13812682Y-13824531D02*
X13822205Y-13843579D01*
X13822205Y-13843579D02*
X13831729Y-13881674D01*
X13831729Y-13881674D02*
X13831729Y-13929293D01*
X13831729Y-13929293D02*
X13822205Y-13967388D01*
X13822205Y-13967388D02*
X13812682Y-13986436D01*
X13812682Y-13986436D02*
X13803158Y-13995960D01*
X13803158Y-13995960D02*
X13784110Y-14005484D01*
X13784110Y-14005484D02*
X13765062Y-14005484D01*
X13765062Y-14005484D02*
X13746015Y-13995960D01*
X13746015Y-13995960D02*
X13736491Y-13986436D01*
X13736491Y-13986436D02*
X13726967Y-13967388D01*
X13726967Y-13967388D02*
X13717443Y-13929293D01*
X13717443Y-13929293D02*
X13717443Y-13881674D01*
X13717443Y-13881674D02*
X13726967Y-13843579D01*
X13726967Y-13843579D02*
X13736491Y-13824531D01*
X13736491Y-13824531D02*
X13746015Y-13815008D01*
X13746015Y-13815008D02*
X13765062Y-13805484D01*
X13955539Y-13805484D02*
X13974586Y-13805484D01*
X13974586Y-13805484D02*
X13993634Y-13815008D01*
X13993634Y-13815008D02*
X14003158Y-13824531D01*
X14003158Y-13824531D02*
X14012682Y-13843579D01*
X14012682Y-13843579D02*
X14022205Y-13881674D01*
X14022205Y-13881674D02*
X14022205Y-13929293D01*
X14022205Y-13929293D02*
X14012682Y-13967388D01*
X14012682Y-13967388D02*
X14003158Y-13986436D01*
X14003158Y-13986436D02*
X13993634Y-13995960D01*
X13993634Y-13995960D02*
X13974586Y-14005484D01*
X13974586Y-14005484D02*
X13955539Y-14005484D01*
X13955539Y-14005484D02*
X13936491Y-13995960D01*
X13936491Y-13995960D02*
X13926967Y-13986436D01*
X13926967Y-13986436D02*
X13917443Y-13967388D01*
X13917443Y-13967388D02*
X13907920Y-13929293D01*
X13907920Y-13929293D02*
X13907920Y-13881674D01*
X13907920Y-13881674D02*
X13917443Y-13843579D01*
X13917443Y-13843579D02*
X13926967Y-13824531D01*
X13926967Y-13824531D02*
X13936491Y-13815008D01*
X13936491Y-13815008D02*
X13955539Y-13805484D01*
X14107920Y-14005484D02*
X14107920Y-13872150D01*
X14107920Y-13891198D02*
X14117443Y-13881674D01*
X14117443Y-13881674D02*
X14136491Y-13872150D01*
X14136491Y-13872150D02*
X14165063Y-13872150D01*
X14165063Y-13872150D02*
X14184110Y-13881674D01*
X14184110Y-13881674D02*
X14193634Y-13900722D01*
X14193634Y-13900722D02*
X14193634Y-14005484D01*
X14193634Y-13900722D02*
X14203158Y-13881674D01*
X14203158Y-13881674D02*
X14222205Y-13872150D01*
X14222205Y-13872150D02*
X14250777Y-13872150D01*
X14250777Y-13872150D02*
X14269824Y-13881674D01*
X14269824Y-13881674D02*
X14279348Y-13900722D01*
X14279348Y-13900722D02*
X14279348Y-14005484D01*
X14374586Y-14005484D02*
X14374586Y-13872150D01*
X14374586Y-13891198D02*
X14384110Y-13881674D01*
X14384110Y-13881674D02*
X14403158Y-13872150D01*
X14403158Y-13872150D02*
X14431729Y-13872150D01*
X14431729Y-13872150D02*
X14450777Y-13881674D01*
X14450777Y-13881674D02*
X14460301Y-13900722D01*
X14460301Y-13900722D02*
X14460301Y-14005484D01*
X14460301Y-13900722D02*
X14469824Y-13881674D01*
X14469824Y-13881674D02*
X14488872Y-13872150D01*
X14488872Y-13872150D02*
X14517443Y-13872150D01*
X14517443Y-13872150D02*
X14536491Y-13881674D01*
X14536491Y-13881674D02*
X14546015Y-13900722D01*
X14546015Y-13900722D02*
X14546015Y-14005484D01*
X14936491Y-13795960D02*
X14765063Y-14053103D01*
X15193634Y-13805484D02*
X15212682Y-13805484D01*
X15212682Y-13805484D02*
X15231729Y-13815008D01*
X15231729Y-13815008D02*
X15241253Y-13824531D01*
X15241253Y-13824531D02*
X15250777Y-13843579D01*
X15250777Y-13843579D02*
X15260301Y-13881674D01*
X15260301Y-13881674D02*
X15260301Y-13929293D01*
X15260301Y-13929293D02*
X15250777Y-13967388D01*
X15250777Y-13967388D02*
X15241253Y-13986436D01*
X15241253Y-13986436D02*
X15231729Y-13995960D01*
X15231729Y-13995960D02*
X15212682Y-14005484D01*
X15212682Y-14005484D02*
X15193634Y-14005484D01*
X15193634Y-14005484D02*
X15174586Y-13995960D01*
X15174586Y-13995960D02*
X15165063Y-13986436D01*
X15165063Y-13986436D02*
X15155539Y-13967388D01*
X15155539Y-13967388D02*
X15146015Y-13929293D01*
X15146015Y-13929293D02*
X15146015Y-13881674D01*
X15146015Y-13881674D02*
X15155539Y-13843579D01*
X15155539Y-13843579D02*
X15165063Y-13824531D01*
X15165063Y-13824531D02*
X15174586Y-13815008D01*
X15174586Y-13815008D02*
X15193634Y-13805484D01*
X15346015Y-13986436D02*
X15355539Y-13995960D01*
X15355539Y-13995960D02*
X15346015Y-14005484D01*
X15346015Y-14005484D02*
X15336491Y-13995960D01*
X15336491Y-13995960D02*
X15346015Y-13986436D01*
X15346015Y-13986436D02*
X15346015Y-14005484D01*
X15546015Y-14005484D02*
X15431729Y-14005484D01*
X15488872Y-14005484D02*
X15488872Y-13805484D01*
X15488872Y-13805484D02*
X15469825Y-13834055D01*
X15469825Y-13834055D02*
X15450777Y-13853103D01*
X15450777Y-13853103D02*
X15431729Y-13862627D01*
X15622206Y-13824531D02*
X15631729Y-13815008D01*
X15631729Y-13815008D02*
X15650777Y-13805484D01*
X15650777Y-13805484D02*
X15698396Y-13805484D01*
X15698396Y-13805484D02*
X15717444Y-13815008D01*
X15717444Y-13815008D02*
X15726967Y-13824531D01*
X15726967Y-13824531D02*
X15736491Y-13843579D01*
X15736491Y-13843579D02*
X15736491Y-13862627D01*
X15736491Y-13862627D02*
X15726967Y-13891198D01*
X15726967Y-13891198D02*
X15612682Y-14005484D01*
X15612682Y-14005484D02*
X15736491Y-14005484D01*
X15907920Y-13805484D02*
X15869825Y-13805484D01*
X15869825Y-13805484D02*
X15850777Y-13815008D01*
X15850777Y-13815008D02*
X15841253Y-13824531D01*
X15841253Y-13824531D02*
X15822206Y-13853103D01*
X15822206Y-13853103D02*
X15812682Y-13891198D01*
X15812682Y-13891198D02*
X15812682Y-13967388D01*
X15812682Y-13967388D02*
X15822206Y-13986436D01*
X15822206Y-13986436D02*
X15831729Y-13995960D01*
X15831729Y-13995960D02*
X15850777Y-14005484D01*
X15850777Y-14005484D02*
X15888872Y-14005484D01*
X15888872Y-14005484D02*
X15907920Y-13995960D01*
X15907920Y-13995960D02*
X15917444Y-13986436D01*
X15917444Y-13986436D02*
X15926967Y-13967388D01*
X15926967Y-13967388D02*
X15926967Y-13919769D01*
X15926967Y-13919769D02*
X15917444Y-13900722D01*
X15917444Y-13900722D02*
X15907920Y-13891198D01*
X15907920Y-13891198D02*
X15888872Y-13881674D01*
X15888872Y-13881674D02*
X15850777Y-13881674D01*
X15850777Y-13881674D02*
X15831729Y-13891198D01*
X15831729Y-13891198D02*
X15822206Y-13900722D01*
X15822206Y-13900722D02*
X15812682Y-13919769D01*
X16050777Y-13805484D02*
X16069825Y-13805484D01*
X16069825Y-13805484D02*
X16088872Y-13815008D01*
X16088872Y-13815008D02*
X16098396Y-13824531D01*
X16098396Y-13824531D02*
X16107920Y-13843579D01*
X16107920Y-13843579D02*
X16117444Y-13881674D01*
X16117444Y-13881674D02*
X16117444Y-13929293D01*
X16117444Y-13929293D02*
X16107920Y-13967388D01*
X16107920Y-13967388D02*
X16098396Y-13986436D01*
X16098396Y-13986436D02*
X16088872Y-13995960D01*
X16088872Y-13995960D02*
X16069825Y-14005484D01*
X16069825Y-14005484D02*
X16050777Y-14005484D01*
X16050777Y-14005484D02*
X16031729Y-13995960D01*
X16031729Y-13995960D02*
X16022206Y-13986436D01*
X16022206Y-13986436D02*
X16012682Y-13967388D01*
X16012682Y-13967388D02*
X16003158Y-13929293D01*
X16003158Y-13929293D02*
X16003158Y-13881674D01*
X16003158Y-13881674D02*
X16012682Y-13843579D01*
X16012682Y-13843579D02*
X16022206Y-13824531D01*
X16022206Y-13824531D02*
X16031729Y-13815008D01*
X16031729Y-13815008D02*
X16050777Y-13805484D01*
X16193634Y-13805484D02*
X16193634Y-13843579D01*
X16269825Y-13805484D02*
X16269825Y-13843579D01*
X16565063Y-14081674D02*
X16555539Y-14072150D01*
X16555539Y-14072150D02*
X16536491Y-14043579D01*
X16536491Y-14043579D02*
X16526968Y-14024531D01*
X16526968Y-14024531D02*
X16517444Y-13995960D01*
X16517444Y-13995960D02*
X16507920Y-13948341D01*
X16507920Y-13948341D02*
X16507920Y-13910246D01*
X16507920Y-13910246D02*
X16517444Y-13862627D01*
X16517444Y-13862627D02*
X16526968Y-13834055D01*
X16526968Y-13834055D02*
X16536491Y-13815008D01*
X16536491Y-13815008D02*
X16555539Y-13786436D01*
X16555539Y-13786436D02*
X16565063Y-13776912D01*
X16726968Y-13872150D02*
X16726968Y-14005484D01*
X16679348Y-13795960D02*
X16631729Y-13938817D01*
X16631729Y-13938817D02*
X16755539Y-13938817D01*
X16984111Y-14005484D02*
X16984111Y-13805484D01*
X17069825Y-14005484D02*
X17069825Y-13900722D01*
X17069825Y-13900722D02*
X17060301Y-13881674D01*
X17060301Y-13881674D02*
X17041253Y-13872150D01*
X17041253Y-13872150D02*
X17012682Y-13872150D01*
X17012682Y-13872150D02*
X16993634Y-13881674D01*
X16993634Y-13881674D02*
X16984111Y-13891198D01*
X17193634Y-14005484D02*
X17174587Y-13995960D01*
X17174587Y-13995960D02*
X17165063Y-13986436D01*
X17165063Y-13986436D02*
X17155539Y-13967388D01*
X17155539Y-13967388D02*
X17155539Y-13910246D01*
X17155539Y-13910246D02*
X17165063Y-13891198D01*
X17165063Y-13891198D02*
X17174587Y-13881674D01*
X17174587Y-13881674D02*
X17193634Y-13872150D01*
X17193634Y-13872150D02*
X17222206Y-13872150D01*
X17222206Y-13872150D02*
X17241253Y-13881674D01*
X17241253Y-13881674D02*
X17250777Y-13891198D01*
X17250777Y-13891198D02*
X17260301Y-13910246D01*
X17260301Y-13910246D02*
X17260301Y-13967388D01*
X17260301Y-13967388D02*
X17250777Y-13986436D01*
X17250777Y-13986436D02*
X17241253Y-13995960D01*
X17241253Y-13995960D02*
X17222206Y-14005484D01*
X17222206Y-14005484D02*
X17193634Y-14005484D01*
X17374587Y-14005484D02*
X17355539Y-13995960D01*
X17355539Y-13995960D02*
X17346015Y-13976912D01*
X17346015Y-13976912D02*
X17346015Y-13805484D01*
X17526968Y-13995960D02*
X17507920Y-14005484D01*
X17507920Y-14005484D02*
X17469825Y-14005484D01*
X17469825Y-14005484D02*
X17450777Y-13995960D01*
X17450777Y-13995960D02*
X17441253Y-13976912D01*
X17441253Y-13976912D02*
X17441253Y-13900722D01*
X17441253Y-13900722D02*
X17450777Y-13881674D01*
X17450777Y-13881674D02*
X17469825Y-13872150D01*
X17469825Y-13872150D02*
X17507920Y-13872150D01*
X17507920Y-13872150D02*
X17526968Y-13881674D01*
X17526968Y-13881674D02*
X17536492Y-13900722D01*
X17536492Y-13900722D02*
X17536492Y-13919769D01*
X17536492Y-13919769D02*
X17441253Y-13938817D01*
X17612682Y-13995960D02*
X17631730Y-14005484D01*
X17631730Y-14005484D02*
X17669825Y-14005484D01*
X17669825Y-14005484D02*
X17688873Y-13995960D01*
X17688873Y-13995960D02*
X17698396Y-13976912D01*
X17698396Y-13976912D02*
X17698396Y-13967388D01*
X17698396Y-13967388D02*
X17688873Y-13948341D01*
X17688873Y-13948341D02*
X17669825Y-13938817D01*
X17669825Y-13938817D02*
X17641253Y-13938817D01*
X17641253Y-13938817D02*
X17622206Y-13929293D01*
X17622206Y-13929293D02*
X17612682Y-13910246D01*
X17612682Y-13910246D02*
X17612682Y-13900722D01*
X17612682Y-13900722D02*
X17622206Y-13881674D01*
X17622206Y-13881674D02*
X17641253Y-13872150D01*
X17641253Y-13872150D02*
X17669825Y-13872150D01*
X17669825Y-13872150D02*
X17688873Y-13881674D01*
X17765063Y-14081674D02*
X17774587Y-14072150D01*
X17774587Y-14072150D02*
X17793634Y-14043579D01*
X17793634Y-14043579D02*
X17803158Y-14024531D01*
X17803158Y-14024531D02*
X17812682Y-13995960D01*
X17812682Y-13995960D02*
X17822206Y-13948341D01*
X17822206Y-13948341D02*
X17822206Y-13910246D01*
X17822206Y-13910246D02*
X17812682Y-13862627D01*
X17812682Y-13862627D02*
X17803158Y-13834055D01*
X17803158Y-13834055D02*
X17793634Y-13815008D01*
X17793634Y-13815008D02*
X17774587Y-13786436D01*
X17774587Y-13786436D02*
X17765063Y-13776912D01*
X18126968Y-14081674D02*
X18117444Y-14072150D01*
X18117444Y-14072150D02*
X18098396Y-14043579D01*
X18098396Y-14043579D02*
X18088873Y-14024531D01*
X18088873Y-14024531D02*
X18079349Y-13995960D01*
X18079349Y-13995960D02*
X18069825Y-13948341D01*
X18069825Y-13948341D02*
X18069825Y-13910246D01*
X18069825Y-13910246D02*
X18079349Y-13862627D01*
X18079349Y-13862627D02*
X18088873Y-13834055D01*
X18088873Y-13834055D02*
X18098396Y-13815008D01*
X18098396Y-13815008D02*
X18117444Y-13786436D01*
X18117444Y-13786436D02*
X18126968Y-13776912D01*
X18203158Y-13872150D02*
X18203158Y-14005484D01*
X18203158Y-13891198D02*
X18212682Y-13881674D01*
X18212682Y-13881674D02*
X18231730Y-13872150D01*
X18231730Y-13872150D02*
X18260301Y-13872150D01*
X18260301Y-13872150D02*
X18279349Y-13881674D01*
X18279349Y-13881674D02*
X18288873Y-13900722D01*
X18288873Y-13900722D02*
X18288873Y-14005484D01*
X18412682Y-14005484D02*
X18393634Y-13995960D01*
X18393634Y-13995960D02*
X18384111Y-13986436D01*
X18384111Y-13986436D02*
X18374587Y-13967388D01*
X18374587Y-13967388D02*
X18374587Y-13910246D01*
X18374587Y-13910246D02*
X18384111Y-13891198D01*
X18384111Y-13891198D02*
X18393634Y-13881674D01*
X18393634Y-13881674D02*
X18412682Y-13872150D01*
X18412682Y-13872150D02*
X18441254Y-13872150D01*
X18441254Y-13872150D02*
X18460301Y-13881674D01*
X18460301Y-13881674D02*
X18469825Y-13891198D01*
X18469825Y-13891198D02*
X18479349Y-13910246D01*
X18479349Y-13910246D02*
X18479349Y-13967388D01*
X18479349Y-13967388D02*
X18469825Y-13986436D01*
X18469825Y-13986436D02*
X18460301Y-13995960D01*
X18460301Y-13995960D02*
X18441254Y-14005484D01*
X18441254Y-14005484D02*
X18412682Y-14005484D01*
X18536492Y-13872150D02*
X18612682Y-13872150D01*
X18565063Y-13805484D02*
X18565063Y-13976912D01*
X18565063Y-13976912D02*
X18574587Y-13995960D01*
X18574587Y-13995960D02*
X18593634Y-14005484D01*
X18593634Y-14005484D02*
X18612682Y-14005484D01*
X18831730Y-13872150D02*
X18831730Y-14072150D01*
X18831730Y-13881674D02*
X18850777Y-13872150D01*
X18850777Y-13872150D02*
X18888873Y-13872150D01*
X18888873Y-13872150D02*
X18907920Y-13881674D01*
X18907920Y-13881674D02*
X18917444Y-13891198D01*
X18917444Y-13891198D02*
X18926968Y-13910246D01*
X18926968Y-13910246D02*
X18926968Y-13967388D01*
X18926968Y-13967388D02*
X18917444Y-13986436D01*
X18917444Y-13986436D02*
X18907920Y-13995960D01*
X18907920Y-13995960D02*
X18888873Y-14005484D01*
X18888873Y-14005484D02*
X18850777Y-14005484D01*
X18850777Y-14005484D02*
X18831730Y-13995960D01*
X19041254Y-14005484D02*
X19022206Y-13995960D01*
X19022206Y-13995960D02*
X19012682Y-13976912D01*
X19012682Y-13976912D02*
X19012682Y-13805484D01*
X19203158Y-14005484D02*
X19203158Y-13900722D01*
X19203158Y-13900722D02*
X19193635Y-13881674D01*
X19193635Y-13881674D02*
X19174587Y-13872150D01*
X19174587Y-13872150D02*
X19136492Y-13872150D01*
X19136492Y-13872150D02*
X19117444Y-13881674D01*
X19203158Y-13995960D02*
X19184111Y-14005484D01*
X19184111Y-14005484D02*
X19136492Y-14005484D01*
X19136492Y-14005484D02*
X19117444Y-13995960D01*
X19117444Y-13995960D02*
X19107920Y-13976912D01*
X19107920Y-13976912D02*
X19107920Y-13957865D01*
X19107920Y-13957865D02*
X19117444Y-13938817D01*
X19117444Y-13938817D02*
X19136492Y-13929293D01*
X19136492Y-13929293D02*
X19184111Y-13929293D01*
X19184111Y-13929293D02*
X19203158Y-13919769D01*
X19269825Y-13872150D02*
X19346015Y-13872150D01*
X19298396Y-13805484D02*
X19298396Y-13976912D01*
X19298396Y-13976912D02*
X19307920Y-13995960D01*
X19307920Y-13995960D02*
X19326968Y-14005484D01*
X19326968Y-14005484D02*
X19346015Y-14005484D01*
X19488873Y-13995960D02*
X19469825Y-14005484D01*
X19469825Y-14005484D02*
X19431730Y-14005484D01*
X19431730Y-14005484D02*
X19412682Y-13995960D01*
X19412682Y-13995960D02*
X19403158Y-13976912D01*
X19403158Y-13976912D02*
X19403158Y-13900722D01*
X19403158Y-13900722D02*
X19412682Y-13881674D01*
X19412682Y-13881674D02*
X19431730Y-13872150D01*
X19431730Y-13872150D02*
X19469825Y-13872150D01*
X19469825Y-13872150D02*
X19488873Y-13881674D01*
X19488873Y-13881674D02*
X19498396Y-13900722D01*
X19498396Y-13900722D02*
X19498396Y-13919769D01*
X19498396Y-13919769D02*
X19403158Y-13938817D01*
X19669825Y-14005484D02*
X19669825Y-13805484D01*
X19669825Y-13995960D02*
X19650777Y-14005484D01*
X19650777Y-14005484D02*
X19612682Y-14005484D01*
X19612682Y-14005484D02*
X19593635Y-13995960D01*
X19593635Y-13995960D02*
X19584111Y-13986436D01*
X19584111Y-13986436D02*
X19574587Y-13967388D01*
X19574587Y-13967388D02*
X19574587Y-13910246D01*
X19574587Y-13910246D02*
X19584111Y-13891198D01*
X19584111Y-13891198D02*
X19593635Y-13881674D01*
X19593635Y-13881674D02*
X19612682Y-13872150D01*
X19612682Y-13872150D02*
X19650777Y-13872150D01*
X19650777Y-13872150D02*
X19669825Y-13881674D01*
X19746016Y-14081674D02*
X19755539Y-14072150D01*
X19755539Y-14072150D02*
X19774587Y-14043579D01*
X19774587Y-14043579D02*
X19784111Y-14024531D01*
X19784111Y-14024531D02*
X19793635Y-13995960D01*
X19793635Y-13995960D02*
X19803158Y-13948341D01*
X19803158Y-13948341D02*
X19803158Y-13910246D01*
X19803158Y-13910246D02*
X19793635Y-13862627D01*
X19793635Y-13862627D02*
X19784111Y-13834055D01*
X19784111Y-13834055D02*
X19774587Y-13815008D01*
X19774587Y-13815008D02*
X19755539Y-13786436D01*
X19755539Y-13786436D02*
X19746016Y-13776912D01*
M02*
