M48
; DRILL file KiCad 10.0.4 date 2026-08-16T19:36:20
; FORMAT={-:-/ absolute / metric / decimal}
; #@! TF.CreationDate,2026-08-16T19:36:20+03:00
; #@! TF.GenerationSoftware,Kicad,Pcbnew,10.0.4
; #@! TF.FileFunction,Plated,1,2,PTH
FMAT,2
METRIC
; #@! TA.AperFunction,Plated,PTH,ViaDrill
T1C0.400
; #@! TA.AperFunction,Plated,PTH,ComponentDrill
T2C0.400
; #@! TA.AperFunction,Plated,PTH,ComponentDrill
T3C0.600
; #@! TA.AperFunction,Plated,PTH,ComponentDrill
T4C1.000
; #@! TA.AperFunction,Plated,PTH,ComponentDrill
T5C1.450
%
G90
G05
T1
X144.25Y-76.45
X145.55Y-76.35
X146.25Y-73.35
X146.45Y-75.55
X146.6Y-91.9
X146.7Y-74.35
X162.1Y-91.9
X167.0Y-87.45
X171.2Y-92.6
X172.7Y-92.5
X174.65Y-81.4
X176.2Y-81.4
X177.875Y-90.975
X177.9Y-81.4
X178.5Y-91.6
X180.3Y-83.85
X185.4Y-78.388
X191.0Y-106.35
X191.0Y-117.9
X191.85Y-84.7
X194.7Y-79.0
X202.2Y-84.7
X202.5Y-75.7
X207.5Y-107.7
X207.525Y-117.5
X208.25Y-83.3
X208.25Y-84.8
X208.25Y-86.3
X208.25Y-87.8
X209.45Y-83.3
X209.45Y-84.8
X209.45Y-86.3
X209.45Y-87.8
X211.0Y-77.2
X218.4Y-92.7
X225.55Y-86.3
X226.8Y-87.55
X228.3Y-115.3
X228.512Y-91.5
X229.02Y-114.58
T2
X167.0Y-90.0
X167.0Y-91.27
X222.05Y-102.42
X222.05Y-103.67
X222.675Y-101.795
X222.675Y-103.045
X222.675Y-104.295
X223.3Y-102.42
X223.3Y-103.67
X223.925Y-101.795
X223.925Y-103.045
X223.925Y-104.295
X224.55Y-102.42
X224.55Y-103.67
T4
X144.8Y-74.6
X169.5Y-74.6
X174.66Y-119.315
X177.2Y-119.315
X179.74Y-119.315
X182.4Y-94.1
X199.86Y-119.4
X202.4Y-119.4
X204.94Y-119.4
X207.48Y-119.4
X208.3Y-75.6
X210.02Y-119.4
X212.56Y-119.4
X215.1Y-119.4
X217.64Y-119.4
T5
X133.457Y-85.786
X133.499Y-95.391
X133.499Y-104.995
X133.56Y-114.6
X138.536Y-85.786
X138.579Y-95.391
X138.579Y-104.995
X138.64Y-114.6
X164.7Y-74.435
X164.7Y-79.515
T3
X173.58Y-74.69G85X173.58Y-74.09
G05
X173.58Y-79.12G85X173.58Y-78.02
G05
X182.22Y-74.69G85X182.22Y-74.09
G05
X182.22Y-79.12G85X182.22Y-78.02
G05
M30
