%TF.GenerationSoftware,KiCad,Pcbnew,10.0.4*%
%TF.CreationDate,2026-08-16T19:36:19+03:00*%
%TF.ProjectId,smartlada_revC,736d6172-746c-4616-9461-5f726576432e,rev?*%
%TF.SameCoordinates,Original*%
%TF.FileFunction,Copper,L2,Bot*%
%TF.FilePolarity,Positive*%
%FSLAX46Y46*%
G04 Gerber Fmt 4.6, Leading zero omitted, Abs format (unit mm)*
G04 Created by KiCad (PCBNEW 10.0.4) date 2026-08-16 19:36:19*
%MOMM*%
%LPD*%
G01*
G04 APERTURE LIST*
%TA.AperFunction,ComponentPad*%
%ADD10R,1.700000X1.700000*%
%TD*%
%TA.AperFunction,ComponentPad*%
%ADD11C,1.700000*%
%TD*%
%TA.AperFunction,ComponentPad*%
%ADD12C,2.000000*%
%TD*%
%TA.AperFunction,ComponentPad*%
%ADD13O,1.000000X2.100000*%
%TD*%
%TA.AperFunction,ComponentPad*%
%ADD14O,1.000000X1.600000*%
%TD*%
%TA.AperFunction,ComponentPad*%
%ADD15C,2.175000*%
%TD*%
%TA.AperFunction,ComponentPad*%
%ADD16C,0.800000*%
%TD*%
%TA.AperFunction,HeatsinkPad*%
%ADD17C,0.810000*%
%TD*%
%TA.AperFunction,HeatsinkPad*%
%ADD18R,0.810000X2.080000*%
%TD*%
%TA.AperFunction,ViaPad*%
%ADD19C,0.800000*%
%TD*%
%TA.AperFunction,Conductor*%
%ADD20C,0.600000*%
%TD*%
%TA.AperFunction,Conductor*%
%ADD21C,0.500000*%
%TD*%
%TA.AperFunction,Conductor*%
%ADD22C,0.300000*%
%TD*%
G04 APERTURE END LIST*
D10*
%TO.P,J8,1,Pin_1_1*%
%TO.N,GND*%
X179740000Y-119315000D03*
D11*
%TO.P,J8,2,Pin_2_2*%
%TO.N,/UART_RX*%
X177200000Y-119315000D03*
%TO.P,J8,3,Pin_3_3*%
%TO.N,/UART_TX*%
X174660000Y-119315000D03*
%TD*%
D12*
%TO.P,TP2,1,1_1*%
%TO.N,/+12V*%
X169500000Y-74600000D03*
%TD*%
%TO.P,TP4,1,1_1*%
%TO.N,/CH224_PG*%
X182400000Y-94100000D03*
%TD*%
D13*
%TO.P,J1,SH,SHIELD_SH*%
%TO.N,GND*%
X182220000Y-78570000D03*
D14*
X182220000Y-74390000D03*
D13*
X173580000Y-78570000D03*
D14*
X173580000Y-74390000D03*
%TD*%
D12*
%TO.P,TP1,1,1_1*%
%TO.N,GND*%
X144800000Y-74600000D03*
%TD*%
D15*
%TO.P,J2,1,Pin_1_1*%
%TO.N,/OUT0*%
X138536500Y-85786000D03*
X133456500Y-85786000D03*
%TD*%
%TO.P,J5,1,Pin_1_1*%
%TO.N,/OUT2*%
X138578900Y-104995333D03*
X133498900Y-104995333D03*
%TD*%
D12*
%TO.P,TP3,1,1_1*%
%TO.N,/+3V3*%
X208300000Y-75600000D03*
%TD*%
D16*
%TO.P,U1,29_1,GND__2_29_1*%
%TO.N,GND*%
X224550000Y-102420000D03*
X222675000Y-104295000D03*
%TO.P,U1,29_2,GND__3_29_2*%
X222050000Y-102420000D03*
X224550000Y-103670000D03*
%TO.P,U1,29_3,GND__4_29_3*%
X223925000Y-101795000D03*
X222050000Y-103670000D03*
%TO.P,U1,29_4,GND__5_29_4*%
X223925000Y-103045000D03*
%TO.P,U1,29_5,GND__6_29_5*%
X223925000Y-104295000D03*
%TO.P,U1,29_6,GND__7_29_6*%
X223300000Y-102420000D03*
%TO.P,U1,29_7,GND__8_29_7*%
X223300000Y-103670000D03*
%TO.P,U1,29_8,GND__9_29_8*%
X222675000Y-101795000D03*
%TO.P,U1,29_9,GND__10_29_9*%
X222675000Y-103045000D03*
%TD*%
D10*
%TO.P,J4,1,Pin_1_1*%
%TO.N,/KEY1*%
X217640000Y-119400000D03*
D11*
%TO.P,J4,2,Pin_2_2*%
%TO.N,/KEY2*%
X215100000Y-119400000D03*
%TO.P,J4,3,Pin_3_3*%
%TO.N,/KEY3*%
X212560000Y-119400000D03*
%TO.P,J4,4,Pin_4_4*%
%TO.N,/KEY4*%
X210020000Y-119400000D03*
%TO.P,J4,5,Pin_5_5*%
%TO.N,/I2C_SDA*%
X207480000Y-119400000D03*
%TO.P,J4,6,Pin_6_6*%
%TO.N,/I2C_SCL*%
X204940000Y-119400000D03*
%TO.P,J4,7,Pin_7_7*%
%TO.N,/+3V3*%
X202400000Y-119400000D03*
%TO.P,J4,8,Pin_8_8*%
%TO.N,GND*%
X199860000Y-119400000D03*
%TD*%
D17*
%TO.P,U3,11,GND_11*%
%TO.N,GND*%
X167000000Y-90000000D03*
D18*
X167000000Y-90635000D03*
D17*
X167000000Y-91270000D03*
%TD*%
D15*
%TO.P,J7,1,Pin_1_1*%
%TO.N,/+12V*%
X164700000Y-79515000D03*
X164700000Y-74435000D03*
%TD*%
%TO.P,J3,1,Pin_1_1*%
%TO.N,/OUT1*%
X138578900Y-95390667D03*
X133498900Y-95390667D03*
%TD*%
%TO.P,J6,1,Pin_1_1*%
%TO.N,/OUT3*%
X138640000Y-114600000D03*
X133560000Y-114600000D03*
%TD*%
D19*
%TO.N,GND*%
X225550000Y-86300000D03*
X209450000Y-84800000D03*
X228512500Y-91500000D03*
X191000000Y-106350000D03*
X228300000Y-115300000D03*
X146450000Y-75550000D03*
X218400000Y-92700000D03*
X208250000Y-87800000D03*
X209450000Y-86300000D03*
X191000000Y-117900000D03*
X177900000Y-81400000D03*
X208250000Y-86300000D03*
X146250000Y-73350000D03*
X178500000Y-91600000D03*
X146700000Y-74350000D03*
X174650000Y-81400000D03*
X177875000Y-90975000D03*
X208250000Y-83300000D03*
X194700000Y-79000000D03*
X145550000Y-76350000D03*
X202500000Y-75700000D03*
X226800000Y-87550000D03*
X167000000Y-87450000D03*
X208250000Y-84800000D03*
X144250000Y-76450000D03*
X211000000Y-77200000D03*
X209450000Y-83300000D03*
X209450000Y-87800000D03*
X185400000Y-78387500D03*
X229020000Y-114580000D03*
%TO.N,/+3V3*%
X207525000Y-117500000D03*
X207500000Y-107700000D03*
X202200000Y-84700000D03*
X191850000Y-84700000D03*
%TO.N,/+12V*%
X162100000Y-91900000D03*
X146600000Y-91900000D03*
%TO.N,Net-(J1-CC1)*%
X180300000Y-83850000D03*
X172700000Y-92500000D03*
%TO.N,Net-(J1-CC2)*%
X176200000Y-81400000D03*
X171200000Y-92600000D03*
%TD*%
%TO.N,GND*%
D20*
X182220000Y-78570000D02*
X182220000Y-74390000D01*
X174610000Y-79600000D02*
X173580000Y-78570000D01*
X181190000Y-79600000D02*
X174610000Y-79600000D01*
X182220000Y-78570000D02*
X181190000Y-79600000D01*
X173580000Y-74390000D02*
X173580000Y-78570000D01*
%TO.N,/+3V3*%
D21*
X207500000Y-109450000D02*
X207525000Y-109475000D01*
X204300000Y-117500000D02*
X202400000Y-119400000D01*
X207525000Y-117500000D02*
X204300000Y-117500000D01*
X207500000Y-107700000D02*
X207500000Y-109450000D01*
X191850000Y-84700000D02*
X202200000Y-84700000D01*
X207525000Y-109475000D02*
X207525000Y-117500000D01*
%TO.N,/+12V*%
D22*
X162100000Y-91900000D02*
X146600000Y-91900000D01*
%TO.N,Net-(J1-CC1)*%
D21*
X180300000Y-83850000D02*
X177650000Y-86500000D01*
X177650000Y-86500000D02*
X177650000Y-87550000D01*
X177650000Y-87550000D02*
X172700000Y-92500000D01*
%TO.N,Net-(J1-CC2)*%
X176200000Y-87600000D02*
X176200000Y-81400000D01*
X171200000Y-92600000D02*
X176200000Y-87600000D01*
%TO.N,/OUT3*%
D20*
X138640000Y-114600000D02*
X133560000Y-114600000D01*
%TO.N,/OUT0*%
X138536500Y-85786000D02*
X133456500Y-85786000D01*
%TO.N,/OUT1*%
X138578900Y-95390667D02*
X133498900Y-95390667D01*
%TO.N,/OUT2*%
X138578900Y-104995333D02*
X133498900Y-104995333D01*
%TD*%
%TA.AperFunction,Conductor*%
%TO.N,GND*%
G36*
X213021558Y-71520185D02*
G01*
X213042200Y-71536819D01*
X229402797Y-87897416D01*
X229410969Y-87906432D01*
X229471353Y-87980009D01*
X229498666Y-88044318D01*
X229499500Y-88058674D01*
X229499500Y-115950157D01*
X229479815Y-116017196D01*
X229471353Y-116028822D01*
X229414853Y-116097667D01*
X229397665Y-116114855D01*
X229265010Y-116223722D01*
X229244798Y-116237227D01*
X229093456Y-116318121D01*
X229070998Y-116327424D01*
X228906775Y-116377240D01*
X228882934Y-116381982D01*
X228706061Y-116399403D01*
X228693907Y-116400000D01*
X208149500Y-116400000D01*
X208082461Y-116380315D01*
X208036706Y-116327511D01*
X208025500Y-116276000D01*
X208025500Y-109409109D01*
X208025500Y-109409108D01*
X208018801Y-109384108D01*
X208004725Y-109331573D01*
X208000500Y-109299481D01*
X208000500Y-108159432D01*
X208020185Y-108092393D01*
X208021398Y-108090541D01*
X208076461Y-108008133D01*
X208076461Y-108008132D01*
X208076465Y-108008127D01*
X208125501Y-107889744D01*
X208150500Y-107764069D01*
X208150500Y-107635931D01*
X208150500Y-107635928D01*
X208125502Y-107510261D01*
X208125501Y-107510260D01*
X208125501Y-107510256D01*
X208076465Y-107391873D01*
X208076464Y-107391872D01*
X208076461Y-107391866D01*
X208005276Y-107285331D01*
X208005273Y-107285327D01*
X207914672Y-107194726D01*
X207914668Y-107194723D01*
X207808133Y-107123538D01*
X207808124Y-107123533D01*
X207689744Y-107074499D01*
X207689738Y-107074497D01*
X207564071Y-107049500D01*
X207564069Y-107049500D01*
X207435931Y-107049500D01*
X207435929Y-107049500D01*
X207310261Y-107074497D01*
X207310255Y-107074499D01*
X207191875Y-107123533D01*
X207191866Y-107123538D01*
X207085331Y-107194723D01*
X207085327Y-107194726D01*
X206994726Y-107285327D01*
X206994723Y-107285331D01*
X206923538Y-107391866D01*
X206923533Y-107391875D01*
X206874499Y-107510255D01*
X206874497Y-107510261D01*
X206849500Y-107635928D01*
X206849500Y-107635931D01*
X206849500Y-107764069D01*
X206849500Y-107764071D01*
X206849499Y-107764071D01*
X206874497Y-107889738D01*
X206874499Y-107889744D01*
X206923533Y-108008124D01*
X206923538Y-108008133D01*
X206978602Y-108090541D01*
X206999480Y-108157218D01*
X206999500Y-108159432D01*
X206999500Y-109515891D01*
X207020275Y-109593425D01*
X207024500Y-109625518D01*
X207024500Y-116276000D01*
X207004815Y-116343039D01*
X206952011Y-116388794D01*
X206900500Y-116400000D01*
X203100001Y-116400000D01*
X201200000Y-118300001D01*
X201200000Y-118760039D01*
X201180315Y-118827078D01*
X201127511Y-118872833D01*
X201058353Y-118882777D01*
X200994797Y-118853752D01*
X200965515Y-118816334D01*
X200929095Y-118744856D01*
X200873922Y-118668919D01*
X200873922Y-118668918D01*
X200328018Y-119214821D01*
X200325925Y-119207007D01*
X200260099Y-119092993D01*
X200167007Y-118999901D01*
X200052993Y-118934075D01*
X200045177Y-118931980D01*
X200591080Y-118386077D01*
X200591079Y-118386076D01*
X200515143Y-118330904D01*
X200339835Y-118241581D01*
X200152705Y-118180778D01*
X199958382Y-118150000D01*
X199761618Y-118150000D01*
X199567294Y-118180778D01*
X199380164Y-118241581D01*
X199204855Y-118330905D01*
X199204846Y-118330911D01*
X199128919Y-118386075D01*
X199128918Y-118386076D01*
X199674823Y-118931980D01*
X199667007Y-118934075D01*
X199552993Y-118999901D01*
X199459901Y-119092993D01*
X199394075Y-119207007D01*
X199391980Y-119214822D01*
X198846076Y-118668918D01*
X198846075Y-118668919D01*
X198790911Y-118744846D01*
X198790905Y-118744855D01*
X198701581Y-118920164D01*
X198640778Y-119107294D01*
X198610000Y-119301617D01*
X198610000Y-119498382D01*
X198640778Y-119692705D01*
X198701581Y-119879835D01*
X198790904Y-120055143D01*
X198846076Y-120131079D01*
X198846077Y-120131080D01*
X199391980Y-119585176D01*
X199394075Y-119592993D01*
X199459901Y-119707007D01*
X199552993Y-119800099D01*
X199667007Y-119865925D01*
X199674822Y-119868019D01*
X199128918Y-120413922D01*
X199204856Y-120469095D01*
X199380164Y-120558418D01*
X199567294Y-120619221D01*
X199761618Y-120650000D01*
X199958382Y-120650000D01*
X200152705Y-120619221D01*
X200339835Y-120558418D01*
X200515143Y-120469095D01*
X200591079Y-120413922D01*
X200591080Y-120413921D01*
X200045178Y-119868019D01*
X200052993Y-119865925D01*
X200167007Y-119800099D01*
X200260099Y-119707007D01*
X200325925Y-119592993D01*
X200328019Y-119585177D01*
X200873921Y-120131080D01*
X200873922Y-120131079D01*
X200929097Y-120055141D01*
X200929097Y-120055140D01*
X200965515Y-119983666D01*
X201013489Y-119932870D01*
X201081310Y-119916074D01*
X201147445Y-119938611D01*
X201190897Y-119993326D01*
X201200000Y-120039960D01*
X201200000Y-120638526D01*
X201199403Y-120650680D01*
X201181982Y-120827553D01*
X201177240Y-120851394D01*
X201127424Y-121015617D01*
X201118121Y-121038075D01*
X201037227Y-121189417D01*
X201023722Y-121209629D01*
X200914854Y-121342285D01*
X200897666Y-121359473D01*
X200765010Y-121468341D01*
X200744798Y-121481846D01*
X200593456Y-121562740D01*
X200570998Y-121572043D01*
X200406775Y-121621859D01*
X200382934Y-121626601D01*
X200206061Y-121644022D01*
X200193907Y-121644619D01*
X178320307Y-121644619D01*
X178308153Y-121644022D01*
X178131278Y-121626601D01*
X178107437Y-121621859D01*
X177943214Y-121572043D01*
X177920756Y-121562740D01*
X177769414Y-121481846D01*
X177749202Y-121468341D01*
X177611813Y-121355588D01*
X177602797Y-121347416D01*
X176857459Y-120602078D01*
X176823974Y-120540755D01*
X176828958Y-120471063D01*
X176870830Y-120415130D01*
X176936294Y-120390713D01*
X176964535Y-120391923D01*
X177113389Y-120415500D01*
X177113390Y-120415500D01*
X177286610Y-120415500D01*
X177286611Y-120415500D01*
X177457701Y-120388402D01*
X177622445Y-120334873D01*
X177776788Y-120256232D01*
X177916928Y-120154414D01*
X178039414Y-120031928D01*
X178141232Y-119891788D01*
X178219873Y-119737445D01*
X178248070Y-119650662D01*
X178287506Y-119592989D01*
X178351864Y-119565790D01*
X178420711Y-119577704D01*
X178472187Y-119624948D01*
X178490000Y-119688982D01*
X178490000Y-120196479D01*
X178504835Y-120290149D01*
X178504837Y-120290155D01*
X178562356Y-120403041D01*
X178562363Y-120403050D01*
X178651949Y-120492636D01*
X178651953Y-120492639D01*
X178764855Y-120550166D01*
X178858514Y-120564999D01*
X179539999Y-120564999D01*
X179540000Y-120564998D01*
X179540000Y-119776879D01*
X179547007Y-119780925D01*
X179674174Y-119815000D01*
X179805826Y-119815000D01*
X179932993Y-119780925D01*
X179940000Y-119776879D01*
X179940000Y-120564999D01*
X180621479Y-120564999D01*
X180715149Y-120550164D01*
X180715155Y-120550162D01*
X180828041Y-120492643D01*
X180828050Y-120492636D01*
X180917636Y-120403050D01*
X180917639Y-120403045D01*
X180964862Y-120310368D01*
X180964864Y-120310365D01*
X180975164Y-120290150D01*
X180975166Y-120290144D01*
X180990000Y-120196486D01*
X180990000Y-119515000D01*
X180201880Y-119515000D01*
X180205925Y-119507993D01*
X180240000Y-119380826D01*
X180240000Y-119249174D01*
X180205925Y-119122007D01*
X180201880Y-119115000D01*
X180989999Y-119115000D01*
X180989999Y-118433520D01*
X180975164Y-118339850D01*
X180975162Y-118339844D01*
X180917643Y-118226958D01*
X180917636Y-118226949D01*
X180828050Y-118137363D01*
X180828046Y-118137360D01*
X180715144Y-118079833D01*
X180621486Y-118065000D01*
X179940000Y-118065000D01*
X179940000Y-118853120D01*
X179932993Y-118849075D01*
X179805826Y-118815000D01*
X179674174Y-118815000D01*
X179547007Y-118849075D01*
X179540000Y-118853120D01*
X179540000Y-118065000D01*
X178858520Y-118065000D01*
X178764850Y-118079835D01*
X178764844Y-118079837D01*
X178651958Y-118137356D01*
X178651949Y-118137363D01*
X178562363Y-118226949D01*
X178562360Y-118226953D01*
X178504833Y-118339855D01*
X178490000Y-118433514D01*
X178490000Y-118941016D01*
X178470315Y-119008055D01*
X178417511Y-119053810D01*
X178348353Y-119063754D01*
X178284797Y-119034729D01*
X178248069Y-118979334D01*
X178247491Y-118977555D01*
X178219873Y-118892555D01*
X178141232Y-118738212D01*
X178039414Y-118598072D01*
X177916928Y-118475586D01*
X177776788Y-118373768D01*
X177622445Y-118295127D01*
X177457701Y-118241598D01*
X177457699Y-118241597D01*
X177457698Y-118241597D01*
X177313558Y-118218768D01*
X177286611Y-118214500D01*
X177113389Y-118214500D01*
X177086442Y-118218768D01*
X176942302Y-118241597D01*
X176777552Y-118295128D01*
X176623211Y-118373768D01*
X176543256Y-118431859D01*
X176483072Y-118475586D01*
X176483070Y-118475588D01*
X176483069Y-118475588D01*
X176360588Y-118598069D01*
X176360588Y-118598070D01*
X176360586Y-118598072D01*
X176316859Y-118658256D01*
X176258768Y-118738211D01*
X176180128Y-118892552D01*
X176126597Y-119057302D01*
X176099500Y-119228389D01*
X176099500Y-119401611D01*
X176099499Y-119401611D01*
X176123075Y-119550462D01*
X176119034Y-119581730D01*
X176116784Y-119613193D01*
X176114589Y-119616124D01*
X176114120Y-119619755D01*
X176093810Y-119643881D01*
X176074912Y-119669126D01*
X176071482Y-119670405D01*
X176069124Y-119673207D01*
X176038993Y-119682523D01*
X176009448Y-119693543D01*
X176005869Y-119692764D01*
X176002372Y-119693846D01*
X175971988Y-119685394D01*
X175941175Y-119678691D01*
X175937203Y-119675717D01*
X175935058Y-119675121D01*
X175912921Y-119657540D01*
X175791022Y-119535641D01*
X175757537Y-119474318D01*
X175756230Y-119428568D01*
X175760500Y-119401611D01*
X175760500Y-119228389D01*
X175733402Y-119057299D01*
X175679873Y-118892555D01*
X175601232Y-118738212D01*
X175499414Y-118598072D01*
X175376928Y-118475586D01*
X175236788Y-118373768D01*
X175082445Y-118295127D01*
X174917701Y-118241598D01*
X174917699Y-118241597D01*
X174917698Y-118241597D01*
X174773558Y-118218768D01*
X174746611Y-118214500D01*
X174573389Y-118214500D01*
X174573383Y-118214500D01*
X174546435Y-118218768D01*
X174477142Y-118209813D01*
X174439357Y-118183976D01*
X173197202Y-116941821D01*
X173189030Y-116932805D01*
X173076277Y-116795416D01*
X173062772Y-116775204D01*
X172981878Y-116623862D01*
X172972575Y-116601404D01*
X172922757Y-116437175D01*
X172918018Y-116413347D01*
X172900597Y-116236466D01*
X172900000Y-116224312D01*
X172900000Y-104985058D01*
X222267783Y-104985058D01*
X222296059Y-105003952D01*
X222441648Y-105064256D01*
X222441656Y-105064258D01*
X222596202Y-105094999D01*
X222596206Y-105095000D01*
X222753794Y-105095000D01*
X222753797Y-105094999D01*
X222908343Y-105064258D01*
X222908355Y-105064255D01*
X223053938Y-105003953D01*
X223053943Y-105003950D01*
X223082215Y-104985058D01*
X223517783Y-104985058D01*
X223546059Y-105003952D01*
X223691648Y-105064256D01*
X223691656Y-105064258D01*
X223846202Y-105094999D01*
X223846206Y-105095000D01*
X224003794Y-105095000D01*
X224003797Y-105094999D01*
X224158343Y-105064258D01*
X224158355Y-105064255D01*
X224303938Y-105003953D01*
X224303943Y-105003950D01*
X224332215Y-104985058D01*
X224332216Y-104985057D01*
X223925001Y-104577842D01*
X223925000Y-104577842D01*
X223517783Y-104985058D01*
X223082215Y-104985058D01*
X223082216Y-104985057D01*
X222675001Y-104577842D01*
X222675000Y-104577842D01*
X222267783Y-104985058D01*
X172900000Y-104985058D01*
X172900000Y-104360057D01*
X221642783Y-104360057D01*
X221671059Y-104378952D01*
X221816650Y-104439257D01*
X221821575Y-104440751D01*
X221880016Y-104479045D01*
X221904246Y-104523417D01*
X221905741Y-104528347D01*
X221966048Y-104673940D01*
X221984941Y-104702215D01*
X222392157Y-104295000D01*
X222352375Y-104255218D01*
X222475000Y-104255218D01*
X222475000Y-104334782D01*
X222505448Y-104408291D01*
X222561709Y-104464552D01*
X222635218Y-104495000D01*
X222714782Y-104495000D01*
X222788291Y-104464552D01*
X222844552Y-104408291D01*
X222875000Y-104334782D01*
X222875000Y-104295000D01*
X222957842Y-104295000D01*
X223300000Y-104637157D01*
X223300001Y-104637157D01*
X223642157Y-104295000D01*
X223602375Y-104255218D01*
X223725000Y-104255218D01*
X223725000Y-104334782D01*
X223755448Y-104408291D01*
X223811709Y-104464552D01*
X223885218Y-104495000D01*
X223964782Y-104495000D01*
X224038291Y-104464552D01*
X224094552Y-104408291D01*
X224125000Y-104334782D01*
X224125000Y-104295000D01*
X224207842Y-104295000D01*
X224615057Y-104702216D01*
X224615058Y-104702215D01*
X224633950Y-104673943D01*
X224633953Y-104673938D01*
X224694255Y-104528355D01*
X224695750Y-104523427D01*
X224734042Y-104464985D01*
X224778427Y-104440750D01*
X224783355Y-104439255D01*
X224928938Y-104378953D01*
X224928943Y-104378950D01*
X224957215Y-104360058D01*
X224957216Y-104360057D01*
X224550000Y-103952842D01*
X224207842Y-104295000D01*
X224125000Y-104295000D01*
X224125000Y-104255218D01*
X224094552Y-104181709D01*
X224038291Y-104125448D01*
X223964782Y-104095000D01*
X223885218Y-104095000D01*
X223811709Y-104125448D01*
X223755448Y-104181709D01*
X223725000Y-104255218D01*
X223602375Y-104255218D01*
X223471079Y-104123922D01*
X223471077Y-104123921D01*
X223300000Y-103952842D01*
X222957842Y-104295000D01*
X222875000Y-104295000D01*
X222875000Y-104255218D01*
X222844552Y-104181709D01*
X222788291Y-104125448D01*
X222714782Y-104095000D01*
X222635218Y-104095000D01*
X222561709Y-104125448D01*
X222505448Y-104181709D01*
X222475000Y-104255218D01*
X222352375Y-104255218D01*
X222049999Y-103952842D01*
X221642783Y-104360057D01*
X172900000Y-104360057D01*
X172900000Y-103591202D01*
X221250000Y-103591202D01*
X221250000Y-103748797D01*
X221280741Y-103903343D01*
X221280743Y-103903351D01*
X221341048Y-104048940D01*
X221359941Y-104077215D01*
X221767157Y-103670000D01*
X221767157Y-103669999D01*
X221727376Y-103630218D01*
X221850000Y-103630218D01*
X221850000Y-103709782D01*
X221880448Y-103783291D01*
X221936709Y-103839552D01*
X222010218Y-103870000D01*
X222089782Y-103870000D01*
X222163291Y-103839552D01*
X222219552Y-103783291D01*
X222250000Y-103709782D01*
X222250000Y-103669999D01*
X222332842Y-103669999D01*
X222503921Y-103841077D01*
X222503921Y-103841078D01*
X222674999Y-104012156D01*
X222846078Y-103841077D01*
X223017157Y-103669999D01*
X222977376Y-103630218D01*
X223100000Y-103630218D01*
X223100000Y-103709782D01*
X223130448Y-103783291D01*
X223186709Y-103839552D01*
X223260218Y-103870000D01*
X223339782Y-103870000D01*
X223413291Y-103839552D01*
X223469552Y-103783291D01*
X223500000Y-103709782D01*
X223500000Y-103669999D01*
X223582842Y-103669999D01*
X223753921Y-103841077D01*
X223753921Y-103841078D01*
X223924999Y-104012156D01*
X224096078Y-103841077D01*
X224267157Y-103669999D01*
X224227376Y-103630218D01*
X224350000Y-103630218D01*
X224350000Y-103709782D01*
X224380448Y-103783291D01*
X224436709Y-103839552D01*
X224510218Y-103870000D01*
X224589782Y-103870000D01*
X224663291Y-103839552D01*
X224719552Y-103783291D01*
X224750000Y-103709782D01*
X224750000Y-103669999D01*
X224832842Y-103669999D01*
X224832842Y-103670001D01*
X225240057Y-104077216D01*
X225240058Y-104077215D01*
X225258950Y-104048943D01*
X225258953Y-104048938D01*
X225319255Y-103903355D01*
X225319258Y-103903343D01*
X225349999Y-103748797D01*
X225350000Y-103748794D01*
X225350000Y-103591206D01*
X225349999Y-103591202D01*
X225319258Y-103436656D01*
X225319256Y-103436648D01*
X225258952Y-103291059D01*
X225240058Y-103262783D01*
X224832842Y-103669999D01*
X224750000Y-103669999D01*
X224750000Y-103630218D01*
X224719552Y-103556709D01*
X224663291Y-103500448D01*
X224589782Y-103470000D01*
X224510218Y-103470000D01*
X224436709Y-103500448D01*
X224380448Y-103556709D01*
X224350000Y-103630218D01*
X224227376Y-103630218D01*
X223925000Y-103327842D01*
X223582842Y-103669999D01*
X223500000Y-103669999D01*
X223500000Y-103630218D01*
X223469552Y-103556709D01*
X223413291Y-103500448D01*
X223339782Y-103470000D01*
X223260218Y-103470000D01*
X223186709Y-103500448D01*
X223130448Y-103556709D01*
X223100000Y-103630218D01*
X222977376Y-103630218D01*
X222675000Y-103327842D01*
X222332842Y-103669999D01*
X222250000Y-103669999D01*
X222250000Y-103630218D01*
X222219552Y-103556709D01*
X222163291Y-103500448D01*
X222089782Y-103470000D01*
X222010218Y-103470000D01*
X221936709Y-103500448D01*
X221880448Y-103556709D01*
X221850000Y-103630218D01*
X221727376Y-103630218D01*
X221359941Y-103262782D01*
X221341048Y-103291059D01*
X221280743Y-103436648D01*
X221280741Y-103436656D01*
X221250000Y-103591202D01*
X172900000Y-103591202D01*
X172900000Y-103044999D01*
X221707842Y-103044999D01*
X221707842Y-103045000D01*
X222049998Y-103387157D01*
X222221078Y-103216078D01*
X222221078Y-103216077D01*
X222392157Y-103044999D01*
X222352376Y-103005218D01*
X222475000Y-103005218D01*
X222475000Y-103084782D01*
X222505448Y-103158291D01*
X222561709Y-103214552D01*
X222635218Y-103245000D01*
X222714782Y-103245000D01*
X222788291Y-103214552D01*
X222844552Y-103158291D01*
X222875000Y-103084782D01*
X222875000Y-103044999D01*
X222957842Y-103044999D01*
X223128921Y-103216077D01*
X223128921Y-103216078D01*
X223299999Y-103387156D01*
X223471078Y-103216077D01*
X223642157Y-103044999D01*
X223602376Y-103005218D01*
X223725000Y-103005218D01*
X223725000Y-103084782D01*
X223755448Y-103158291D01*
X223811709Y-103214552D01*
X223885218Y-103245000D01*
X223964782Y-103245000D01*
X224038291Y-103214552D01*
X224094552Y-103158291D01*
X224125000Y-103084782D01*
X224125000Y-103044999D01*
X224207842Y-103044999D01*
X224378921Y-103216077D01*
X224378921Y-103216078D01*
X224550000Y-103387157D01*
X224892157Y-103045000D01*
X224892157Y-103044999D01*
X224550001Y-102702842D01*
X224550000Y-102702842D01*
X224207842Y-103044999D01*
X224125000Y-103044999D01*
X224125000Y-103005218D01*
X224094552Y-102931709D01*
X224038291Y-102875448D01*
X223964782Y-102845000D01*
X223885218Y-102845000D01*
X223811709Y-102875448D01*
X223755448Y-102931709D01*
X223725000Y-103005218D01*
X223602376Y-103005218D01*
X223300000Y-102702842D01*
X222957842Y-103044999D01*
X222875000Y-103044999D01*
X222875000Y-103005218D01*
X222844552Y-102931709D01*
X222788291Y-102875448D01*
X222714782Y-102845000D01*
X222635218Y-102845000D01*
X222561709Y-102875448D01*
X222505448Y-102931709D01*
X222475000Y-103005218D01*
X222352376Y-103005218D01*
X222218127Y-102870969D01*
X222049999Y-102702842D01*
X222049998Y-102702842D01*
X221707842Y-103044999D01*
X172900000Y-103044999D01*
X172900000Y-102341202D01*
X221250000Y-102341202D01*
X221250000Y-102498797D01*
X221280741Y-102653343D01*
X221280743Y-102653351D01*
X221341048Y-102798940D01*
X221359941Y-102827215D01*
X221767157Y-102420000D01*
X221767157Y-102419999D01*
X221727376Y-102380218D01*
X221850000Y-102380218D01*
X221850000Y-102459782D01*
X221880448Y-102533291D01*
X221936709Y-102589552D01*
X222010218Y-102620000D01*
X222089782Y-102620000D01*
X222163291Y-102589552D01*
X222219552Y-102533291D01*
X222250000Y-102459782D01*
X222250000Y-102419999D01*
X222332842Y-102419999D01*
X222503921Y-102591077D01*
X222503921Y-102591078D01*
X222674999Y-102762156D01*
X222846078Y-102591077D01*
X223017157Y-102419999D01*
X222977376Y-102380218D01*
X223100000Y-102380218D01*
X223100000Y-102459782D01*
X223130448Y-102533291D01*
X223186709Y-102589552D01*
X223260218Y-102620000D01*
X223339782Y-102620000D01*
X223413291Y-102589552D01*
X223469552Y-102533291D01*
X223500000Y-102459782D01*
X223500000Y-102419999D01*
X223582842Y-102419999D01*
X223753921Y-102591077D01*
X223753921Y-102591078D01*
X223924999Y-102762156D01*
X224096078Y-102591077D01*
X224267157Y-102419999D01*
X224227376Y-102380218D01*
X224350000Y-102380218D01*
X224350000Y-102459782D01*
X224380448Y-102533291D01*
X224436709Y-102589552D01*
X224510218Y-102620000D01*
X224589782Y-102620000D01*
X224663291Y-102589552D01*
X224719552Y-102533291D01*
X224750000Y-102459782D01*
X224750000Y-102419999D01*
X224832842Y-102419999D01*
X224832842Y-102420001D01*
X225240057Y-102827216D01*
X225240058Y-102827215D01*
X225258950Y-102798943D01*
X225258953Y-102798938D01*
X225319255Y-102653355D01*
X225319258Y-102653343D01*
X225349999Y-102498797D01*
X225350000Y-102498794D01*
X225350000Y-102341206D01*
X225349999Y-102341202D01*
X225319258Y-102186656D01*
X225319256Y-102186648D01*
X225258952Y-102041059D01*
X225240058Y-102012783D01*
X224832842Y-102419999D01*
X224750000Y-102419999D01*
X224750000Y-102380218D01*
X224719552Y-102306709D01*
X224663291Y-102250448D01*
X224589782Y-102220000D01*
X224510218Y-102220000D01*
X224436709Y-102250448D01*
X224380448Y-102306709D01*
X224350000Y-102380218D01*
X224227376Y-102380218D01*
X223925000Y-102077842D01*
X223582842Y-102419999D01*
X223500000Y-102419999D01*
X223500000Y-102380218D01*
X223469552Y-102306709D01*
X223413291Y-102250448D01*
X223339782Y-102220000D01*
X223260218Y-102220000D01*
X223186709Y-102250448D01*
X223130448Y-102306709D01*
X223100000Y-102380218D01*
X222977376Y-102380218D01*
X222675000Y-102077842D01*
X222332842Y-102419999D01*
X222250000Y-102419999D01*
X222250000Y-102380218D01*
X222219552Y-102306709D01*
X222163291Y-102250448D01*
X222089782Y-102220000D01*
X222010218Y-102220000D01*
X221936709Y-102250448D01*
X221880448Y-102306709D01*
X221850000Y-102380218D01*
X221727376Y-102380218D01*
X221359941Y-102012782D01*
X221341048Y-102041059D01*
X221280743Y-102186648D01*
X221280741Y-102186656D01*
X221250000Y-102341202D01*
X172900000Y-102341202D01*
X172900000Y-101729941D01*
X221642782Y-101729941D01*
X222049998Y-102137157D01*
X222392157Y-101794999D01*
X222392157Y-101794998D01*
X222352377Y-101755218D01*
X222475000Y-101755218D01*
X222475000Y-101834782D01*
X222505448Y-101908291D01*
X222561709Y-101964552D01*
X222635218Y-101995000D01*
X222714782Y-101995000D01*
X222788291Y-101964552D01*
X222844552Y-101908291D01*
X222875000Y-101834782D01*
X222875000Y-101794998D01*
X222957842Y-101794998D01*
X222957842Y-101794999D01*
X223299999Y-102137156D01*
X223471077Y-101966078D01*
X223471078Y-101966078D01*
X223642157Y-101794999D01*
X223642157Y-101794998D01*
X223602377Y-101755218D01*
X223725000Y-101755218D01*
X223725000Y-101834782D01*
X223755448Y-101908291D01*
X223811709Y-101964552D01*
X223885218Y-101995000D01*
X223964782Y-101995000D01*
X224038291Y-101964552D01*
X224094552Y-101908291D01*
X224125000Y-101834782D01*
X224125000Y-101794999D01*
X224207842Y-101794999D01*
X224550000Y-102137157D01*
X224957215Y-101729941D01*
X224957215Y-101729940D01*
X224928940Y-101711048D01*
X224783347Y-101650741D01*
X224778417Y-101649246D01*
X224719979Y-101610948D01*
X224695751Y-101566575D01*
X224694257Y-101561650D01*
X224633952Y-101416059D01*
X224615057Y-101387783D01*
X224207842Y-101794999D01*
X224125000Y-101794999D01*
X224125000Y-101755218D01*
X224094552Y-101681709D01*
X224038291Y-101625448D01*
X223964782Y-101595000D01*
X223885218Y-101595000D01*
X223811709Y-101625448D01*
X223755448Y-101681709D01*
X223725000Y-101755218D01*
X223602377Y-101755218D01*
X223300001Y-101452842D01*
X223300000Y-101452842D01*
X222957842Y-101794998D01*
X222875000Y-101794998D01*
X222875000Y-101755218D01*
X222844552Y-101681709D01*
X222788291Y-101625448D01*
X222714782Y-101595000D01*
X222635218Y-101595000D01*
X222561709Y-101625448D01*
X222505448Y-101681709D01*
X222475000Y-101755218D01*
X222352377Y-101755218D01*
X221984941Y-101387782D01*
X221966048Y-101416059D01*
X221905740Y-101561655D01*
X221904245Y-101566585D01*
X221865946Y-101625023D01*
X221821585Y-101649245D01*
X221816655Y-101650740D01*
X221671059Y-101711048D01*
X221642782Y-101729941D01*
X172900000Y-101729941D01*
X172900000Y-101104941D01*
X222267782Y-101104941D01*
X222675000Y-101512157D01*
X222675001Y-101512157D01*
X223082215Y-101104941D01*
X223517782Y-101104941D01*
X223925000Y-101512157D01*
X223925001Y-101512157D01*
X224332215Y-101104941D01*
X224332215Y-101104940D01*
X224303940Y-101086048D01*
X224158351Y-101025743D01*
X224158343Y-101025741D01*
X224003797Y-100995000D01*
X223846202Y-100995000D01*
X223691656Y-101025741D01*
X223691648Y-101025743D01*
X223546059Y-101086048D01*
X223517782Y-101104941D01*
X223082215Y-101104941D01*
X223082215Y-101104940D01*
X223053940Y-101086048D01*
X222908351Y-101025743D01*
X222908343Y-101025741D01*
X222753797Y-100995000D01*
X222596202Y-100995000D01*
X222441656Y-101025741D01*
X222441648Y-101025743D01*
X222296059Y-101086048D01*
X222267782Y-101104941D01*
X172900000Y-101104941D01*
X172900000Y-98236377D01*
X172552837Y-97938619D01*
X172552829Y-97938612D01*
X168066611Y-94090840D01*
X168066609Y-94090839D01*
X167962536Y-94001577D01*
X181149500Y-94001577D01*
X181149500Y-94198422D01*
X181180290Y-94392826D01*
X181241117Y-94580029D01*
X181330476Y-94755405D01*
X181446172Y-94914646D01*
X181585354Y-95053828D01*
X181744595Y-95169524D01*
X181827455Y-95211743D01*
X181919970Y-95258882D01*
X181919972Y-95258882D01*
X181919975Y-95258884D01*
X182020317Y-95291487D01*
X182107173Y-95319709D01*
X182301578Y-95350500D01*
X182301583Y-95350500D01*
X182498422Y-95350500D01*
X182692826Y-95319709D01*
X182880025Y-95258884D01*
X183055405Y-95169524D01*
X183214646Y-95053828D01*
X183353828Y-94914646D01*
X183469524Y-94755405D01*
X183558884Y-94580025D01*
X183619709Y-94392826D01*
X183650500Y-94198422D01*
X183650500Y-94001577D01*
X183619709Y-93807173D01*
X183558882Y-93619970D01*
X183469523Y-93444594D01*
X183353828Y-93285354D01*
X183214646Y-93146172D01*
X183055405Y-93030476D01*
X183005947Y-93005276D01*
X182880029Y-92941117D01*
X182692826Y-92880290D01*
X182498422Y-92849500D01*
X182498417Y-92849500D01*
X182301583Y-92849500D01*
X182301578Y-92849500D01*
X182107173Y-92880290D01*
X181919970Y-92941117D01*
X181744594Y-93030476D01*
X181653741Y-93096485D01*
X181585354Y-93146172D01*
X181585352Y-93146174D01*
X181585351Y-93146174D01*
X181446174Y-93285351D01*
X181446174Y-93285352D01*
X181446172Y-93285354D01*
X181396485Y-93353741D01*
X181330476Y-93444594D01*
X181241117Y-93619970D01*
X181180290Y-93807173D01*
X181149500Y-94001577D01*
X167962536Y-94001577D01*
X166403104Y-92664071D01*
X170549499Y-92664071D01*
X170574497Y-92789738D01*
X170574499Y-92789744D01*
X170623533Y-92908124D01*
X170623538Y-92908133D01*
X170694723Y-93014668D01*
X170694726Y-93014672D01*
X170785327Y-93105273D01*
X170785331Y-93105276D01*
X170891866Y-93176461D01*
X170891872Y-93176464D01*
X170891873Y-93176465D01*
X171010256Y-93225501D01*
X171010260Y-93225501D01*
X171010261Y-93225502D01*
X171135928Y-93250500D01*
X171135931Y-93250500D01*
X171264071Y-93250500D01*
X171348615Y-93233682D01*
X171389744Y-93225501D01*
X171508127Y-93176465D01*
X171614669Y-93105276D01*
X171705276Y-93014669D01*
X171776465Y-92908127D01*
X171825501Y-92789744D01*
X171839973Y-92716990D01*
X171872356Y-92655082D01*
X171933072Y-92620508D01*
X172002841Y-92624247D01*
X172059513Y-92665113D01*
X172076150Y-92693731D01*
X172123533Y-92808123D01*
X172123538Y-92808133D01*
X172194723Y-92914668D01*
X172194726Y-92914672D01*
X172285327Y-93005273D01*
X172285331Y-93005276D01*
X172391866Y-93076461D01*
X172391872Y-93076464D01*
X172391873Y-93076465D01*
X172510256Y-93125501D01*
X172510260Y-93125501D01*
X172510261Y-93125502D01*
X172635928Y-93150500D01*
X172635931Y-93150500D01*
X172764071Y-93150500D01*
X172848615Y-93133682D01*
X172889744Y-93125501D01*
X173008127Y-93076465D01*
X173114669Y-93005276D01*
X173205276Y-92914669D01*
X173276465Y-92808127D01*
X173325501Y-92689744D01*
X173344839Y-92592528D01*
X173377224Y-92530617D01*
X173378719Y-92529094D01*
X178050500Y-87857314D01*
X178116392Y-87743186D01*
X178150500Y-87615893D01*
X178150500Y-87484108D01*
X178150500Y-86758676D01*
X178170185Y-86691637D01*
X178186819Y-86670995D01*
X180093742Y-84764071D01*
X191199499Y-84764071D01*
X191224497Y-84889738D01*
X191224499Y-84889744D01*
X191273533Y-85008124D01*
X191273538Y-85008133D01*
X191344723Y-85114668D01*
X191344726Y-85114672D01*
X191435327Y-85205273D01*
X191435331Y-85205276D01*
X191541866Y-85276461D01*
X191541872Y-85276464D01*
X191541873Y-85276465D01*
X191660256Y-85325501D01*
X191660260Y-85325501D01*
X191660261Y-85325502D01*
X191785928Y-85350500D01*
X191785931Y-85350500D01*
X191914071Y-85350500D01*
X191998615Y-85333682D01*
X192039744Y-85325501D01*
X192158127Y-85276465D01*
X192240541Y-85221398D01*
X192307218Y-85200520D01*
X192309432Y-85200500D01*
X201740568Y-85200500D01*
X201807607Y-85220185D01*
X201809459Y-85221398D01*
X201891866Y-85276461D01*
X201891872Y-85276464D01*
X201891873Y-85276465D01*
X202010256Y-85325501D01*
X202010260Y-85325501D01*
X202010261Y-85325502D01*
X202135928Y-85350500D01*
X202135931Y-85350500D01*
X202264071Y-85350500D01*
X202348615Y-85333682D01*
X202389744Y-85325501D01*
X202508127Y-85276465D01*
X202614669Y-85205276D01*
X202705276Y-85114669D01*
X202776465Y-85008127D01*
X202825501Y-84889744D01*
X202850500Y-84764069D01*
X202850500Y-84635931D01*
X202850500Y-84635928D01*
X202825502Y-84510261D01*
X202825501Y-84510260D01*
X202825501Y-84510256D01*
X202776465Y-84391873D01*
X202776464Y-84391872D01*
X202776461Y-84391866D01*
X202705276Y-84285331D01*
X202705273Y-84285327D01*
X202614672Y-84194726D01*
X202614668Y-84194723D01*
X202508133Y-84123538D01*
X202508124Y-84123533D01*
X202389744Y-84074499D01*
X202389738Y-84074497D01*
X202264071Y-84049500D01*
X202264069Y-84049500D01*
X202135931Y-84049500D01*
X202135929Y-84049500D01*
X202010261Y-84074497D01*
X202010255Y-84074499D01*
X201891875Y-84123533D01*
X201891866Y-84123538D01*
X201809459Y-84178602D01*
X201742782Y-84199480D01*
X201740568Y-84199500D01*
X192309432Y-84199500D01*
X192242393Y-84179815D01*
X192240541Y-84178602D01*
X192158133Y-84123538D01*
X192158124Y-84123533D01*
X192039744Y-84074499D01*
X192039738Y-84074497D01*
X191914071Y-84049500D01*
X191914069Y-84049500D01*
X191785931Y-84049500D01*
X191785929Y-84049500D01*
X191660261Y-84074497D01*
X191660255Y-84074499D01*
X191541875Y-84123533D01*
X191541866Y-84123538D01*
X191435331Y-84194723D01*
X191435327Y-84194726D01*
X191344726Y-84285327D01*
X191344723Y-84285331D01*
X191273538Y-84391866D01*
X191273533Y-84391875D01*
X191224499Y-84510255D01*
X191224497Y-84510261D01*
X191199500Y-84635928D01*
X191199500Y-84635931D01*
X191199500Y-84764069D01*
X191199500Y-84764071D01*
X191199499Y-84764071D01*
X180093742Y-84764071D01*
X180329040Y-84528773D01*
X180390361Y-84495290D01*
X180392528Y-84494839D01*
X180393004Y-84494744D01*
X180489744Y-84475501D01*
X180608127Y-84426465D01*
X180714669Y-84355276D01*
X180805276Y-84264669D01*
X180876465Y-84158127D01*
X180925501Y-84039744D01*
X180950500Y-83914069D01*
X180950500Y-83785931D01*
X180950500Y-83785928D01*
X180925502Y-83660261D01*
X180925501Y-83660260D01*
X180925501Y-83660256D01*
X180876465Y-83541873D01*
X180876464Y-83541872D01*
X180876461Y-83541866D01*
X180813373Y-83447448D01*
X180793348Y-83393242D01*
X180790416Y-83368665D01*
X180790417Y-83368665D01*
X180790416Y-83368664D01*
X176206167Y-80629294D01*
X176206165Y-80629295D01*
X176206122Y-80634765D01*
X176185902Y-80701645D01*
X176132733Y-80746976D01*
X176106318Y-80755390D01*
X176010261Y-80774497D01*
X176010255Y-80774499D01*
X175891875Y-80823533D01*
X175891866Y-80823538D01*
X175785331Y-80894723D01*
X175785327Y-80894726D01*
X175694726Y-80985327D01*
X175694723Y-80985331D01*
X175623538Y-81091866D01*
X175623533Y-81091875D01*
X175574499Y-81210255D01*
X175574497Y-81210261D01*
X175549500Y-81335928D01*
X175549500Y-81335931D01*
X175549500Y-81464069D01*
X175549500Y-81464071D01*
X175549499Y-81464071D01*
X175574497Y-81589738D01*
X175574499Y-81589744D01*
X175623533Y-81708124D01*
X175623538Y-81708133D01*
X175678602Y-81790541D01*
X175699480Y-81857218D01*
X175699500Y-81859432D01*
X175699500Y-87341324D01*
X175679815Y-87408363D01*
X175663181Y-87429005D01*
X171170961Y-91921224D01*
X171109638Y-91954709D01*
X171107473Y-91955160D01*
X171010260Y-91974497D01*
X171010255Y-91974499D01*
X170891875Y-92023533D01*
X170891866Y-92023538D01*
X170785331Y-92094723D01*
X170785327Y-92094726D01*
X170694726Y-92185327D01*
X170694723Y-92185331D01*
X170623538Y-92291866D01*
X170623533Y-92291875D01*
X170574499Y-92410255D01*
X170574497Y-92410261D01*
X170549500Y-92535928D01*
X170549500Y-92535931D01*
X170549500Y-92664069D01*
X170549500Y-92664071D01*
X170549499Y-92664071D01*
X166403104Y-92664071D01*
X165586479Y-91963662D01*
X166589179Y-91963662D01*
X166618696Y-91983385D01*
X166765185Y-92044062D01*
X166765195Y-92044065D01*
X166920711Y-92075000D01*
X167079288Y-92075000D01*
X167234804Y-92044065D01*
X167234814Y-92044062D01*
X167381308Y-91983383D01*
X167381312Y-91983380D01*
X167410819Y-91963663D01*
X167410820Y-91963661D01*
X167000001Y-91552842D01*
X167000000Y-91552842D01*
X166589179Y-91963662D01*
X165586479Y-91963662D01*
X165104744Y-91550484D01*
X165102967Y-91548931D01*
X165077094Y-91525868D01*
X165073614Y-91522644D01*
X165048598Y-91498566D01*
X165046907Y-91496907D01*
X164899288Y-91349288D01*
X166194999Y-91349288D01*
X166225934Y-91504804D01*
X166225937Y-91504814D01*
X166286614Y-91651303D01*
X166286622Y-91651318D01*
X166306335Y-91680819D01*
X166306336Y-91680819D01*
X166717157Y-91270000D01*
X166717157Y-91269999D01*
X166677376Y-91230218D01*
X166800000Y-91230218D01*
X166800000Y-91309782D01*
X166830448Y-91383291D01*
X166886709Y-91439552D01*
X166960218Y-91470000D01*
X167039782Y-91470000D01*
X167113291Y-91439552D01*
X167169552Y-91383291D01*
X167200000Y-91309782D01*
X167200000Y-91270000D01*
X167282842Y-91270000D01*
X167693661Y-91680820D01*
X167693663Y-91680819D01*
X167713380Y-91651312D01*
X167713383Y-91651308D01*
X167774062Y-91504814D01*
X167774065Y-91504804D01*
X167805000Y-91349288D01*
X167805000Y-91190711D01*
X167774065Y-91035195D01*
X167774062Y-91035185D01*
X167713385Y-90888696D01*
X167693662Y-90859179D01*
X167282842Y-91270000D01*
X167200000Y-91270000D01*
X167200000Y-91230218D01*
X167169552Y-91156709D01*
X167113291Y-91100448D01*
X167039782Y-91070000D01*
X166960218Y-91070000D01*
X166886709Y-91100448D01*
X166830448Y-91156709D01*
X166800000Y-91230218D01*
X166677376Y-91230218D01*
X166306336Y-90859178D01*
X166286617Y-90888691D01*
X166225936Y-91035189D01*
X166225934Y-91035195D01*
X166195000Y-91190711D01*
X166195000Y-91349288D01*
X166194999Y-91349288D01*
X164899288Y-91349288D01*
X164185000Y-90635000D01*
X166647842Y-90635000D01*
X167000000Y-90987157D01*
X167000001Y-90987157D01*
X167352157Y-90635000D01*
X167352157Y-90634999D01*
X167000001Y-90282842D01*
X167000000Y-90282842D01*
X166647842Y-90635000D01*
X164185000Y-90635000D01*
X163629288Y-90079288D01*
X166194999Y-90079288D01*
X166225934Y-90234804D01*
X166225937Y-90234814D01*
X166286614Y-90381303D01*
X166286622Y-90381318D01*
X166306335Y-90410819D01*
X166306336Y-90410819D01*
X166717157Y-90000000D01*
X166717157Y-89999999D01*
X166677376Y-89960218D01*
X166800000Y-89960218D01*
X166800000Y-90039782D01*
X166830448Y-90113291D01*
X166886709Y-90169552D01*
X166960218Y-90200000D01*
X167039782Y-90200000D01*
X167113291Y-90169552D01*
X167169552Y-90113291D01*
X167200000Y-90039782D01*
X167200000Y-90000000D01*
X167282842Y-90000000D01*
X167693661Y-90410820D01*
X167693663Y-90410819D01*
X167713380Y-90381312D01*
X167713383Y-90381308D01*
X167774062Y-90234814D01*
X167774065Y-90234804D01*
X167805000Y-90079288D01*
X167805000Y-89920711D01*
X167774065Y-89765195D01*
X167774062Y-89765185D01*
X167713385Y-89618696D01*
X167693662Y-89589179D01*
X167282842Y-90000000D01*
X167200000Y-90000000D01*
X167200000Y-89960218D01*
X167169552Y-89886709D01*
X167113291Y-89830448D01*
X167039782Y-89800000D01*
X166960218Y-89800000D01*
X166886709Y-89830448D01*
X166830448Y-89886709D01*
X166800000Y-89960218D01*
X166677376Y-89960218D01*
X166306336Y-89589178D01*
X166286617Y-89618691D01*
X166225936Y-89765189D01*
X166225934Y-89765195D01*
X166195000Y-89920711D01*
X166195000Y-90079288D01*
X166194999Y-90079288D01*
X163629288Y-90079288D01*
X162856336Y-89306336D01*
X166589178Y-89306336D01*
X167000000Y-89717157D01*
X167000001Y-89717157D01*
X167410819Y-89306336D01*
X167410819Y-89306335D01*
X167381318Y-89286622D01*
X167381303Y-89286614D01*
X167234814Y-89225937D01*
X167234804Y-89225934D01*
X167079288Y-89195000D01*
X166920712Y-89195000D01*
X166765195Y-89225934D01*
X166765189Y-89225936D01*
X166618691Y-89286617D01*
X166589178Y-89306336D01*
X162856336Y-89306336D01*
X156944619Y-83394619D01*
X156530405Y-83394619D01*
X143006093Y-83394619D01*
X142993939Y-83394022D01*
X142817065Y-83376601D01*
X142793224Y-83371859D01*
X142629001Y-83322043D01*
X142606543Y-83312740D01*
X142455201Y-83231846D01*
X142434989Y-83218341D01*
X142302333Y-83109473D01*
X142285145Y-83092285D01*
X142176277Y-82959629D01*
X142162772Y-82939417D01*
X142081878Y-82788075D01*
X142072575Y-82765617D01*
X142022757Y-82601388D01*
X142018018Y-82577560D01*
X142000597Y-82400680D01*
X142000000Y-82388526D01*
X142000000Y-79409697D01*
X163362000Y-79409697D01*
X163362000Y-79620303D01*
X163373628Y-79693720D01*
X163394946Y-79828316D01*
X163460028Y-80028618D01*
X163555640Y-80216265D01*
X163679431Y-80386648D01*
X163828352Y-80535569D01*
X163998735Y-80659360D01*
X164081724Y-80701645D01*
X164186381Y-80754971D01*
X164186383Y-80754971D01*
X164186386Y-80754973D01*
X164386684Y-80820054D01*
X164594697Y-80853000D01*
X164594698Y-80853000D01*
X164805302Y-80853000D01*
X164805303Y-80853000D01*
X165013316Y-80820054D01*
X165213614Y-80754973D01*
X165401265Y-80659360D01*
X165571648Y-80535569D01*
X165720569Y-80386648D01*
X165844360Y-80216265D01*
X165939973Y-80028614D01*
X166005054Y-79828316D01*
X166038000Y-79620303D01*
X166038000Y-79409697D01*
X166005054Y-79201684D01*
X165939973Y-79001386D01*
X165939971Y-79001383D01*
X165939971Y-79001381D01*
X165844360Y-78813735D01*
X165828222Y-78791523D01*
X165828221Y-78791522D01*
X165720569Y-78643352D01*
X165571648Y-78494431D01*
X165401265Y-78370640D01*
X165400009Y-78370000D01*
X165213618Y-78275028D01*
X165013316Y-78209946D01*
X164805303Y-78177000D01*
X164594697Y-78177000D01*
X164490690Y-78193473D01*
X164386683Y-78209946D01*
X164186381Y-78275028D01*
X163998734Y-78370640D01*
X163902585Y-78440497D01*
X163828352Y-78494431D01*
X163828350Y-78494433D01*
X163828349Y-78494433D01*
X163679433Y-78643349D01*
X163679433Y-78643350D01*
X163679431Y-78643352D01*
X163664993Y-78663224D01*
X163555640Y-78813734D01*
X163460028Y-79001381D01*
X163394946Y-79201683D01*
X163394946Y-79201684D01*
X163362000Y-79409697D01*
X142000000Y-79409697D01*
X142000000Y-77931353D01*
X172680000Y-77931353D01*
X172680000Y-78370000D01*
X173280000Y-78370000D01*
X173280000Y-78770000D01*
X172680000Y-78770000D01*
X172680000Y-79208646D01*
X172714584Y-79382512D01*
X172714586Y-79382520D01*
X172782428Y-79546307D01*
X172782433Y-79546316D01*
X172880923Y-79693716D01*
X172880926Y-79693720D01*
X173006279Y-79819073D01*
X173006283Y-79819076D01*
X173153683Y-79917566D01*
X173153696Y-79917573D01*
X173317474Y-79985411D01*
X173317482Y-79985413D01*
X173380000Y-79997848D01*
X173380000Y-79344265D01*
X173395795Y-79360060D01*
X173464204Y-79399556D01*
X173540504Y-79420000D01*
X173619496Y-79420000D01*
X173695796Y-79399556D01*
X173764205Y-79360060D01*
X173780000Y-79344265D01*
X173780000Y-79997847D01*
X173842517Y-79985413D01*
X173842525Y-79985411D01*
X174006303Y-79917573D01*
X174006316Y-79917566D01*
X174153716Y-79819076D01*
X174153720Y-79819073D01*
X174279073Y-79693720D01*
X174279076Y-79693716D01*
X174377566Y-79546316D01*
X174377571Y-79546307D01*
X174445413Y-79382520D01*
X174445415Y-79382512D01*
X174479999Y-79208646D01*
X174480000Y-79208643D01*
X174480000Y-78770000D01*
X173880000Y-78770000D01*
X173880000Y-78370000D01*
X174489634Y-78370000D01*
X174529735Y-78348103D01*
X174599427Y-78353087D01*
X174643774Y-78381588D01*
X174702686Y-78440500D01*
X174816814Y-78506392D01*
X174944108Y-78540500D01*
X174944110Y-78540500D01*
X175075890Y-78540500D01*
X175075892Y-78540500D01*
X175203186Y-78506392D01*
X175317314Y-78440500D01*
X175410500Y-78347314D01*
X175476392Y-78233186D01*
X175510500Y-78105892D01*
X175510500Y-77974108D01*
X180289500Y-77974108D01*
X180289500Y-78105891D01*
X180323608Y-78233187D01*
X180356554Y-78290250D01*
X180389500Y-78347314D01*
X180482686Y-78440500D01*
X180596814Y-78506392D01*
X180724108Y-78540500D01*
X180724110Y-78540500D01*
X180855890Y-78540500D01*
X180855892Y-78540500D01*
X180983186Y-78506392D01*
X181097314Y-78440500D01*
X181156226Y-78381588D01*
X181217549Y-78348103D01*
X181287241Y-78353087D01*
X181313557Y-78370000D01*
X181920000Y-78370000D01*
X181920000Y-78770000D01*
X181320000Y-78770000D01*
X181320000Y-79208646D01*
X181354584Y-79382512D01*
X181354586Y-79382520D01*
X181422428Y-79546307D01*
X181422433Y-79546316D01*
X181520923Y-79693716D01*
X181520926Y-79693720D01*
X181646279Y-79819073D01*
X181646283Y-79819076D01*
X181793683Y-79917566D01*
X181793696Y-79917573D01*
X181957474Y-79985411D01*
X181957482Y-79985413D01*
X182020000Y-79997848D01*
X182020000Y-79344265D01*
X182035795Y-79360060D01*
X182104204Y-79399556D01*
X182180504Y-79420000D01*
X182259496Y-79420000D01*
X182335796Y-79399556D01*
X182404205Y-79360060D01*
X182420000Y-79344265D01*
X182420000Y-79997847D01*
X182482517Y-79985413D01*
X182482525Y-79985411D01*
X182646303Y-79917573D01*
X182646316Y-79917566D01*
X182793716Y-79819076D01*
X182793720Y-79819073D01*
X182919073Y-79693720D01*
X182919076Y-79693716D01*
X183017566Y-79546316D01*
X183017571Y-79546307D01*
X183085413Y-79382520D01*
X183085415Y-79382512D01*
X183119999Y-79208646D01*
X183120000Y-79208643D01*
X183120000Y-78770000D01*
X182520000Y-78770000D01*
X182520000Y-78370000D01*
X183120000Y-78370000D01*
X183120000Y-77931357D01*
X183119999Y-77931353D01*
X183085415Y-77757487D01*
X183085413Y-77757479D01*
X183017571Y-77593692D01*
X183017566Y-77593683D01*
X182919076Y-77446283D01*
X182919073Y-77446279D01*
X182793720Y-77320926D01*
X182793716Y-77320923D01*
X182646316Y-77222433D01*
X182646307Y-77222428D01*
X182482520Y-77154586D01*
X182482512Y-77154584D01*
X182420000Y-77142149D01*
X182420000Y-77795735D01*
X182404205Y-77779940D01*
X182335796Y-77740444D01*
X182259496Y-77720000D01*
X182180504Y-77720000D01*
X182104204Y-77740444D01*
X182035795Y-77779940D01*
X182020000Y-77795735D01*
X182020000Y-77142149D01*
X181957487Y-77154584D01*
X181957479Y-77154586D01*
X181793692Y-77222428D01*
X181793683Y-77222433D01*
X181646283Y-77320923D01*
X181646279Y-77320926D01*
X181520926Y-77446279D01*
X181520923Y-77446283D01*
X181422433Y-77593683D01*
X181422428Y-77593692D01*
X181384806Y-77684522D01*
X181340965Y-77738925D01*
X181274671Y-77760990D01*
X181206972Y-77743711D01*
X181182564Y-77724750D01*
X181097316Y-77639502D01*
X181097314Y-77639500D01*
X181040250Y-77606554D01*
X180983187Y-77573608D01*
X180919539Y-77556554D01*
X180855892Y-77539500D01*
X180724108Y-77539500D01*
X180596812Y-77573608D01*
X180482686Y-77639500D01*
X180482683Y-77639502D01*
X180389502Y-77732683D01*
X180389500Y-77732686D01*
X180323608Y-77846812D01*
X180289500Y-77974108D01*
X175510500Y-77974108D01*
X175476392Y-77846814D01*
X175410500Y-77732686D01*
X175317314Y-77639500D01*
X175260250Y-77606554D01*
X175203187Y-77573608D01*
X175139539Y-77556554D01*
X175075892Y-77539500D01*
X174944108Y-77539500D01*
X174816812Y-77573608D01*
X174702686Y-77639500D01*
X174617435Y-77724751D01*
X174556111Y-77758235D01*
X174486420Y-77753251D01*
X174430486Y-77711379D01*
X174415193Y-77684521D01*
X174377572Y-77593695D01*
X174377566Y-77593683D01*
X174279076Y-77446283D01*
X174279073Y-77446279D01*
X174153720Y-77320926D01*
X174153716Y-77320923D01*
X174006316Y-77222433D01*
X174006307Y-77222428D01*
X173842520Y-77154586D01*
X173842512Y-77154584D01*
X173780000Y-77142149D01*
X173780000Y-77795735D01*
X173764205Y-77779940D01*
X173695796Y-77740444D01*
X173619496Y-77720000D01*
X173540504Y-77720000D01*
X173464204Y-77740444D01*
X173395795Y-77779940D01*
X173380000Y-77795735D01*
X173380000Y-77142149D01*
X173317487Y-77154584D01*
X173317479Y-77154586D01*
X173153692Y-77222428D01*
X173153683Y-77222433D01*
X173006283Y-77320923D01*
X173006279Y-77320926D01*
X172880926Y-77446279D01*
X172880923Y-77446283D01*
X172782433Y-77593683D01*
X172782428Y-77593692D01*
X172714586Y-77757479D01*
X172714584Y-77757487D01*
X172680000Y-77931353D01*
X142000000Y-77931353D01*
X142000000Y-74489818D01*
X143400000Y-74489818D01*
X143400000Y-74710181D01*
X143434473Y-74927835D01*
X143502567Y-75137410D01*
X143602613Y-75333760D01*
X143678688Y-75438467D01*
X143678689Y-75438468D01*
X144331980Y-74785176D01*
X144334075Y-74792993D01*
X144399901Y-74907007D01*
X144492993Y-75000099D01*
X144607007Y-75065925D01*
X144614822Y-75068019D01*
X143961530Y-75721310D01*
X144066239Y-75797386D01*
X144262589Y-75897432D01*
X144472164Y-75965526D01*
X144689819Y-76000000D01*
X144910181Y-76000000D01*
X145127835Y-75965526D01*
X145337410Y-75897432D01*
X145533752Y-75797390D01*
X145533758Y-75797386D01*
X145638467Y-75721310D01*
X145638468Y-75721309D01*
X144985178Y-75068019D01*
X144992993Y-75065925D01*
X145107007Y-75000099D01*
X145200099Y-74907007D01*
X145265925Y-74792993D01*
X145268019Y-74785177D01*
X145921309Y-75438468D01*
X145921310Y-75438467D01*
X145997386Y-75333758D01*
X145997390Y-75333752D01*
X146097432Y-75137410D01*
X146165526Y-74927835D01*
X146200000Y-74710181D01*
X146200000Y-74489818D01*
X146176940Y-74344223D01*
X146174639Y-74329697D01*
X163362000Y-74329697D01*
X163362000Y-74540302D01*
X163394946Y-74748316D01*
X163460028Y-74948618D01*
X163519800Y-75065925D01*
X163555640Y-75136265D01*
X163679431Y-75306648D01*
X163828352Y-75455569D01*
X163998735Y-75579360D01*
X164050499Y-75605735D01*
X164186381Y-75674971D01*
X164186383Y-75674971D01*
X164186386Y-75674973D01*
X164386684Y-75740054D01*
X164594697Y-75773000D01*
X164594698Y-75773000D01*
X164805302Y-75773000D01*
X164805303Y-75773000D01*
X165013316Y-75740054D01*
X165213614Y-75674973D01*
X165401265Y-75579360D01*
X165571648Y-75455569D01*
X165720569Y-75306648D01*
X165844360Y-75136265D01*
X165939973Y-74948614D01*
X166005054Y-74748316D01*
X166038000Y-74540303D01*
X166038000Y-74501577D01*
X168249500Y-74501577D01*
X168249500Y-74698422D01*
X168280290Y-74892826D01*
X168341117Y-75080029D01*
X168424637Y-75243946D01*
X168430476Y-75255405D01*
X168546172Y-75414646D01*
X168685354Y-75553828D01*
X168844595Y-75669524D01*
X168901301Y-75698417D01*
X169019970Y-75758882D01*
X169019972Y-75758882D01*
X169019975Y-75758884D01*
X169120317Y-75791487D01*
X169207173Y-75819709D01*
X169401578Y-75850500D01*
X169401583Y-75850500D01*
X169598422Y-75850500D01*
X169792826Y-75819709D01*
X169861516Y-75797390D01*
X169980025Y-75758884D01*
X170155405Y-75669524D01*
X170314646Y-75553828D01*
X170453828Y-75414646D01*
X170569524Y-75255405D01*
X170658884Y-75080025D01*
X170719709Y-74892826D01*
X170736731Y-74785352D01*
X170750500Y-74698422D01*
X170750500Y-74501577D01*
X170719709Y-74307173D01*
X170658881Y-74119967D01*
X170624027Y-74051562D01*
X170624026Y-74051561D01*
X170598443Y-74001353D01*
X172680000Y-74001353D01*
X172680000Y-74190000D01*
X173280000Y-74190000D01*
X173280000Y-74590000D01*
X172680000Y-74590000D01*
X172680000Y-74778646D01*
X172714584Y-74952512D01*
X172714586Y-74952520D01*
X172782428Y-75116307D01*
X172782433Y-75116316D01*
X172880923Y-75263716D01*
X172880926Y-75263720D01*
X173006279Y-75389073D01*
X173006283Y-75389076D01*
X173153683Y-75487566D01*
X173153696Y-75487573D01*
X173317474Y-75555411D01*
X173317482Y-75555413D01*
X173380000Y-75567848D01*
X173380000Y-74914265D01*
X173395795Y-74930060D01*
X173464204Y-74969556D01*
X173540504Y-74990000D01*
X173619496Y-74990000D01*
X173695796Y-74969556D01*
X173764205Y-74930060D01*
X173780000Y-74914265D01*
X173780000Y-75567847D01*
X173842517Y-75555413D01*
X173842525Y-75555411D01*
X174006303Y-75487573D01*
X174006316Y-75487566D01*
X174153716Y-75389076D01*
X174153720Y-75389073D01*
X174279073Y-75263720D01*
X174279076Y-75263716D01*
X174377566Y-75116316D01*
X174377571Y-75116307D01*
X174445413Y-74952520D01*
X174445415Y-74952512D01*
X174479999Y-74778646D01*
X174480000Y-74778643D01*
X174480000Y-74590000D01*
X173880000Y-74590000D01*
X173880000Y-74190000D01*
X174480000Y-74190000D01*
X174480000Y-74001357D01*
X174479999Y-74001353D01*
X181320000Y-74001353D01*
X181320000Y-74190000D01*
X181920000Y-74190000D01*
X181920000Y-74590000D01*
X181320000Y-74590000D01*
X181320000Y-74778646D01*
X181354584Y-74952512D01*
X181354586Y-74952520D01*
X181422428Y-75116307D01*
X181422433Y-75116316D01*
X181520923Y-75263716D01*
X181520926Y-75263720D01*
X181646279Y-75389073D01*
X181646283Y-75389076D01*
X181793683Y-75487566D01*
X181793696Y-75487573D01*
X181957474Y-75555411D01*
X181957482Y-75555413D01*
X182020000Y-75567848D01*
X182020000Y-74914265D01*
X182035795Y-74930060D01*
X182104204Y-74969556D01*
X182180504Y-74990000D01*
X182259496Y-74990000D01*
X182335796Y-74969556D01*
X182404205Y-74930060D01*
X182420000Y-74914265D01*
X182420000Y-75567847D01*
X182482517Y-75555413D01*
X182482525Y-75555411D01*
X182612494Y-75501577D01*
X207049500Y-75501577D01*
X207049500Y-75698422D01*
X207080290Y-75892826D01*
X207141117Y-76080029D01*
X207191947Y-76179788D01*
X207230476Y-76255405D01*
X207346172Y-76414646D01*
X207485354Y-76553828D01*
X207644595Y-76669524D01*
X207727455Y-76711743D01*
X207819970Y-76758882D01*
X207819972Y-76758882D01*
X207819975Y-76758884D01*
X207920317Y-76791487D01*
X208007173Y-76819709D01*
X208201578Y-76850500D01*
X208201583Y-76850500D01*
X208398422Y-76850500D01*
X208592826Y-76819709D01*
X208780025Y-76758884D01*
X208955405Y-76669524D01*
X209114646Y-76553828D01*
X209253828Y-76414646D01*
X209369524Y-76255405D01*
X209458884Y-76080025D01*
X209519709Y-75892826D01*
X209526413Y-75850500D01*
X209550500Y-75698422D01*
X209550500Y-75501577D01*
X209519709Y-75307173D01*
X209458882Y-75119970D01*
X209411743Y-75027455D01*
X209369524Y-74944595D01*
X209253828Y-74785354D01*
X209114646Y-74646172D01*
X208955405Y-74530476D01*
X208780029Y-74441117D01*
X208592826Y-74380290D01*
X208398422Y-74349500D01*
X208398417Y-74349500D01*
X208201583Y-74349500D01*
X208201578Y-74349500D01*
X208007173Y-74380290D01*
X207819970Y-74441117D01*
X207644594Y-74530476D01*
X207631069Y-74540303D01*
X207485354Y-74646172D01*
X207485352Y-74646174D01*
X207485351Y-74646174D01*
X207346174Y-74785351D01*
X207346174Y-74785352D01*
X207346172Y-74785354D01*
X207340622Y-74792993D01*
X207230476Y-74944594D01*
X207141117Y-75119970D01*
X207080290Y-75307173D01*
X207049500Y-75501577D01*
X182612494Y-75501577D01*
X182646303Y-75487573D01*
X182646316Y-75487566D01*
X182786933Y-75393609D01*
X182786934Y-75393608D01*
X182786935Y-75393608D01*
X182793715Y-75389077D01*
X182793720Y-75389073D01*
X182919073Y-75263720D01*
X182919076Y-75263716D01*
X183017566Y-75116316D01*
X183017571Y-75116307D01*
X183085413Y-74952520D01*
X183085415Y-74952512D01*
X183119999Y-74778646D01*
X183120000Y-74778643D01*
X183120000Y-74590000D01*
X182520000Y-74590000D01*
X182520000Y-74190000D01*
X183120000Y-74190000D01*
X183120000Y-74001357D01*
X183119999Y-74001353D01*
X183085415Y-73827487D01*
X183085413Y-73827479D01*
X183017571Y-73663692D01*
X183017566Y-73663683D01*
X182919076Y-73516283D01*
X182919073Y-73516279D01*
X182793720Y-73390926D01*
X182793716Y-73390923D01*
X182646316Y-73292433D01*
X182646307Y-73292428D01*
X182482520Y-73224586D01*
X182482512Y-73224584D01*
X182420000Y-73212149D01*
X182420000Y-73865735D01*
X182404205Y-73849940D01*
X182335796Y-73810444D01*
X182259496Y-73790000D01*
X182180504Y-73790000D01*
X182104204Y-73810444D01*
X182035795Y-73849940D01*
X182020000Y-73865735D01*
X182020000Y-73212149D01*
X181957487Y-73224584D01*
X181957479Y-73224586D01*
X181793692Y-73292428D01*
X181793683Y-73292433D01*
X181646283Y-73390923D01*
X181646279Y-73390926D01*
X181520926Y-73516279D01*
X181520923Y-73516283D01*
X181422433Y-73663683D01*
X181422428Y-73663692D01*
X181354586Y-73827479D01*
X181354584Y-73827487D01*
X181320000Y-74001353D01*
X174479999Y-74001353D01*
X174445415Y-73827487D01*
X174445413Y-73827479D01*
X174377571Y-73663692D01*
X174377566Y-73663683D01*
X174279076Y-73516283D01*
X174279073Y-73516279D01*
X174153720Y-73390926D01*
X174153716Y-73390923D01*
X174006316Y-73292433D01*
X174006307Y-73292428D01*
X173842520Y-73224586D01*
X173842512Y-73224584D01*
X173780000Y-73212149D01*
X173780000Y-73865735D01*
X173764205Y-73849940D01*
X173695796Y-73810444D01*
X173619496Y-73790000D01*
X173540504Y-73790000D01*
X173464204Y-73810444D01*
X173395795Y-73849940D01*
X173380000Y-73865735D01*
X173380000Y-73212149D01*
X173317487Y-73224584D01*
X173317479Y-73224586D01*
X173153692Y-73292428D01*
X173153683Y-73292433D01*
X173006283Y-73390923D01*
X173006279Y-73390926D01*
X172880926Y-73516279D01*
X172880923Y-73516283D01*
X172782433Y-73663683D01*
X172782428Y-73663692D01*
X172714586Y-73827479D01*
X172714584Y-73827487D01*
X172680000Y-74001353D01*
X170598443Y-74001353D01*
X170569523Y-73944594D01*
X170453828Y-73785354D01*
X170314646Y-73646172D01*
X170155405Y-73530476D01*
X169980029Y-73441117D01*
X169792826Y-73380290D01*
X169598422Y-73349500D01*
X169598417Y-73349500D01*
X169401583Y-73349500D01*
X169401578Y-73349500D01*
X169207173Y-73380290D01*
X169019970Y-73441117D01*
X168844594Y-73530476D01*
X168799349Y-73563349D01*
X168685354Y-73646172D01*
X168685352Y-73646174D01*
X168685351Y-73646174D01*
X168546174Y-73785351D01*
X168546174Y-73785352D01*
X168546172Y-73785354D01*
X168499247Y-73849940D01*
X168430476Y-73944594D01*
X168341117Y-74119970D01*
X168280290Y-74307173D01*
X168249500Y-74501577D01*
X166038000Y-74501577D01*
X166038000Y-74329697D01*
X166005054Y-74121684D01*
X165939973Y-73921386D01*
X165939971Y-73921383D01*
X165939971Y-73921381D01*
X165870660Y-73785352D01*
X165844360Y-73733735D01*
X165720569Y-73563352D01*
X165571648Y-73414431D01*
X165401265Y-73290640D01*
X165213618Y-73195028D01*
X165013316Y-73129946D01*
X164805303Y-73097000D01*
X164594697Y-73097000D01*
X164490690Y-73113473D01*
X164386683Y-73129946D01*
X164186381Y-73195028D01*
X163998734Y-73290640D01*
X163917721Y-73349500D01*
X163828352Y-73414431D01*
X163828350Y-73414433D01*
X163828349Y-73414433D01*
X163679433Y-73563349D01*
X163679433Y-73563350D01*
X163679431Y-73563352D01*
X163626267Y-73636524D01*
X163555640Y-73733734D01*
X163460028Y-73921381D01*
X163394946Y-74121683D01*
X163362000Y-74329697D01*
X146174639Y-74329697D01*
X146165526Y-74272164D01*
X146097432Y-74062589D01*
X145997386Y-73866239D01*
X145921310Y-73761531D01*
X145921310Y-73761530D01*
X145268019Y-74414821D01*
X145265925Y-74407007D01*
X145200099Y-74292993D01*
X145107007Y-74199901D01*
X144992993Y-74134075D01*
X144985177Y-74131980D01*
X145638468Y-73478689D01*
X145638467Y-73478688D01*
X145533760Y-73402613D01*
X145337410Y-73302567D01*
X145127835Y-73234473D01*
X144910181Y-73200000D01*
X144689819Y-73200000D01*
X144472164Y-73234473D01*
X144262589Y-73302567D01*
X144066236Y-73402615D01*
X143961531Y-73478687D01*
X143961530Y-73478688D01*
X144614823Y-74131980D01*
X144607007Y-74134075D01*
X144492993Y-74199901D01*
X144399901Y-74292993D01*
X144334075Y-74407007D01*
X144331980Y-74414822D01*
X143678688Y-73761530D01*
X143678687Y-73761531D01*
X143602615Y-73866236D01*
X143502567Y-74062589D01*
X143434473Y-74272164D01*
X143400000Y-74489818D01*
X142000000Y-74489818D01*
X142000000Y-72006092D01*
X142000597Y-71993938D01*
X142018018Y-71817056D01*
X142022757Y-71793232D01*
X142072577Y-71628994D01*
X142081873Y-71606553D01*
X142103526Y-71566043D01*
X142152487Y-71516202D01*
X142212882Y-71500500D01*
X212954519Y-71500500D01*
X213021558Y-71520185D01*
G37*
%TD.AperFunction*%
%TD*%
M02*
