%TF.GenerationSoftware,KiCad,Pcbnew,10.0.4*%
%TF.CreationDate,2026-08-16T19:36:20+03:00*%
%TF.ProjectId,smartlada_revC,736d6172-746c-4616-9461-5f726576432e,rev?*%
%TF.SameCoordinates,Original*%
%TF.FileFunction,Drillmap*%
%TF.FilePolarity,Positive*%
%FSLAX45Y45*%
G04 Gerber Fmt 4.5, Leading zero omitted, Abs format (unit mm)*
G04 Created by KiCad (PCBNEW 10.0.4) date 2026-08-16 19:36:20*
%MOMM*%
%LPD*%
G01*
G04 APERTURE LIST*
%ADD10C,0.200000*%
%ADD11C,0.100000*%
%ADD12C,0.145000*%
G04 APERTURE END LIST*
D10*
X13000000Y-7100000D02*
X23000000Y-7100000D01*
X23000000Y-13000000D01*
X13000000Y-13000000D01*
X13000000Y-7100000D01*
D11*
X14405000Y-7625000D02*
X14445000Y-7665000D01*
X14445000Y-7625000D02*
X14405000Y-7665000D01*
X14535000Y-7615000D02*
X14575000Y-7655000D01*
X14575000Y-7615000D02*
X14535000Y-7655000D01*
X14605000Y-7315000D02*
X14645000Y-7355000D01*
X14645000Y-7315000D02*
X14605000Y-7355000D01*
X14625000Y-7535000D02*
X14665000Y-7575000D01*
X14665000Y-7535000D02*
X14625000Y-7575000D01*
X14640000Y-9170000D02*
X14680000Y-9210000D01*
X14680000Y-9170000D02*
X14640000Y-9210000D01*
X14650000Y-7415000D02*
X14690000Y-7455000D01*
X14690000Y-7415000D02*
X14650000Y-7455000D01*
X16190000Y-9170000D02*
X16230000Y-9210000D01*
X16230000Y-9170000D02*
X16190000Y-9210000D01*
X16680000Y-8725000D02*
X16720000Y-8765000D01*
X16720000Y-8725000D02*
X16680000Y-8765000D01*
X17100000Y-9240000D02*
X17140000Y-9280000D01*
X17140000Y-9240000D02*
X17100000Y-9280000D01*
X17250000Y-9230000D02*
X17290000Y-9270000D01*
X17290000Y-9230000D02*
X17250000Y-9270000D01*
X17445000Y-8120000D02*
X17485000Y-8160000D01*
X17485000Y-8120000D02*
X17445000Y-8160000D01*
X17600000Y-8120000D02*
X17640000Y-8160000D01*
X17640000Y-8120000D02*
X17600000Y-8160000D01*
X17767500Y-9077500D02*
X17807500Y-9117500D01*
X17807500Y-9077500D02*
X17767500Y-9117500D01*
X17770000Y-8120000D02*
X17810000Y-8160000D01*
X17810000Y-8120000D02*
X17770000Y-8160000D01*
X17830000Y-9140000D02*
X17870000Y-9180000D01*
X17870000Y-9140000D02*
X17830000Y-9180000D01*
X18010000Y-8365000D02*
X18050000Y-8405000D01*
X18050000Y-8365000D02*
X18010000Y-8405000D01*
X18520000Y-7818750D02*
X18560000Y-7858750D01*
X18560000Y-7818750D02*
X18520000Y-7858750D01*
X19080000Y-10615000D02*
X19120000Y-10655000D01*
X19120000Y-10615000D02*
X19080000Y-10655000D01*
X19080000Y-11770000D02*
X19120000Y-11810000D01*
X19120000Y-11770000D02*
X19080000Y-11810000D01*
X19165000Y-8450000D02*
X19205000Y-8490000D01*
X19205000Y-8450000D02*
X19165000Y-8490000D01*
X19450000Y-7880000D02*
X19490000Y-7920000D01*
X19490000Y-7880000D02*
X19450000Y-7920000D01*
X20200000Y-8450000D02*
X20240000Y-8490000D01*
X20240000Y-8450000D02*
X20200000Y-8490000D01*
X20230000Y-7550000D02*
X20270000Y-7590000D01*
X20270000Y-7550000D02*
X20230000Y-7590000D01*
X20730000Y-10750000D02*
X20770000Y-10790000D01*
X20770000Y-10750000D02*
X20730000Y-10790000D01*
X20732500Y-11730000D02*
X20772500Y-11770000D01*
X20772500Y-11730000D02*
X20732500Y-11770000D01*
X20805000Y-8310000D02*
X20845000Y-8350000D01*
X20845000Y-8310000D02*
X20805000Y-8350000D01*
X20805000Y-8460000D02*
X20845000Y-8500000D01*
X20845000Y-8460000D02*
X20805000Y-8500000D01*
X20805000Y-8610000D02*
X20845000Y-8650000D01*
X20845000Y-8610000D02*
X20805000Y-8650000D01*
X20805000Y-8760000D02*
X20845000Y-8800000D01*
X20845000Y-8760000D02*
X20805000Y-8800000D01*
X20925000Y-8310000D02*
X20965000Y-8350000D01*
X20965000Y-8310000D02*
X20925000Y-8350000D01*
X20925000Y-8460000D02*
X20965000Y-8500000D01*
X20965000Y-8460000D02*
X20925000Y-8500000D01*
X20925000Y-8610000D02*
X20965000Y-8650000D01*
X20965000Y-8610000D02*
X20925000Y-8650000D01*
X20925000Y-8760000D02*
X20965000Y-8800000D01*
X20965000Y-8760000D02*
X20925000Y-8800000D01*
X21080000Y-7700000D02*
X21120000Y-7740000D01*
X21120000Y-7700000D02*
X21080000Y-7740000D01*
X21820000Y-9250000D02*
X21860000Y-9290000D01*
X21860000Y-9250000D02*
X21820000Y-9290000D01*
X22535000Y-8610000D02*
X22575000Y-8650000D01*
X22575000Y-8610000D02*
X22535000Y-8650000D01*
X22660000Y-8735000D02*
X22700000Y-8775000D01*
X22700000Y-8735000D02*
X22660000Y-8775000D01*
X22810000Y-11510000D02*
X22850000Y-11550000D01*
X22850000Y-11510000D02*
X22810000Y-11550000D01*
X22831250Y-9130000D02*
X22871250Y-9170000D01*
X22871250Y-9130000D02*
X22831250Y-9170000D01*
X22882000Y-11438000D02*
X22922000Y-11478000D01*
X22922000Y-11438000D02*
X22882000Y-11478000D01*
X16720000Y-9000000D02*
G75*
G02*
X16680000Y-9000000I-20000J0D01*
G01*
X16680000Y-9000000D02*
G75*
G02*
X16720000Y-9000000I20000J0D01*
G01*
X16720000Y-9127000D02*
G75*
G02*
X16680000Y-9127000I-20000J0D01*
G01*
X16680000Y-9127000D02*
G75*
G02*
X16720000Y-9127000I20000J0D01*
G01*
X22225000Y-10242000D02*
G75*
G02*
X22185000Y-10242000I-20000J0D01*
G01*
X22185000Y-10242000D02*
G75*
G02*
X22225000Y-10242000I20000J0D01*
G01*
X22225000Y-10367000D02*
G75*
G02*
X22185000Y-10367000I-20000J0D01*
G01*
X22185000Y-10367000D02*
G75*
G02*
X22225000Y-10367000I20000J0D01*
G01*
X22287500Y-10179500D02*
G75*
G02*
X22247500Y-10179500I-20000J0D01*
G01*
X22247500Y-10179500D02*
G75*
G02*
X22287500Y-10179500I20000J0D01*
G01*
X22287500Y-10304500D02*
G75*
G02*
X22247500Y-10304500I-20000J0D01*
G01*
X22247500Y-10304500D02*
G75*
G02*
X22287500Y-10304500I20000J0D01*
G01*
X22287500Y-10429500D02*
G75*
G02*
X22247500Y-10429500I-20000J0D01*
G01*
X22247500Y-10429500D02*
G75*
G02*
X22287500Y-10429500I20000J0D01*
G01*
X22350000Y-10242000D02*
G75*
G02*
X22310000Y-10242000I-20000J0D01*
G01*
X22310000Y-10242000D02*
G75*
G02*
X22350000Y-10242000I20000J0D01*
G01*
X22350000Y-10367000D02*
G75*
G02*
X22310000Y-10367000I-20000J0D01*
G01*
X22310000Y-10367000D02*
G75*
G02*
X22350000Y-10367000I20000J0D01*
G01*
X22412500Y-10179500D02*
G75*
G02*
X22372500Y-10179500I-20000J0D01*
G01*
X22372500Y-10179500D02*
G75*
G02*
X22412500Y-10179500I20000J0D01*
G01*
X22412500Y-10304500D02*
G75*
G02*
X22372500Y-10304500I-20000J0D01*
G01*
X22372500Y-10304500D02*
G75*
G02*
X22412500Y-10304500I20000J0D01*
G01*
X22412500Y-10429500D02*
G75*
G02*
X22372500Y-10429500I-20000J0D01*
G01*
X22372500Y-10429500D02*
G75*
G02*
X22412500Y-10429500I20000J0D01*
G01*
X22475000Y-10242000D02*
G75*
G02*
X22435000Y-10242000I-20000J0D01*
G01*
X22435000Y-10242000D02*
G75*
G02*
X22475000Y-10242000I20000J0D01*
G01*
X22475000Y-10367000D02*
G75*
G02*
X22435000Y-10367000I-20000J0D01*
G01*
X22435000Y-10367000D02*
G75*
G02*
X22475000Y-10367000I20000J0D01*
G01*
X17358000Y-7409000D02*
X17358000Y-7469000D01*
X17328000Y-7439000D02*
X17388000Y-7439000D01*
X17388000Y-7469000D02*
X17388000Y-7409000D01*
X17328000Y-7409000D02*
G75*
G02*
X17388000Y-7409000I30000J0D01*
G01*
X17328000Y-7409000D02*
X17328000Y-7469000D01*
X17328000Y-7469000D02*
G75*
G03*
X17388000Y-7469000I30000J0D01*
G01*
X17358000Y-7827000D02*
X17358000Y-7887000D01*
X17328000Y-7857000D02*
X17388000Y-7857000D01*
X17388000Y-7912000D02*
X17388000Y-7802000D01*
X17328000Y-7802000D02*
G75*
G02*
X17388000Y-7802000I30000J0D01*
G01*
X17328000Y-7802000D02*
X17328000Y-7912000D01*
X17328000Y-7912000D02*
G75*
G03*
X17388000Y-7912000I30000J0D01*
G01*
X18222000Y-7409000D02*
X18222000Y-7469000D01*
X18192000Y-7439000D02*
X18252000Y-7439000D01*
X18252000Y-7469000D02*
X18252000Y-7409000D01*
X18192000Y-7409000D02*
G75*
G02*
X18252000Y-7409000I30000J0D01*
G01*
X18192000Y-7409000D02*
X18192000Y-7469000D01*
X18192000Y-7469000D02*
G75*
G03*
X18252000Y-7469000I30000J0D01*
G01*
X18222000Y-7827000D02*
X18222000Y-7887000D01*
X18192000Y-7857000D02*
X18252000Y-7857000D01*
X18252000Y-7912000D02*
X18252000Y-7802000D01*
X18192000Y-7802000D02*
G75*
G02*
X18252000Y-7802000I30000J0D01*
G01*
X18192000Y-7802000D02*
X18192000Y-7912000D01*
X18192000Y-7912000D02*
G75*
G03*
X18252000Y-7912000I30000J0D01*
G01*
X14515356Y-7495356D02*
X14515356Y-7424644D01*
X14444644Y-7424644D01*
X14444644Y-7495356D01*
X14515356Y-7495356D01*
X16985356Y-7495356D02*
X16985356Y-7424644D01*
X16914644Y-7424644D01*
X16914644Y-7495356D01*
X16985356Y-7495356D01*
X17501356Y-11966856D02*
X17501356Y-11896144D01*
X17430644Y-11896144D01*
X17430644Y-11966856D01*
X17501356Y-11966856D01*
X17755356Y-11966856D02*
X17755356Y-11896144D01*
X17684644Y-11896144D01*
X17684644Y-11966856D01*
X17755356Y-11966856D01*
X18009356Y-11966856D02*
X18009356Y-11896144D01*
X17938644Y-11896144D01*
X17938644Y-11966856D01*
X18009356Y-11966856D01*
X18275356Y-9445356D02*
X18275356Y-9374644D01*
X18204644Y-9374644D01*
X18204644Y-9445356D01*
X18275356Y-9445356D01*
X20021356Y-11975356D02*
X20021356Y-11904644D01*
X19950644Y-11904644D01*
X19950644Y-11975356D01*
X20021356Y-11975356D01*
X20275356Y-11975356D02*
X20275356Y-11904644D01*
X20204644Y-11904644D01*
X20204644Y-11975356D01*
X20275356Y-11975356D01*
X20529356Y-11975356D02*
X20529356Y-11904644D01*
X20458644Y-11904644D01*
X20458644Y-11975356D01*
X20529356Y-11975356D01*
X20783356Y-11975356D02*
X20783356Y-11904644D01*
X20712644Y-11904644D01*
X20712644Y-11975356D01*
X20783356Y-11975356D01*
X20865356Y-7595356D02*
X20865356Y-7524644D01*
X20794644Y-7524644D01*
X20794644Y-7595356D01*
X20865356Y-7595356D01*
X21037356Y-11975356D02*
X21037356Y-11904644D01*
X20966644Y-11904644D01*
X20966644Y-11975356D01*
X21037356Y-11975356D01*
X21291356Y-11975356D02*
X21291356Y-11904644D01*
X21220644Y-11904644D01*
X21220644Y-11975356D01*
X21291356Y-11975356D01*
X21545356Y-11975356D02*
X21545356Y-11904644D01*
X21474644Y-11904644D01*
X21474644Y-11975356D01*
X21545356Y-11975356D01*
X21799356Y-11975356D02*
X21799356Y-11904644D01*
X21728644Y-11904644D01*
X21728644Y-11975356D01*
X21799356Y-11975356D01*
D12*
X13345650Y-8651100D02*
X13418150Y-8578600D01*
X13345650Y-8506100D01*
X13273150Y-8578600D01*
X13345650Y-8651100D01*
X13349890Y-9611567D02*
X13422390Y-9539067D01*
X13349890Y-9466567D01*
X13277390Y-9539067D01*
X13349890Y-9611567D01*
X13349890Y-10572033D02*
X13422390Y-10499533D01*
X13349890Y-10427033D01*
X13277390Y-10499533D01*
X13349890Y-10572033D01*
X13356000Y-11532500D02*
X13428500Y-11460000D01*
X13356000Y-11387500D01*
X13283500Y-11460000D01*
X13356000Y-11532500D01*
X13853650Y-8651100D02*
X13926150Y-8578600D01*
X13853650Y-8506100D01*
X13781150Y-8578600D01*
X13853650Y-8651100D01*
X13857890Y-9611567D02*
X13930390Y-9539067D01*
X13857890Y-9466567D01*
X13785390Y-9539067D01*
X13857890Y-9611567D01*
X13857890Y-10572033D02*
X13930390Y-10499533D01*
X13857890Y-10427033D01*
X13785390Y-10499533D01*
X13857890Y-10572033D01*
X13864000Y-11532500D02*
X13936500Y-11460000D01*
X13864000Y-11387500D01*
X13791500Y-11460000D01*
X13864000Y-11532500D01*
X16470000Y-7516000D02*
X16542500Y-7443500D01*
X16470000Y-7371000D01*
X16397500Y-7443500D01*
X16470000Y-7516000D01*
X16470000Y-8024000D02*
X16542500Y-7951500D01*
X16470000Y-7879000D01*
X16397500Y-7951500D01*
X16470000Y-8024000D01*
D10*
X13250777Y-13321484D02*
X13250777Y-13121484D01*
X13250777Y-13121484D02*
X13298396Y-13121484D01*
X13298396Y-13121484D02*
X13326967Y-13131008D01*
X13326967Y-13131008D02*
X13346015Y-13150055D01*
X13346015Y-13150055D02*
X13355539Y-13169103D01*
X13355539Y-13169103D02*
X13365062Y-13207198D01*
X13365062Y-13207198D02*
X13365062Y-13235769D01*
X13365062Y-13235769D02*
X13355539Y-13273865D01*
X13355539Y-13273865D02*
X13346015Y-13292912D01*
X13346015Y-13292912D02*
X13326967Y-13311960D01*
X13326967Y-13311960D02*
X13298396Y-13321484D01*
X13298396Y-13321484D02*
X13250777Y-13321484D01*
X13450777Y-13321484D02*
X13450777Y-13188150D01*
X13450777Y-13226246D02*
X13460301Y-13207198D01*
X13460301Y-13207198D02*
X13469824Y-13197674D01*
X13469824Y-13197674D02*
X13488872Y-13188150D01*
X13488872Y-13188150D02*
X13507920Y-13188150D01*
X13574586Y-13321484D02*
X13574586Y-13188150D01*
X13574586Y-13121484D02*
X13565062Y-13131008D01*
X13565062Y-13131008D02*
X13574586Y-13140531D01*
X13574586Y-13140531D02*
X13584110Y-13131008D01*
X13584110Y-13131008D02*
X13574586Y-13121484D01*
X13574586Y-13121484D02*
X13574586Y-13140531D01*
X13698396Y-13321484D02*
X13679348Y-13311960D01*
X13679348Y-13311960D02*
X13669824Y-13292912D01*
X13669824Y-13292912D02*
X13669824Y-13121484D01*
X13803158Y-13321484D02*
X13784110Y-13311960D01*
X13784110Y-13311960D02*
X13774586Y-13292912D01*
X13774586Y-13292912D02*
X13774586Y-13121484D01*
X14031729Y-13321484D02*
X14031729Y-13121484D01*
X14031729Y-13121484D02*
X14098396Y-13264341D01*
X14098396Y-13264341D02*
X14165062Y-13121484D01*
X14165062Y-13121484D02*
X14165062Y-13321484D01*
X14346015Y-13321484D02*
X14346015Y-13216722D01*
X14346015Y-13216722D02*
X14336491Y-13197674D01*
X14336491Y-13197674D02*
X14317443Y-13188150D01*
X14317443Y-13188150D02*
X14279348Y-13188150D01*
X14279348Y-13188150D02*
X14260301Y-13197674D01*
X14346015Y-13311960D02*
X14326967Y-13321484D01*
X14326967Y-13321484D02*
X14279348Y-13321484D01*
X14279348Y-13321484D02*
X14260301Y-13311960D01*
X14260301Y-13311960D02*
X14250777Y-13292912D01*
X14250777Y-13292912D02*
X14250777Y-13273865D01*
X14250777Y-13273865D02*
X14260301Y-13254817D01*
X14260301Y-13254817D02*
X14279348Y-13245293D01*
X14279348Y-13245293D02*
X14326967Y-13245293D01*
X14326967Y-13245293D02*
X14346015Y-13235769D01*
X14441253Y-13188150D02*
X14441253Y-13388150D01*
X14441253Y-13197674D02*
X14460301Y-13188150D01*
X14460301Y-13188150D02*
X14498396Y-13188150D01*
X14498396Y-13188150D02*
X14517443Y-13197674D01*
X14517443Y-13197674D02*
X14526967Y-13207198D01*
X14526967Y-13207198D02*
X14536491Y-13226246D01*
X14536491Y-13226246D02*
X14536491Y-13283388D01*
X14536491Y-13283388D02*
X14526967Y-13302436D01*
X14526967Y-13302436D02*
X14517443Y-13311960D01*
X14517443Y-13311960D02*
X14498396Y-13321484D01*
X14498396Y-13321484D02*
X14460301Y-13321484D01*
X14460301Y-13321484D02*
X14441253Y-13311960D01*
X14622205Y-13302436D02*
X14631729Y-13311960D01*
X14631729Y-13311960D02*
X14622205Y-13321484D01*
X14622205Y-13321484D02*
X14612682Y-13311960D01*
X14612682Y-13311960D02*
X14622205Y-13302436D01*
X14622205Y-13302436D02*
X14622205Y-13321484D01*
X14622205Y-13197674D02*
X14631729Y-13207198D01*
X14631729Y-13207198D02*
X14622205Y-13216722D01*
X14622205Y-13216722D02*
X14612682Y-13207198D01*
X14612682Y-13207198D02*
X14622205Y-13197674D01*
X14622205Y-13197674D02*
X14622205Y-13216722D01*
D11*
X12950000Y-13630000D02*
X12990000Y-13670000D01*
X12990000Y-13630000D02*
X12950000Y-13670000D01*
D10*
X13288872Y-13541484D02*
X13307920Y-13541484D01*
X13307920Y-13541484D02*
X13326967Y-13551008D01*
X13326967Y-13551008D02*
X13336491Y-13560531D01*
X13336491Y-13560531D02*
X13346015Y-13579579D01*
X13346015Y-13579579D02*
X13355539Y-13617674D01*
X13355539Y-13617674D02*
X13355539Y-13665293D01*
X13355539Y-13665293D02*
X13346015Y-13703388D01*
X13346015Y-13703388D02*
X13336491Y-13722436D01*
X13336491Y-13722436D02*
X13326967Y-13731960D01*
X13326967Y-13731960D02*
X13307920Y-13741484D01*
X13307920Y-13741484D02*
X13288872Y-13741484D01*
X13288872Y-13741484D02*
X13269824Y-13731960D01*
X13269824Y-13731960D02*
X13260301Y-13722436D01*
X13260301Y-13722436D02*
X13250777Y-13703388D01*
X13250777Y-13703388D02*
X13241253Y-13665293D01*
X13241253Y-13665293D02*
X13241253Y-13617674D01*
X13241253Y-13617674D02*
X13250777Y-13579579D01*
X13250777Y-13579579D02*
X13260301Y-13560531D01*
X13260301Y-13560531D02*
X13269824Y-13551008D01*
X13269824Y-13551008D02*
X13288872Y-13541484D01*
X13441253Y-13722436D02*
X13450777Y-13731960D01*
X13450777Y-13731960D02*
X13441253Y-13741484D01*
X13441253Y-13741484D02*
X13431729Y-13731960D01*
X13431729Y-13731960D02*
X13441253Y-13722436D01*
X13441253Y-13722436D02*
X13441253Y-13741484D01*
X13622205Y-13608150D02*
X13622205Y-13741484D01*
X13574586Y-13531960D02*
X13526967Y-13674817D01*
X13526967Y-13674817D02*
X13650777Y-13674817D01*
X13765062Y-13541484D02*
X13784110Y-13541484D01*
X13784110Y-13541484D02*
X13803158Y-13551008D01*
X13803158Y-13551008D02*
X13812682Y-13560531D01*
X13812682Y-13560531D02*
X13822205Y-13579579D01*
X13822205Y-13579579D02*
X13831729Y-13617674D01*
X13831729Y-13617674D02*
X13831729Y-13665293D01*
X13831729Y-13665293D02*
X13822205Y-13703388D01*
X13822205Y-13703388D02*
X13812682Y-13722436D01*
X13812682Y-13722436D02*
X13803158Y-13731960D01*
X13803158Y-13731960D02*
X13784110Y-13741484D01*
X13784110Y-13741484D02*
X13765062Y-13741484D01*
X13765062Y-13741484D02*
X13746015Y-13731960D01*
X13746015Y-13731960D02*
X13736491Y-13722436D01*
X13736491Y-13722436D02*
X13726967Y-13703388D01*
X13726967Y-13703388D02*
X13717443Y-13665293D01*
X13717443Y-13665293D02*
X13717443Y-13617674D01*
X13717443Y-13617674D02*
X13726967Y-13579579D01*
X13726967Y-13579579D02*
X13736491Y-13560531D01*
X13736491Y-13560531D02*
X13746015Y-13551008D01*
X13746015Y-13551008D02*
X13765062Y-13541484D01*
X13955539Y-13541484D02*
X13974586Y-13541484D01*
X13974586Y-13541484D02*
X13993634Y-13551008D01*
X13993634Y-13551008D02*
X14003158Y-13560531D01*
X14003158Y-13560531D02*
X14012682Y-13579579D01*
X14012682Y-13579579D02*
X14022205Y-13617674D01*
X14022205Y-13617674D02*
X14022205Y-13665293D01*
X14022205Y-13665293D02*
X14012682Y-13703388D01*
X14012682Y-13703388D02*
X14003158Y-13722436D01*
X14003158Y-13722436D02*
X13993634Y-13731960D01*
X13993634Y-13731960D02*
X13974586Y-13741484D01*
X13974586Y-13741484D02*
X13955539Y-13741484D01*
X13955539Y-13741484D02*
X13936491Y-13731960D01*
X13936491Y-13731960D02*
X13926967Y-13722436D01*
X13926967Y-13722436D02*
X13917443Y-13703388D01*
X13917443Y-13703388D02*
X13907920Y-13665293D01*
X13907920Y-13665293D02*
X13907920Y-13617674D01*
X13907920Y-13617674D02*
X13917443Y-13579579D01*
X13917443Y-13579579D02*
X13926967Y-13560531D01*
X13926967Y-13560531D02*
X13936491Y-13551008D01*
X13936491Y-13551008D02*
X13955539Y-13541484D01*
X14107920Y-13741484D02*
X14107920Y-13608150D01*
X14107920Y-13627198D02*
X14117443Y-13617674D01*
X14117443Y-13617674D02*
X14136491Y-13608150D01*
X14136491Y-13608150D02*
X14165063Y-13608150D01*
X14165063Y-13608150D02*
X14184110Y-13617674D01*
X14184110Y-13617674D02*
X14193634Y-13636722D01*
X14193634Y-13636722D02*
X14193634Y-13741484D01*
X14193634Y-13636722D02*
X14203158Y-13617674D01*
X14203158Y-13617674D02*
X14222205Y-13608150D01*
X14222205Y-13608150D02*
X14250777Y-13608150D01*
X14250777Y-13608150D02*
X14269824Y-13617674D01*
X14269824Y-13617674D02*
X14279348Y-13636722D01*
X14279348Y-13636722D02*
X14279348Y-13741484D01*
X14374586Y-13741484D02*
X14374586Y-13608150D01*
X14374586Y-13627198D02*
X14384110Y-13617674D01*
X14384110Y-13617674D02*
X14403158Y-13608150D01*
X14403158Y-13608150D02*
X14431729Y-13608150D01*
X14431729Y-13608150D02*
X14450777Y-13617674D01*
X14450777Y-13617674D02*
X14460301Y-13636722D01*
X14460301Y-13636722D02*
X14460301Y-13741484D01*
X14460301Y-13636722D02*
X14469824Y-13617674D01*
X14469824Y-13617674D02*
X14488872Y-13608150D01*
X14488872Y-13608150D02*
X14517443Y-13608150D01*
X14517443Y-13608150D02*
X14536491Y-13617674D01*
X14536491Y-13617674D02*
X14546015Y-13636722D01*
X14546015Y-13636722D02*
X14546015Y-13741484D01*
X14936491Y-13531960D02*
X14765063Y-13789103D01*
X15193634Y-13541484D02*
X15212682Y-13541484D01*
X15212682Y-13541484D02*
X15231729Y-13551008D01*
X15231729Y-13551008D02*
X15241253Y-13560531D01*
X15241253Y-13560531D02*
X15250777Y-13579579D01*
X15250777Y-13579579D02*
X15260301Y-13617674D01*
X15260301Y-13617674D02*
X15260301Y-13665293D01*
X15260301Y-13665293D02*
X15250777Y-13703388D01*
X15250777Y-13703388D02*
X15241253Y-13722436D01*
X15241253Y-13722436D02*
X15231729Y-13731960D01*
X15231729Y-13731960D02*
X15212682Y-13741484D01*
X15212682Y-13741484D02*
X15193634Y-13741484D01*
X15193634Y-13741484D02*
X15174586Y-13731960D01*
X15174586Y-13731960D02*
X15165063Y-13722436D01*
X15165063Y-13722436D02*
X15155539Y-13703388D01*
X15155539Y-13703388D02*
X15146015Y-13665293D01*
X15146015Y-13665293D02*
X15146015Y-13617674D01*
X15146015Y-13617674D02*
X15155539Y-13579579D01*
X15155539Y-13579579D02*
X15165063Y-13560531D01*
X15165063Y-13560531D02*
X15174586Y-13551008D01*
X15174586Y-13551008D02*
X15193634Y-13541484D01*
X15346015Y-13722436D02*
X15355539Y-13731960D01*
X15355539Y-13731960D02*
X15346015Y-13741484D01*
X15346015Y-13741484D02*
X15336491Y-13731960D01*
X15336491Y-13731960D02*
X15346015Y-13722436D01*
X15346015Y-13722436D02*
X15346015Y-13741484D01*
X15479348Y-13541484D02*
X15498396Y-13541484D01*
X15498396Y-13541484D02*
X15517444Y-13551008D01*
X15517444Y-13551008D02*
X15526967Y-13560531D01*
X15526967Y-13560531D02*
X15536491Y-13579579D01*
X15536491Y-13579579D02*
X15546015Y-13617674D01*
X15546015Y-13617674D02*
X15546015Y-13665293D01*
X15546015Y-13665293D02*
X15536491Y-13703388D01*
X15536491Y-13703388D02*
X15526967Y-13722436D01*
X15526967Y-13722436D02*
X15517444Y-13731960D01*
X15517444Y-13731960D02*
X15498396Y-13741484D01*
X15498396Y-13741484D02*
X15479348Y-13741484D01*
X15479348Y-13741484D02*
X15460301Y-13731960D01*
X15460301Y-13731960D02*
X15450777Y-13722436D01*
X15450777Y-13722436D02*
X15441253Y-13703388D01*
X15441253Y-13703388D02*
X15431729Y-13665293D01*
X15431729Y-13665293D02*
X15431729Y-13617674D01*
X15431729Y-13617674D02*
X15441253Y-13579579D01*
X15441253Y-13579579D02*
X15450777Y-13560531D01*
X15450777Y-13560531D02*
X15460301Y-13551008D01*
X15460301Y-13551008D02*
X15479348Y-13541484D01*
X15736491Y-13741484D02*
X15622206Y-13741484D01*
X15679348Y-13741484D02*
X15679348Y-13541484D01*
X15679348Y-13541484D02*
X15660301Y-13570055D01*
X15660301Y-13570055D02*
X15641253Y-13589103D01*
X15641253Y-13589103D02*
X15622206Y-13598627D01*
X15917444Y-13541484D02*
X15822206Y-13541484D01*
X15822206Y-13541484D02*
X15812682Y-13636722D01*
X15812682Y-13636722D02*
X15822206Y-13627198D01*
X15822206Y-13627198D02*
X15841253Y-13617674D01*
X15841253Y-13617674D02*
X15888872Y-13617674D01*
X15888872Y-13617674D02*
X15907920Y-13627198D01*
X15907920Y-13627198D02*
X15917444Y-13636722D01*
X15917444Y-13636722D02*
X15926967Y-13655769D01*
X15926967Y-13655769D02*
X15926967Y-13703388D01*
X15926967Y-13703388D02*
X15917444Y-13722436D01*
X15917444Y-13722436D02*
X15907920Y-13731960D01*
X15907920Y-13731960D02*
X15888872Y-13741484D01*
X15888872Y-13741484D02*
X15841253Y-13741484D01*
X15841253Y-13741484D02*
X15822206Y-13731960D01*
X15822206Y-13731960D02*
X15812682Y-13722436D01*
X15993634Y-13541484D02*
X16126967Y-13541484D01*
X16126967Y-13541484D02*
X16041253Y-13741484D01*
X16193634Y-13541484D02*
X16193634Y-13579579D01*
X16269825Y-13541484D02*
X16269825Y-13579579D01*
X16565063Y-13817674D02*
X16555539Y-13808150D01*
X16555539Y-13808150D02*
X16536491Y-13779579D01*
X16536491Y-13779579D02*
X16526968Y-13760531D01*
X16526968Y-13760531D02*
X16517444Y-13731960D01*
X16517444Y-13731960D02*
X16507920Y-13684341D01*
X16507920Y-13684341D02*
X16507920Y-13646246D01*
X16507920Y-13646246D02*
X16517444Y-13598627D01*
X16517444Y-13598627D02*
X16526968Y-13570055D01*
X16526968Y-13570055D02*
X16536491Y-13551008D01*
X16536491Y-13551008D02*
X16555539Y-13522436D01*
X16555539Y-13522436D02*
X16565063Y-13512912D01*
X16726968Y-13608150D02*
X16726968Y-13741484D01*
X16679348Y-13531960D02*
X16631729Y-13674817D01*
X16631729Y-13674817D02*
X16755539Y-13674817D01*
X16869825Y-13541484D02*
X16888872Y-13541484D01*
X16888872Y-13541484D02*
X16907920Y-13551008D01*
X16907920Y-13551008D02*
X16917444Y-13560531D01*
X16917444Y-13560531D02*
X16926968Y-13579579D01*
X16926968Y-13579579D02*
X16936491Y-13617674D01*
X16936491Y-13617674D02*
X16936491Y-13665293D01*
X16936491Y-13665293D02*
X16926968Y-13703388D01*
X16926968Y-13703388D02*
X16917444Y-13722436D01*
X16917444Y-13722436D02*
X16907920Y-13731960D01*
X16907920Y-13731960D02*
X16888872Y-13741484D01*
X16888872Y-13741484D02*
X16869825Y-13741484D01*
X16869825Y-13741484D02*
X16850777Y-13731960D01*
X16850777Y-13731960D02*
X16841253Y-13722436D01*
X16841253Y-13722436D02*
X16831730Y-13703388D01*
X16831730Y-13703388D02*
X16822206Y-13665293D01*
X16822206Y-13665293D02*
X16822206Y-13617674D01*
X16822206Y-13617674D02*
X16831730Y-13579579D01*
X16831730Y-13579579D02*
X16841253Y-13560531D01*
X16841253Y-13560531D02*
X16850777Y-13551008D01*
X16850777Y-13551008D02*
X16869825Y-13541484D01*
X17174587Y-13741484D02*
X17174587Y-13541484D01*
X17260301Y-13741484D02*
X17260301Y-13636722D01*
X17260301Y-13636722D02*
X17250777Y-13617674D01*
X17250777Y-13617674D02*
X17231730Y-13608150D01*
X17231730Y-13608150D02*
X17203158Y-13608150D01*
X17203158Y-13608150D02*
X17184111Y-13617674D01*
X17184111Y-13617674D02*
X17174587Y-13627198D01*
X17384111Y-13741484D02*
X17365063Y-13731960D01*
X17365063Y-13731960D02*
X17355539Y-13722436D01*
X17355539Y-13722436D02*
X17346015Y-13703388D01*
X17346015Y-13703388D02*
X17346015Y-13646246D01*
X17346015Y-13646246D02*
X17355539Y-13627198D01*
X17355539Y-13627198D02*
X17365063Y-13617674D01*
X17365063Y-13617674D02*
X17384111Y-13608150D01*
X17384111Y-13608150D02*
X17412682Y-13608150D01*
X17412682Y-13608150D02*
X17431730Y-13617674D01*
X17431730Y-13617674D02*
X17441253Y-13627198D01*
X17441253Y-13627198D02*
X17450777Y-13646246D01*
X17450777Y-13646246D02*
X17450777Y-13703388D01*
X17450777Y-13703388D02*
X17441253Y-13722436D01*
X17441253Y-13722436D02*
X17431730Y-13731960D01*
X17431730Y-13731960D02*
X17412682Y-13741484D01*
X17412682Y-13741484D02*
X17384111Y-13741484D01*
X17565063Y-13741484D02*
X17546015Y-13731960D01*
X17546015Y-13731960D02*
X17536492Y-13712912D01*
X17536492Y-13712912D02*
X17536492Y-13541484D01*
X17717444Y-13731960D02*
X17698396Y-13741484D01*
X17698396Y-13741484D02*
X17660301Y-13741484D01*
X17660301Y-13741484D02*
X17641253Y-13731960D01*
X17641253Y-13731960D02*
X17631730Y-13712912D01*
X17631730Y-13712912D02*
X17631730Y-13636722D01*
X17631730Y-13636722D02*
X17641253Y-13617674D01*
X17641253Y-13617674D02*
X17660301Y-13608150D01*
X17660301Y-13608150D02*
X17698396Y-13608150D01*
X17698396Y-13608150D02*
X17717444Y-13617674D01*
X17717444Y-13617674D02*
X17726968Y-13636722D01*
X17726968Y-13636722D02*
X17726968Y-13655769D01*
X17726968Y-13655769D02*
X17631730Y-13674817D01*
X17803158Y-13731960D02*
X17822206Y-13741484D01*
X17822206Y-13741484D02*
X17860301Y-13741484D01*
X17860301Y-13741484D02*
X17879349Y-13731960D01*
X17879349Y-13731960D02*
X17888873Y-13712912D01*
X17888873Y-13712912D02*
X17888873Y-13703388D01*
X17888873Y-13703388D02*
X17879349Y-13684341D01*
X17879349Y-13684341D02*
X17860301Y-13674817D01*
X17860301Y-13674817D02*
X17831730Y-13674817D01*
X17831730Y-13674817D02*
X17812682Y-13665293D01*
X17812682Y-13665293D02*
X17803158Y-13646246D01*
X17803158Y-13646246D02*
X17803158Y-13636722D01*
X17803158Y-13636722D02*
X17812682Y-13617674D01*
X17812682Y-13617674D02*
X17831730Y-13608150D01*
X17831730Y-13608150D02*
X17860301Y-13608150D01*
X17860301Y-13608150D02*
X17879349Y-13617674D01*
X17955539Y-13817674D02*
X17965063Y-13808150D01*
X17965063Y-13808150D02*
X17984111Y-13779579D01*
X17984111Y-13779579D02*
X17993634Y-13760531D01*
X17993634Y-13760531D02*
X18003158Y-13731960D01*
X18003158Y-13731960D02*
X18012682Y-13684341D01*
X18012682Y-13684341D02*
X18012682Y-13646246D01*
X18012682Y-13646246D02*
X18003158Y-13598627D01*
X18003158Y-13598627D02*
X17993634Y-13570055D01*
X17993634Y-13570055D02*
X17984111Y-13551008D01*
X17984111Y-13551008D02*
X17965063Y-13522436D01*
X17965063Y-13522436D02*
X17955539Y-13512912D01*
D11*
X12990000Y-13914000D02*
G75*
G02*
X12950000Y-13914000I-20000J0D01*
G01*
X12950000Y-13914000D02*
G75*
G02*
X12990000Y-13914000I20000J0D01*
G01*
D10*
X13288872Y-13805484D02*
X13307920Y-13805484D01*
X13307920Y-13805484D02*
X13326967Y-13815008D01*
X13326967Y-13815008D02*
X13336491Y-13824531D01*
X13336491Y-13824531D02*
X13346015Y-13843579D01*
X13346015Y-13843579D02*
X13355539Y-13881674D01*
X13355539Y-13881674D02*
X13355539Y-13929293D01*
X13355539Y-13929293D02*
X13346015Y-13967388D01*
X13346015Y-13967388D02*
X13336491Y-13986436D01*
X13336491Y-13986436D02*
X13326967Y-13995960D01*
X13326967Y-13995960D02*
X13307920Y-14005484D01*
X13307920Y-14005484D02*
X13288872Y-14005484D01*
X13288872Y-14005484D02*
X13269824Y-13995960D01*
X13269824Y-13995960D02*
X13260301Y-13986436D01*
X13260301Y-13986436D02*
X13250777Y-13967388D01*
X13250777Y-13967388D02*
X13241253Y-13929293D01*
X13241253Y-13929293D02*
X13241253Y-13881674D01*
X13241253Y-13881674D02*
X13250777Y-13843579D01*
X13250777Y-13843579D02*
X13260301Y-13824531D01*
X13260301Y-13824531D02*
X13269824Y-13815008D01*
X13269824Y-13815008D02*
X13288872Y-13805484D01*
X13441253Y-13986436D02*
X13450777Y-13995960D01*
X13450777Y-13995960D02*
X13441253Y-14005484D01*
X13441253Y-14005484D02*
X13431729Y-13995960D01*
X13431729Y-13995960D02*
X13441253Y-13986436D01*
X13441253Y-13986436D02*
X13441253Y-14005484D01*
X13622205Y-13872150D02*
X13622205Y-14005484D01*
X13574586Y-13795960D02*
X13526967Y-13938817D01*
X13526967Y-13938817D02*
X13650777Y-13938817D01*
X13765062Y-13805484D02*
X13784110Y-13805484D01*
X13784110Y-13805484D02*
X13803158Y-13815008D01*
X13803158Y-13815008D02*
X13812682Y-13824531D01*
X13812682Y-13824531D02*
X13822205Y-13843579D01*
X13822205Y-13843579D02*
X13831729Y-13881674D01*
X13831729Y-13881674D02*
X13831729Y-13929293D01*
X13831729Y-13929293D02*
X13822205Y-13967388D01*
X13822205Y-13967388D02*
X13812682Y-13986436D01*
X13812682Y-13986436D02*
X13803158Y-13995960D01*
X13803158Y-13995960D02*
X13784110Y-14005484D01*
X13784110Y-14005484D02*
X13765062Y-14005484D01*
X13765062Y-14005484D02*
X13746015Y-13995960D01*
X13746015Y-13995960D02*
X13736491Y-13986436D01*
X13736491Y-13986436D02*
X13726967Y-13967388D01*
X13726967Y-13967388D02*
X13717443Y-13929293D01*
X13717443Y-13929293D02*
X13717443Y-13881674D01*
X13717443Y-13881674D02*
X13726967Y-13843579D01*
X13726967Y-13843579D02*
X13736491Y-13824531D01*
X13736491Y-13824531D02*
X13746015Y-13815008D01*
X13746015Y-13815008D02*
X13765062Y-13805484D01*
X13955539Y-13805484D02*
X13974586Y-13805484D01*
X13974586Y-13805484D02*
X13993634Y-13815008D01*
X13993634Y-13815008D02*
X14003158Y-13824531D01*
X14003158Y-13824531D02*
X14012682Y-13843579D01*
X14012682Y-13843579D02*
X14022205Y-13881674D01*
X14022205Y-13881674D02*
X14022205Y-13929293D01*
X14022205Y-13929293D02*
X14012682Y-13967388D01*
X14012682Y-13967388D02*
X14003158Y-13986436D01*
X14003158Y-13986436D02*
X13993634Y-13995960D01*
X13993634Y-13995960D02*
X13974586Y-14005484D01*
X13974586Y-14005484D02*
X13955539Y-14005484D01*
X13955539Y-14005484D02*
X13936491Y-13995960D01*
X13936491Y-13995960D02*
X13926967Y-13986436D01*
X13926967Y-13986436D02*
X13917443Y-13967388D01*
X13917443Y-13967388D02*
X13907920Y-13929293D01*
X13907920Y-13929293D02*
X13907920Y-13881674D01*
X13907920Y-13881674D02*
X13917443Y-13843579D01*
X13917443Y-13843579D02*
X13926967Y-13824531D01*
X13926967Y-13824531D02*
X13936491Y-13815008D01*
X13936491Y-13815008D02*
X13955539Y-13805484D01*
X14107920Y-14005484D02*
X14107920Y-13872150D01*
X14107920Y-13891198D02*
X14117443Y-13881674D01*
X14117443Y-13881674D02*
X14136491Y-13872150D01*
X14136491Y-13872150D02*
X14165063Y-13872150D01*
X14165063Y-13872150D02*
X14184110Y-13881674D01*
X14184110Y-13881674D02*
X14193634Y-13900722D01*
X14193634Y-13900722D02*
X14193634Y-14005484D01*
X14193634Y-13900722D02*
X14203158Y-13881674D01*
X14203158Y-13881674D02*
X14222205Y-13872150D01*
X14222205Y-13872150D02*
X14250777Y-13872150D01*
X14250777Y-13872150D02*
X14269824Y-13881674D01*
X14269824Y-13881674D02*
X14279348Y-13900722D01*
X14279348Y-13900722D02*
X14279348Y-14005484D01*
X14374586Y-14005484D02*
X14374586Y-13872150D01*
X14374586Y-13891198D02*
X14384110Y-13881674D01*
X14384110Y-13881674D02*
X14403158Y-13872150D01*
X14403158Y-13872150D02*
X14431729Y-13872150D01*
X14431729Y-13872150D02*
X14450777Y-13881674D01*
X14450777Y-13881674D02*
X14460301Y-13900722D01*
X14460301Y-13900722D02*
X14460301Y-14005484D01*
X14460301Y-13900722D02*
X14469824Y-13881674D01*
X14469824Y-13881674D02*
X14488872Y-13872150D01*
X14488872Y-13872150D02*
X14517443Y-13872150D01*
X14517443Y-13872150D02*
X14536491Y-13881674D01*
X14536491Y-13881674D02*
X14546015Y-13900722D01*
X14546015Y-13900722D02*
X14546015Y-14005484D01*
X14936491Y-13795960D02*
X14765063Y-14053103D01*
X15193634Y-13805484D02*
X15212682Y-13805484D01*
X15212682Y-13805484D02*
X15231729Y-13815008D01*
X15231729Y-13815008D02*
X15241253Y-13824531D01*
X15241253Y-13824531D02*
X15250777Y-13843579D01*
X15250777Y-13843579D02*
X15260301Y-13881674D01*
X15260301Y-13881674D02*
X15260301Y-13929293D01*
X15260301Y-13929293D02*
X15250777Y-13967388D01*
X15250777Y-13967388D02*
X15241253Y-13986436D01*
X15241253Y-13986436D02*
X15231729Y-13995960D01*
X15231729Y-13995960D02*
X15212682Y-14005484D01*
X15212682Y-14005484D02*
X15193634Y-14005484D01*
X15193634Y-14005484D02*
X15174586Y-13995960D01*
X15174586Y-13995960D02*
X15165063Y-13986436D01*
X15165063Y-13986436D02*
X15155539Y-13967388D01*
X15155539Y-13967388D02*
X15146015Y-13929293D01*
X15146015Y-13929293D02*
X15146015Y-13881674D01*
X15146015Y-13881674D02*
X15155539Y-13843579D01*
X15155539Y-13843579D02*
X15165063Y-13824531D01*
X15165063Y-13824531D02*
X15174586Y-13815008D01*
X15174586Y-13815008D02*
X15193634Y-13805484D01*
X15346015Y-13986436D02*
X15355539Y-13995960D01*
X15355539Y-13995960D02*
X15346015Y-14005484D01*
X15346015Y-14005484D02*
X15336491Y-13995960D01*
X15336491Y-13995960D02*
X15346015Y-13986436D01*
X15346015Y-13986436D02*
X15346015Y-14005484D01*
X15479348Y-13805484D02*
X15498396Y-13805484D01*
X15498396Y-13805484D02*
X15517444Y-13815008D01*
X15517444Y-13815008D02*
X15526967Y-13824531D01*
X15526967Y-13824531D02*
X15536491Y-13843579D01*
X15536491Y-13843579D02*
X15546015Y-13881674D01*
X15546015Y-13881674D02*
X15546015Y-13929293D01*
X15546015Y-13929293D02*
X15536491Y-13967388D01*
X15536491Y-13967388D02*
X15526967Y-13986436D01*
X15526967Y-13986436D02*
X15517444Y-13995960D01*
X15517444Y-13995960D02*
X15498396Y-14005484D01*
X15498396Y-14005484D02*
X15479348Y-14005484D01*
X15479348Y-14005484D02*
X15460301Y-13995960D01*
X15460301Y-13995960D02*
X15450777Y-13986436D01*
X15450777Y-13986436D02*
X15441253Y-13967388D01*
X15441253Y-13967388D02*
X15431729Y-13929293D01*
X15431729Y-13929293D02*
X15431729Y-13881674D01*
X15431729Y-13881674D02*
X15441253Y-13843579D01*
X15441253Y-13843579D02*
X15450777Y-13824531D01*
X15450777Y-13824531D02*
X15460301Y-13815008D01*
X15460301Y-13815008D02*
X15479348Y-13805484D01*
X15736491Y-14005484D02*
X15622206Y-14005484D01*
X15679348Y-14005484D02*
X15679348Y-13805484D01*
X15679348Y-13805484D02*
X15660301Y-13834055D01*
X15660301Y-13834055D02*
X15641253Y-13853103D01*
X15641253Y-13853103D02*
X15622206Y-13862627D01*
X15917444Y-13805484D02*
X15822206Y-13805484D01*
X15822206Y-13805484D02*
X15812682Y-13900722D01*
X15812682Y-13900722D02*
X15822206Y-13891198D01*
X15822206Y-13891198D02*
X15841253Y-13881674D01*
X15841253Y-13881674D02*
X15888872Y-13881674D01*
X15888872Y-13881674D02*
X15907920Y-13891198D01*
X15907920Y-13891198D02*
X15917444Y-13900722D01*
X15917444Y-13900722D02*
X15926967Y-13919769D01*
X15926967Y-13919769D02*
X15926967Y-13967388D01*
X15926967Y-13967388D02*
X15917444Y-13986436D01*
X15917444Y-13986436D02*
X15907920Y-13995960D01*
X15907920Y-13995960D02*
X15888872Y-14005484D01*
X15888872Y-14005484D02*
X15841253Y-14005484D01*
X15841253Y-14005484D02*
X15822206Y-13995960D01*
X15822206Y-13995960D02*
X15812682Y-13986436D01*
X15993634Y-13805484D02*
X16126967Y-13805484D01*
X16126967Y-13805484D02*
X16041253Y-14005484D01*
X16193634Y-13805484D02*
X16193634Y-13843579D01*
X16269825Y-13805484D02*
X16269825Y-13843579D01*
X16565063Y-14081674D02*
X16555539Y-14072150D01*
X16555539Y-14072150D02*
X16536491Y-14043579D01*
X16536491Y-14043579D02*
X16526968Y-14024531D01*
X16526968Y-14024531D02*
X16517444Y-13995960D01*
X16517444Y-13995960D02*
X16507920Y-13948341D01*
X16507920Y-13948341D02*
X16507920Y-13910246D01*
X16507920Y-13910246D02*
X16517444Y-13862627D01*
X16517444Y-13862627D02*
X16526968Y-13834055D01*
X16526968Y-13834055D02*
X16536491Y-13815008D01*
X16536491Y-13815008D02*
X16555539Y-13786436D01*
X16555539Y-13786436D02*
X16565063Y-13776912D01*
X16746015Y-14005484D02*
X16631729Y-14005484D01*
X16688872Y-14005484D02*
X16688872Y-13805484D01*
X16688872Y-13805484D02*
X16669825Y-13834055D01*
X16669825Y-13834055D02*
X16650777Y-13853103D01*
X16650777Y-13853103D02*
X16631729Y-13862627D01*
X16917444Y-13872150D02*
X16917444Y-14005484D01*
X16869825Y-13795960D02*
X16822206Y-13938817D01*
X16822206Y-13938817D02*
X16946015Y-13938817D01*
X17174587Y-14005484D02*
X17174587Y-13805484D01*
X17260301Y-14005484D02*
X17260301Y-13900722D01*
X17260301Y-13900722D02*
X17250777Y-13881674D01*
X17250777Y-13881674D02*
X17231730Y-13872150D01*
X17231730Y-13872150D02*
X17203158Y-13872150D01*
X17203158Y-13872150D02*
X17184111Y-13881674D01*
X17184111Y-13881674D02*
X17174587Y-13891198D01*
X17384111Y-14005484D02*
X17365063Y-13995960D01*
X17365063Y-13995960D02*
X17355539Y-13986436D01*
X17355539Y-13986436D02*
X17346015Y-13967388D01*
X17346015Y-13967388D02*
X17346015Y-13910246D01*
X17346015Y-13910246D02*
X17355539Y-13891198D01*
X17355539Y-13891198D02*
X17365063Y-13881674D01*
X17365063Y-13881674D02*
X17384111Y-13872150D01*
X17384111Y-13872150D02*
X17412682Y-13872150D01*
X17412682Y-13872150D02*
X17431730Y-13881674D01*
X17431730Y-13881674D02*
X17441253Y-13891198D01*
X17441253Y-13891198D02*
X17450777Y-13910246D01*
X17450777Y-13910246D02*
X17450777Y-13967388D01*
X17450777Y-13967388D02*
X17441253Y-13986436D01*
X17441253Y-13986436D02*
X17431730Y-13995960D01*
X17431730Y-13995960D02*
X17412682Y-14005484D01*
X17412682Y-14005484D02*
X17384111Y-14005484D01*
X17565063Y-14005484D02*
X17546015Y-13995960D01*
X17546015Y-13995960D02*
X17536492Y-13976912D01*
X17536492Y-13976912D02*
X17536492Y-13805484D01*
X17717444Y-13995960D02*
X17698396Y-14005484D01*
X17698396Y-14005484D02*
X17660301Y-14005484D01*
X17660301Y-14005484D02*
X17641253Y-13995960D01*
X17641253Y-13995960D02*
X17631730Y-13976912D01*
X17631730Y-13976912D02*
X17631730Y-13900722D01*
X17631730Y-13900722D02*
X17641253Y-13881674D01*
X17641253Y-13881674D02*
X17660301Y-13872150D01*
X17660301Y-13872150D02*
X17698396Y-13872150D01*
X17698396Y-13872150D02*
X17717444Y-13881674D01*
X17717444Y-13881674D02*
X17726968Y-13900722D01*
X17726968Y-13900722D02*
X17726968Y-13919769D01*
X17726968Y-13919769D02*
X17631730Y-13938817D01*
X17803158Y-13995960D02*
X17822206Y-14005484D01*
X17822206Y-14005484D02*
X17860301Y-14005484D01*
X17860301Y-14005484D02*
X17879349Y-13995960D01*
X17879349Y-13995960D02*
X17888873Y-13976912D01*
X17888873Y-13976912D02*
X17888873Y-13967388D01*
X17888873Y-13967388D02*
X17879349Y-13948341D01*
X17879349Y-13948341D02*
X17860301Y-13938817D01*
X17860301Y-13938817D02*
X17831730Y-13938817D01*
X17831730Y-13938817D02*
X17812682Y-13929293D01*
X17812682Y-13929293D02*
X17803158Y-13910246D01*
X17803158Y-13910246D02*
X17803158Y-13900722D01*
X17803158Y-13900722D02*
X17812682Y-13881674D01*
X17812682Y-13881674D02*
X17831730Y-13872150D01*
X17831730Y-13872150D02*
X17860301Y-13872150D01*
X17860301Y-13872150D02*
X17879349Y-13881674D01*
X17955539Y-14081674D02*
X17965063Y-14072150D01*
X17965063Y-14072150D02*
X17984111Y-14043579D01*
X17984111Y-14043579D02*
X17993634Y-14024531D01*
X17993634Y-14024531D02*
X18003158Y-13995960D01*
X18003158Y-13995960D02*
X18012682Y-13948341D01*
X18012682Y-13948341D02*
X18012682Y-13910246D01*
X18012682Y-13910246D02*
X18003158Y-13862627D01*
X18003158Y-13862627D02*
X17993634Y-13834055D01*
X17993634Y-13834055D02*
X17984111Y-13815008D01*
X17984111Y-13815008D02*
X17965063Y-13786436D01*
X17965063Y-13786436D02*
X17955539Y-13776912D01*
D11*
X12960000Y-14148000D02*
X12960000Y-14208000D01*
X12930000Y-14178000D02*
X12990000Y-14178000D01*
D10*
X13288872Y-14069484D02*
X13307920Y-14069484D01*
X13307920Y-14069484D02*
X13326967Y-14079008D01*
X13326967Y-14079008D02*
X13336491Y-14088531D01*
X13336491Y-14088531D02*
X13346015Y-14107579D01*
X13346015Y-14107579D02*
X13355539Y-14145674D01*
X13355539Y-14145674D02*
X13355539Y-14193293D01*
X13355539Y-14193293D02*
X13346015Y-14231388D01*
X13346015Y-14231388D02*
X13336491Y-14250436D01*
X13336491Y-14250436D02*
X13326967Y-14259960D01*
X13326967Y-14259960D02*
X13307920Y-14269484D01*
X13307920Y-14269484D02*
X13288872Y-14269484D01*
X13288872Y-14269484D02*
X13269824Y-14259960D01*
X13269824Y-14259960D02*
X13260301Y-14250436D01*
X13260301Y-14250436D02*
X13250777Y-14231388D01*
X13250777Y-14231388D02*
X13241253Y-14193293D01*
X13241253Y-14193293D02*
X13241253Y-14145674D01*
X13241253Y-14145674D02*
X13250777Y-14107579D01*
X13250777Y-14107579D02*
X13260301Y-14088531D01*
X13260301Y-14088531D02*
X13269824Y-14079008D01*
X13269824Y-14079008D02*
X13288872Y-14069484D01*
X13441253Y-14250436D02*
X13450777Y-14259960D01*
X13450777Y-14259960D02*
X13441253Y-14269484D01*
X13441253Y-14269484D02*
X13431729Y-14259960D01*
X13431729Y-14259960D02*
X13441253Y-14250436D01*
X13441253Y-14250436D02*
X13441253Y-14269484D01*
X13622205Y-14069484D02*
X13584110Y-14069484D01*
X13584110Y-14069484D02*
X13565062Y-14079008D01*
X13565062Y-14079008D02*
X13555539Y-14088531D01*
X13555539Y-14088531D02*
X13536491Y-14117103D01*
X13536491Y-14117103D02*
X13526967Y-14155198D01*
X13526967Y-14155198D02*
X13526967Y-14231388D01*
X13526967Y-14231388D02*
X13536491Y-14250436D01*
X13536491Y-14250436D02*
X13546015Y-14259960D01*
X13546015Y-14259960D02*
X13565062Y-14269484D01*
X13565062Y-14269484D02*
X13603158Y-14269484D01*
X13603158Y-14269484D02*
X13622205Y-14259960D01*
X13622205Y-14259960D02*
X13631729Y-14250436D01*
X13631729Y-14250436D02*
X13641253Y-14231388D01*
X13641253Y-14231388D02*
X13641253Y-14183769D01*
X13641253Y-14183769D02*
X13631729Y-14164722D01*
X13631729Y-14164722D02*
X13622205Y-14155198D01*
X13622205Y-14155198D02*
X13603158Y-14145674D01*
X13603158Y-14145674D02*
X13565062Y-14145674D01*
X13565062Y-14145674D02*
X13546015Y-14155198D01*
X13546015Y-14155198D02*
X13536491Y-14164722D01*
X13536491Y-14164722D02*
X13526967Y-14183769D01*
X13765062Y-14069484D02*
X13784110Y-14069484D01*
X13784110Y-14069484D02*
X13803158Y-14079008D01*
X13803158Y-14079008D02*
X13812682Y-14088531D01*
X13812682Y-14088531D02*
X13822205Y-14107579D01*
X13822205Y-14107579D02*
X13831729Y-14145674D01*
X13831729Y-14145674D02*
X13831729Y-14193293D01*
X13831729Y-14193293D02*
X13822205Y-14231388D01*
X13822205Y-14231388D02*
X13812682Y-14250436D01*
X13812682Y-14250436D02*
X13803158Y-14259960D01*
X13803158Y-14259960D02*
X13784110Y-14269484D01*
X13784110Y-14269484D02*
X13765062Y-14269484D01*
X13765062Y-14269484D02*
X13746015Y-14259960D01*
X13746015Y-14259960D02*
X13736491Y-14250436D01*
X13736491Y-14250436D02*
X13726967Y-14231388D01*
X13726967Y-14231388D02*
X13717443Y-14193293D01*
X13717443Y-14193293D02*
X13717443Y-14145674D01*
X13717443Y-14145674D02*
X13726967Y-14107579D01*
X13726967Y-14107579D02*
X13736491Y-14088531D01*
X13736491Y-14088531D02*
X13746015Y-14079008D01*
X13746015Y-14079008D02*
X13765062Y-14069484D01*
X13955539Y-14069484D02*
X13974586Y-14069484D01*
X13974586Y-14069484D02*
X13993634Y-14079008D01*
X13993634Y-14079008D02*
X14003158Y-14088531D01*
X14003158Y-14088531D02*
X14012682Y-14107579D01*
X14012682Y-14107579D02*
X14022205Y-14145674D01*
X14022205Y-14145674D02*
X14022205Y-14193293D01*
X14022205Y-14193293D02*
X14012682Y-14231388D01*
X14012682Y-14231388D02*
X14003158Y-14250436D01*
X14003158Y-14250436D02*
X13993634Y-14259960D01*
X13993634Y-14259960D02*
X13974586Y-14269484D01*
X13974586Y-14269484D02*
X13955539Y-14269484D01*
X13955539Y-14269484D02*
X13936491Y-14259960D01*
X13936491Y-14259960D02*
X13926967Y-14250436D01*
X13926967Y-14250436D02*
X13917443Y-14231388D01*
X13917443Y-14231388D02*
X13907920Y-14193293D01*
X13907920Y-14193293D02*
X13907920Y-14145674D01*
X13907920Y-14145674D02*
X13917443Y-14107579D01*
X13917443Y-14107579D02*
X13926967Y-14088531D01*
X13926967Y-14088531D02*
X13936491Y-14079008D01*
X13936491Y-14079008D02*
X13955539Y-14069484D01*
X14107920Y-14269484D02*
X14107920Y-14136150D01*
X14107920Y-14155198D02*
X14117443Y-14145674D01*
X14117443Y-14145674D02*
X14136491Y-14136150D01*
X14136491Y-14136150D02*
X14165063Y-14136150D01*
X14165063Y-14136150D02*
X14184110Y-14145674D01*
X14184110Y-14145674D02*
X14193634Y-14164722D01*
X14193634Y-14164722D02*
X14193634Y-14269484D01*
X14193634Y-14164722D02*
X14203158Y-14145674D01*
X14203158Y-14145674D02*
X14222205Y-14136150D01*
X14222205Y-14136150D02*
X14250777Y-14136150D01*
X14250777Y-14136150D02*
X14269824Y-14145674D01*
X14269824Y-14145674D02*
X14279348Y-14164722D01*
X14279348Y-14164722D02*
X14279348Y-14269484D01*
X14374586Y-14269484D02*
X14374586Y-14136150D01*
X14374586Y-14155198D02*
X14384110Y-14145674D01*
X14384110Y-14145674D02*
X14403158Y-14136150D01*
X14403158Y-14136150D02*
X14431729Y-14136150D01*
X14431729Y-14136150D02*
X14450777Y-14145674D01*
X14450777Y-14145674D02*
X14460301Y-14164722D01*
X14460301Y-14164722D02*
X14460301Y-14269484D01*
X14460301Y-14164722D02*
X14469824Y-14145674D01*
X14469824Y-14145674D02*
X14488872Y-14136150D01*
X14488872Y-14136150D02*
X14517443Y-14136150D01*
X14517443Y-14136150D02*
X14536491Y-14145674D01*
X14536491Y-14145674D02*
X14546015Y-14164722D01*
X14546015Y-14164722D02*
X14546015Y-14269484D01*
X14936491Y-14059960D02*
X14765063Y-14317103D01*
X15193634Y-14069484D02*
X15212682Y-14069484D01*
X15212682Y-14069484D02*
X15231729Y-14079008D01*
X15231729Y-14079008D02*
X15241253Y-14088531D01*
X15241253Y-14088531D02*
X15250777Y-14107579D01*
X15250777Y-14107579D02*
X15260301Y-14145674D01*
X15260301Y-14145674D02*
X15260301Y-14193293D01*
X15260301Y-14193293D02*
X15250777Y-14231388D01*
X15250777Y-14231388D02*
X15241253Y-14250436D01*
X15241253Y-14250436D02*
X15231729Y-14259960D01*
X15231729Y-14259960D02*
X15212682Y-14269484D01*
X15212682Y-14269484D02*
X15193634Y-14269484D01*
X15193634Y-14269484D02*
X15174586Y-14259960D01*
X15174586Y-14259960D02*
X15165063Y-14250436D01*
X15165063Y-14250436D02*
X15155539Y-14231388D01*
X15155539Y-14231388D02*
X15146015Y-14193293D01*
X15146015Y-14193293D02*
X15146015Y-14145674D01*
X15146015Y-14145674D02*
X15155539Y-14107579D01*
X15155539Y-14107579D02*
X15165063Y-14088531D01*
X15165063Y-14088531D02*
X15174586Y-14079008D01*
X15174586Y-14079008D02*
X15193634Y-14069484D01*
X15346015Y-14250436D02*
X15355539Y-14259960D01*
X15355539Y-14259960D02*
X15346015Y-14269484D01*
X15346015Y-14269484D02*
X15336491Y-14259960D01*
X15336491Y-14259960D02*
X15346015Y-14250436D01*
X15346015Y-14250436D02*
X15346015Y-14269484D01*
X15479348Y-14069484D02*
X15498396Y-14069484D01*
X15498396Y-14069484D02*
X15517444Y-14079008D01*
X15517444Y-14079008D02*
X15526967Y-14088531D01*
X15526967Y-14088531D02*
X15536491Y-14107579D01*
X15536491Y-14107579D02*
X15546015Y-14145674D01*
X15546015Y-14145674D02*
X15546015Y-14193293D01*
X15546015Y-14193293D02*
X15536491Y-14231388D01*
X15536491Y-14231388D02*
X15526967Y-14250436D01*
X15526967Y-14250436D02*
X15517444Y-14259960D01*
X15517444Y-14259960D02*
X15498396Y-14269484D01*
X15498396Y-14269484D02*
X15479348Y-14269484D01*
X15479348Y-14269484D02*
X15460301Y-14259960D01*
X15460301Y-14259960D02*
X15450777Y-14250436D01*
X15450777Y-14250436D02*
X15441253Y-14231388D01*
X15441253Y-14231388D02*
X15431729Y-14193293D01*
X15431729Y-14193293D02*
X15431729Y-14145674D01*
X15431729Y-14145674D02*
X15441253Y-14107579D01*
X15441253Y-14107579D02*
X15450777Y-14088531D01*
X15450777Y-14088531D02*
X15460301Y-14079008D01*
X15460301Y-14079008D02*
X15479348Y-14069484D01*
X15622206Y-14088531D02*
X15631729Y-14079008D01*
X15631729Y-14079008D02*
X15650777Y-14069484D01*
X15650777Y-14069484D02*
X15698396Y-14069484D01*
X15698396Y-14069484D02*
X15717444Y-14079008D01*
X15717444Y-14079008D02*
X15726967Y-14088531D01*
X15726967Y-14088531D02*
X15736491Y-14107579D01*
X15736491Y-14107579D02*
X15736491Y-14126627D01*
X15736491Y-14126627D02*
X15726967Y-14155198D01*
X15726967Y-14155198D02*
X15612682Y-14269484D01*
X15612682Y-14269484D02*
X15736491Y-14269484D01*
X15803158Y-14069484D02*
X15926967Y-14069484D01*
X15926967Y-14069484D02*
X15860301Y-14145674D01*
X15860301Y-14145674D02*
X15888872Y-14145674D01*
X15888872Y-14145674D02*
X15907920Y-14155198D01*
X15907920Y-14155198D02*
X15917444Y-14164722D01*
X15917444Y-14164722D02*
X15926967Y-14183769D01*
X15926967Y-14183769D02*
X15926967Y-14231388D01*
X15926967Y-14231388D02*
X15917444Y-14250436D01*
X15917444Y-14250436D02*
X15907920Y-14259960D01*
X15907920Y-14259960D02*
X15888872Y-14269484D01*
X15888872Y-14269484D02*
X15831729Y-14269484D01*
X15831729Y-14269484D02*
X15812682Y-14259960D01*
X15812682Y-14259960D02*
X15803158Y-14250436D01*
X16098396Y-14069484D02*
X16060301Y-14069484D01*
X16060301Y-14069484D02*
X16041253Y-14079008D01*
X16041253Y-14079008D02*
X16031729Y-14088531D01*
X16031729Y-14088531D02*
X16012682Y-14117103D01*
X16012682Y-14117103D02*
X16003158Y-14155198D01*
X16003158Y-14155198D02*
X16003158Y-14231388D01*
X16003158Y-14231388D02*
X16012682Y-14250436D01*
X16012682Y-14250436D02*
X16022206Y-14259960D01*
X16022206Y-14259960D02*
X16041253Y-14269484D01*
X16041253Y-14269484D02*
X16079348Y-14269484D01*
X16079348Y-14269484D02*
X16098396Y-14259960D01*
X16098396Y-14259960D02*
X16107920Y-14250436D01*
X16107920Y-14250436D02*
X16117444Y-14231388D01*
X16117444Y-14231388D02*
X16117444Y-14183769D01*
X16117444Y-14183769D02*
X16107920Y-14164722D01*
X16107920Y-14164722D02*
X16098396Y-14155198D01*
X16098396Y-14155198D02*
X16079348Y-14145674D01*
X16079348Y-14145674D02*
X16041253Y-14145674D01*
X16041253Y-14145674D02*
X16022206Y-14155198D01*
X16022206Y-14155198D02*
X16012682Y-14164722D01*
X16012682Y-14164722D02*
X16003158Y-14183769D01*
X16193634Y-14069484D02*
X16193634Y-14107579D01*
X16269825Y-14069484D02*
X16269825Y-14107579D01*
X16565063Y-14345674D02*
X16555539Y-14336150D01*
X16555539Y-14336150D02*
X16536491Y-14307579D01*
X16536491Y-14307579D02*
X16526968Y-14288531D01*
X16526968Y-14288531D02*
X16517444Y-14259960D01*
X16517444Y-14259960D02*
X16507920Y-14212341D01*
X16507920Y-14212341D02*
X16507920Y-14174246D01*
X16507920Y-14174246D02*
X16517444Y-14126627D01*
X16517444Y-14126627D02*
X16526968Y-14098055D01*
X16526968Y-14098055D02*
X16536491Y-14079008D01*
X16536491Y-14079008D02*
X16555539Y-14050436D01*
X16555539Y-14050436D02*
X16565063Y-14040912D01*
X16679348Y-14069484D02*
X16698396Y-14069484D01*
X16698396Y-14069484D02*
X16717444Y-14079008D01*
X16717444Y-14079008D02*
X16726968Y-14088531D01*
X16726968Y-14088531D02*
X16736491Y-14107579D01*
X16736491Y-14107579D02*
X16746015Y-14145674D01*
X16746015Y-14145674D02*
X16746015Y-14193293D01*
X16746015Y-14193293D02*
X16736491Y-14231388D01*
X16736491Y-14231388D02*
X16726968Y-14250436D01*
X16726968Y-14250436D02*
X16717444Y-14259960D01*
X16717444Y-14259960D02*
X16698396Y-14269484D01*
X16698396Y-14269484D02*
X16679348Y-14269484D01*
X16679348Y-14269484D02*
X16660301Y-14259960D01*
X16660301Y-14259960D02*
X16650777Y-14250436D01*
X16650777Y-14250436D02*
X16641253Y-14231388D01*
X16641253Y-14231388D02*
X16631729Y-14193293D01*
X16631729Y-14193293D02*
X16631729Y-14145674D01*
X16631729Y-14145674D02*
X16641253Y-14107579D01*
X16641253Y-14107579D02*
X16650777Y-14088531D01*
X16650777Y-14088531D02*
X16660301Y-14079008D01*
X16660301Y-14079008D02*
X16679348Y-14069484D01*
X16984111Y-14269484D02*
X16984111Y-14069484D01*
X17069825Y-14269484D02*
X17069825Y-14164722D01*
X17069825Y-14164722D02*
X17060301Y-14145674D01*
X17060301Y-14145674D02*
X17041253Y-14136150D01*
X17041253Y-14136150D02*
X17012682Y-14136150D01*
X17012682Y-14136150D02*
X16993634Y-14145674D01*
X16993634Y-14145674D02*
X16984111Y-14155198D01*
X17193634Y-14269484D02*
X17174587Y-14259960D01*
X17174587Y-14259960D02*
X17165063Y-14250436D01*
X17165063Y-14250436D02*
X17155539Y-14231388D01*
X17155539Y-14231388D02*
X17155539Y-14174246D01*
X17155539Y-14174246D02*
X17165063Y-14155198D01*
X17165063Y-14155198D02*
X17174587Y-14145674D01*
X17174587Y-14145674D02*
X17193634Y-14136150D01*
X17193634Y-14136150D02*
X17222206Y-14136150D01*
X17222206Y-14136150D02*
X17241253Y-14145674D01*
X17241253Y-14145674D02*
X17250777Y-14155198D01*
X17250777Y-14155198D02*
X17260301Y-14174246D01*
X17260301Y-14174246D02*
X17260301Y-14231388D01*
X17260301Y-14231388D02*
X17250777Y-14250436D01*
X17250777Y-14250436D02*
X17241253Y-14259960D01*
X17241253Y-14259960D02*
X17222206Y-14269484D01*
X17222206Y-14269484D02*
X17193634Y-14269484D01*
X17374587Y-14269484D02*
X17355539Y-14259960D01*
X17355539Y-14259960D02*
X17346015Y-14240912D01*
X17346015Y-14240912D02*
X17346015Y-14069484D01*
X17526968Y-14259960D02*
X17507920Y-14269484D01*
X17507920Y-14269484D02*
X17469825Y-14269484D01*
X17469825Y-14269484D02*
X17450777Y-14259960D01*
X17450777Y-14259960D02*
X17441253Y-14240912D01*
X17441253Y-14240912D02*
X17441253Y-14164722D01*
X17441253Y-14164722D02*
X17450777Y-14145674D01*
X17450777Y-14145674D02*
X17469825Y-14136150D01*
X17469825Y-14136150D02*
X17507920Y-14136150D01*
X17507920Y-14136150D02*
X17526968Y-14145674D01*
X17526968Y-14145674D02*
X17536492Y-14164722D01*
X17536492Y-14164722D02*
X17536492Y-14183769D01*
X17536492Y-14183769D02*
X17441253Y-14202817D01*
X17612682Y-14259960D02*
X17631730Y-14269484D01*
X17631730Y-14269484D02*
X17669825Y-14269484D01*
X17669825Y-14269484D02*
X17688873Y-14259960D01*
X17688873Y-14259960D02*
X17698396Y-14240912D01*
X17698396Y-14240912D02*
X17698396Y-14231388D01*
X17698396Y-14231388D02*
X17688873Y-14212341D01*
X17688873Y-14212341D02*
X17669825Y-14202817D01*
X17669825Y-14202817D02*
X17641253Y-14202817D01*
X17641253Y-14202817D02*
X17622206Y-14193293D01*
X17622206Y-14193293D02*
X17612682Y-14174246D01*
X17612682Y-14174246D02*
X17612682Y-14164722D01*
X17612682Y-14164722D02*
X17622206Y-14145674D01*
X17622206Y-14145674D02*
X17641253Y-14136150D01*
X17641253Y-14136150D02*
X17669825Y-14136150D01*
X17669825Y-14136150D02*
X17688873Y-14145674D01*
X17936492Y-14193293D02*
X18088873Y-14193293D01*
X18012682Y-14269484D02*
X18012682Y-14117103D01*
X18422206Y-14136150D02*
X18422206Y-14269484D01*
X18374587Y-14059960D02*
X18326968Y-14202817D01*
X18326968Y-14202817D02*
X18450777Y-14202817D01*
X18669825Y-14259960D02*
X18688873Y-14269484D01*
X18688873Y-14269484D02*
X18726968Y-14269484D01*
X18726968Y-14269484D02*
X18746016Y-14259960D01*
X18746016Y-14259960D02*
X18755539Y-14240912D01*
X18755539Y-14240912D02*
X18755539Y-14231388D01*
X18755539Y-14231388D02*
X18746016Y-14212341D01*
X18746016Y-14212341D02*
X18726968Y-14202817D01*
X18726968Y-14202817D02*
X18698396Y-14202817D01*
X18698396Y-14202817D02*
X18679349Y-14193293D01*
X18679349Y-14193293D02*
X18669825Y-14174246D01*
X18669825Y-14174246D02*
X18669825Y-14164722D01*
X18669825Y-14164722D02*
X18679349Y-14145674D01*
X18679349Y-14145674D02*
X18698396Y-14136150D01*
X18698396Y-14136150D02*
X18726968Y-14136150D01*
X18726968Y-14136150D02*
X18746016Y-14145674D01*
X18869825Y-14269484D02*
X18850777Y-14259960D01*
X18850777Y-14259960D02*
X18841254Y-14240912D01*
X18841254Y-14240912D02*
X18841254Y-14069484D01*
X18974587Y-14269484D02*
X18955539Y-14259960D01*
X18955539Y-14259960D02*
X18946016Y-14250436D01*
X18946016Y-14250436D02*
X18936492Y-14231388D01*
X18936492Y-14231388D02*
X18936492Y-14174246D01*
X18936492Y-14174246D02*
X18946016Y-14155198D01*
X18946016Y-14155198D02*
X18955539Y-14145674D01*
X18955539Y-14145674D02*
X18974587Y-14136150D01*
X18974587Y-14136150D02*
X19003158Y-14136150D01*
X19003158Y-14136150D02*
X19022206Y-14145674D01*
X19022206Y-14145674D02*
X19031730Y-14155198D01*
X19031730Y-14155198D02*
X19041254Y-14174246D01*
X19041254Y-14174246D02*
X19041254Y-14231388D01*
X19041254Y-14231388D02*
X19031730Y-14250436D01*
X19031730Y-14250436D02*
X19022206Y-14259960D01*
X19022206Y-14259960D02*
X19003158Y-14269484D01*
X19003158Y-14269484D02*
X18974587Y-14269484D01*
X19098397Y-14136150D02*
X19174587Y-14136150D01*
X19126968Y-14069484D02*
X19126968Y-14240912D01*
X19126968Y-14240912D02*
X19136492Y-14259960D01*
X19136492Y-14259960D02*
X19155539Y-14269484D01*
X19155539Y-14269484D02*
X19174587Y-14269484D01*
X19231730Y-14259960D02*
X19250777Y-14269484D01*
X19250777Y-14269484D02*
X19288873Y-14269484D01*
X19288873Y-14269484D02*
X19307920Y-14259960D01*
X19307920Y-14259960D02*
X19317444Y-14240912D01*
X19317444Y-14240912D02*
X19317444Y-14231388D01*
X19317444Y-14231388D02*
X19307920Y-14212341D01*
X19307920Y-14212341D02*
X19288873Y-14202817D01*
X19288873Y-14202817D02*
X19260301Y-14202817D01*
X19260301Y-14202817D02*
X19241254Y-14193293D01*
X19241254Y-14193293D02*
X19231730Y-14174246D01*
X19231730Y-14174246D02*
X19231730Y-14164722D01*
X19231730Y-14164722D02*
X19241254Y-14145674D01*
X19241254Y-14145674D02*
X19260301Y-14136150D01*
X19260301Y-14136150D02*
X19288873Y-14136150D01*
X19288873Y-14136150D02*
X19307920Y-14145674D01*
X19384111Y-14345674D02*
X19393635Y-14336150D01*
X19393635Y-14336150D02*
X19412682Y-14307579D01*
X19412682Y-14307579D02*
X19422206Y-14288531D01*
X19422206Y-14288531D02*
X19431730Y-14259960D01*
X19431730Y-14259960D02*
X19441254Y-14212341D01*
X19441254Y-14212341D02*
X19441254Y-14174246D01*
X19441254Y-14174246D02*
X19431730Y-14126627D01*
X19431730Y-14126627D02*
X19422206Y-14098055D01*
X19422206Y-14098055D02*
X19412682Y-14079008D01*
X19412682Y-14079008D02*
X19393635Y-14050436D01*
X19393635Y-14050436D02*
X19384111Y-14040912D01*
D11*
X12975356Y-14477356D02*
X12975356Y-14406644D01*
X12904644Y-14406644D01*
X12904644Y-14477356D01*
X12975356Y-14477356D01*
D10*
X13355539Y-14533484D02*
X13241253Y-14533484D01*
X13298396Y-14533484D02*
X13298396Y-14333484D01*
X13298396Y-14333484D02*
X13279348Y-14362055D01*
X13279348Y-14362055D02*
X13260301Y-14381103D01*
X13260301Y-14381103D02*
X13241253Y-14390627D01*
X13441253Y-14514436D02*
X13450777Y-14523960D01*
X13450777Y-14523960D02*
X13441253Y-14533484D01*
X13441253Y-14533484D02*
X13431729Y-14523960D01*
X13431729Y-14523960D02*
X13441253Y-14514436D01*
X13441253Y-14514436D02*
X13441253Y-14533484D01*
X13574586Y-14333484D02*
X13593634Y-14333484D01*
X13593634Y-14333484D02*
X13612682Y-14343008D01*
X13612682Y-14343008D02*
X13622205Y-14352531D01*
X13622205Y-14352531D02*
X13631729Y-14371579D01*
X13631729Y-14371579D02*
X13641253Y-14409674D01*
X13641253Y-14409674D02*
X13641253Y-14457293D01*
X13641253Y-14457293D02*
X13631729Y-14495388D01*
X13631729Y-14495388D02*
X13622205Y-14514436D01*
X13622205Y-14514436D02*
X13612682Y-14523960D01*
X13612682Y-14523960D02*
X13593634Y-14533484D01*
X13593634Y-14533484D02*
X13574586Y-14533484D01*
X13574586Y-14533484D02*
X13555539Y-14523960D01*
X13555539Y-14523960D02*
X13546015Y-14514436D01*
X13546015Y-14514436D02*
X13536491Y-14495388D01*
X13536491Y-14495388D02*
X13526967Y-14457293D01*
X13526967Y-14457293D02*
X13526967Y-14409674D01*
X13526967Y-14409674D02*
X13536491Y-14371579D01*
X13536491Y-14371579D02*
X13546015Y-14352531D01*
X13546015Y-14352531D02*
X13555539Y-14343008D01*
X13555539Y-14343008D02*
X13574586Y-14333484D01*
X13765062Y-14333484D02*
X13784110Y-14333484D01*
X13784110Y-14333484D02*
X13803158Y-14343008D01*
X13803158Y-14343008D02*
X13812682Y-14352531D01*
X13812682Y-14352531D02*
X13822205Y-14371579D01*
X13822205Y-14371579D02*
X13831729Y-14409674D01*
X13831729Y-14409674D02*
X13831729Y-14457293D01*
X13831729Y-14457293D02*
X13822205Y-14495388D01*
X13822205Y-14495388D02*
X13812682Y-14514436D01*
X13812682Y-14514436D02*
X13803158Y-14523960D01*
X13803158Y-14523960D02*
X13784110Y-14533484D01*
X13784110Y-14533484D02*
X13765062Y-14533484D01*
X13765062Y-14533484D02*
X13746015Y-14523960D01*
X13746015Y-14523960D02*
X13736491Y-14514436D01*
X13736491Y-14514436D02*
X13726967Y-14495388D01*
X13726967Y-14495388D02*
X13717443Y-14457293D01*
X13717443Y-14457293D02*
X13717443Y-14409674D01*
X13717443Y-14409674D02*
X13726967Y-14371579D01*
X13726967Y-14371579D02*
X13736491Y-14352531D01*
X13736491Y-14352531D02*
X13746015Y-14343008D01*
X13746015Y-14343008D02*
X13765062Y-14333484D01*
X13955539Y-14333484D02*
X13974586Y-14333484D01*
X13974586Y-14333484D02*
X13993634Y-14343008D01*
X13993634Y-14343008D02*
X14003158Y-14352531D01*
X14003158Y-14352531D02*
X14012682Y-14371579D01*
X14012682Y-14371579D02*
X14022205Y-14409674D01*
X14022205Y-14409674D02*
X14022205Y-14457293D01*
X14022205Y-14457293D02*
X14012682Y-14495388D01*
X14012682Y-14495388D02*
X14003158Y-14514436D01*
X14003158Y-14514436D02*
X13993634Y-14523960D01*
X13993634Y-14523960D02*
X13974586Y-14533484D01*
X13974586Y-14533484D02*
X13955539Y-14533484D01*
X13955539Y-14533484D02*
X13936491Y-14523960D01*
X13936491Y-14523960D02*
X13926967Y-14514436D01*
X13926967Y-14514436D02*
X13917443Y-14495388D01*
X13917443Y-14495388D02*
X13907920Y-14457293D01*
X13907920Y-14457293D02*
X13907920Y-14409674D01*
X13907920Y-14409674D02*
X13917443Y-14371579D01*
X13917443Y-14371579D02*
X13926967Y-14352531D01*
X13926967Y-14352531D02*
X13936491Y-14343008D01*
X13936491Y-14343008D02*
X13955539Y-14333484D01*
X14107920Y-14533484D02*
X14107920Y-14400150D01*
X14107920Y-14419198D02*
X14117443Y-14409674D01*
X14117443Y-14409674D02*
X14136491Y-14400150D01*
X14136491Y-14400150D02*
X14165063Y-14400150D01*
X14165063Y-14400150D02*
X14184110Y-14409674D01*
X14184110Y-14409674D02*
X14193634Y-14428722D01*
X14193634Y-14428722D02*
X14193634Y-14533484D01*
X14193634Y-14428722D02*
X14203158Y-14409674D01*
X14203158Y-14409674D02*
X14222205Y-14400150D01*
X14222205Y-14400150D02*
X14250777Y-14400150D01*
X14250777Y-14400150D02*
X14269824Y-14409674D01*
X14269824Y-14409674D02*
X14279348Y-14428722D01*
X14279348Y-14428722D02*
X14279348Y-14533484D01*
X14374586Y-14533484D02*
X14374586Y-14400150D01*
X14374586Y-14419198D02*
X14384110Y-14409674D01*
X14384110Y-14409674D02*
X14403158Y-14400150D01*
X14403158Y-14400150D02*
X14431729Y-14400150D01*
X14431729Y-14400150D02*
X14450777Y-14409674D01*
X14450777Y-14409674D02*
X14460301Y-14428722D01*
X14460301Y-14428722D02*
X14460301Y-14533484D01*
X14460301Y-14428722D02*
X14469824Y-14409674D01*
X14469824Y-14409674D02*
X14488872Y-14400150D01*
X14488872Y-14400150D02*
X14517443Y-14400150D01*
X14517443Y-14400150D02*
X14536491Y-14409674D01*
X14536491Y-14409674D02*
X14546015Y-14428722D01*
X14546015Y-14428722D02*
X14546015Y-14533484D01*
X14936491Y-14323960D02*
X14765063Y-14581103D01*
X15193634Y-14333484D02*
X15212682Y-14333484D01*
X15212682Y-14333484D02*
X15231729Y-14343008D01*
X15231729Y-14343008D02*
X15241253Y-14352531D01*
X15241253Y-14352531D02*
X15250777Y-14371579D01*
X15250777Y-14371579D02*
X15260301Y-14409674D01*
X15260301Y-14409674D02*
X15260301Y-14457293D01*
X15260301Y-14457293D02*
X15250777Y-14495388D01*
X15250777Y-14495388D02*
X15241253Y-14514436D01*
X15241253Y-14514436D02*
X15231729Y-14523960D01*
X15231729Y-14523960D02*
X15212682Y-14533484D01*
X15212682Y-14533484D02*
X15193634Y-14533484D01*
X15193634Y-14533484D02*
X15174586Y-14523960D01*
X15174586Y-14523960D02*
X15165063Y-14514436D01*
X15165063Y-14514436D02*
X15155539Y-14495388D01*
X15155539Y-14495388D02*
X15146015Y-14457293D01*
X15146015Y-14457293D02*
X15146015Y-14409674D01*
X15146015Y-14409674D02*
X15155539Y-14371579D01*
X15155539Y-14371579D02*
X15165063Y-14352531D01*
X15165063Y-14352531D02*
X15174586Y-14343008D01*
X15174586Y-14343008D02*
X15193634Y-14333484D01*
X15346015Y-14514436D02*
X15355539Y-14523960D01*
X15355539Y-14523960D02*
X15346015Y-14533484D01*
X15346015Y-14533484D02*
X15336491Y-14523960D01*
X15336491Y-14523960D02*
X15346015Y-14514436D01*
X15346015Y-14514436D02*
X15346015Y-14533484D01*
X15479348Y-14333484D02*
X15498396Y-14333484D01*
X15498396Y-14333484D02*
X15517444Y-14343008D01*
X15517444Y-14343008D02*
X15526967Y-14352531D01*
X15526967Y-14352531D02*
X15536491Y-14371579D01*
X15536491Y-14371579D02*
X15546015Y-14409674D01*
X15546015Y-14409674D02*
X15546015Y-14457293D01*
X15546015Y-14457293D02*
X15536491Y-14495388D01*
X15536491Y-14495388D02*
X15526967Y-14514436D01*
X15526967Y-14514436D02*
X15517444Y-14523960D01*
X15517444Y-14523960D02*
X15498396Y-14533484D01*
X15498396Y-14533484D02*
X15479348Y-14533484D01*
X15479348Y-14533484D02*
X15460301Y-14523960D01*
X15460301Y-14523960D02*
X15450777Y-14514436D01*
X15450777Y-14514436D02*
X15441253Y-14495388D01*
X15441253Y-14495388D02*
X15431729Y-14457293D01*
X15431729Y-14457293D02*
X15431729Y-14409674D01*
X15431729Y-14409674D02*
X15441253Y-14371579D01*
X15441253Y-14371579D02*
X15450777Y-14352531D01*
X15450777Y-14352531D02*
X15460301Y-14343008D01*
X15460301Y-14343008D02*
X15479348Y-14333484D01*
X15612682Y-14333484D02*
X15736491Y-14333484D01*
X15736491Y-14333484D02*
X15669825Y-14409674D01*
X15669825Y-14409674D02*
X15698396Y-14409674D01*
X15698396Y-14409674D02*
X15717444Y-14419198D01*
X15717444Y-14419198D02*
X15726967Y-14428722D01*
X15726967Y-14428722D02*
X15736491Y-14447769D01*
X15736491Y-14447769D02*
X15736491Y-14495388D01*
X15736491Y-14495388D02*
X15726967Y-14514436D01*
X15726967Y-14514436D02*
X15717444Y-14523960D01*
X15717444Y-14523960D02*
X15698396Y-14533484D01*
X15698396Y-14533484D02*
X15641253Y-14533484D01*
X15641253Y-14533484D02*
X15622206Y-14523960D01*
X15622206Y-14523960D02*
X15612682Y-14514436D01*
X15831729Y-14533484D02*
X15869825Y-14533484D01*
X15869825Y-14533484D02*
X15888872Y-14523960D01*
X15888872Y-14523960D02*
X15898396Y-14514436D01*
X15898396Y-14514436D02*
X15917444Y-14485865D01*
X15917444Y-14485865D02*
X15926967Y-14447769D01*
X15926967Y-14447769D02*
X15926967Y-14371579D01*
X15926967Y-14371579D02*
X15917444Y-14352531D01*
X15917444Y-14352531D02*
X15907920Y-14343008D01*
X15907920Y-14343008D02*
X15888872Y-14333484D01*
X15888872Y-14333484D02*
X15850777Y-14333484D01*
X15850777Y-14333484D02*
X15831729Y-14343008D01*
X15831729Y-14343008D02*
X15822206Y-14352531D01*
X15822206Y-14352531D02*
X15812682Y-14371579D01*
X15812682Y-14371579D02*
X15812682Y-14419198D01*
X15812682Y-14419198D02*
X15822206Y-14438246D01*
X15822206Y-14438246D02*
X15831729Y-14447769D01*
X15831729Y-14447769D02*
X15850777Y-14457293D01*
X15850777Y-14457293D02*
X15888872Y-14457293D01*
X15888872Y-14457293D02*
X15907920Y-14447769D01*
X15907920Y-14447769D02*
X15917444Y-14438246D01*
X15917444Y-14438246D02*
X15926967Y-14419198D01*
X16098396Y-14400150D02*
X16098396Y-14533484D01*
X16050777Y-14323960D02*
X16003158Y-14466817D01*
X16003158Y-14466817D02*
X16126967Y-14466817D01*
X16193634Y-14333484D02*
X16193634Y-14371579D01*
X16269825Y-14333484D02*
X16269825Y-14371579D01*
X16565063Y-14609674D02*
X16555539Y-14600150D01*
X16555539Y-14600150D02*
X16536491Y-14571579D01*
X16536491Y-14571579D02*
X16526968Y-14552531D01*
X16526968Y-14552531D02*
X16517444Y-14523960D01*
X16517444Y-14523960D02*
X16507920Y-14476341D01*
X16507920Y-14476341D02*
X16507920Y-14438246D01*
X16507920Y-14438246D02*
X16517444Y-14390627D01*
X16517444Y-14390627D02*
X16526968Y-14362055D01*
X16526968Y-14362055D02*
X16536491Y-14343008D01*
X16536491Y-14343008D02*
X16555539Y-14314436D01*
X16555539Y-14314436D02*
X16565063Y-14304912D01*
X16746015Y-14533484D02*
X16631729Y-14533484D01*
X16688872Y-14533484D02*
X16688872Y-14333484D01*
X16688872Y-14333484D02*
X16669825Y-14362055D01*
X16669825Y-14362055D02*
X16650777Y-14381103D01*
X16650777Y-14381103D02*
X16631729Y-14390627D01*
X16926968Y-14333484D02*
X16831730Y-14333484D01*
X16831730Y-14333484D02*
X16822206Y-14428722D01*
X16822206Y-14428722D02*
X16831730Y-14419198D01*
X16831730Y-14419198D02*
X16850777Y-14409674D01*
X16850777Y-14409674D02*
X16898396Y-14409674D01*
X16898396Y-14409674D02*
X16917444Y-14419198D01*
X16917444Y-14419198D02*
X16926968Y-14428722D01*
X16926968Y-14428722D02*
X16936491Y-14447769D01*
X16936491Y-14447769D02*
X16936491Y-14495388D01*
X16936491Y-14495388D02*
X16926968Y-14514436D01*
X16926968Y-14514436D02*
X16917444Y-14523960D01*
X16917444Y-14523960D02*
X16898396Y-14533484D01*
X16898396Y-14533484D02*
X16850777Y-14533484D01*
X16850777Y-14533484D02*
X16831730Y-14523960D01*
X16831730Y-14523960D02*
X16822206Y-14514436D01*
X17174587Y-14533484D02*
X17174587Y-14333484D01*
X17260301Y-14533484D02*
X17260301Y-14428722D01*
X17260301Y-14428722D02*
X17250777Y-14409674D01*
X17250777Y-14409674D02*
X17231730Y-14400150D01*
X17231730Y-14400150D02*
X17203158Y-14400150D01*
X17203158Y-14400150D02*
X17184111Y-14409674D01*
X17184111Y-14409674D02*
X17174587Y-14419198D01*
X17384111Y-14533484D02*
X17365063Y-14523960D01*
X17365063Y-14523960D02*
X17355539Y-14514436D01*
X17355539Y-14514436D02*
X17346015Y-14495388D01*
X17346015Y-14495388D02*
X17346015Y-14438246D01*
X17346015Y-14438246D02*
X17355539Y-14419198D01*
X17355539Y-14419198D02*
X17365063Y-14409674D01*
X17365063Y-14409674D02*
X17384111Y-14400150D01*
X17384111Y-14400150D02*
X17412682Y-14400150D01*
X17412682Y-14400150D02*
X17431730Y-14409674D01*
X17431730Y-14409674D02*
X17441253Y-14419198D01*
X17441253Y-14419198D02*
X17450777Y-14438246D01*
X17450777Y-14438246D02*
X17450777Y-14495388D01*
X17450777Y-14495388D02*
X17441253Y-14514436D01*
X17441253Y-14514436D02*
X17431730Y-14523960D01*
X17431730Y-14523960D02*
X17412682Y-14533484D01*
X17412682Y-14533484D02*
X17384111Y-14533484D01*
X17565063Y-14533484D02*
X17546015Y-14523960D01*
X17546015Y-14523960D02*
X17536492Y-14504912D01*
X17536492Y-14504912D02*
X17536492Y-14333484D01*
X17717444Y-14523960D02*
X17698396Y-14533484D01*
X17698396Y-14533484D02*
X17660301Y-14533484D01*
X17660301Y-14533484D02*
X17641253Y-14523960D01*
X17641253Y-14523960D02*
X17631730Y-14504912D01*
X17631730Y-14504912D02*
X17631730Y-14428722D01*
X17631730Y-14428722D02*
X17641253Y-14409674D01*
X17641253Y-14409674D02*
X17660301Y-14400150D01*
X17660301Y-14400150D02*
X17698396Y-14400150D01*
X17698396Y-14400150D02*
X17717444Y-14409674D01*
X17717444Y-14409674D02*
X17726968Y-14428722D01*
X17726968Y-14428722D02*
X17726968Y-14447769D01*
X17726968Y-14447769D02*
X17631730Y-14466817D01*
X17803158Y-14523960D02*
X17822206Y-14533484D01*
X17822206Y-14533484D02*
X17860301Y-14533484D01*
X17860301Y-14533484D02*
X17879349Y-14523960D01*
X17879349Y-14523960D02*
X17888873Y-14504912D01*
X17888873Y-14504912D02*
X17888873Y-14495388D01*
X17888873Y-14495388D02*
X17879349Y-14476341D01*
X17879349Y-14476341D02*
X17860301Y-14466817D01*
X17860301Y-14466817D02*
X17831730Y-14466817D01*
X17831730Y-14466817D02*
X17812682Y-14457293D01*
X17812682Y-14457293D02*
X17803158Y-14438246D01*
X17803158Y-14438246D02*
X17803158Y-14428722D01*
X17803158Y-14428722D02*
X17812682Y-14409674D01*
X17812682Y-14409674D02*
X17831730Y-14400150D01*
X17831730Y-14400150D02*
X17860301Y-14400150D01*
X17860301Y-14400150D02*
X17879349Y-14409674D01*
X17955539Y-14609674D02*
X17965063Y-14600150D01*
X17965063Y-14600150D02*
X17984111Y-14571579D01*
X17984111Y-14571579D02*
X17993634Y-14552531D01*
X17993634Y-14552531D02*
X18003158Y-14523960D01*
X18003158Y-14523960D02*
X18012682Y-14476341D01*
X18012682Y-14476341D02*
X18012682Y-14438246D01*
X18012682Y-14438246D02*
X18003158Y-14390627D01*
X18003158Y-14390627D02*
X17993634Y-14362055D01*
X17993634Y-14362055D02*
X17984111Y-14343008D01*
X17984111Y-14343008D02*
X17965063Y-14314436D01*
X17965063Y-14314436D02*
X17955539Y-14304912D01*
D12*
X12917500Y-14778500D02*
X12990000Y-14706000D01*
X12917500Y-14633500D01*
X12845000Y-14706000D01*
X12917500Y-14778500D01*
D10*
X13355539Y-14797484D02*
X13241253Y-14797484D01*
X13298396Y-14797484D02*
X13298396Y-14597484D01*
X13298396Y-14597484D02*
X13279348Y-14626055D01*
X13279348Y-14626055D02*
X13260301Y-14645103D01*
X13260301Y-14645103D02*
X13241253Y-14654627D01*
X13441253Y-14778436D02*
X13450777Y-14787960D01*
X13450777Y-14787960D02*
X13441253Y-14797484D01*
X13441253Y-14797484D02*
X13431729Y-14787960D01*
X13431729Y-14787960D02*
X13441253Y-14778436D01*
X13441253Y-14778436D02*
X13441253Y-14797484D01*
X13622205Y-14664150D02*
X13622205Y-14797484D01*
X13574586Y-14587960D02*
X13526967Y-14730817D01*
X13526967Y-14730817D02*
X13650777Y-14730817D01*
X13822205Y-14597484D02*
X13726967Y-14597484D01*
X13726967Y-14597484D02*
X13717443Y-14692722D01*
X13717443Y-14692722D02*
X13726967Y-14683198D01*
X13726967Y-14683198D02*
X13746015Y-14673674D01*
X13746015Y-14673674D02*
X13793634Y-14673674D01*
X13793634Y-14673674D02*
X13812682Y-14683198D01*
X13812682Y-14683198D02*
X13822205Y-14692722D01*
X13822205Y-14692722D02*
X13831729Y-14711769D01*
X13831729Y-14711769D02*
X13831729Y-14759388D01*
X13831729Y-14759388D02*
X13822205Y-14778436D01*
X13822205Y-14778436D02*
X13812682Y-14787960D01*
X13812682Y-14787960D02*
X13793634Y-14797484D01*
X13793634Y-14797484D02*
X13746015Y-14797484D01*
X13746015Y-14797484D02*
X13726967Y-14787960D01*
X13726967Y-14787960D02*
X13717443Y-14778436D01*
X13955539Y-14597484D02*
X13974586Y-14597484D01*
X13974586Y-14597484D02*
X13993634Y-14607008D01*
X13993634Y-14607008D02*
X14003158Y-14616531D01*
X14003158Y-14616531D02*
X14012682Y-14635579D01*
X14012682Y-14635579D02*
X14022205Y-14673674D01*
X14022205Y-14673674D02*
X14022205Y-14721293D01*
X14022205Y-14721293D02*
X14012682Y-14759388D01*
X14012682Y-14759388D02*
X14003158Y-14778436D01*
X14003158Y-14778436D02*
X13993634Y-14787960D01*
X13993634Y-14787960D02*
X13974586Y-14797484D01*
X13974586Y-14797484D02*
X13955539Y-14797484D01*
X13955539Y-14797484D02*
X13936491Y-14787960D01*
X13936491Y-14787960D02*
X13926967Y-14778436D01*
X13926967Y-14778436D02*
X13917443Y-14759388D01*
X13917443Y-14759388D02*
X13907920Y-14721293D01*
X13907920Y-14721293D02*
X13907920Y-14673674D01*
X13907920Y-14673674D02*
X13917443Y-14635579D01*
X13917443Y-14635579D02*
X13926967Y-14616531D01*
X13926967Y-14616531D02*
X13936491Y-14607008D01*
X13936491Y-14607008D02*
X13955539Y-14597484D01*
X14107920Y-14797484D02*
X14107920Y-14664150D01*
X14107920Y-14683198D02*
X14117443Y-14673674D01*
X14117443Y-14673674D02*
X14136491Y-14664150D01*
X14136491Y-14664150D02*
X14165063Y-14664150D01*
X14165063Y-14664150D02*
X14184110Y-14673674D01*
X14184110Y-14673674D02*
X14193634Y-14692722D01*
X14193634Y-14692722D02*
X14193634Y-14797484D01*
X14193634Y-14692722D02*
X14203158Y-14673674D01*
X14203158Y-14673674D02*
X14222205Y-14664150D01*
X14222205Y-14664150D02*
X14250777Y-14664150D01*
X14250777Y-14664150D02*
X14269824Y-14673674D01*
X14269824Y-14673674D02*
X14279348Y-14692722D01*
X14279348Y-14692722D02*
X14279348Y-14797484D01*
X14374586Y-14797484D02*
X14374586Y-14664150D01*
X14374586Y-14683198D02*
X14384110Y-14673674D01*
X14384110Y-14673674D02*
X14403158Y-14664150D01*
X14403158Y-14664150D02*
X14431729Y-14664150D01*
X14431729Y-14664150D02*
X14450777Y-14673674D01*
X14450777Y-14673674D02*
X14460301Y-14692722D01*
X14460301Y-14692722D02*
X14460301Y-14797484D01*
X14460301Y-14692722D02*
X14469824Y-14673674D01*
X14469824Y-14673674D02*
X14488872Y-14664150D01*
X14488872Y-14664150D02*
X14517443Y-14664150D01*
X14517443Y-14664150D02*
X14536491Y-14673674D01*
X14536491Y-14673674D02*
X14546015Y-14692722D01*
X14546015Y-14692722D02*
X14546015Y-14797484D01*
X14936491Y-14587960D02*
X14765063Y-14845103D01*
X15193634Y-14597484D02*
X15212682Y-14597484D01*
X15212682Y-14597484D02*
X15231729Y-14607008D01*
X15231729Y-14607008D02*
X15241253Y-14616531D01*
X15241253Y-14616531D02*
X15250777Y-14635579D01*
X15250777Y-14635579D02*
X15260301Y-14673674D01*
X15260301Y-14673674D02*
X15260301Y-14721293D01*
X15260301Y-14721293D02*
X15250777Y-14759388D01*
X15250777Y-14759388D02*
X15241253Y-14778436D01*
X15241253Y-14778436D02*
X15231729Y-14787960D01*
X15231729Y-14787960D02*
X15212682Y-14797484D01*
X15212682Y-14797484D02*
X15193634Y-14797484D01*
X15193634Y-14797484D02*
X15174586Y-14787960D01*
X15174586Y-14787960D02*
X15165063Y-14778436D01*
X15165063Y-14778436D02*
X15155539Y-14759388D01*
X15155539Y-14759388D02*
X15146015Y-14721293D01*
X15146015Y-14721293D02*
X15146015Y-14673674D01*
X15146015Y-14673674D02*
X15155539Y-14635579D01*
X15155539Y-14635579D02*
X15165063Y-14616531D01*
X15165063Y-14616531D02*
X15174586Y-14607008D01*
X15174586Y-14607008D02*
X15193634Y-14597484D01*
X15346015Y-14778436D02*
X15355539Y-14787960D01*
X15355539Y-14787960D02*
X15346015Y-14797484D01*
X15346015Y-14797484D02*
X15336491Y-14787960D01*
X15336491Y-14787960D02*
X15346015Y-14778436D01*
X15346015Y-14778436D02*
X15346015Y-14797484D01*
X15479348Y-14597484D02*
X15498396Y-14597484D01*
X15498396Y-14597484D02*
X15517444Y-14607008D01*
X15517444Y-14607008D02*
X15526967Y-14616531D01*
X15526967Y-14616531D02*
X15536491Y-14635579D01*
X15536491Y-14635579D02*
X15546015Y-14673674D01*
X15546015Y-14673674D02*
X15546015Y-14721293D01*
X15546015Y-14721293D02*
X15536491Y-14759388D01*
X15536491Y-14759388D02*
X15526967Y-14778436D01*
X15526967Y-14778436D02*
X15517444Y-14787960D01*
X15517444Y-14787960D02*
X15498396Y-14797484D01*
X15498396Y-14797484D02*
X15479348Y-14797484D01*
X15479348Y-14797484D02*
X15460301Y-14787960D01*
X15460301Y-14787960D02*
X15450777Y-14778436D01*
X15450777Y-14778436D02*
X15441253Y-14759388D01*
X15441253Y-14759388D02*
X15431729Y-14721293D01*
X15431729Y-14721293D02*
X15431729Y-14673674D01*
X15431729Y-14673674D02*
X15441253Y-14635579D01*
X15441253Y-14635579D02*
X15450777Y-14616531D01*
X15450777Y-14616531D02*
X15460301Y-14607008D01*
X15460301Y-14607008D02*
X15479348Y-14597484D01*
X15726967Y-14597484D02*
X15631729Y-14597484D01*
X15631729Y-14597484D02*
X15622206Y-14692722D01*
X15622206Y-14692722D02*
X15631729Y-14683198D01*
X15631729Y-14683198D02*
X15650777Y-14673674D01*
X15650777Y-14673674D02*
X15698396Y-14673674D01*
X15698396Y-14673674D02*
X15717444Y-14683198D01*
X15717444Y-14683198D02*
X15726967Y-14692722D01*
X15726967Y-14692722D02*
X15736491Y-14711769D01*
X15736491Y-14711769D02*
X15736491Y-14759388D01*
X15736491Y-14759388D02*
X15726967Y-14778436D01*
X15726967Y-14778436D02*
X15717444Y-14787960D01*
X15717444Y-14787960D02*
X15698396Y-14797484D01*
X15698396Y-14797484D02*
X15650777Y-14797484D01*
X15650777Y-14797484D02*
X15631729Y-14787960D01*
X15631729Y-14787960D02*
X15622206Y-14778436D01*
X15803158Y-14597484D02*
X15936491Y-14597484D01*
X15936491Y-14597484D02*
X15850777Y-14797484D01*
X16117444Y-14797484D02*
X16003158Y-14797484D01*
X16060301Y-14797484D02*
X16060301Y-14597484D01*
X16060301Y-14597484D02*
X16041253Y-14626055D01*
X16041253Y-14626055D02*
X16022206Y-14645103D01*
X16022206Y-14645103D02*
X16003158Y-14654627D01*
X16193634Y-14597484D02*
X16193634Y-14635579D01*
X16269825Y-14597484D02*
X16269825Y-14635579D01*
X16565063Y-14873674D02*
X16555539Y-14864150D01*
X16555539Y-14864150D02*
X16536491Y-14835579D01*
X16536491Y-14835579D02*
X16526968Y-14816531D01*
X16526968Y-14816531D02*
X16517444Y-14787960D01*
X16517444Y-14787960D02*
X16507920Y-14740341D01*
X16507920Y-14740341D02*
X16507920Y-14702246D01*
X16507920Y-14702246D02*
X16517444Y-14654627D01*
X16517444Y-14654627D02*
X16526968Y-14626055D01*
X16526968Y-14626055D02*
X16536491Y-14607008D01*
X16536491Y-14607008D02*
X16555539Y-14578436D01*
X16555539Y-14578436D02*
X16565063Y-14568912D01*
X16746015Y-14797484D02*
X16631729Y-14797484D01*
X16688872Y-14797484D02*
X16688872Y-14597484D01*
X16688872Y-14597484D02*
X16669825Y-14626055D01*
X16669825Y-14626055D02*
X16650777Y-14645103D01*
X16650777Y-14645103D02*
X16631729Y-14654627D01*
X16869825Y-14597484D02*
X16888872Y-14597484D01*
X16888872Y-14597484D02*
X16907920Y-14607008D01*
X16907920Y-14607008D02*
X16917444Y-14616531D01*
X16917444Y-14616531D02*
X16926968Y-14635579D01*
X16926968Y-14635579D02*
X16936491Y-14673674D01*
X16936491Y-14673674D02*
X16936491Y-14721293D01*
X16936491Y-14721293D02*
X16926968Y-14759388D01*
X16926968Y-14759388D02*
X16917444Y-14778436D01*
X16917444Y-14778436D02*
X16907920Y-14787960D01*
X16907920Y-14787960D02*
X16888872Y-14797484D01*
X16888872Y-14797484D02*
X16869825Y-14797484D01*
X16869825Y-14797484D02*
X16850777Y-14787960D01*
X16850777Y-14787960D02*
X16841253Y-14778436D01*
X16841253Y-14778436D02*
X16831730Y-14759388D01*
X16831730Y-14759388D02*
X16822206Y-14721293D01*
X16822206Y-14721293D02*
X16822206Y-14673674D01*
X16822206Y-14673674D02*
X16831730Y-14635579D01*
X16831730Y-14635579D02*
X16841253Y-14616531D01*
X16841253Y-14616531D02*
X16850777Y-14607008D01*
X16850777Y-14607008D02*
X16869825Y-14597484D01*
X17174587Y-14797484D02*
X17174587Y-14597484D01*
X17260301Y-14797484D02*
X17260301Y-14692722D01*
X17260301Y-14692722D02*
X17250777Y-14673674D01*
X17250777Y-14673674D02*
X17231730Y-14664150D01*
X17231730Y-14664150D02*
X17203158Y-14664150D01*
X17203158Y-14664150D02*
X17184111Y-14673674D01*
X17184111Y-14673674D02*
X17174587Y-14683198D01*
X17384111Y-14797484D02*
X17365063Y-14787960D01*
X17365063Y-14787960D02*
X17355539Y-14778436D01*
X17355539Y-14778436D02*
X17346015Y-14759388D01*
X17346015Y-14759388D02*
X17346015Y-14702246D01*
X17346015Y-14702246D02*
X17355539Y-14683198D01*
X17355539Y-14683198D02*
X17365063Y-14673674D01*
X17365063Y-14673674D02*
X17384111Y-14664150D01*
X17384111Y-14664150D02*
X17412682Y-14664150D01*
X17412682Y-14664150D02*
X17431730Y-14673674D01*
X17431730Y-14673674D02*
X17441253Y-14683198D01*
X17441253Y-14683198D02*
X17450777Y-14702246D01*
X17450777Y-14702246D02*
X17450777Y-14759388D01*
X17450777Y-14759388D02*
X17441253Y-14778436D01*
X17441253Y-14778436D02*
X17431730Y-14787960D01*
X17431730Y-14787960D02*
X17412682Y-14797484D01*
X17412682Y-14797484D02*
X17384111Y-14797484D01*
X17565063Y-14797484D02*
X17546015Y-14787960D01*
X17546015Y-14787960D02*
X17536492Y-14768912D01*
X17536492Y-14768912D02*
X17536492Y-14597484D01*
X17717444Y-14787960D02*
X17698396Y-14797484D01*
X17698396Y-14797484D02*
X17660301Y-14797484D01*
X17660301Y-14797484D02*
X17641253Y-14787960D01*
X17641253Y-14787960D02*
X17631730Y-14768912D01*
X17631730Y-14768912D02*
X17631730Y-14692722D01*
X17631730Y-14692722D02*
X17641253Y-14673674D01*
X17641253Y-14673674D02*
X17660301Y-14664150D01*
X17660301Y-14664150D02*
X17698396Y-14664150D01*
X17698396Y-14664150D02*
X17717444Y-14673674D01*
X17717444Y-14673674D02*
X17726968Y-14692722D01*
X17726968Y-14692722D02*
X17726968Y-14711769D01*
X17726968Y-14711769D02*
X17631730Y-14730817D01*
X17803158Y-14787960D02*
X17822206Y-14797484D01*
X17822206Y-14797484D02*
X17860301Y-14797484D01*
X17860301Y-14797484D02*
X17879349Y-14787960D01*
X17879349Y-14787960D02*
X17888873Y-14768912D01*
X17888873Y-14768912D02*
X17888873Y-14759388D01*
X17888873Y-14759388D02*
X17879349Y-14740341D01*
X17879349Y-14740341D02*
X17860301Y-14730817D01*
X17860301Y-14730817D02*
X17831730Y-14730817D01*
X17831730Y-14730817D02*
X17812682Y-14721293D01*
X17812682Y-14721293D02*
X17803158Y-14702246D01*
X17803158Y-14702246D02*
X17803158Y-14692722D01*
X17803158Y-14692722D02*
X17812682Y-14673674D01*
X17812682Y-14673674D02*
X17831730Y-14664150D01*
X17831730Y-14664150D02*
X17860301Y-14664150D01*
X17860301Y-14664150D02*
X17879349Y-14673674D01*
X17955539Y-14873674D02*
X17965063Y-14864150D01*
X17965063Y-14864150D02*
X17984111Y-14835579D01*
X17984111Y-14835579D02*
X17993634Y-14816531D01*
X17993634Y-14816531D02*
X18003158Y-14787960D01*
X18003158Y-14787960D02*
X18012682Y-14740341D01*
X18012682Y-14740341D02*
X18012682Y-14702246D01*
X18012682Y-14702246D02*
X18003158Y-14654627D01*
X18003158Y-14654627D02*
X17993634Y-14626055D01*
X17993634Y-14626055D02*
X17984111Y-14607008D01*
X17984111Y-14607008D02*
X17965063Y-14578436D01*
X17965063Y-14578436D02*
X17955539Y-14568912D01*
M02*
