G04 #@! TF.GenerationSoftware,KiCad,Pcbnew,10.0.4*
G04 #@! TF.CreationDate,2026-07-21T16:58:56+03:00*
G04 #@! TF.ProjectId,smartlada_revA,736d6172-746c-4616-9461-5f726576412e,rev?*
G04 #@! TF.SameCoordinates,Original*
G04 #@! TF.FileFunction,Copper,L1,Top*
G04 #@! TF.FilePolarity,Positive*
%FSLAX46Y46*%
G04 Gerber Fmt 4.6, Leading zero omitted, Abs format (unit mm)*
G04 Created by KiCad (PCBNEW 10.0.4) date 2026-07-21 16:58:56*
%MOMM*%
%LPD*%
G01*
G04 APERTURE LIST*
G04 Aperture macros list*
%AMRoundRect*
0 Rectangle with rounded corners*
0 $1 Rounding radius*
0 $2 $3 $4 $5 $6 $7 $8 $9 X,Y pos of 4 corners*
0 Add a 4 corners polygon primitive as box body*
4,1,4,$2,$3,$4,$5,$6,$7,$8,$9,$2,$3,0*
0 Add four circle primitives for the rounded corners*
1,1,$1+$1,$2,$3*
1,1,$1+$1,$4,$5*
1,1,$1+$1,$6,$7*
1,1,$1+$1,$8,$9*
0 Add four rect primitives between the rounded corners*
20,1,$1+$1,$2,$3,$4,$5,0*
20,1,$1+$1,$4,$5,$6,$7,0*
20,1,$1+$1,$6,$7,$8,$9,0*
20,1,$1+$1,$8,$9,$2,$3,0*%
G04 Aperture macros list end*
G04 #@! TA.AperFunction,ComponentPad*
%ADD10R,1.700000X1.700000*%
G04 #@! TD*
G04 #@! TA.AperFunction,ComponentPad*
%ADD11C,1.700000*%
G04 #@! TD*
G04 #@! TA.AperFunction,SMDPad,CuDef*
%ADD12RoundRect,0.250000X-0.350000X-0.450000X0.350000X-0.450000X0.350000X0.450000X-0.350000X0.450000X0*%
G04 #@! TD*
G04 #@! TA.AperFunction,ComponentPad*
%ADD13RoundRect,0.250000X0.550000X-0.550000X0.550000X0.550000X-0.550000X0.550000X-0.550000X-0.550000X0*%
G04 #@! TD*
G04 #@! TA.AperFunction,ComponentPad*
%ADD14C,1.600000*%
G04 #@! TD*
G04 #@! TA.AperFunction,SMDPad,CuDef*
%ADD15RoundRect,0.250000X0.450000X-0.350000X0.450000X0.350000X-0.450000X0.350000X-0.450000X-0.350000X0*%
G04 #@! TD*
G04 #@! TA.AperFunction,SMDPad,CuDef*
%ADD16R,0.558800X1.447800*%
G04 #@! TD*
G04 #@! TA.AperFunction,SMDPad,CuDef*
%ADD17RoundRect,0.250000X-0.450000X0.350000X-0.450000X-0.350000X0.450000X-0.350000X0.450000X0.350000X0*%
G04 #@! TD*
G04 #@! TA.AperFunction,SMDPad,CuDef*
%ADD18R,2.743200X0.939800*%
G04 #@! TD*
G04 #@! TA.AperFunction,SMDPad,CuDef*
%ADD19R,6.096000X5.562600*%
G04 #@! TD*
G04 #@! TA.AperFunction,ComponentPad*
%ADD20RoundRect,0.249999X-0.850001X0.850001X-0.850001X-0.850001X0.850001X-0.850001X0.850001X0.850001X0*%
G04 #@! TD*
G04 #@! TA.AperFunction,ComponentPad*
%ADD21C,2.200000*%
G04 #@! TD*
G04 #@! TA.AperFunction,SMDPad,CuDef*
%ADD22R,2.692400X1.244600*%
G04 #@! TD*
G04 #@! TA.AperFunction,SMDPad,CuDef*
%ADD23RoundRect,0.250000X0.650000X-1.000000X0.650000X1.000000X-0.650000X1.000000X-0.650000X-1.000000X0*%
G04 #@! TD*
G04 #@! TA.AperFunction,SMDPad,CuDef*
%ADD24R,7.289800X2.641600*%
G04 #@! TD*
G04 #@! TA.AperFunction,SMDPad,CuDef*
%ADD25R,0.939800X2.743200*%
G04 #@! TD*
G04 #@! TA.AperFunction,SMDPad,CuDef*
%ADD26R,5.562600X6.096000*%
G04 #@! TD*
G04 #@! TA.AperFunction,SMDPad,CuDef*
%ADD27RoundRect,0.250000X0.475000X-0.337500X0.475000X0.337500X-0.475000X0.337500X-0.475000X-0.337500X0*%
G04 #@! TD*
G04 #@! TA.AperFunction,SMDPad,CuDef*
%ADD28RoundRect,0.237500X0.300000X0.237500X-0.300000X0.237500X-0.300000X-0.237500X0.300000X-0.237500X0*%
G04 #@! TD*
G04 #@! TA.AperFunction,ComponentPad*
%ADD29C,3.000000*%
G04 #@! TD*
G04 #@! TA.AperFunction,ComponentPad*
%ADD30RoundRect,0.250000X-1.150000X1.150000X-1.150000X-1.150000X1.150000X-1.150000X1.150000X1.150000X0*%
G04 #@! TD*
G04 #@! TA.AperFunction,ComponentPad*
%ADD31C,2.800000*%
G04 #@! TD*
G04 #@! TA.AperFunction,SMDPad,CuDef*
%ADD32RoundRect,0.150000X-0.512500X-0.150000X0.512500X-0.150000X0.512500X0.150000X-0.512500X0.150000X0*%
G04 #@! TD*
G04 #@! TA.AperFunction,ViaPad*
%ADD33C,0.800000*%
G04 #@! TD*
G04 #@! TA.AperFunction,ViaPad*
%ADD34C,1.500000*%
G04 #@! TD*
G04 #@! TA.AperFunction,ViaPad*
%ADD35C,1.000000*%
G04 #@! TD*
G04 #@! TA.AperFunction,Conductor*
%ADD36C,1.000000*%
G04 #@! TD*
G04 #@! TA.AperFunction,Conductor*
%ADD37C,0.500000*%
G04 #@! TD*
G04 #@! TA.AperFunction,Conductor*
%ADD38C,1.500000*%
G04 #@! TD*
G04 #@! TA.AperFunction,Conductor*
%ADD39C,0.300000*%
G04 #@! TD*
G04 APERTURE END LIST*
D10*
G04 #@! TO.P,J3,1,Pin_1_1*
G04 #@! TO.N,/+5V_DEV*
X144250000Y-81670000D03*
D11*
G04 #@! TO.P,J3,2,Pin_2_2*
G04 #@! TO.N,GND*
X144250000Y-84210000D03*
G04 #@! TO.P,J3,3,Pin_3_3*
G04 #@! TO.N,/CH0_IN*
X144250000Y-86750000D03*
G04 #@! TO.P,J3,4,Pin_4_4*
G04 #@! TO.N,/CH1_IN*
X144250000Y-89290000D03*
G04 #@! TO.P,J3,5,Pin_5_5*
G04 #@! TO.N,/CH2_IN*
X144250000Y-91830000D03*
G04 #@! TO.P,J3,6,Pin_6_6*
G04 #@! TO.N,/CH3_IN*
X144250000Y-94370000D03*
G04 #@! TO.P,J3,7,Pin_7_7*
G04 #@! TO.N,GND*
X144250000Y-96910000D03*
G04 #@! TO.P,J3,8,Pin_8_8*
G04 #@! TO.N,unconnected-(J3-Pin_8-Pad8)*
X144250000Y-99450000D03*
G04 #@! TD*
D12*
G04 #@! TO.P,Rg3,1*
G04 #@! TO.N,Net-(Q3-G)*
X136717500Y-90000000D03*
G04 #@! TO.P,Rg3,2*
G04 #@! TO.N,/CH2_IN*
X138717500Y-90000000D03*
G04 #@! TD*
D13*
G04 #@! TO.P,C1,1*
G04 #@! TO.N,+12V*
X121250000Y-56250000D03*
D14*
G04 #@! TO.P,C1,2*
G04 #@! TO.N,GND*
X121250000Y-53750000D03*
G04 #@! TD*
D15*
G04 #@! TO.P,Rpd1,1*
G04 #@! TO.N,Net-(Q1-G)*
X132467500Y-71750000D03*
G04 #@! TO.P,Rpd1,2*
G04 #@! TO.N,GND*
X132467500Y-69750000D03*
G04 #@! TD*
G04 #@! TO.P,Rpd4,1*
G04 #@! TO.N,Net-(Q4-G)*
X132467500Y-99000000D03*
G04 #@! TO.P,Rpd4,2*
G04 #@! TO.N,GND*
X132467500Y-97000000D03*
G04 #@! TD*
D12*
G04 #@! TO.P,R1,1*
G04 #@! TO.N,GND*
X99750000Y-73000000D03*
G04 #@! TO.P,R1,2*
G04 #@! TO.N,Net-(Q5-G)*
X101750000Y-73000000D03*
G04 #@! TD*
D16*
G04 #@! TO.P,C7,1*
G04 #@! TO.N,GND*
X146431100Y-66750000D03*
G04 #@! TO.P,C7,2*
G04 #@! TO.N,/+5V_SW*
X144068900Y-66750000D03*
G04 #@! TD*
D17*
G04 #@! TO.P,R3,1*
G04 #@! TO.N,GND*
X143800000Y-53600000D03*
G04 #@! TO.P,R3,2*
G04 #@! TO.N,Net-(U1-FB)*
X143800000Y-55600000D03*
G04 #@! TD*
D15*
G04 #@! TO.P,R2,1*
G04 #@! TO.N,/+5V_SW*
X143800000Y-59700000D03*
G04 #@! TO.P,R2,2*
G04 #@! TO.N,Net-(U1-FB)*
X143800000Y-57700000D03*
G04 #@! TD*
D18*
G04 #@! TO.P,Q2,1,G_1*
G04 #@! TO.N,Net-(Q2-G)*
X126064200Y-82286000D03*
D19*
G04 #@! TO.P,Q2,2,D_2*
G04 #@! TO.N,/LAMP1*
X119282400Y-80000000D03*
D18*
G04 #@! TO.P,Q2,3,S_3*
G04 #@! TO.N,GND*
X126064200Y-77714000D03*
G04 #@! TD*
D12*
G04 #@! TO.P,Rg1,1*
G04 #@! TO.N,Net-(Q1-G)*
X136717500Y-71750000D03*
G04 #@! TO.P,Rg1,2*
G04 #@! TO.N,/CH0_IN*
X138717500Y-71750000D03*
G04 #@! TD*
D15*
G04 #@! TO.P,Rpd2,1*
G04 #@! TO.N,Net-(Q2-G)*
X132467500Y-81000000D03*
G04 #@! TO.P,Rpd2,2*
G04 #@! TO.N,GND*
X132467500Y-79000000D03*
G04 #@! TD*
D20*
G04 #@! TO.P,J2,1,Pin_1_1*
G04 #@! TO.N,+12V*
X104800000Y-83300000D03*
D21*
G04 #@! TO.P,J2,2,Pin_2_2*
G04 #@! TO.N,/LAMP0*
X104800000Y-85840000D03*
G04 #@! TO.P,J2,3,Pin_3_3*
G04 #@! TO.N,/LAMP1*
X104800000Y-88380000D03*
G04 #@! TO.P,J2,4,Pin_4_4*
G04 #@! TO.N,/LAMP2*
X104800000Y-90920000D03*
G04 #@! TO.P,J2,5,Pin_5_5*
G04 #@! TO.N,/LAMP3*
X104800000Y-93460000D03*
G04 #@! TD*
D12*
G04 #@! TO.P,Rg2,1*
G04 #@! TO.N,Net-(Q2-G)*
X136717500Y-81000000D03*
G04 #@! TO.P,Rg2,2*
G04 #@! TO.N,/CH1_IN*
X138717500Y-81000000D03*
G04 #@! TD*
D22*
G04 #@! TO.P,C4,1*
G04 #@! TO.N,+12V*
X135000000Y-56053520D03*
G04 #@! TO.P,C4,2*
G04 #@! TO.N,GND*
X135000000Y-53081720D03*
G04 #@! TD*
G04 #@! TO.P,C3,1*
G04 #@! TO.N,+12V*
X131000000Y-56053520D03*
G04 #@! TO.P,C3,2*
G04 #@! TO.N,GND*
X131000000Y-53081720D03*
G04 #@! TD*
D18*
G04 #@! TO.P,Q3,1,G_1*
G04 #@! TO.N,Net-(Q3-G)*
X126064200Y-91286000D03*
D19*
G04 #@! TO.P,Q3,2,D_2*
G04 #@! TO.N,/LAMP2*
X119282400Y-89000000D03*
D18*
G04 #@! TO.P,Q3,3,S_3*
G04 #@! TO.N,GND*
X126064200Y-86714000D03*
G04 #@! TD*
D15*
G04 #@! TO.P,Rpd3,1*
G04 #@! TO.N,Net-(Q3-G)*
X132467500Y-90000000D03*
G04 #@! TO.P,Rpd3,2*
G04 #@! TO.N,GND*
X132467500Y-88000000D03*
G04 #@! TD*
D16*
G04 #@! TO.P,C6,1*
G04 #@! TO.N,GND*
X146431100Y-64250000D03*
G04 #@! TO.P,C6,2*
G04 #@! TO.N,/+5V_SW*
X144068900Y-64250000D03*
G04 #@! TD*
D18*
G04 #@! TO.P,Q1,1,G_1*
G04 #@! TO.N,Net-(Q1-G)*
X126064200Y-73286000D03*
D19*
G04 #@! TO.P,Q1,2,D_2*
G04 #@! TO.N,/LAMP0*
X119282400Y-71000000D03*
D18*
G04 #@! TO.P,Q1,3,S_3*
G04 #@! TO.N,GND*
X126064200Y-68714000D03*
G04 #@! TD*
D23*
G04 #@! TO.P,D1,1,K_1*
G04 #@! TO.N,/+5V_DEV*
X144250000Y-75500000D03*
G04 #@! TO.P,D1,2,A_2*
G04 #@! TO.N,/+5V_SW*
X144250000Y-71500000D03*
G04 #@! TD*
D12*
G04 #@! TO.P,Rg4,1*
G04 #@! TO.N,Net-(Q4-G)*
X136717500Y-99000000D03*
G04 #@! TO.P,Rg4,2*
G04 #@! TO.N,/CH3_IN*
X138717500Y-99000000D03*
G04 #@! TD*
D24*
G04 #@! TO.P,L1,1,1_1*
G04 #@! TO.N,/+5V_SW*
X137250000Y-65324100D03*
G04 #@! TO.P,L1,2,2_2*
G04 #@! TO.N,Net-(U1-SW)*
X137250000Y-60675900D03*
G04 #@! TD*
D25*
G04 #@! TO.P,Q5,1,G_1*
G04 #@! TO.N,Net-(Q5-G)*
X103928000Y-69750000D03*
D26*
G04 #@! TO.P,Q5,2,D_2*
G04 #@! TO.N,/+12V_FUSED*
X106214000Y-62968200D03*
D25*
G04 #@! TO.P,Q5,3,S_3*
G04 #@! TO.N,+12V*
X108500000Y-69750000D03*
G04 #@! TD*
D27*
G04 #@! TO.P,C2,1*
G04 #@! TO.N,+12V*
X127250000Y-55605120D03*
G04 #@! TO.P,C2,2*
G04 #@! TO.N,GND*
X127250000Y-53530120D03*
G04 #@! TD*
D28*
G04 #@! TO.P,C5,1*
G04 #@! TO.N,Net-(U1-BOOT)*
X140612500Y-51100000D03*
G04 #@! TO.P,C5,2*
G04 #@! TO.N,Net-(U1-SW)*
X138887500Y-51100000D03*
G04 #@! TD*
D18*
G04 #@! TO.P,Q4,1,G_1*
G04 #@! TO.N,Net-(Q4-G)*
X126064200Y-100286000D03*
D19*
G04 #@! TO.P,Q4,2,D_2*
G04 #@! TO.N,/LAMP3*
X119282400Y-98000000D03*
D18*
G04 #@! TO.P,Q4,3,S_3*
G04 #@! TO.N,GND*
X126064200Y-95714000D03*
G04 #@! TD*
D29*
G04 #@! TO.P,F1,1*
G04 #@! TO.N,/+12V_IN*
X92000000Y-52317620D03*
G04 #@! TO.P,F1,2*
G04 #@! TO.N,/+12V_FUSED*
X114500000Y-52317620D03*
G04 #@! TD*
D30*
G04 #@! TO.P,J1,1,Pin_1_1*
G04 #@! TO.N,/+12V_IN*
X94000000Y-63250000D03*
D31*
G04 #@! TO.P,J1,2,Pin_2_2*
G04 #@! TO.N,GND*
X94000000Y-68250000D03*
G04 #@! TD*
D32*
G04 #@! TO.P,U1,1,GND_1*
G04 #@! TO.N,GND*
X138362500Y-53702861D03*
G04 #@! TO.P,U1,2,SW_2*
G04 #@! TO.N,Net-(U1-SW)*
X138362500Y-54652861D03*
G04 #@! TO.P,U1,3,VIN_3*
G04 #@! TO.N,+12V*
X138362500Y-55602861D03*
G04 #@! TO.P,U1,4,FB_4*
G04 #@! TO.N,Net-(U1-FB)*
X140637500Y-55602861D03*
G04 #@! TO.P,U1,5,EN_5*
G04 #@! TO.N,unconnected-(U1-EN-Pad5)*
X140637500Y-54652861D03*
G04 #@! TO.P,U1,6,BOOT_6*
G04 #@! TO.N,Net-(U1-BOOT)*
X140637500Y-53702861D03*
G04 #@! TD*
D33*
G04 #@! TO.N,GND*
X136999613Y-53300387D03*
D34*
X129400000Y-77729400D03*
X129400000Y-68714000D03*
X129362821Y-86714000D03*
X129362821Y-95714000D03*
D33*
X142200000Y-53600000D03*
D35*
X146500000Y-69200000D03*
X146500000Y-61700000D03*
G04 #@! TD*
G04 #@! TO.N,/+5V_DEV*
D36*
X144250000Y-75500000D02*
X144250000Y-81670000D01*
G04 #@! TO.N,GND*
X129300000Y-86714000D02*
X129362821Y-86714000D01*
D37*
X99750000Y-73000000D02*
X95765685Y-73000000D01*
X146431100Y-64250000D02*
X146431100Y-61768900D01*
X138362500Y-53702861D02*
X137739750Y-53702861D01*
X121250000Y-53750000D02*
X121200000Y-53700000D01*
D36*
X126064200Y-95714000D02*
X129362821Y-95714000D01*
X129400000Y-68714000D02*
X129700000Y-68714000D01*
D37*
X135000000Y-53081720D02*
X131000000Y-53081720D01*
X136240183Y-53081720D02*
X135000000Y-53081720D01*
X146431100Y-61768900D02*
X146500000Y-61700000D01*
X146431100Y-66750000D02*
X146431100Y-69131100D01*
X131000000Y-53081720D02*
X129406264Y-53081720D01*
D36*
X126064200Y-77714000D02*
X129362821Y-77714000D01*
D37*
X126719163Y-53750000D02*
X121250000Y-53750000D01*
X146431100Y-69131100D02*
X146500000Y-69200000D01*
D36*
X126064200Y-68714000D02*
X129400000Y-68714000D01*
D37*
X128323730Y-53530120D02*
X127250000Y-53530120D01*
X143800000Y-53600000D02*
X142200000Y-53600000D01*
D36*
X126064200Y-86714000D02*
X129200000Y-86714000D01*
X129200000Y-86714000D02*
X129300000Y-86714000D01*
D37*
X94000000Y-70668622D02*
X94000000Y-68250000D01*
D36*
X129700000Y-68714000D02*
X129966375Y-68714000D01*
D37*
X95765685Y-73000000D02*
G75*
G02*
X94800004Y-72599996I15J1365700D01*
G01*
X129406264Y-53081720D02*
G75*
G03*
X129000011Y-53250011I36J-574580D01*
G01*
D36*
X129362821Y-86714000D02*
G75*
G02*
X132467494Y-88000006I-21J-4390700D01*
G01*
D37*
X137250000Y-53500000D02*
G75*
G03*
X136240183Y-53081727I-1009800J-1009800D01*
G01*
X127250000Y-53530120D02*
G75*
G02*
X126719163Y-53749979I-530800J530820D01*
G01*
X137739750Y-53702861D02*
G75*
G02*
X137250015Y-53499985I50J692661D01*
G01*
X94800000Y-72600000D02*
G75*
G02*
X93999988Y-70668622I1931400J1931400D01*
G01*
D36*
X129966375Y-68714000D02*
G75*
G02*
X132467507Y-69749993I25J-3537100D01*
G01*
D37*
X129000000Y-53250000D02*
G75*
G02*
X128323730Y-53530133I-676300J676300D01*
G01*
D36*
X129400000Y-77729400D02*
G75*
G02*
X132467484Y-79000016I20100J-4289500D01*
G01*
X129362821Y-95714000D02*
G75*
G02*
X132467494Y-97000006I-21J-4390700D01*
G01*
G04 #@! TO.N,/CH0_IN*
X142300000Y-85800000D02*
X142542893Y-86042893D01*
X141000000Y-77260442D02*
X141000000Y-82661522D01*
X142542893Y-86042893D02*
G75*
G03*
X144250000Y-86750004I1707107J1707093D01*
G01*
X138717500Y-71750000D02*
G75*
G02*
X140999982Y-77260442I-5510400J-5510400D01*
G01*
X141000000Y-82661522D02*
G75*
G03*
X142300007Y-85799993I4438500J22D01*
G01*
G04 #@! TO.N,/CH1_IN*
X143148650Y-89290000D02*
X144250000Y-89290000D01*
X138717500Y-81000000D02*
X138717500Y-82889558D01*
X138717500Y-82889558D02*
G75*
G03*
X140999967Y-88400033I7793000J-42D01*
G01*
X141000000Y-88400000D02*
G75*
G03*
X143148650Y-89289979I2148600J2148600D01*
G01*
G04 #@! TO.N,/CH2_IN*
X140224021Y-90624022D02*
X140900000Y-91300000D01*
X142179533Y-91830000D02*
X144250000Y-91830000D01*
X140900000Y-91300000D02*
G75*
G03*
X142179533Y-91829986I1279500J1279500D01*
G01*
X138717500Y-90000000D02*
G75*
G02*
X140224012Y-90624031I0J-2130500D01*
G01*
G04 #@! TO.N,/CH3_IN*
X138717500Y-99000000D02*
X139800000Y-99000000D01*
X141300000Y-97500000D02*
X141300000Y-97320000D01*
X139800000Y-99000000D02*
G75*
G03*
X141300000Y-97500000I0J1500000D01*
G01*
X141300000Y-97320000D02*
G75*
G02*
X144250000Y-94370000I2950000J0D01*
G01*
G04 #@! TO.N,Net-(Q3-G)*
X126064200Y-91286000D02*
X129362821Y-91286000D01*
X132467500Y-90000000D02*
X136717500Y-90000000D01*
X129362821Y-91286000D02*
G75*
G03*
X132467494Y-89999994I-21J4390700D01*
G01*
G04 #@! TO.N,+12V*
D37*
X129312051Y-56053520D02*
X131000000Y-56053520D01*
X121250000Y-56250000D02*
X124696447Y-56250000D01*
X131000000Y-56053520D02*
X135000000Y-56053520D01*
X114000019Y-67499981D02*
X118421573Y-63078427D01*
X126253325Y-55605120D02*
X127250000Y-55605120D01*
X108500000Y-69750000D02*
X108568019Y-69750000D01*
D38*
X108500000Y-69750000D02*
X108500000Y-74367410D01*
D37*
X137717357Y-55602861D02*
X138362500Y-55602861D01*
X135000000Y-56053520D02*
X136629370Y-56053520D01*
X127250000Y-55605120D02*
X128229518Y-55605120D01*
X137000000Y-55900000D02*
G75*
G02*
X137717357Y-55602843I717400J-717400D01*
G01*
X124696447Y-56250000D02*
G75*
G03*
X125299986Y-55999986I-47J853600D01*
G01*
X128700000Y-55800000D02*
G75*
G03*
X129312051Y-56053540I612100J612100D01*
G01*
X118421573Y-63078427D02*
G75*
G03*
X121250016Y-56250000I-6828373J6828427D01*
G01*
X136629370Y-56053520D02*
G75*
G03*
X137000009Y-55900009I30J524120D01*
G01*
X128229518Y-55605120D02*
G75*
G02*
X128699995Y-55800005I-18J-665380D01*
G01*
X125300000Y-56000000D02*
G75*
G02*
X126253325Y-55605130I953300J-953300D01*
G01*
D38*
X108500000Y-74367410D02*
G75*
G02*
X104799997Y-83299997I-12632600J10D01*
G01*
D37*
X108568019Y-69750000D02*
G75*
G03*
X114000034Y-67499996I-19J7682100D01*
G01*
G04 #@! TO.N,Net-(Q1-G)*
D36*
X126064200Y-73286000D02*
X128759268Y-73286000D01*
X132467500Y-71750000D02*
X136717500Y-71750000D01*
X128759268Y-73286000D02*
G75*
G03*
X132467509Y-71750009I32J5244200D01*
G01*
G04 #@! TO.N,Net-(Q4-G)*
X126064200Y-100286000D02*
X129362821Y-100286000D01*
X132467500Y-99000000D02*
X136717500Y-99000000D01*
X129362821Y-100286000D02*
G75*
G03*
X132467494Y-98999994I-21J4390700D01*
G01*
G04 #@! TO.N,Net-(Q5-G)*
D37*
X101750000Y-73000000D02*
X103117157Y-73000000D01*
X103928000Y-72008138D02*
X103928000Y-69750000D01*
X103117157Y-73000000D02*
G75*
G03*
X103600013Y-72800013I43J682800D01*
G01*
X103600000Y-72800000D02*
G75*
G03*
X103928016Y-72008138I-791900J791900D01*
G01*
G04 #@! TO.N,/+5V_SW*
D36*
X143800000Y-70413604D02*
X143800000Y-65300000D01*
X143800000Y-65300000D02*
X143800000Y-59700000D01*
X137250000Y-65324100D02*
X143741817Y-65324100D01*
X143741817Y-65324100D02*
G75*
G03*
X143799995Y-65299995I-17J82300D01*
G01*
X144250000Y-71500000D02*
G75*
G02*
X143799998Y-70413604I1086400J1086400D01*
G01*
G04 #@! TO.N,Net-(U1-FB)*
X143800000Y-55600000D02*
X143800000Y-57700000D01*
D37*
X143800000Y-55600000D02*
X140644407Y-55600000D01*
X140644407Y-55600000D02*
G75*
G03*
X140637490Y-55602851I-7J-9800D01*
G01*
G04 #@! TO.N,Net-(Q2-G)*
D36*
X126064200Y-82286000D02*
X129362821Y-82286000D01*
X132467500Y-81000000D02*
X136717500Y-81000000D01*
X129362821Y-82286000D02*
G75*
G03*
X132467494Y-80999994I-21J4390700D01*
G01*
G04 #@! TO.N,/LAMP1*
D38*
X106254172Y-88380000D02*
X104800000Y-88380000D01*
X119282400Y-80000000D02*
X118300000Y-80000000D01*
X117093207Y-80906794D02*
X112000000Y-86000000D01*
X119282400Y-80000000D02*
G75*
G03*
X117093204Y-80906791I0J-3096000D01*
G01*
X112000000Y-86000000D02*
G75*
G02*
X106254172Y-88379988I-5745800J5745800D01*
G01*
G04 #@! TO.N,/LAMP0*
X111900000Y-78382400D02*
X111900000Y-78740000D01*
X119282400Y-71000000D02*
G75*
G03*
X111900000Y-78382400I0J-7382400D01*
G01*
X111900000Y-78740000D02*
G75*
G02*
X104800000Y-85840000I-7100000J0D01*
G01*
G04 #@! TO.N,/LAMP2*
X117600000Y-87700000D02*
X116769848Y-87700000D01*
X108996081Y-90920000D02*
X104800000Y-90920000D01*
X118445584Y-89000000D02*
X119282400Y-89000000D01*
X118629603Y-88729602D02*
X117600000Y-87700000D01*
X111700000Y-89800000D02*
G75*
G02*
X108996081Y-90919992I-2703900J2703900D01*
G01*
X119282400Y-89000000D02*
G75*
G02*
X118629602Y-88729603I0J923200D01*
G01*
X116769848Y-87700000D02*
G75*
G03*
X111699986Y-89799986I-48J-7169800D01*
G01*
G04 #@! TO.N,/LAMP3*
X115556810Y-96456810D02*
X114600000Y-95500000D01*
X109675004Y-93460000D02*
X104800000Y-93460000D01*
X119282400Y-98000000D02*
G75*
G02*
X115556806Y-96456814I0J5268800D01*
G01*
X114600000Y-95500000D02*
G75*
G03*
X109675004Y-93459998I-4925000J-4925000D01*
G01*
G04 #@! TO.N,Net-(U1-SW)*
D37*
X139500000Y-54652861D02*
X139500000Y-52800000D01*
X138887500Y-52187500D02*
X138887500Y-51100000D01*
X139500000Y-52800000D02*
X138887500Y-52187500D01*
X138824100Y-60675900D02*
X137250000Y-60675900D01*
X138362500Y-54652861D02*
X139500000Y-54652861D01*
X139500000Y-54652861D02*
X139500000Y-60000000D01*
X139500000Y-60000000D02*
X138824100Y-60675900D01*
G04 #@! TO.N,/+12V_FUSED*
D38*
X114500000Y-52317620D02*
X114500000Y-57100000D01*
X108500000Y-63100000D02*
X110927328Y-63100000D01*
X114500000Y-57100000D02*
X114500000Y-59527328D01*
X114500000Y-59527328D02*
G75*
G02*
X110927328Y-63100000I-3572700J28D01*
G01*
G04 #@! TO.N,Net-(U1-BOOT)*
D37*
X140612500Y-53677861D02*
X140637500Y-53702861D01*
X140612500Y-51100000D02*
X140612500Y-53677861D01*
D39*
X140612500Y-53642506D02*
G75*
G03*
X140637494Y-53702867I85400J6D01*
G01*
G04 #@! TO.N,/+12V_IN*
D38*
X94000000Y-60048528D02*
X94000000Y-63250000D01*
X93400000Y-58600000D02*
X93041231Y-58241231D01*
X92000000Y-52317620D02*
X92000000Y-55220101D01*
X92000000Y-55220101D02*
X92000000Y-55727477D01*
X92000000Y-55727477D02*
G75*
G03*
X93041237Y-58241225I3554900J-23D01*
G01*
X93400000Y-58600000D02*
G75*
G02*
X93999988Y-60048528I-1448500J-1448500D01*
G01*
G04 #@! TD*
M02*
